0
SECTION
2
HEADER
9
$INSUNITS
70
4
9
$ACADVER
1
AC1014
9
$HANDSEED
5
FFFF
0
ENDSEC
0
SECTION
2
TABLES
0
TABLE
2
VPORT
5
8
100
AcDbSymbolTable
0
ENDTAB
0
TABLE
2
LTYPE
5
5
100
AcDbSymbolTable
0
LTYPE
5
14
100
AcDbSymbolTableRecord
100
AcDbLinetypeTableRecord
2
BYBLOCK
70
0
0
LTYPE
5
15
100
AcDbSymbolTableRecord
100
AcDbLinetypeTableRecord
2
BYLAYER
70
0
0
ENDTAB
0
TABLE
2
LAYER
5
2
100
AcDbSymbolTable
70
2
0
LAYER
5
50
100
AcDbSymbolTableRecord
100
AcDbLayerTableRecord
2
0
70
0
6
CONTINUOUS
0
ENDTAB
0
TABLE
2
STYLE
5
3
100
AcDbSymbolTable
70
1
0
STYLE
5
11
100
AcDbSymbolTableRecord
100
AcDbTextStyleTableRecord
2
STANDARD
70
0
0
ENDTAB
0
TABLE
2
VIEW
5
6
100
AcDbSymbolTable
70
0
0
ENDTAB
0
TABLE
2
UCS
5
7
100
AcDbSymbolTable
70
0
0
ENDTAB
0
TABLE
2
APPID
5
9
100
AcDbSymbolTable
70
2
0
APPID
5
12
100
AcDbSymbolTableRecord
100
AcDbRegAppTableRecord
2
ACAD
70
0
0
ENDTAB
0
TABLE
2
DIMSTYLE
5
A
100
AcDbSymbolTable
70
1
0
ENDTAB
0
TABLE
2
BLOCK_RECORD
5
1
100
AcDbSymbolTable
70
1
0
BLOCK_RECORD
5
1F
100
AcDbSymbolTableRecord
100
AcDbBlockTableRecord
2
*MODEL_SPACE
0
BLOCK_RECORD
5
1B
100
AcDbSymbolTableRecord
100
AcDbBlockTableRecord
2
*PAPER_SPACE
0
ENDTAB
0
ENDSEC
0
SECTION
2
BLOCKS
0
BLOCK
5
20
100
AcDbEntity
100
AcDbBlockBegin
2
*MODEL_SPACE
0
ENDBLK
5
21
100
AcDbEntity
100
AcDbBlockEnd
0
BLOCK
5
1C
100
AcDbEntity
100
AcDbBlockBegin
2
*PAPER_SPACE
0
ENDBLK
5
1D
100
AcDbEntity
100
AcDbBlockEnd
0
ENDSEC
0
SECTION
2
ENTITIES
0
LWPOLYLINE
5
100
100
AcDbEntity
8
0
100
AcDbPolyline
90
4
70
1
43
0.0
10
-47.500000000000007
20
16.149999999999999
10
-28.500000000000007
20
16.149999999999999
10
-28.500000000000007
20
-2.8500000000000019
10
-47.500000000000007
20
-2.8500000000000019
0
LWPOLYLINE
5
101
100
AcDbEntity
8
0
100
AcDbPolyline
90
4
70
1
43
0.0
10
-28.500000000000007
20
31.825000000000003
10
-9.5000000000000018
20
31.825000000000003
10
-9.5000000000000018
20
12.825000000000003
10
-28.500000000000007
20
12.825000000000003
0
LWPOLYLINE
5
102
100
AcDbEntity
8
0
100
AcDbPolyline
90
4
70
1
43
0.0
10
-9.5000000000000018
20
38.000000000000007
10
9.5000000000000018
20
38.000000000000007
10
9.5000000000000018
20
18.999999999999996
10
-9.5000000000000018
20
18.999999999999996
0
LWPOLYLINE
5
103
100
AcDbEntity
8
0
100
AcDbPolyline
90
4
70
1
43
0.0
10
9.5000000000000018
20
31.825000000000003
10
28.500000000000007
20
31.825000000000003
10
28.500000000000007
20
12.825000000000005
10
9.5000000000000018
20
12.825000000000005
0
LWPOLYLINE
5
104
100
AcDbEntity
8
0
100
AcDbPolyline
90
4
70
1
43
0.0
10
28.500000000000007
20
27.075000000000003
10
47.500000000000007
20
27.075000000000003
10
47.500000000000007
20
8.0750000000000011
10
28.500000000000007
20
8.0750000000000011
0
LWPOLYLINE
5
105
100
AcDbEntity
8
0
100
AcDbPolyline
90
4
70
1
43
0.0
10
28.500000000000007
20
12.825000000000003
10
28.500000000000007
20
-6.1749999999999972
10
9.5000000000000018
20
-6.1749999999999972
10
9.5000000000000018
20
12.825000000000003
0
LWPOLYLINE
5
106
100
AcDbEntity
8
0
100
AcDbPolyline
90
4
70
1
43
0.0
10
-28.500000000000007
20
12.825000000000003
10
-9.5000000000000018
20
12.825000000000003
10
-9.5000000000000018
20
-6.1749999999999989
10
-28.500000000000007
20
-6.1749999999999989
0
LWPOLYLINE
5
107
100
AcDbEntity
8
0
100
AcDbPolyline
90
4
70
1
43
0.0
10
28.500000000000007
20
-10.925000000000001
10
28.500000000000007
20
8.0750000000000011
10
47.500000000000007
20
8.0750000000000011
10
47.500000000000007
20
-10.925000000000001
0
LWPOLYLINE
5
108
100
AcDbEntity
8
0
100
AcDbPolyline
90
4
70
1
43
0.0
10
-47.500000000000007
20
-2.8500000000000014
10
-28.500000000000007
20
-2.8500000000000014
10
-28.500000000000007
20
-21.850000000000005
10
-47.500000000000007
20
-21.850000000000005
0
LWPOLYLINE
5
109
100
AcDbEntity
8
0
100
AcDbPolyline
90
4
70
1
43
0.0
10
9.5000000000000018
20
19.000000000000004
10
9.5000000000000018
20
-4.4408920985006262e-15
10
-9.5000000000000018
20
-4.4408920985006262e-15
10
-9.5000000000000018
20
19.000000000000004
0
LWPOLYLINE
5
110
100
AcDbEntity
8
0
100
AcDbPolyline
90
4
70
1
43
0.0
10
28.500000000000007
20
-6.1749999999999989
10
28.500000000000007
20
-25.175000000000001
10
9.5000000000000018
20
-25.175000000000001
10
9.5000000000000018
20
-6.1749999999999989
0
LWPOLYLINE
5
111
100
AcDbEntity
8
0
100
AcDbPolyline
90
4
70
1
43
0.0
10
-28.500000000000007
20
-6.1749999999999989
10
-9.5000000000000018
20
-6.1749999999999989
10
-9.5000000000000018
20
-25.175000000000001
10
-28.500000000000007
20
-25.175000000000001
0
LWPOLYLINE
5
112
100
AcDbEntity
8
0
100
AcDbPolyline
90
4
70
1
43
0.0
10
28.500000000000007
20
-29.925000000000004
10
28.500000000000007
20
-10.925000000000001
10
47.500000000000007
20
-10.925000000000001
10
47.500000000000007
20
-29.925000000000004
0
LWPOLYLINE
5
113
100
AcDbEntity
8
0
100
AcDbPolyline
90
4
70
1
43
0.0
10
-47.500000000000007
20
-21.850000000000001
10
-28.500000000000007
20
-21.850000000000001
10
-28.500000000000007
20
-40.850000000000001
10
-47.500000000000007
20
-40.850000000000001
0
LWPOLYLINE
5
114
100
AcDbEntity
8
0
100
AcDbPolyline
90
4
70
1
43
0.0
10
9.5000000000000018
20
2.2204460492503131e-15
10
9.5000000000000018
20
-19.000000000000007
10
-9.5000000000000018
20
-19.000000000000007
10
-9.5000000000000018
20
2.2204460492503131e-15
0
LWPOLYLINE
5
115
100
AcDbEntity
8
0
100
AcDbPolyline
90
4
70
1
43
0.0
10
9.5000000000000018
20
-30.874999999999993
10
28.500000000000011
20
-30.874999999999993
10
28.500000000000011
20
-49.875
10
9.5000000000000018
20
-49.875
0
LINE
5
116
100
AcDbEntity
8
0
100
AcDbLine
10
9.5000000000000018
20
-40.375
30
0
11
28.500000000000011
21
-40.375
31
0
0
LINE
5
117
100
AcDbEntity
8
0
100
AcDbLine
10
19.000000000000007
20
-49.875
30
0
11
19.000000000000007
21
-30.874999999999993
31
0
0
LWPOLYLINE
5
118
100
AcDbEntity
8
0
100
AcDbPolyline
90
4
70
1
43
0.0
10
32.707485578727798
20
-31.589923721779904
10
51.060076278220095
20
-36.507485578727795
10
46.142514421272203
20
-54.860076278220106
10
27.789923721779903
20
-49.942514421272207
0
LINE
5
119
100
AcDbEntity
8
0
100
AcDbLine
10
36.966219071526055
20
-52.40129534974615
30
0
11
41.883780928473946
21
-34.048704650253839
31
0
0
LINE
5
120
100
AcDbEntity
8
0
100
AcDbLine
10
30.248704650253853
20
-40.766219071526052
30
0
11
48.601295349746152
21
-45.683780928473951
31
0
0
LWPOLYLINE
5
121
100
AcDbEntity
8
0
100
AcDbPolyline
90
4
70
1
43
0.0
10
71.402241335952155
20
-47.822758664047818
10
61.902241335952162
20
-64.277241335952155
10
45.447758664047846
20
-54.777241335952155
10
54.947758664047839
20
-38.322758664047839
0
LINE
5
122
100
AcDbEntity
8
0
100
AcDbLine
10
50.197758664047846
20
-46.549999999999997
30
0
11
66.652241335952155
21
-56.049999999999976
31
0
0
LINE
5
123
100
AcDbEntity
8
0
100
AcDbLine
10
53.675000000000004
20
-59.527241335952155
30
0
11
63.174999999999997
21
-43.072758664047825
31
0
0
LINE
5
124
100
AcDbEntity
8
0
100
AcDbLine
10
-52.249999999999972
20
36.07500000000001
30
0
11
-52.250000000000007
21
-45.099999999999987
31
0
0
LINE
5
125
100
AcDbEntity
8
0
100
AcDbLine
10
-51.750000000000007
20
-45.599999999999994
30
0
11
7.9999999999999893
21
-45.600000000000009
31
0
0
LINE
5
126
100
AcDbEntity
8
0
100
AcDbLine
10
-51.749999999999972
20
36.57500000000001
30
0
11
-11.000000000000005
21
36.575000000000017
31
0
0
LINE
5
127
100
AcDbEntity
8
0
100
AcDbLine
10
52.250000000000007
20
36.075000000000003
30
0
11
52.250000000000007
21
-35.610506434772084
31
0
0
LINE
5
128
100
AcDbEntity
8
0
100
AcDbLine
10
8.5
20
-46.100000000000001
30
0
11
8.5000000000000036
21
-50.374999999999986
31
0
0
LINE
5
129
100
AcDbEntity
8
0
100
AcDbLine
10
9.0000000000000018
20
-50.874999999999986
30
0
11
19
21
-50.874999999999986
31
0
0
LINE
5
130
100
AcDbEntity
8
0
100
AcDbLine
10
53.175000000000011
20
-60.393266739736589
30
0
11
61.835254037844479
21
-65.39326673973649
31
0
0
LINE
5
131
100
AcDbEntity
8
0
100
AcDbLine
10
62.518266739736688
20
-65.210254037844251
30
0
11
72.518266739736561
21
-47.889745962155594
31
0
0
LINE
5
132
100
AcDbEntity
8
0
100
AcDbLine
10
72.335254037844351
20
-47.20673326026337
30
0
11
52.250000000000007
21
-35.610506434772084
31
0
0
LINE
5
133
100
AcDbEntity
8
0
100
AcDbLine
10
36.966219071526055
20
-52.40129534974615
30
0
11
36.707400026423528
21
-53.367221176035216
31
0
0
LINE
5
134
100
AcDbEntity
8
0
100
AcDbLine
10
19.000000000000007
20
-49.875
30
0
11
19
21
-50.874999999999986
31
0
0
LINE
5
135
100
AcDbEntity
8
0
100
AcDbLine
10
53.675000000000004
20
-59.527241335952155
30
0
11
53.175000000000011
21
-60.393266739736589
31
0
0
SPLINE
5
136
100
AcDbEntity
8
0
100
AcDbSpline
70
4
71
5
72
21
73
15
74
0
42
0.000000001
43
0.0000000001
44
0.0000000001
40
0
40
0
40
0
40
0
40
0
40
0
40
0.10000000000000001
40
0.20000000000000001
40
0.30000000000000004
40
0.40000000000000002
40
0.5
40
0.59999999999999998
40
0.69999999999999996
40
0.79999999999999993
40
0.89999999999999991
40
1
40
1
40
1
40
1
40
1
40
1
41
1
41
1
41
1
41
1
41
1
41
1
41
1
41
1
41
1
41
1
41
1
41
1
41
1
41
1
41
1
10
19
20
-50.874999999999986
30
0
10
19.73086046851882
20
-50.874999999999986
30
0
10
21.188281256307487
20
-50.895774440619022
30
0
10
23.361512459856439
20
-50.989256590977952
30
0
10
26.233245776174229
20
-51.236715397708743
30
0
10
29.778424500958977
20
-51.743295109426093
30
0
10
33.276759446859224
20
-52.440423755584078
30
0
10
36.72534868085323
20
-53.323256716358145
30
0
10
40.121807508805603
20
-54.38765117165925
30
0
10
43.46597912863794
20
-55.626707357481997
30
0
10
46.758345944238798
20
-57.034794303406962
30
0
10
49.350978507110938
20
-58.294493473774764
30
0
10
51.272115143724534
20
-59.314459117713945
30
0
10
52.542443374204886
20
-60.028060001556113
30
0
10
53.175000000000011
20
-60.393266739736589
30
0
0
LINE
5
137
100
AcDbEntity
8
0
100
AcDbLine
10
54.947758664047839
20
-38.322758664047839
30
0
11
47.500000000000007
21
-34.022793194500444
31
0
0
LINE
5
138
100
AcDbEntity
8
0
100
AcDbLine
10
47.500000000000007
20
-29.925000000000004
30
0
11
47.500000000000007
21
-34.022793194500444
31
0
0
LINE
5
139
100
AcDbEntity
8
0
100
AcDbLine
10
9.5000000000000018
20
-25.175000000000001
30
0
11
9.5000000000000018
21
-30.874999999999993
31
0
0
SPLINE
5
140
100
AcDbEntity
8
0
100
AcDbSpline
70
4
71
5
72
21
73
15
74
0
42
0.000000001
43
0.0000000001
44
0.0000000001
40
0
40
0
40
0
40
0
40
0
40
0
40
0.10000000000000001
40
0.20000000000000001
40
0.30000000000000004
40
0.40000000000000002
40
0.5
40
0.59999999999999998
40
0.69999999999999996
40
0.79999999999999993
40
0.89999999999999991
40
1
40
1
40
1
40
1
40
1
40
1
41
1
41
1
41
1
41
1
41
1
41
1
41
1
41
1
41
1
41
1
41
1
41
1
41
1
41
1
41
1
10
19.000000000000007
20
-49.875
30
0
10
19.74153122213572
20
-49.875
30
0
10
21.22023025080825
20
-49.896055687469499
30
0
10
23.425189024506643
20
-49.990803410798961
30
0
10
26.338848478782687
20
-50.241614685338675
30
0
10
29.935807212046512
20
-50.755077113044678
30
0
10
33.485282530502772
20
-51.461720179658499
30
0
10
36.984346223261035
20
-52.35667769636229
30
0
10
40.43057912994233
20
-53.435809487173742
30
0
10
43.823795956625361
20
-54.692196191387879
30
0
10
47.164445613389375
20
-56.120212291331555
30
0
10
49.795062126079877
20
-57.397970704058714
30
0
10
51.744307220753015
20
-58.432703532188881
30
0
10
53.033202690090341
20
-59.156699486310629
30
0
10
53.675000000000004
20
-59.527241335952155
30
0
0
LINE
5
141
100
AcDbEntity
8
0
100
AcDbLine
10
9.5000000000000018
20
-49.875
30
0
11
19.000000000000007
21
-49.875
31
0
0
LINE
5
142
100
AcDbEntity
8
0
100
AcDbLine
10
53.675000000000004
20
-59.527241335952155
30
0
11
61.902241335952162
21
-64.277241335952155
31
0
0
LINE
5
143
100
AcDbEntity
8
0
100
AcDbLine
10
-10
20
39
30
0
11
9.9999999999999982
21
39
31
0
0
LINE
5
144
100
AcDbEntity
8
0
100
AcDbLine
10
-10.5
20
38.500000000000007
30
0
11
-10.500000000000004
21
37.075000000000017
31
0
0
LINE
5
145
100
AcDbEntity
8
0
100
AcDbLine
10
10.500000000000004
20
38.500000000000007
30
0
11
10.500000000000004
21
37.075000000000017
31
0
0
LINE
5
146
100
AcDbEntity
8
0
100
AcDbLine
10
11.000000000000004
20
36.575000000000017
30
0
11
51.75
21
36.574999999999996
31
0
0
ARC
5
147
100
AcDbEntity
8
0
100
AcDbCircle
10
-51.749999999999972
20
36.07500000000001
30
0
40
0.49999999999999822
210
0
220
-0
230
1
100
AcDbArc
50
90
51
180
0
ARC
5
148
100
AcDbEntity
8
0
100
AcDbCircle
10
-10.999999999999996
20
37.075000000000017
30
0
40
0.49999999999999378
210
0
220
0
230
1
100
AcDbArc
50
-90.000000000001009
51
0
0
ARC
5
149
100
AcDbEntity
8
0
100
AcDbCircle
10
-10.000000000000002
20
38.500000000000007
30
0
40
0.49999999999999822
210
0
220
-0
230
1
100
AcDbArc
50
89.999999999999801
51
180
0
ARC
5
150
100
AcDbEntity
8
0
100
AcDbCircle
10
10.000000000000004
20
38.500000000000007
30
0
40
0.49999999999999822
210
0
220
-0
230
1
100
AcDbArc
50
0
51
90.000000000000611
0
ARC
5
151
100
AcDbEntity
8
0
100
AcDbCircle
10
10.999999999999998
20
37.075000000000017
30
0
40
0.499999999999996
210
0
220
0
230
1
100
AcDbArc
50
180
51
270.00000000000063
0
ARC
5
152
100
AcDbEntity
8
0
100
AcDbCircle
10
51.750000000000007
20
36.075000000000003
30
0
40
0.49999999999999822
210
0
220
-0
230
1
100
AcDbArc
50
0
51
90.00000000000081
0
ARC
5
153
100
AcDbEntity
8
0
100
AcDbCircle
10
-51.750000000000007
20
-45.099999999999994
30
0
40
0.49999999999999822
210
0
220
0
230
1
100
AcDbArc
50
180
51
270
0
ARC
5
154
100
AcDbEntity
8
0
100
AcDbCircle
10
8.0000000000000018
20
-46.100000000000001
30
0
40
0.49999999999999822
210
0
220
-0
230
1
100
AcDbArc
50
0
51
90.000000000001435
0
ARC
5
155
100
AcDbEntity
8
0
100
AcDbCircle
10
9.0000000000000018
20
-50.374999999999986
30
0
40
0.49999999999999822
210
0
220
0
230
1
100
AcDbArc
50
180
51
270
0
ARC
5
156
100
AcDbEntity
8
0
100
AcDbCircle
10
62.085254037844464
20
-64.960254037844265
30
0
40
0.49999999999999856
210
0
220
0
230
1
100
AcDbArc
50
240.00000000000165
51
330.00000000000165
0
ARC
5
157
100
AcDbEntity
8
0
100
AcDbCircle
10
72.085254037844336
20
-47.639745962155601
30
0
40
0.500000000000003
210
-0
220
0
230
1
100
AcDbArc
50
-29.999999999999048
51
59.999999999999275
0
ENDSEC
0
SECTION
2
OBJECTS
0
DICTIONARY
5
C
100
AcDbDictionary
3
ACAD_GROUP
350
D
3
ACAD_MLINESTYLE
350
17
0
DICTIONARY
5
D
100
AcDbDictionary
0
DICTIONARY
5
1A
330
C
100
AcDbDictionary
0
DICTIONARY
5
17
100
AcDbDictionary
0
ENDSEC
0
EOF
