%TF.GenerationSoftware,KiCad,Pcbnew,7.0.1*%
%TF.CreationDate,2024-02-26T07:25:15-05:00*%
%TF.ProjectId,pcb-left,7063622d-6c65-4667-942e-6b696361645f,0.3*%
%TF.SameCoordinates,Original*%
%TF.FileFunction,Legend,Top*%
%TF.FilePolarity,Positive*%
%FSLAX46Y46*%
G04 Gerber Fmt 4.6, Leading zero omitted, Abs format (unit mm)*
G04 Created by KiCad (PCBNEW 7.0.1) date 2024-02-26 07:25:15*
%MOMM*%
%LPD*%
G01*
G04 APERTURE LIST*
G04 Aperture macros list*
%AMRoundRect*
0 Rectangle with rounded corners*
0 $1 Rounding radius*
0 $2 $3 $4 $5 $6 $7 $8 $9 X,Y pos of 4 corners*
0 Add a 4 corners polygon primitive as box body*
4,1,4,$2,$3,$4,$5,$6,$7,$8,$9,$2,$3,0*
0 Add four circle primitives for the rounded corners*
1,1,$1+$1,$2,$3*
1,1,$1+$1,$4,$5*
1,1,$1+$1,$6,$7*
1,1,$1+$1,$8,$9*
0 Add four rect primitives between the rounded corners*
20,1,$1+$1,$2,$3,$4,$5,0*
20,1,$1+$1,$4,$5,$6,$7,0*
20,1,$1+$1,$6,$7,$8,$9,0*
20,1,$1+$1,$8,$9,$2,$3,0*%
G04 Aperture macros list end*
%ADD10C,0.000000*%
%ADD11C,0.150000*%
%ADD12C,0.250000*%
%ADD13C,0.120000*%
%ADD14C,1.701800*%
%ADD15C,3.000000*%
%ADD16C,3.429000*%
%ADD17RoundRect,0.250000X1.500000X-0.250000X1.500000X0.250000X-1.500000X0.250000X-1.500000X-0.250000X0*%
%ADD18RoundRect,0.250001X1.449999X-0.499999X1.449999X0.499999X-1.449999X0.499999X-1.449999X-0.499999X0*%
%ADD19C,2.100000*%
%ADD20C,3.800000*%
%ADD21O,1.800000X2.750000*%
%ADD22C,1.397000*%
G04 APERTURE END LIST*
D10*
G36*
X91162813Y-114870001D02*
G01*
X90885001Y-114870001D01*
X90885001Y-114592188D01*
X91162813Y-114592188D01*
X91162813Y-114870001D01*
G37*
G36*
X90329376Y-115425626D02*
G01*
X90051563Y-115425626D01*
X90051563Y-115147813D01*
X90329376Y-115147813D01*
X90329376Y-115425626D01*
G37*
G36*
X92274063Y-110147188D02*
G01*
X91996251Y-110147188D01*
X91996251Y-109869376D01*
X92274063Y-109869376D01*
X92274063Y-110147188D01*
G37*
G36*
X87829063Y-112647501D02*
G01*
X87551251Y-112647501D01*
X87551251Y-112369688D01*
X87829063Y-112369688D01*
X87829063Y-112647501D01*
G37*
G36*
X94496563Y-115981251D02*
G01*
X94218751Y-115981251D01*
X94218751Y-115703438D01*
X94496563Y-115703438D01*
X94496563Y-115981251D01*
G37*
G36*
X92829688Y-109591563D02*
G01*
X92551876Y-109591563D01*
X92551876Y-109313751D01*
X92829688Y-109313751D01*
X92829688Y-109591563D01*
G37*
G36*
X89773751Y-113480938D02*
G01*
X89495938Y-113480938D01*
X89495938Y-113203126D01*
X89773751Y-113203126D01*
X89773751Y-113480938D01*
G37*
G36*
X90885001Y-114870001D02*
G01*
X90607188Y-114870001D01*
X90607188Y-114592188D01*
X90885001Y-114592188D01*
X90885001Y-114870001D01*
G37*
G36*
X89773751Y-111536251D02*
G01*
X89495938Y-111536251D01*
X89495938Y-111258438D01*
X89773751Y-111258438D01*
X89773751Y-111536251D01*
G37*
G36*
X91162813Y-111814063D02*
G01*
X90885001Y-111814063D01*
X90885001Y-111536251D01*
X91162813Y-111536251D01*
X91162813Y-111814063D01*
G37*
G36*
X90051563Y-110980626D02*
G01*
X89773751Y-110980626D01*
X89773751Y-110702813D01*
X90051563Y-110702813D01*
X90051563Y-110980626D01*
G37*
G36*
X91162813Y-110702813D02*
G01*
X90885001Y-110702813D01*
X90885001Y-110425001D01*
X91162813Y-110425001D01*
X91162813Y-110702813D01*
G37*
G36*
X93385313Y-111536251D02*
G01*
X93107501Y-111536251D01*
X93107501Y-111258438D01*
X93385313Y-111258438D01*
X93385313Y-111536251D01*
G37*
G36*
X90885001Y-115703438D02*
G01*
X90607188Y-115703438D01*
X90607188Y-115425626D01*
X90885001Y-115425626D01*
X90885001Y-115703438D01*
G37*
G36*
X92829688Y-110980626D02*
G01*
X92551876Y-110980626D01*
X92551876Y-110702813D01*
X92829688Y-110702813D01*
X92829688Y-110980626D01*
G37*
G36*
X94774376Y-115981251D02*
G01*
X94496563Y-115981251D01*
X94496563Y-115703438D01*
X94774376Y-115703438D01*
X94774376Y-115981251D01*
G37*
G36*
X89495938Y-116814688D02*
G01*
X87551251Y-116814688D01*
X87551251Y-115161704D01*
X87842954Y-115161704D01*
X87842954Y-116522985D01*
X89204235Y-116522985D01*
X89204235Y-115161704D01*
X87842954Y-115161704D01*
X87551251Y-115161704D01*
X87551251Y-114870001D01*
X89495938Y-114870001D01*
X89495938Y-116814688D01*
G37*
G36*
X92829688Y-114870001D02*
G01*
X92551876Y-114870001D01*
X92551876Y-114592188D01*
X92829688Y-114592188D01*
X92829688Y-114870001D01*
G37*
G36*
X90885001Y-116536876D02*
G01*
X90607188Y-116536876D01*
X90607188Y-116259063D01*
X90885001Y-116259063D01*
X90885001Y-116536876D01*
G37*
G36*
X91440626Y-114314376D02*
G01*
X91162813Y-114314376D01*
X91162813Y-114036563D01*
X91440626Y-114036563D01*
X91440626Y-114314376D01*
G37*
G36*
X91440626Y-111814063D02*
G01*
X91162813Y-111814063D01*
X91162813Y-111536251D01*
X91440626Y-111536251D01*
X91440626Y-111814063D01*
G37*
G36*
X91718439Y-114592188D02*
G01*
X91440626Y-114592188D01*
X91440626Y-114314376D01*
X91718439Y-114314376D01*
X91718439Y-114592188D01*
G37*
G36*
X88940313Y-111814063D02*
G01*
X88662501Y-111814063D01*
X88662501Y-111536251D01*
X88940313Y-111536251D01*
X88940313Y-111814063D01*
G37*
G36*
X90329376Y-113203126D02*
G01*
X90051563Y-113203126D01*
X90051563Y-112925314D01*
X90329376Y-112925314D01*
X90329376Y-113203126D01*
G37*
G36*
X94496563Y-114036563D02*
G01*
X94218751Y-114036563D01*
X94218751Y-113758751D01*
X94496563Y-113758751D01*
X94496563Y-114036563D01*
G37*
G36*
X91162813Y-110980626D02*
G01*
X90885001Y-110980626D01*
X90885001Y-110702813D01*
X91162813Y-110702813D01*
X91162813Y-110980626D01*
G37*
G36*
X93107501Y-115981251D02*
G01*
X92829688Y-115981251D01*
X92829688Y-115703438D01*
X93107501Y-115703438D01*
X93107501Y-115981251D01*
G37*
G36*
X90329376Y-111258438D02*
G01*
X90051563Y-111258438D01*
X90051563Y-110980626D01*
X90329376Y-110980626D01*
X90329376Y-111258438D01*
G37*
G36*
X90885001Y-110147188D02*
G01*
X90607188Y-110147188D01*
X90607188Y-109869376D01*
X90885001Y-109869376D01*
X90885001Y-110147188D01*
G37*
G36*
X91440626Y-109313751D02*
G01*
X91162813Y-109313751D01*
X91162813Y-109035938D01*
X91440626Y-109035938D01*
X91440626Y-109313751D01*
G37*
G36*
X90051563Y-115425626D02*
G01*
X89773751Y-115425626D01*
X89773751Y-115147813D01*
X90051563Y-115147813D01*
X90051563Y-115425626D01*
G37*
G36*
X88384688Y-111258438D02*
G01*
X88106876Y-111258438D01*
X88106876Y-110980626D01*
X88384688Y-110980626D01*
X88384688Y-111258438D01*
G37*
G36*
X93385313Y-110702813D02*
G01*
X93107501Y-110702813D01*
X93107501Y-110425001D01*
X93385313Y-110425001D01*
X93385313Y-110702813D01*
G37*
G36*
X88662501Y-113758751D02*
G01*
X88384688Y-113758751D01*
X88384688Y-113480938D01*
X88662501Y-113480938D01*
X88662501Y-113758751D01*
G37*
G36*
X93107501Y-113203126D02*
G01*
X92829688Y-113203126D01*
X92829688Y-112925314D01*
X93107501Y-112925314D01*
X93107501Y-113203126D01*
G37*
G36*
X90051563Y-115147813D02*
G01*
X89773751Y-115147813D01*
X89773751Y-114870001D01*
X90051563Y-114870001D01*
X90051563Y-115147813D01*
G37*
G36*
X94774376Y-112369688D02*
G01*
X94496563Y-112369688D01*
X94496563Y-112091876D01*
X94774376Y-112091876D01*
X94774376Y-112369688D01*
G37*
G36*
X95052188Y-111814063D02*
G01*
X94774376Y-111814063D01*
X94774376Y-111536251D01*
X95052188Y-111536251D01*
X95052188Y-111814063D01*
G37*
G36*
X91996251Y-114036563D02*
G01*
X91718439Y-114036563D01*
X91718439Y-113758751D01*
X91996251Y-113758751D01*
X91996251Y-114036563D01*
G37*
G36*
X90607188Y-110425001D02*
G01*
X90329376Y-110425001D01*
X90329376Y-110147188D01*
X90607188Y-110147188D01*
X90607188Y-110425001D01*
G37*
G36*
X91718439Y-110147188D02*
G01*
X91440626Y-110147188D01*
X91440626Y-109869376D01*
X91718439Y-109869376D01*
X91718439Y-110147188D01*
G37*
G36*
X91440626Y-115425626D02*
G01*
X91162813Y-115425626D01*
X91162813Y-115147813D01*
X91440626Y-115147813D01*
X91440626Y-115425626D01*
G37*
G36*
X88106876Y-113480938D02*
G01*
X87829063Y-113480938D01*
X87829063Y-113203126D01*
X88106876Y-113203126D01*
X88106876Y-113480938D01*
G37*
G36*
X93107501Y-111536251D02*
G01*
X92829688Y-111536251D01*
X92829688Y-111258438D01*
X93107501Y-111258438D01*
X93107501Y-111536251D01*
G37*
G36*
X93940938Y-112091876D02*
G01*
X93663126Y-112091876D01*
X93663126Y-111814063D01*
X93940938Y-111814063D01*
X93940938Y-112091876D01*
G37*
G36*
X93107501Y-109591563D02*
G01*
X92829688Y-109591563D01*
X92829688Y-109313751D01*
X93107501Y-109313751D01*
X93107501Y-109591563D01*
G37*
G36*
X95330001Y-114870001D02*
G01*
X95052188Y-114870001D01*
X95052188Y-114592188D01*
X95330001Y-114592188D01*
X95330001Y-114870001D01*
G37*
G36*
X90329376Y-111536251D02*
G01*
X90051563Y-111536251D01*
X90051563Y-111258438D01*
X90329376Y-111258438D01*
X90329376Y-111536251D01*
G37*
G36*
X91718439Y-116536876D02*
G01*
X91440626Y-116536876D01*
X91440626Y-116259063D01*
X91718439Y-116259063D01*
X91718439Y-116536876D01*
G37*
G36*
X91718439Y-113203126D02*
G01*
X91440626Y-113203126D01*
X91440626Y-112925314D01*
X91718439Y-112925314D01*
X91718439Y-113203126D01*
G37*
G36*
X89495938Y-111814063D02*
G01*
X89218126Y-111814063D01*
X89218126Y-111536251D01*
X89495938Y-111536251D01*
X89495938Y-111814063D01*
G37*
G36*
X93385313Y-114036563D02*
G01*
X93107501Y-114036563D01*
X93107501Y-113758751D01*
X93385313Y-113758751D01*
X93385313Y-114036563D01*
G37*
G36*
X92274063Y-110702813D02*
G01*
X91996251Y-110702813D01*
X91996251Y-110425001D01*
X92274063Y-110425001D01*
X92274063Y-110702813D01*
G37*
G36*
X95607813Y-111536251D02*
G01*
X95330001Y-111536251D01*
X95330001Y-111258438D01*
X95607813Y-111258438D01*
X95607813Y-111536251D01*
G37*
G36*
X93107501Y-112091876D02*
G01*
X92829688Y-112091876D01*
X92829688Y-111814063D01*
X93107501Y-111814063D01*
X93107501Y-112091876D01*
G37*
G36*
X93663126Y-115703438D02*
G01*
X93385313Y-115703438D01*
X93385313Y-115425626D01*
X93663126Y-115425626D01*
X93663126Y-115703438D01*
G37*
G36*
X93385313Y-116259063D02*
G01*
X93107501Y-116259063D01*
X93107501Y-115981251D01*
X93385313Y-115981251D01*
X93385313Y-116259063D01*
G37*
G36*
X88662501Y-111536251D02*
G01*
X88384688Y-111536251D01*
X88384688Y-111258438D01*
X88662501Y-111258438D01*
X88662501Y-111536251D01*
G37*
G36*
X92829688Y-115425626D02*
G01*
X92551876Y-115425626D01*
X92551876Y-115147813D01*
X92829688Y-115147813D01*
X92829688Y-115425626D01*
G37*
G36*
X92274063Y-109591563D02*
G01*
X91996251Y-109591563D01*
X91996251Y-109313751D01*
X92274063Y-109313751D01*
X92274063Y-109591563D01*
G37*
G36*
X91440626Y-111258438D02*
G01*
X91162813Y-111258438D01*
X91162813Y-110980626D01*
X91440626Y-110980626D01*
X91440626Y-111258438D01*
G37*
G36*
X94774376Y-111258438D02*
G01*
X94496563Y-111258438D01*
X94496563Y-110980626D01*
X94774376Y-110980626D01*
X94774376Y-111258438D01*
G37*
G36*
X92551876Y-114592188D02*
G01*
X92274063Y-114592188D01*
X92274063Y-114314376D01*
X92551876Y-114314376D01*
X92551876Y-114592188D01*
G37*
G36*
X90885001Y-109869376D02*
G01*
X90607188Y-109869376D01*
X90607188Y-109591563D01*
X90885001Y-109591563D01*
X90885001Y-109869376D01*
G37*
G36*
X92551876Y-110147188D02*
G01*
X92274063Y-110147188D01*
X92274063Y-109869376D01*
X92551876Y-109869376D01*
X92551876Y-110147188D01*
G37*
G36*
X94774376Y-114870001D02*
G01*
X94496563Y-114870001D01*
X94496563Y-114592188D01*
X94774376Y-114592188D01*
X94774376Y-114870001D01*
G37*
G36*
X94218751Y-111536251D02*
G01*
X93940938Y-111536251D01*
X93940938Y-111258438D01*
X94218751Y-111258438D01*
X94218751Y-111536251D01*
G37*
G36*
X94774376Y-113758751D02*
G01*
X94496563Y-113758751D01*
X94496563Y-113480938D01*
X94774376Y-113480938D01*
X94774376Y-113758751D01*
G37*
G36*
X92829688Y-110147188D02*
G01*
X92551876Y-110147188D01*
X92551876Y-109869376D01*
X92829688Y-109869376D01*
X92829688Y-110147188D01*
G37*
G36*
X95330001Y-112647501D02*
G01*
X95052188Y-112647501D01*
X95052188Y-112369688D01*
X95330001Y-112369688D01*
X95330001Y-112647501D01*
G37*
G36*
X92551876Y-112369688D02*
G01*
X92274063Y-112369688D01*
X92274063Y-112091876D01*
X92551876Y-112091876D01*
X92551876Y-112369688D01*
G37*
G36*
X93940938Y-112647501D02*
G01*
X93663126Y-112647501D01*
X93663126Y-112369688D01*
X93940938Y-112369688D01*
X93940938Y-112647501D01*
G37*
G36*
X93107501Y-115147813D02*
G01*
X92829688Y-115147813D01*
X92829688Y-114870001D01*
X93107501Y-114870001D01*
X93107501Y-115147813D01*
G37*
G36*
X88384688Y-114314376D02*
G01*
X88106876Y-114314376D01*
X88106876Y-114036563D01*
X88384688Y-114036563D01*
X88384688Y-114314376D01*
G37*
G36*
X94774376Y-115147813D02*
G01*
X94496563Y-115147813D01*
X94496563Y-114870001D01*
X94774376Y-114870001D01*
X94774376Y-115147813D01*
G37*
G36*
X91162813Y-112925314D02*
G01*
X90885001Y-112925314D01*
X90885001Y-112647501D01*
X91162813Y-112647501D01*
X91162813Y-112925314D01*
G37*
G36*
X93940938Y-115703438D02*
G01*
X93663126Y-115703438D01*
X93663126Y-115425626D01*
X93940938Y-115425626D01*
X93940938Y-115703438D01*
G37*
G36*
X95052188Y-113758751D02*
G01*
X94774376Y-113758751D01*
X94774376Y-113480938D01*
X95052188Y-113480938D01*
X95052188Y-113758751D01*
G37*
G36*
X89218126Y-112925314D02*
G01*
X88940313Y-112925314D01*
X88940313Y-112647501D01*
X89218126Y-112647501D01*
X89218126Y-112925314D01*
G37*
G36*
X88662501Y-113203126D02*
G01*
X88384688Y-113203126D01*
X88384688Y-112925314D01*
X88662501Y-112925314D01*
X88662501Y-113203126D01*
G37*
G36*
X92274063Y-115147813D02*
G01*
X91996251Y-115147813D01*
X91996251Y-114870001D01*
X92274063Y-114870001D01*
X92274063Y-115147813D01*
G37*
G36*
X89218126Y-114036563D02*
G01*
X88940313Y-114036563D01*
X88940313Y-113758751D01*
X89218126Y-113758751D01*
X89218126Y-114036563D01*
G37*
G36*
X91440626Y-111536251D02*
G01*
X91162813Y-111536251D01*
X91162813Y-111258438D01*
X91440626Y-111258438D01*
X91440626Y-111536251D01*
G37*
G36*
X95607813Y-115425626D02*
G01*
X95330001Y-115425626D01*
X95330001Y-115147813D01*
X95607813Y-115147813D01*
X95607813Y-115425626D01*
G37*
G36*
X89773751Y-111814063D02*
G01*
X89495938Y-111814063D01*
X89495938Y-111536251D01*
X89773751Y-111536251D01*
X89773751Y-111814063D01*
G37*
G36*
X92551876Y-115981251D02*
G01*
X92274063Y-115981251D01*
X92274063Y-115703438D01*
X92551876Y-115703438D01*
X92551876Y-115981251D01*
G37*
G36*
X91996251Y-109869376D02*
G01*
X91718439Y-109869376D01*
X91718439Y-109591563D01*
X91996251Y-109591563D01*
X91996251Y-109869376D01*
G37*
G36*
X90329376Y-116259063D02*
G01*
X90051563Y-116259063D01*
X90051563Y-115981251D01*
X90329376Y-115981251D01*
X90329376Y-116259063D01*
G37*
G36*
X95607813Y-114870001D02*
G01*
X95330001Y-114870001D01*
X95330001Y-114592188D01*
X95607813Y-114592188D01*
X95607813Y-114870001D01*
G37*
G36*
X88940313Y-111536251D02*
G01*
X88662501Y-111536251D01*
X88662501Y-111258438D01*
X88940313Y-111258438D01*
X88940313Y-111536251D01*
G37*
G36*
X89218126Y-112091876D02*
G01*
X88940313Y-112091876D01*
X88940313Y-111814063D01*
X89218126Y-111814063D01*
X89218126Y-112091876D01*
G37*
G36*
X91718439Y-113480938D02*
G01*
X91440626Y-113480938D01*
X91440626Y-113203126D01*
X91718439Y-113203126D01*
X91718439Y-113480938D01*
G37*
G36*
X94774376Y-113480938D02*
G01*
X94496563Y-113480938D01*
X94496563Y-113203126D01*
X94774376Y-113203126D01*
X94774376Y-113480938D01*
G37*
G36*
X95330001Y-113203126D02*
G01*
X95052188Y-113203126D01*
X95052188Y-112925314D01*
X95330001Y-112925314D01*
X95330001Y-113203126D01*
G37*
G36*
X89495938Y-114592188D02*
G01*
X89218126Y-114592188D01*
X89218126Y-114314376D01*
X89495938Y-114314376D01*
X89495938Y-114592188D01*
G37*
G36*
X92274063Y-111814063D02*
G01*
X91996251Y-111814063D01*
X91996251Y-111536251D01*
X92274063Y-111536251D01*
X92274063Y-111814063D01*
G37*
G36*
X90607188Y-109591563D02*
G01*
X90329376Y-109591563D01*
X90329376Y-109313751D01*
X90607188Y-109313751D01*
X90607188Y-109591563D01*
G37*
G36*
X93107501Y-111258438D02*
G01*
X92829688Y-111258438D01*
X92829688Y-110980626D01*
X93107501Y-110980626D01*
X93107501Y-111258438D01*
G37*
G36*
X90607188Y-112091876D02*
G01*
X90329376Y-112091876D01*
X90329376Y-111814063D01*
X90607188Y-111814063D01*
X90607188Y-112091876D01*
G37*
G36*
X92274063Y-110425001D02*
G01*
X91996251Y-110425001D01*
X91996251Y-110147188D01*
X92274063Y-110147188D01*
X92274063Y-110425001D01*
G37*
G36*
X90329376Y-113480938D02*
G01*
X90051563Y-113480938D01*
X90051563Y-113203126D01*
X90329376Y-113203126D01*
X90329376Y-113480938D01*
G37*
G36*
X90885001Y-116259063D02*
G01*
X90607188Y-116259063D01*
X90607188Y-115981251D01*
X90885001Y-115981251D01*
X90885001Y-116259063D01*
G37*
G36*
X91718439Y-116259063D02*
G01*
X91440626Y-116259063D01*
X91440626Y-115981251D01*
X91718439Y-115981251D01*
X91718439Y-116259063D01*
G37*
G36*
X95052188Y-112925314D02*
G01*
X94774376Y-112925314D01*
X94774376Y-112647501D01*
X95052188Y-112647501D01*
X95052188Y-112925314D01*
G37*
G36*
X90329376Y-109035938D02*
G01*
X90051563Y-109035938D01*
X90051563Y-108758126D01*
X90329376Y-108758126D01*
X90329376Y-109035938D01*
G37*
G36*
X93663126Y-116814688D02*
G01*
X93385313Y-116814688D01*
X93385313Y-116536876D01*
X93663126Y-116536876D01*
X93663126Y-116814688D01*
G37*
G36*
X93107501Y-110425001D02*
G01*
X92829688Y-110425001D01*
X92829688Y-110147188D01*
X93107501Y-110147188D01*
X93107501Y-110425001D01*
G37*
G36*
X95330001Y-113758751D02*
G01*
X95052188Y-113758751D01*
X95052188Y-113480938D01*
X95330001Y-113480938D01*
X95330001Y-113758751D01*
G37*
G36*
X93940938Y-113203126D02*
G01*
X93663126Y-113203126D01*
X93663126Y-112925314D01*
X93940938Y-112925314D01*
X93940938Y-113203126D01*
G37*
G36*
X90329376Y-114592188D02*
G01*
X90051563Y-114592188D01*
X90051563Y-114314376D01*
X90329376Y-114314376D01*
X90329376Y-114592188D01*
G37*
G36*
X88940313Y-113758751D02*
G01*
X88662501Y-113758751D01*
X88662501Y-113480938D01*
X88940313Y-113480938D01*
X88940313Y-113758751D01*
G37*
G36*
X93385313Y-113203126D02*
G01*
X93107501Y-113203126D01*
X93107501Y-112925314D01*
X93385313Y-112925314D01*
X93385313Y-113203126D01*
G37*
G36*
X90329376Y-116814688D02*
G01*
X90051563Y-116814688D01*
X90051563Y-116536876D01*
X90329376Y-116536876D01*
X90329376Y-116814688D01*
G37*
G36*
X95330001Y-111814063D02*
G01*
X95052188Y-111814063D01*
X95052188Y-111536251D01*
X95330001Y-111536251D01*
X95330001Y-111814063D01*
G37*
G36*
X88106876Y-114592188D02*
G01*
X87829063Y-114592188D01*
X87829063Y-114314376D01*
X88106876Y-114314376D01*
X88106876Y-114592188D01*
G37*
G36*
X88662501Y-114036563D02*
G01*
X88384688Y-114036563D01*
X88384688Y-113758751D01*
X88662501Y-113758751D01*
X88662501Y-114036563D01*
G37*
G36*
X132708856Y-40001800D02*
G01*
X132351019Y-40001800D01*
X133618784Y-36750595D01*
X133976620Y-36750595D01*
X132708856Y-40001800D01*
G37*
G36*
X90607188Y-112369688D02*
G01*
X90329376Y-112369688D01*
X90329376Y-112091876D01*
X90607188Y-112091876D01*
X90607188Y-112369688D01*
G37*
G36*
X92551876Y-110980626D02*
G01*
X92274063Y-110980626D01*
X92274063Y-110702813D01*
X92551876Y-110702813D01*
X92551876Y-110980626D01*
G37*
G36*
X91718439Y-115147813D02*
G01*
X91440626Y-115147813D01*
X91440626Y-114870001D01*
X91718439Y-114870001D01*
X91718439Y-115147813D01*
G37*
G36*
X89495938Y-113480938D02*
G01*
X89218126Y-113480938D01*
X89218126Y-113203126D01*
X89495938Y-113203126D01*
X89495938Y-113480938D01*
G37*
D11*
X64734375Y-115775000D02*
X86690625Y-115775000D01*
D10*
G36*
X90329376Y-115703438D02*
G01*
X90051563Y-115703438D01*
X90051563Y-115425626D01*
X90329376Y-115425626D01*
X90329376Y-115703438D01*
G37*
G36*
X92829688Y-110425001D02*
G01*
X92551876Y-110425001D01*
X92551876Y-110147188D01*
X92829688Y-110147188D01*
X92829688Y-110425001D01*
G37*
G36*
X92829688Y-114592188D02*
G01*
X92551876Y-114592188D01*
X92551876Y-114314376D01*
X92829688Y-114314376D01*
X92829688Y-114592188D01*
G37*
G36*
X91996251Y-111536251D02*
G01*
X91718439Y-111536251D01*
X91718439Y-111258438D01*
X91996251Y-111258438D01*
X91996251Y-111536251D01*
G37*
G36*
X88384688Y-112925314D02*
G01*
X88106876Y-112925314D01*
X88106876Y-112647501D01*
X88384688Y-112647501D01*
X88384688Y-112925314D01*
G37*
G36*
X88940313Y-113480938D02*
G01*
X88662501Y-113480938D01*
X88662501Y-113203126D01*
X88940313Y-113203126D01*
X88940313Y-113480938D01*
G37*
G36*
X93940938Y-111258438D02*
G01*
X93663126Y-111258438D01*
X93663126Y-110980626D01*
X93940938Y-110980626D01*
X93940938Y-111258438D01*
G37*
G36*
X93107501Y-116814688D02*
G01*
X92829688Y-116814688D01*
X92829688Y-116536876D01*
X93107501Y-116536876D01*
X93107501Y-116814688D01*
G37*
G36*
X94496563Y-113203126D02*
G01*
X94218751Y-113203126D01*
X94218751Y-112925314D01*
X94496563Y-112925314D01*
X94496563Y-113203126D01*
G37*
G36*
X95330001Y-115147813D02*
G01*
X95052188Y-115147813D01*
X95052188Y-114870001D01*
X95330001Y-114870001D01*
X95330001Y-115147813D01*
G37*
G36*
X92829688Y-111258438D02*
G01*
X92551876Y-111258438D01*
X92551876Y-110980626D01*
X92829688Y-110980626D01*
X92829688Y-111258438D01*
G37*
G36*
X91440626Y-109035938D02*
G01*
X91162813Y-109035938D01*
X91162813Y-108758126D01*
X91440626Y-108758126D01*
X91440626Y-109035938D01*
G37*
G36*
X91718439Y-113758751D02*
G01*
X91440626Y-113758751D01*
X91440626Y-113480938D01*
X91718439Y-113480938D01*
X91718439Y-113758751D01*
G37*
G36*
X90051563Y-110702813D02*
G01*
X89773751Y-110702813D01*
X89773751Y-110425001D01*
X90051563Y-110425001D01*
X90051563Y-110702813D01*
G37*
G36*
X90885001Y-115425626D02*
G01*
X90607188Y-115425626D01*
X90607188Y-115147813D01*
X90885001Y-115147813D01*
X90885001Y-115425626D01*
G37*
G36*
X92551876Y-109035938D02*
G01*
X92274063Y-109035938D01*
X92274063Y-108758126D01*
X92551876Y-108758126D01*
X92551876Y-109035938D01*
G37*
G36*
X88940313Y-116259063D02*
G01*
X88106876Y-116259063D01*
X88106876Y-115425626D01*
X88940313Y-115425626D01*
X88940313Y-116259063D01*
G37*
G36*
X89773751Y-112647501D02*
G01*
X89495938Y-112647501D01*
X89495938Y-112369688D01*
X89773751Y-112369688D01*
X89773751Y-112647501D01*
G37*
G36*
X94774376Y-116536876D02*
G01*
X94496563Y-116536876D01*
X94496563Y-116259063D01*
X94774376Y-116259063D01*
X94774376Y-116536876D01*
G37*
G36*
X92274063Y-112925314D02*
G01*
X91996251Y-112925314D01*
X91996251Y-112647501D01*
X92274063Y-112647501D01*
X92274063Y-112925314D01*
G37*
G36*
X93385313Y-114592188D02*
G01*
X93107501Y-114592188D01*
X93107501Y-114314376D01*
X93385313Y-114314376D01*
X93385313Y-114592188D01*
G37*
G36*
X89773751Y-114036563D02*
G01*
X89495938Y-114036563D01*
X89495938Y-113758751D01*
X89773751Y-113758751D01*
X89773751Y-114036563D01*
G37*
G36*
X91996251Y-115981251D02*
G01*
X91718439Y-115981251D01*
X91718439Y-115703438D01*
X91996251Y-115703438D01*
X91996251Y-115981251D01*
G37*
G36*
X91162813Y-111536251D02*
G01*
X90885001Y-111536251D01*
X90885001Y-111258438D01*
X91162813Y-111258438D01*
X91162813Y-111536251D01*
G37*
G36*
X135780017Y-40001800D02*
G01*
X135422180Y-40001800D01*
X134154416Y-36750595D01*
X134512253Y-36750595D01*
X135780017Y-40001800D01*
G37*
G36*
X91162813Y-112369688D02*
G01*
X90885001Y-112369688D01*
X90885001Y-112091876D01*
X91162813Y-112091876D01*
X91162813Y-112369688D01*
G37*
G36*
X93385313Y-116814688D02*
G01*
X93107501Y-116814688D01*
X93107501Y-116536876D01*
X93385313Y-116536876D01*
X93385313Y-116814688D01*
G37*
G36*
X95052188Y-110147188D02*
G01*
X94218751Y-110147188D01*
X94218751Y-109313751D01*
X95052188Y-109313751D01*
X95052188Y-110147188D01*
G37*
G36*
X95330001Y-116536876D02*
G01*
X95052188Y-116536876D01*
X95052188Y-116259063D01*
X95330001Y-116259063D01*
X95330001Y-116536876D01*
G37*
G36*
X95330001Y-113480938D02*
G01*
X95052188Y-113480938D01*
X95052188Y-113203126D01*
X95330001Y-113203126D01*
X95330001Y-113480938D01*
G37*
G36*
X92274063Y-116814688D02*
G01*
X91996251Y-116814688D01*
X91996251Y-116536876D01*
X92274063Y-116536876D01*
X92274063Y-116814688D01*
G37*
G36*
X90607188Y-116814688D02*
G01*
X90329376Y-116814688D01*
X90329376Y-116536876D01*
X90607188Y-116536876D01*
X90607188Y-116814688D01*
G37*
G36*
X92274063Y-113203126D02*
G01*
X91996251Y-113203126D01*
X91996251Y-112925314D01*
X92274063Y-112925314D01*
X92274063Y-113203126D01*
G37*
G36*
X89495938Y-112369688D02*
G01*
X89218126Y-112369688D01*
X89218126Y-112091876D01*
X89495938Y-112091876D01*
X89495938Y-112369688D01*
G37*
G36*
X93385313Y-110425001D02*
G01*
X93107501Y-110425001D01*
X93107501Y-110147188D01*
X93385313Y-110147188D01*
X93385313Y-110425001D01*
G37*
G36*
X88106876Y-112091876D02*
G01*
X87829063Y-112091876D01*
X87829063Y-111814063D01*
X88106876Y-111814063D01*
X88106876Y-112091876D01*
G37*
G36*
X95330001Y-116814688D02*
G01*
X95052188Y-116814688D01*
X95052188Y-116536876D01*
X95330001Y-116536876D01*
X95330001Y-116814688D01*
G37*
G36*
X90607188Y-109869376D02*
G01*
X90329376Y-109869376D01*
X90329376Y-109591563D01*
X90607188Y-109591563D01*
X90607188Y-109869376D01*
G37*
G36*
X92274063Y-114036563D02*
G01*
X91996251Y-114036563D01*
X91996251Y-113758751D01*
X92274063Y-113758751D01*
X92274063Y-114036563D01*
G37*
D11*
X94734375Y-103775000D02*
X94734375Y-108050000D01*
D10*
G36*
X89495938Y-110702813D02*
G01*
X87551251Y-110702813D01*
X87551251Y-109049829D01*
X87842954Y-109049829D01*
X87842954Y-110411110D01*
X89204235Y-110411110D01*
X89204235Y-109049829D01*
X87842954Y-109049829D01*
X87551251Y-109049829D01*
X87551251Y-108758126D01*
X89495938Y-108758126D01*
X89495938Y-110702813D01*
G37*
G36*
X91162813Y-113758751D02*
G01*
X90885001Y-113758751D01*
X90885001Y-113480938D01*
X91162813Y-113480938D01*
X91162813Y-113758751D01*
G37*
G36*
X91718439Y-116814688D02*
G01*
X91440626Y-116814688D01*
X91440626Y-116536876D01*
X91718439Y-116536876D01*
X91718439Y-116814688D01*
G37*
G36*
X90885001Y-115147813D02*
G01*
X90607188Y-115147813D01*
X90607188Y-114870001D01*
X90885001Y-114870001D01*
X90885001Y-115147813D01*
G37*
G36*
X90607188Y-114870001D02*
G01*
X90329376Y-114870001D01*
X90329376Y-114592188D01*
X90607188Y-114592188D01*
X90607188Y-114870001D01*
G37*
G36*
X87829063Y-114036563D02*
G01*
X87551251Y-114036563D01*
X87551251Y-113758751D01*
X87829063Y-113758751D01*
X87829063Y-114036563D01*
G37*
G36*
X135424403Y-40001812D02*
G01*
X135246530Y-40001812D01*
X135106897Y-39643712D01*
X135284750Y-39643671D01*
X135424403Y-40001812D01*
G37*
G36*
X92551876Y-114036563D02*
G01*
X92274063Y-114036563D01*
X92274063Y-113758751D01*
X92551876Y-113758751D01*
X92551876Y-114036563D01*
G37*
G36*
X94496563Y-115703438D02*
G01*
X94218751Y-115703438D01*
X94218751Y-115425626D01*
X94496563Y-115425626D01*
X94496563Y-115703438D01*
G37*
G36*
X139293838Y-98255018D02*
G01*
X139258021Y-98253571D01*
X139222778Y-98251160D01*
X139188109Y-98247785D01*
X139154012Y-98243445D01*
X139120489Y-98238140D01*
X139087539Y-98231871D01*
X139055162Y-98224638D01*
X139023358Y-98216441D01*
X138992127Y-98207278D01*
X138961469Y-98197152D01*
X138931384Y-98186061D01*
X138901871Y-98174006D01*
X138872932Y-98160987D01*
X138844565Y-98147003D01*
X138816770Y-98132055D01*
X138789649Y-98116247D01*
X138763296Y-98099684D01*
X138737712Y-98082366D01*
X138712896Y-98064293D01*
X138688849Y-98045466D01*
X138665570Y-98025884D01*
X138643060Y-98005547D01*
X138621319Y-97984455D01*
X138600346Y-97962609D01*
X138580142Y-97940008D01*
X138560706Y-97916652D01*
X138542040Y-97892541D01*
X138524142Y-97867676D01*
X138507012Y-97842056D01*
X138490652Y-97815681D01*
X138475060Y-97788552D01*
X138460328Y-97760815D01*
X138446546Y-97732616D01*
X138433715Y-97703956D01*
X138421834Y-97674835D01*
X138410904Y-97645253D01*
X138400924Y-97615209D01*
X138391894Y-97584704D01*
X138383816Y-97553738D01*
X138376687Y-97522311D01*
X138370509Y-97490422D01*
X138365281Y-97458072D01*
X138361004Y-97425261D01*
X138357678Y-97391988D01*
X138355302Y-97358254D01*
X138353876Y-97324059D01*
X138353401Y-97289403D01*
X138353652Y-97266264D01*
X138354407Y-97243362D01*
X138354632Y-97239309D01*
X138732680Y-97239309D01*
X138733323Y-97269828D01*
X138735252Y-97299663D01*
X138738467Y-97328812D01*
X138742967Y-97357276D01*
X138748754Y-97385056D01*
X138755826Y-97412150D01*
X138764185Y-97438560D01*
X138773829Y-97464284D01*
X138784759Y-97489324D01*
X138796975Y-97513679D01*
X138810476Y-97537349D01*
X138825263Y-97560335D01*
X138841336Y-97582635D01*
X138858695Y-97604251D01*
X138877339Y-97625182D01*
X138897269Y-97645428D01*
X138918252Y-97664709D01*
X138940044Y-97682746D01*
X138962646Y-97699539D01*
X138986059Y-97715089D01*
X139010281Y-97729394D01*
X139035314Y-97742455D01*
X139061157Y-97754273D01*
X139087810Y-97764846D01*
X139115274Y-97774176D01*
X139143549Y-97782261D01*
X139172634Y-97789103D01*
X139202530Y-97794701D01*
X139233238Y-97799055D01*
X139264756Y-97802165D01*
X139297086Y-97804031D01*
X139330227Y-97804652D01*
X139363367Y-97804031D01*
X139395695Y-97802165D01*
X139427213Y-97799055D01*
X139457920Y-97794701D01*
X139487817Y-97789103D01*
X139516903Y-97782261D01*
X139545178Y-97774176D01*
X139572643Y-97764846D01*
X139599297Y-97754273D01*
X139625140Y-97742455D01*
X139650173Y-97729394D01*
X139674394Y-97715089D01*
X139697805Y-97699539D01*
X139720405Y-97682746D01*
X139742194Y-97664709D01*
X139763172Y-97645428D01*
X139783107Y-97625182D01*
X139801755Y-97604251D01*
X139819116Y-97582635D01*
X139835191Y-97560335D01*
X139849980Y-97537349D01*
X139863483Y-97513679D01*
X139875699Y-97489324D01*
X139886629Y-97464284D01*
X139896273Y-97438560D01*
X139904631Y-97412150D01*
X139911703Y-97385056D01*
X139917489Y-97357276D01*
X139921989Y-97328812D01*
X139925203Y-97299663D01*
X139927132Y-97269828D01*
X139927775Y-97239309D01*
X139927132Y-97208783D01*
X139925203Y-97178928D01*
X139921989Y-97149744D01*
X139917489Y-97121230D01*
X139911703Y-97093388D01*
X139904631Y-97066217D01*
X139896273Y-97039717D01*
X139886629Y-97013888D01*
X139875699Y-96988729D01*
X139863483Y-96964242D01*
X139849980Y-96940425D01*
X139835191Y-96917279D01*
X139819116Y-96894805D01*
X139801755Y-96873000D01*
X139783107Y-96851867D01*
X139763172Y-96831405D01*
X139742194Y-96811906D01*
X139720405Y-96793666D01*
X139697805Y-96776683D01*
X139674394Y-96760959D01*
X139650173Y-96746492D01*
X139625140Y-96733283D01*
X139599297Y-96721333D01*
X139572643Y-96710640D01*
X139545178Y-96701205D01*
X139516903Y-96693028D01*
X139487817Y-96686109D01*
X139457920Y-96680448D01*
X139427213Y-96676045D01*
X139395695Y-96672900D01*
X139363367Y-96671013D01*
X139330227Y-96670384D01*
X139297086Y-96671013D01*
X139264756Y-96672900D01*
X139233238Y-96676045D01*
X139202530Y-96680448D01*
X139172634Y-96686109D01*
X139143549Y-96693028D01*
X139115274Y-96701205D01*
X139087810Y-96710640D01*
X139061157Y-96721333D01*
X139035314Y-96733283D01*
X139010281Y-96746492D01*
X138986059Y-96760959D01*
X138962646Y-96776683D01*
X138940044Y-96793666D01*
X138918252Y-96811906D01*
X138897269Y-96831405D01*
X138877339Y-96851867D01*
X138858695Y-96873000D01*
X138841336Y-96894805D01*
X138825263Y-96917279D01*
X138810476Y-96940425D01*
X138796975Y-96964242D01*
X138784759Y-96988729D01*
X138773829Y-97013888D01*
X138764185Y-97039717D01*
X138755826Y-97066217D01*
X138748754Y-97093388D01*
X138742967Y-97121230D01*
X138738467Y-97149744D01*
X138735252Y-97178928D01*
X138733323Y-97208783D01*
X138732680Y-97239309D01*
X138354632Y-97239309D01*
X138355665Y-97220698D01*
X138357426Y-97198272D01*
X138359691Y-97176083D01*
X138362458Y-97154132D01*
X138365729Y-97132419D01*
X138369503Y-97110943D01*
X138373780Y-97089705D01*
X138378560Y-97068704D01*
X138383842Y-97047942D01*
X138389628Y-97027416D01*
X138395918Y-97007129D01*
X138402710Y-96987079D01*
X138410005Y-96967267D01*
X138417802Y-96947693D01*
X138426092Y-96928397D01*
X138434856Y-96909423D01*
X138444096Y-96890770D01*
X138453810Y-96872439D01*
X138464000Y-96854430D01*
X138474665Y-96836741D01*
X138485805Y-96819374D01*
X138497420Y-96802329D01*
X138509510Y-96785605D01*
X138522075Y-96769203D01*
X138535115Y-96753122D01*
X138548630Y-96737363D01*
X138562621Y-96721925D01*
X138577086Y-96706809D01*
X138592026Y-96692014D01*
X138607442Y-96677541D01*
X138374872Y-96677541D01*
X138374872Y-96230275D01*
X140285582Y-96230275D01*
X140285582Y-96656076D01*
X140038698Y-96656076D01*
X140055428Y-96670144D01*
X140071627Y-96684617D01*
X140087295Y-96699496D01*
X140102432Y-96714780D01*
X140117038Y-96730469D01*
X140131113Y-96746564D01*
X140144657Y-96763064D01*
X140157670Y-96779969D01*
X140170152Y-96797280D01*
X140182103Y-96814995D01*
X140193523Y-96833117D01*
X140204411Y-96851643D01*
X140214768Y-96870575D01*
X140224594Y-96889912D01*
X140233889Y-96909655D01*
X140242652Y-96929803D01*
X140250884Y-96950286D01*
X140258585Y-96971035D01*
X140265755Y-96992049D01*
X140272394Y-97013329D01*
X140278501Y-97034875D01*
X140284078Y-97056686D01*
X140289123Y-97078762D01*
X140293637Y-97101104D01*
X140297621Y-97123712D01*
X140301073Y-97146585D01*
X140303994Y-97169724D01*
X140306384Y-97193128D01*
X140308243Y-97216798D01*
X140309570Y-97240734D01*
X140310367Y-97264936D01*
X140310633Y-97289403D01*
X140310157Y-97324059D01*
X140308732Y-97358254D01*
X140306356Y-97391988D01*
X140303029Y-97425261D01*
X140298752Y-97458072D01*
X140293525Y-97490422D01*
X140287347Y-97522311D01*
X140280219Y-97553738D01*
X140272141Y-97584704D01*
X140263113Y-97615209D01*
X140253134Y-97645253D01*
X140242205Y-97674835D01*
X140230325Y-97703956D01*
X140217496Y-97732616D01*
X140203716Y-97760815D01*
X140188986Y-97788552D01*
X140173385Y-97815681D01*
X140157002Y-97842056D01*
X140139837Y-97867676D01*
X140121889Y-97892541D01*
X140103159Y-97916652D01*
X140083647Y-97940008D01*
X140063351Y-97962609D01*
X140042274Y-97984455D01*
X140020413Y-98005547D01*
X139997770Y-98025884D01*
X139974344Y-98045466D01*
X139950135Y-98064293D01*
X139925142Y-98082366D01*
X139899367Y-98099684D01*
X139872809Y-98116247D01*
X139845467Y-98132055D01*
X139817459Y-98147003D01*
X139788892Y-98160987D01*
X139759765Y-98174006D01*
X139730079Y-98186061D01*
X139699834Y-98197152D01*
X139669030Y-98207278D01*
X139637666Y-98216441D01*
X139605743Y-98224638D01*
X139573261Y-98231871D01*
X139540220Y-98238140D01*
X139506619Y-98243445D01*
X139472459Y-98247785D01*
X139437740Y-98251160D01*
X139402462Y-98253571D01*
X139366624Y-98255018D01*
X139330227Y-98255500D01*
X139293838Y-98255018D01*
G37*
G36*
X95330001Y-112925314D02*
G01*
X95052188Y-112925314D01*
X95052188Y-112647501D01*
X95330001Y-112647501D01*
X95330001Y-112925314D01*
G37*
G36*
X95607813Y-116259063D02*
G01*
X95330001Y-116259063D01*
X95330001Y-115981251D01*
X95607813Y-115981251D01*
X95607813Y-116259063D01*
G37*
G36*
X88940313Y-113203126D02*
G01*
X88662501Y-113203126D01*
X88662501Y-112925314D01*
X88940313Y-112925314D01*
X88940313Y-113203126D01*
G37*
G36*
X91718439Y-111536251D02*
G01*
X91440626Y-111536251D01*
X91440626Y-111258438D01*
X91718439Y-111258438D01*
X91718439Y-111536251D01*
G37*
G36*
X87829063Y-112369688D02*
G01*
X87551251Y-112369688D01*
X87551251Y-112091876D01*
X87829063Y-112091876D01*
X87829063Y-112369688D01*
G37*
G36*
X94218751Y-115981251D02*
G01*
X93940938Y-115981251D01*
X93940938Y-115703438D01*
X94218751Y-115703438D01*
X94218751Y-115981251D01*
G37*
G36*
X91162813Y-109035938D02*
G01*
X90885001Y-109035938D01*
X90885001Y-108758126D01*
X91162813Y-108758126D01*
X91162813Y-109035938D01*
G37*
G36*
X90607188Y-114036563D02*
G01*
X90329376Y-114036563D01*
X90329376Y-113758751D01*
X90607188Y-113758751D01*
X90607188Y-114036563D01*
G37*
G36*
X91162813Y-110425001D02*
G01*
X90885001Y-110425001D01*
X90885001Y-110147188D01*
X91162813Y-110147188D01*
X91162813Y-110425001D01*
G37*
G36*
X94218751Y-114314376D02*
G01*
X93940938Y-114314376D01*
X93940938Y-114036563D01*
X94218751Y-114036563D01*
X94218751Y-114314376D01*
G37*
G36*
X90051563Y-111814063D02*
G01*
X89773751Y-111814063D01*
X89773751Y-111536251D01*
X90051563Y-111536251D01*
X90051563Y-111814063D01*
G37*
G36*
X88940313Y-112925314D02*
G01*
X88662501Y-112925314D01*
X88662501Y-112647501D01*
X88940313Y-112647501D01*
X88940313Y-112925314D01*
G37*
G36*
X91718439Y-112369688D02*
G01*
X91440626Y-112369688D01*
X91440626Y-112091876D01*
X91718439Y-112091876D01*
X91718439Y-112369688D01*
G37*
G36*
X94218751Y-114036563D02*
G01*
X93940938Y-114036563D01*
X93940938Y-113758751D01*
X94218751Y-113758751D01*
X94218751Y-114036563D01*
G37*
G36*
X93107501Y-112647501D02*
G01*
X92829688Y-112647501D01*
X92829688Y-112369688D01*
X93107501Y-112369688D01*
X93107501Y-112647501D01*
G37*
G36*
X95052188Y-114036563D02*
G01*
X94774376Y-114036563D01*
X94774376Y-113758751D01*
X95052188Y-113758751D01*
X95052188Y-114036563D01*
G37*
G36*
X95330001Y-111258438D02*
G01*
X95052188Y-111258438D01*
X95052188Y-110980626D01*
X95330001Y-110980626D01*
X95330001Y-111258438D01*
G37*
G36*
X95052188Y-114314376D02*
G01*
X94774376Y-114314376D01*
X94774376Y-114036563D01*
X95052188Y-114036563D01*
X95052188Y-114314376D01*
G37*
G36*
X90607188Y-114592188D02*
G01*
X90329376Y-114592188D01*
X90329376Y-114314376D01*
X90607188Y-114314376D01*
X90607188Y-114592188D01*
G37*
G36*
X93940938Y-112925314D02*
G01*
X93663126Y-112925314D01*
X93663126Y-112647501D01*
X93940938Y-112647501D01*
X93940938Y-112925314D01*
G37*
G36*
X91162813Y-116814688D02*
G01*
X90885001Y-116814688D01*
X90885001Y-116536876D01*
X91162813Y-116536876D01*
X91162813Y-116814688D01*
G37*
G36*
X91162813Y-109313751D02*
G01*
X90885001Y-109313751D01*
X90885001Y-109035938D01*
X91162813Y-109035938D01*
X91162813Y-109313751D01*
G37*
G36*
X93385313Y-115425626D02*
G01*
X93107501Y-115425626D01*
X93107501Y-115147813D01*
X93385313Y-115147813D01*
X93385313Y-115425626D01*
G37*
G36*
X87829063Y-113203126D02*
G01*
X87551251Y-113203126D01*
X87551251Y-112925314D01*
X87829063Y-112925314D01*
X87829063Y-113203126D01*
G37*
G36*
X91162813Y-115703438D02*
G01*
X90885001Y-115703438D01*
X90885001Y-115425626D01*
X91162813Y-115425626D01*
X91162813Y-115703438D01*
G37*
G36*
X95052188Y-114870001D02*
G01*
X94774376Y-114870001D01*
X94774376Y-114592188D01*
X95052188Y-114592188D01*
X95052188Y-114870001D01*
G37*
G36*
X87829063Y-111258438D02*
G01*
X87551251Y-111258438D01*
X87551251Y-110980626D01*
X87829063Y-110980626D01*
X87829063Y-111258438D01*
G37*
D11*
X64734375Y-115775000D02*
X64734375Y-103775000D01*
D10*
G36*
X95052188Y-112369688D02*
G01*
X94774376Y-112369688D01*
X94774376Y-112091876D01*
X95052188Y-112091876D01*
X95052188Y-112369688D01*
G37*
G36*
X94218751Y-113758751D02*
G01*
X93940938Y-113758751D01*
X93940938Y-113480938D01*
X94218751Y-113480938D01*
X94218751Y-113758751D01*
G37*
G36*
X95052188Y-114592188D02*
G01*
X94774376Y-114592188D01*
X94774376Y-114314376D01*
X95052188Y-114314376D01*
X95052188Y-114592188D01*
G37*
G36*
X92274063Y-110980626D02*
G01*
X91996251Y-110980626D01*
X91996251Y-110702813D01*
X92274063Y-110702813D01*
X92274063Y-110980626D01*
G37*
G36*
X133557524Y-39643712D02*
G01*
X133417892Y-40001812D01*
X133240018Y-40001812D01*
X133379671Y-39643671D01*
X133557524Y-39643712D01*
G37*
G36*
X92274063Y-112647501D02*
G01*
X91996251Y-112647501D01*
X91996251Y-112369688D01*
X92274063Y-112369688D01*
X92274063Y-112647501D01*
G37*
G36*
X91718439Y-110702813D02*
G01*
X91440626Y-110702813D01*
X91440626Y-110425001D01*
X91718439Y-110425001D01*
X91718439Y-110702813D01*
G37*
G36*
X92829688Y-111814063D02*
G01*
X92551876Y-111814063D01*
X92551876Y-111536251D01*
X92829688Y-111536251D01*
X92829688Y-111814063D01*
G37*
G36*
X95607813Y-115981251D02*
G01*
X95330001Y-115981251D01*
X95330001Y-115703438D01*
X95607813Y-115703438D01*
X95607813Y-115981251D01*
G37*
G36*
X87829063Y-111536251D02*
G01*
X87551251Y-111536251D01*
X87551251Y-111258438D01*
X87829063Y-111258438D01*
X87829063Y-111536251D01*
G37*
G36*
X92274063Y-112091876D02*
G01*
X91996251Y-112091876D01*
X91996251Y-111814063D01*
X92274063Y-111814063D01*
X92274063Y-112091876D01*
G37*
G36*
X93107501Y-109869376D02*
G01*
X92829688Y-109869376D01*
X92829688Y-109591563D01*
X93107501Y-109591563D01*
X93107501Y-109869376D01*
G37*
G36*
X91440626Y-114036563D02*
G01*
X91162813Y-114036563D01*
X91162813Y-113758751D01*
X91440626Y-113758751D01*
X91440626Y-114036563D01*
G37*
G36*
X94496563Y-111536251D02*
G01*
X94218751Y-111536251D01*
X94218751Y-111258438D01*
X94496563Y-111258438D01*
X94496563Y-111536251D01*
G37*
G36*
X93107501Y-109035938D02*
G01*
X92829688Y-109035938D01*
X92829688Y-108758126D01*
X93107501Y-108758126D01*
X93107501Y-109035938D01*
G37*
G36*
X93663126Y-115981251D02*
G01*
X93385313Y-115981251D01*
X93385313Y-115703438D01*
X93663126Y-115703438D01*
X93663126Y-115981251D01*
G37*
G36*
X91440626Y-110425001D02*
G01*
X91162813Y-110425001D01*
X91162813Y-110147188D01*
X91440626Y-110147188D01*
X91440626Y-110425001D01*
G37*
G36*
X93663126Y-111814063D02*
G01*
X93385313Y-111814063D01*
X93385313Y-111536251D01*
X93663126Y-111536251D01*
X93663126Y-111814063D01*
G37*
G36*
X95052188Y-112647501D02*
G01*
X94774376Y-112647501D01*
X94774376Y-112369688D01*
X95052188Y-112369688D01*
X95052188Y-112647501D01*
G37*
G36*
X94218751Y-116536876D02*
G01*
X93940938Y-116536876D01*
X93940938Y-116259063D01*
X94218751Y-116259063D01*
X94218751Y-116536876D01*
G37*
G36*
X92829688Y-114314376D02*
G01*
X92551876Y-114314376D01*
X92551876Y-114036563D01*
X92829688Y-114036563D01*
X92829688Y-114314376D01*
G37*
G36*
X91718439Y-115425626D02*
G01*
X91440626Y-115425626D01*
X91440626Y-115147813D01*
X91718439Y-115147813D01*
X91718439Y-115425626D01*
G37*
G36*
X88384688Y-112369688D02*
G01*
X88106876Y-112369688D01*
X88106876Y-112091876D01*
X88384688Y-112091876D01*
X88384688Y-112369688D01*
G37*
G36*
X90329376Y-115981251D02*
G01*
X90051563Y-115981251D01*
X90051563Y-115703438D01*
X90329376Y-115703438D01*
X90329376Y-115981251D01*
G37*
G36*
X93385313Y-114870001D02*
G01*
X93107501Y-114870001D01*
X93107501Y-114592188D01*
X93385313Y-114592188D01*
X93385313Y-114870001D01*
G37*
G36*
X92274063Y-109313751D02*
G01*
X91996251Y-109313751D01*
X91996251Y-109035938D01*
X92274063Y-109035938D01*
X92274063Y-109313751D01*
G37*
G36*
X92551876Y-109869376D02*
G01*
X92274063Y-109869376D01*
X92274063Y-109591563D01*
X92551876Y-109591563D01*
X92551876Y-109869376D01*
G37*
G36*
X140285582Y-98853048D02*
G01*
X139466201Y-99515000D01*
X139781065Y-99847767D01*
X140285582Y-99847767D01*
X140285582Y-100295033D01*
X137630615Y-100295033D01*
X137630615Y-99847767D01*
X139233605Y-99847767D01*
X138374872Y-98921031D01*
X138374872Y-98384310D01*
X139176374Y-99182236D01*
X140285582Y-98309169D01*
X140285582Y-98853048D01*
G37*
D11*
X64734375Y-103775000D02*
X94734375Y-103775000D01*
D10*
G36*
X90051563Y-114036563D02*
G01*
X89773751Y-114036563D01*
X89773751Y-113758751D01*
X90051563Y-113758751D01*
X90051563Y-114036563D01*
G37*
G36*
X94218751Y-111814063D02*
G01*
X93940938Y-111814063D01*
X93940938Y-111536251D01*
X94218751Y-111536251D01*
X94218751Y-111814063D01*
G37*
G36*
X91718439Y-112647501D02*
G01*
X91440626Y-112647501D01*
X91440626Y-112369688D01*
X91718439Y-112369688D01*
X91718439Y-112647501D01*
G37*
G36*
X90607188Y-114314376D02*
G01*
X90329376Y-114314376D01*
X90329376Y-114036563D01*
X90607188Y-114036563D01*
X90607188Y-114314376D01*
G37*
G36*
X93940938Y-114592188D02*
G01*
X93663126Y-114592188D01*
X93663126Y-114314376D01*
X93940938Y-114314376D01*
X93940938Y-114592188D01*
G37*
G36*
X91718439Y-114036563D02*
G01*
X91440626Y-114036563D01*
X91440626Y-113758751D01*
X91718439Y-113758751D01*
X91718439Y-114036563D01*
G37*
G36*
X92551876Y-109313751D02*
G01*
X92274063Y-109313751D01*
X92274063Y-109035938D01*
X92551876Y-109035938D01*
X92551876Y-109313751D01*
G37*
G36*
X93385313Y-112925314D02*
G01*
X93107501Y-112925314D01*
X93107501Y-112647501D01*
X93385313Y-112647501D01*
X93385313Y-112925314D01*
G37*
G36*
X94774376Y-114592188D02*
G01*
X94496563Y-114592188D01*
X94496563Y-114314376D01*
X94774376Y-114314376D01*
X94774376Y-114592188D01*
G37*
G36*
X91996251Y-109035938D02*
G01*
X91718439Y-109035938D01*
X91718439Y-108758126D01*
X91996251Y-108758126D01*
X91996251Y-109035938D01*
G37*
G36*
X91162813Y-112091876D02*
G01*
X90885001Y-112091876D01*
X90885001Y-111814063D01*
X91162813Y-111814063D01*
X91162813Y-112091876D01*
G37*
G36*
X90051563Y-112369688D02*
G01*
X89773751Y-112369688D01*
X89773751Y-112091876D01*
X90051563Y-112091876D01*
X90051563Y-112369688D01*
G37*
G36*
X90885001Y-111258438D02*
G01*
X90607188Y-111258438D01*
X90607188Y-110980626D01*
X90885001Y-110980626D01*
X90885001Y-111258438D01*
G37*
G36*
X93940938Y-114036563D02*
G01*
X93663126Y-114036563D01*
X93663126Y-113758751D01*
X93940938Y-113758751D01*
X93940938Y-114036563D01*
G37*
G36*
X88384688Y-113480938D02*
G01*
X88106876Y-113480938D01*
X88106876Y-113203126D01*
X88384688Y-113203126D01*
X88384688Y-113480938D01*
G37*
G36*
X91996251Y-110425001D02*
G01*
X91718439Y-110425001D01*
X91718439Y-110147188D01*
X91996251Y-110147188D01*
X91996251Y-110425001D01*
G37*
G36*
X89218126Y-114314376D02*
G01*
X88940313Y-114314376D01*
X88940313Y-114036563D01*
X89218126Y-114036563D01*
X89218126Y-114314376D01*
G37*
G36*
X91996251Y-112369688D02*
G01*
X91718439Y-112369688D01*
X91718439Y-112091876D01*
X91996251Y-112091876D01*
X91996251Y-112369688D01*
G37*
G36*
X139293838Y-90529834D02*
G01*
X139258021Y-90528388D01*
X139222778Y-90525977D01*
X139188109Y-90522601D01*
X139154012Y-90518262D01*
X139120489Y-90512957D01*
X139087539Y-90506689D01*
X139055162Y-90499456D01*
X139023358Y-90491258D01*
X138992127Y-90482096D01*
X138961469Y-90471970D01*
X138931384Y-90460879D01*
X138901871Y-90448824D01*
X138872932Y-90435804D01*
X138844565Y-90421820D01*
X138816770Y-90406871D01*
X138789649Y-90391063D01*
X138763296Y-90374500D01*
X138737712Y-90357182D01*
X138712896Y-90339110D01*
X138688849Y-90320282D01*
X138665570Y-90300700D01*
X138643060Y-90280364D01*
X138621319Y-90259272D01*
X138600346Y-90237426D01*
X138580142Y-90214825D01*
X138560706Y-90191469D01*
X138542040Y-90167359D01*
X138524142Y-90142494D01*
X138507012Y-90116875D01*
X138490652Y-90090501D01*
X138475060Y-90063372D01*
X138460328Y-90035634D01*
X138446546Y-90007435D01*
X138433715Y-89978775D01*
X138421834Y-89949654D01*
X138410904Y-89920071D01*
X138400924Y-89890027D01*
X138391894Y-89859522D01*
X138383816Y-89828556D01*
X138376687Y-89797128D01*
X138370509Y-89765239D01*
X138365281Y-89732889D01*
X138361004Y-89700078D01*
X138357678Y-89666805D01*
X138355302Y-89633071D01*
X138353876Y-89598876D01*
X138353401Y-89564219D01*
X138353652Y-89541080D01*
X138354407Y-89518179D01*
X138354632Y-89514126D01*
X138732680Y-89514126D01*
X138733323Y-89544645D01*
X138735252Y-89574479D01*
X138738467Y-89603629D01*
X138742967Y-89632094D01*
X138748754Y-89659873D01*
X138755826Y-89686968D01*
X138764185Y-89713378D01*
X138773829Y-89739103D01*
X138784759Y-89764143D01*
X138796975Y-89788498D01*
X138810476Y-89812169D01*
X138825263Y-89835154D01*
X138841336Y-89857454D01*
X138858695Y-89879069D01*
X138877339Y-89899999D01*
X138897269Y-89920244D01*
X138918252Y-89939526D01*
X138940044Y-89957564D01*
X138962646Y-89974358D01*
X138986059Y-89989907D01*
X139010281Y-90004213D01*
X139035314Y-90017275D01*
X139061157Y-90029093D01*
X139087810Y-90039667D01*
X139115274Y-90048997D01*
X139143549Y-90057083D01*
X139172634Y-90063925D01*
X139202530Y-90069523D01*
X139233238Y-90073877D01*
X139264756Y-90076987D01*
X139297086Y-90078853D01*
X139330227Y-90079475D01*
X139363367Y-90078853D01*
X139395695Y-90076987D01*
X139427213Y-90073877D01*
X139457920Y-90069523D01*
X139487817Y-90063925D01*
X139516903Y-90057083D01*
X139545178Y-90048997D01*
X139572643Y-90039667D01*
X139599297Y-90029093D01*
X139625140Y-90017275D01*
X139650173Y-90004213D01*
X139674394Y-89989907D01*
X139697805Y-89974358D01*
X139720405Y-89957564D01*
X139742194Y-89939526D01*
X139763172Y-89920244D01*
X139783107Y-89899999D01*
X139801755Y-89879069D01*
X139819116Y-89857454D01*
X139835191Y-89835154D01*
X139849980Y-89812169D01*
X139863483Y-89788498D01*
X139875699Y-89764143D01*
X139886629Y-89739103D01*
X139896273Y-89713378D01*
X139904631Y-89686968D01*
X139911703Y-89659873D01*
X139917489Y-89632094D01*
X139921989Y-89603629D01*
X139925203Y-89574479D01*
X139927132Y-89544645D01*
X139927775Y-89514126D01*
X139927132Y-89483600D01*
X139925203Y-89453745D01*
X139921989Y-89424561D01*
X139917489Y-89396048D01*
X139911703Y-89368206D01*
X139904631Y-89341035D01*
X139896273Y-89314535D01*
X139886629Y-89288705D01*
X139875699Y-89263547D01*
X139863483Y-89239059D01*
X139849980Y-89215242D01*
X139835191Y-89192096D01*
X139819116Y-89169621D01*
X139801755Y-89147817D01*
X139783107Y-89126683D01*
X139763172Y-89106221D01*
X139742194Y-89086723D01*
X139720405Y-89068482D01*
X139697805Y-89051500D01*
X139674394Y-89035776D01*
X139650173Y-89021310D01*
X139625140Y-89008102D01*
X139599297Y-88996152D01*
X139572643Y-88985460D01*
X139545178Y-88976025D01*
X139516903Y-88967849D01*
X139487817Y-88960930D01*
X139457920Y-88955270D01*
X139427213Y-88950867D01*
X139395695Y-88947723D01*
X139363367Y-88945836D01*
X139330227Y-88945207D01*
X139297086Y-88945836D01*
X139264756Y-88947723D01*
X139233238Y-88950867D01*
X139202530Y-88955270D01*
X139172634Y-88960930D01*
X139143549Y-88967849D01*
X139115274Y-88976025D01*
X139087810Y-88985460D01*
X139061157Y-88996152D01*
X139035314Y-89008102D01*
X139010281Y-89021310D01*
X138986059Y-89035776D01*
X138962646Y-89051500D01*
X138940044Y-89068482D01*
X138918252Y-89086723D01*
X138897269Y-89106221D01*
X138877339Y-89126683D01*
X138858695Y-89147817D01*
X138841336Y-89169621D01*
X138825263Y-89192096D01*
X138810476Y-89215242D01*
X138796975Y-89239059D01*
X138784759Y-89263547D01*
X138773829Y-89288705D01*
X138764185Y-89314535D01*
X138755826Y-89341035D01*
X138748754Y-89368206D01*
X138742967Y-89396048D01*
X138738467Y-89424561D01*
X138735252Y-89453745D01*
X138733323Y-89483600D01*
X138732680Y-89514126D01*
X138354632Y-89514126D01*
X138355665Y-89495515D01*
X138357426Y-89473089D01*
X138359691Y-89450901D01*
X138362458Y-89428950D01*
X138365729Y-89407237D01*
X138369503Y-89385761D01*
X138373780Y-89364524D01*
X138378560Y-89343523D01*
X138383842Y-89322761D01*
X138389628Y-89302235D01*
X138395918Y-89281947D01*
X138402710Y-89261897D01*
X138410005Y-89242084D01*
X138417802Y-89222509D01*
X138426092Y-89203214D01*
X138434856Y-89184240D01*
X138444096Y-89165588D01*
X138453810Y-89147258D01*
X138464000Y-89129248D01*
X138474665Y-89111561D01*
X138485805Y-89094194D01*
X138497420Y-89077149D01*
X138509510Y-89060425D01*
X138522075Y-89044023D01*
X138535115Y-89027942D01*
X138548630Y-89012182D01*
X138562621Y-88996744D01*
X138577086Y-88981627D01*
X138592026Y-88966831D01*
X138607442Y-88952357D01*
X138374872Y-88952357D01*
X138374872Y-88505092D01*
X140285582Y-88505092D01*
X140285582Y-88930892D01*
X140038698Y-88930892D01*
X140055428Y-88944960D01*
X140071627Y-88959433D01*
X140087295Y-88974312D01*
X140102432Y-88989596D01*
X140117038Y-89005286D01*
X140131113Y-89021380D01*
X140144657Y-89037880D01*
X140157670Y-89054785D01*
X140170152Y-89072096D01*
X140182103Y-89089812D01*
X140193523Y-89107933D01*
X140204411Y-89126460D01*
X140214768Y-89145392D01*
X140224594Y-89164729D01*
X140233889Y-89184471D01*
X140242652Y-89204619D01*
X140250884Y-89225103D01*
X140258585Y-89245852D01*
X140265755Y-89266866D01*
X140272394Y-89288147D01*
X140278501Y-89309692D01*
X140284078Y-89331504D01*
X140289123Y-89353581D01*
X140293637Y-89375923D01*
X140297621Y-89398531D01*
X140301073Y-89421404D01*
X140303994Y-89444543D01*
X140306384Y-89467948D01*
X140308243Y-89491617D01*
X140309570Y-89515553D01*
X140310367Y-89539753D01*
X140310633Y-89564219D01*
X140310157Y-89598876D01*
X140308732Y-89633071D01*
X140306356Y-89666805D01*
X140303029Y-89700078D01*
X140298752Y-89732889D01*
X140293525Y-89765239D01*
X140287347Y-89797128D01*
X140280219Y-89828556D01*
X140272141Y-89859522D01*
X140263113Y-89890027D01*
X140253134Y-89920071D01*
X140242205Y-89949654D01*
X140230325Y-89978775D01*
X140217496Y-90007435D01*
X140203716Y-90035634D01*
X140188986Y-90063372D01*
X140173385Y-90090501D01*
X140157002Y-90116875D01*
X140139837Y-90142494D01*
X140121889Y-90167359D01*
X140103159Y-90191469D01*
X140083647Y-90214825D01*
X140063351Y-90237426D01*
X140042274Y-90259272D01*
X140020413Y-90280364D01*
X139997770Y-90300700D01*
X139974344Y-90320282D01*
X139950135Y-90339110D01*
X139925142Y-90357182D01*
X139899367Y-90374500D01*
X139872809Y-90391063D01*
X139845467Y-90406871D01*
X139817459Y-90421820D01*
X139788892Y-90435804D01*
X139759765Y-90448824D01*
X139730079Y-90460879D01*
X139699834Y-90471970D01*
X139669030Y-90482096D01*
X139637666Y-90491258D01*
X139605743Y-90499456D01*
X139573261Y-90506689D01*
X139540220Y-90512957D01*
X139506619Y-90518262D01*
X139472459Y-90522601D01*
X139437740Y-90525977D01*
X139402462Y-90528388D01*
X139366624Y-90529834D01*
X139330227Y-90530317D01*
X139293838Y-90529834D01*
G37*
G36*
X89218126Y-112647501D02*
G01*
X88940313Y-112647501D01*
X88940313Y-112369688D01*
X89218126Y-112369688D01*
X89218126Y-112647501D01*
G37*
G36*
X90051563Y-114870001D02*
G01*
X89773751Y-114870001D01*
X89773751Y-114592188D01*
X90051563Y-114592188D01*
X90051563Y-114870001D01*
G37*
G36*
X92551876Y-111814063D02*
G01*
X92274063Y-111814063D01*
X92274063Y-111536251D01*
X92551876Y-111536251D01*
X92551876Y-111814063D01*
G37*
G36*
X91996251Y-112925314D02*
G01*
X91718439Y-112925314D01*
X91718439Y-112647501D01*
X91996251Y-112647501D01*
X91996251Y-112925314D01*
G37*
G36*
X92274063Y-116259063D02*
G01*
X91996251Y-116259063D01*
X91996251Y-115981251D01*
X92274063Y-115981251D01*
X92274063Y-116259063D01*
G37*
G36*
X92829688Y-113203126D02*
G01*
X92551876Y-113203126D01*
X92551876Y-112925314D01*
X92829688Y-112925314D01*
X92829688Y-113203126D01*
G37*
G36*
X88662501Y-111258438D02*
G01*
X88384688Y-111258438D01*
X88384688Y-110980626D01*
X88662501Y-110980626D01*
X88662501Y-111258438D01*
G37*
G36*
X92274063Y-114870001D02*
G01*
X91996251Y-114870001D01*
X91996251Y-114592188D01*
X92274063Y-114592188D01*
X92274063Y-114870001D01*
G37*
G36*
X93385313Y-109035938D02*
G01*
X93107501Y-109035938D01*
X93107501Y-108758126D01*
X93385313Y-108758126D01*
X93385313Y-109035938D01*
G37*
G36*
X89218126Y-114592188D02*
G01*
X88940313Y-114592188D01*
X88940313Y-114314376D01*
X89218126Y-114314376D01*
X89218126Y-114592188D01*
G37*
G36*
X94218751Y-116259063D02*
G01*
X93940938Y-116259063D01*
X93940938Y-115981251D01*
X94218751Y-115981251D01*
X94218751Y-116259063D01*
G37*
G36*
X93940938Y-116814688D02*
G01*
X93663126Y-116814688D01*
X93663126Y-116536876D01*
X93940938Y-116536876D01*
X93940938Y-116814688D01*
G37*
G36*
X88106876Y-111814063D02*
G01*
X87829063Y-111814063D01*
X87829063Y-111536251D01*
X88106876Y-111536251D01*
X88106876Y-111814063D01*
G37*
G36*
X135246617Y-40001800D02*
G01*
X134888780Y-40001800D01*
X133621016Y-36750595D01*
X133978853Y-36750595D01*
X135246617Y-40001800D01*
G37*
G36*
X93663126Y-113203126D02*
G01*
X93385313Y-113203126D01*
X93385313Y-112925314D01*
X93663126Y-112925314D01*
X93663126Y-113203126D01*
G37*
G36*
X93663126Y-114592188D02*
G01*
X93385313Y-114592188D01*
X93385313Y-114314376D01*
X93663126Y-114314376D01*
X93663126Y-114592188D01*
G37*
G36*
X94496563Y-112091876D02*
G01*
X94218751Y-112091876D01*
X94218751Y-111814063D01*
X94496563Y-111814063D01*
X94496563Y-112091876D01*
G37*
G36*
X89495938Y-111258438D02*
G01*
X89218126Y-111258438D01*
X89218126Y-110980626D01*
X89495938Y-110980626D01*
X89495938Y-111258438D01*
G37*
G36*
X87829063Y-113480938D02*
G01*
X87551251Y-113480938D01*
X87551251Y-113203126D01*
X87829063Y-113203126D01*
X87829063Y-113480938D01*
G37*
G36*
X95607813Y-112647501D02*
G01*
X95330001Y-112647501D01*
X95330001Y-112369688D01*
X95607813Y-112369688D01*
X95607813Y-112647501D01*
G37*
G36*
X93385313Y-115703438D02*
G01*
X93107501Y-115703438D01*
X93107501Y-115425626D01*
X93385313Y-115425626D01*
X93385313Y-115703438D01*
G37*
G36*
X92551876Y-114870001D02*
G01*
X92274063Y-114870001D01*
X92274063Y-114592188D01*
X92551876Y-114592188D01*
X92551876Y-114870001D01*
G37*
G36*
X92829688Y-110702813D02*
G01*
X92551876Y-110702813D01*
X92551876Y-110425001D01*
X92829688Y-110425001D01*
X92829688Y-110702813D01*
G37*
G36*
X92829688Y-111536251D02*
G01*
X92551876Y-111536251D01*
X92551876Y-111258438D01*
X92829688Y-111258438D01*
X92829688Y-111536251D01*
G37*
G36*
X92551876Y-113758751D02*
G01*
X92274063Y-113758751D01*
X92274063Y-113480938D01*
X92551876Y-113480938D01*
X92551876Y-113758751D01*
G37*
G36*
X91718439Y-109035938D02*
G01*
X91440626Y-109035938D01*
X91440626Y-108758126D01*
X91718439Y-108758126D01*
X91718439Y-109035938D01*
G37*
G36*
X93385313Y-110980626D02*
G01*
X93107501Y-110980626D01*
X93107501Y-110702813D01*
X93385313Y-110702813D01*
X93385313Y-110980626D01*
G37*
G36*
X93385313Y-115147813D02*
G01*
X93107501Y-115147813D01*
X93107501Y-114870001D01*
X93385313Y-114870001D01*
X93385313Y-115147813D01*
G37*
G36*
X89218126Y-111258438D02*
G01*
X88940313Y-111258438D01*
X88940313Y-110980626D01*
X89218126Y-110980626D01*
X89218126Y-111258438D01*
G37*
G36*
X95607813Y-112091876D02*
G01*
X95330001Y-112091876D01*
X95330001Y-111814063D01*
X95607813Y-111814063D01*
X95607813Y-112091876D01*
G37*
G36*
X138776676Y-94551967D02*
G01*
X138774497Y-94565776D01*
X138772652Y-94579249D01*
X138771142Y-94592388D01*
X138769966Y-94605191D01*
X138769126Y-94617658D01*
X138768621Y-94629790D01*
X138768453Y-94641587D01*
X138769047Y-94673790D01*
X138770830Y-94705098D01*
X138773801Y-94735512D01*
X138777960Y-94765032D01*
X138783307Y-94793657D01*
X138789842Y-94821387D01*
X138797566Y-94848224D01*
X138806477Y-94874165D01*
X138816576Y-94899213D01*
X138827863Y-94923365D01*
X138840338Y-94946623D01*
X138854000Y-94968987D01*
X138868850Y-94990456D01*
X138884887Y-95011030D01*
X138902112Y-95030710D01*
X138920524Y-95049495D01*
X138940058Y-95067259D01*
X138960641Y-95083878D01*
X138982271Y-95099350D01*
X139004950Y-95113676D01*
X139028676Y-95126856D01*
X139053451Y-95138890D01*
X139079274Y-95149778D01*
X139106145Y-95159520D01*
X139134065Y-95168115D01*
X139163033Y-95175565D01*
X139193049Y-95181868D01*
X139224113Y-95187026D01*
X139256226Y-95191037D01*
X139289388Y-95193902D01*
X139323598Y-95195621D01*
X139358856Y-95196194D01*
X140285582Y-95196194D01*
X140285582Y-95643464D01*
X138374872Y-95643464D01*
X138374872Y-95217666D01*
X138653964Y-95217666D01*
X138635472Y-95205303D01*
X138617567Y-95192367D01*
X138600250Y-95178859D01*
X138583519Y-95164777D01*
X138567376Y-95150122D01*
X138551819Y-95134894D01*
X138536850Y-95119092D01*
X138522467Y-95102718D01*
X138508672Y-95085771D01*
X138495464Y-95068251D01*
X138482842Y-95050158D01*
X138470808Y-95031491D01*
X138459361Y-95012252D01*
X138448501Y-94992439D01*
X138438228Y-94972054D01*
X138428541Y-94951095D01*
X138419442Y-94929564D01*
X138410930Y-94907459D01*
X138403005Y-94884781D01*
X138395667Y-94861531D01*
X138388916Y-94837707D01*
X138382753Y-94813310D01*
X138372186Y-94762797D01*
X138363967Y-94709992D01*
X138358097Y-94654895D01*
X138354575Y-94597505D01*
X138353401Y-94537824D01*
X138779189Y-94537824D01*
X138776676Y-94551967D01*
G37*
G36*
X93107501Y-110980626D02*
G01*
X92829688Y-110980626D01*
X92829688Y-110702813D01*
X93107501Y-110702813D01*
X93107501Y-110980626D01*
G37*
G36*
X90885001Y-109591563D02*
G01*
X90607188Y-109591563D01*
X90607188Y-109313751D01*
X90885001Y-109313751D01*
X90885001Y-109591563D01*
G37*
G36*
X92274063Y-113758751D02*
G01*
X91996251Y-113758751D01*
X91996251Y-113480938D01*
X92274063Y-113480938D01*
X92274063Y-113758751D01*
G37*
G36*
X90607188Y-110702813D02*
G01*
X90329376Y-110702813D01*
X90329376Y-110425001D01*
X90607188Y-110425001D01*
X90607188Y-110702813D01*
G37*
G36*
X90051563Y-109313751D02*
G01*
X89773751Y-109313751D01*
X89773751Y-109035938D01*
X90051563Y-109035938D01*
X90051563Y-109313751D01*
G37*
G36*
X93107501Y-110147188D02*
G01*
X92829688Y-110147188D01*
X92829688Y-109869376D01*
X93107501Y-109869376D01*
X93107501Y-110147188D01*
G37*
G36*
X94774376Y-115425626D02*
G01*
X94496563Y-115425626D01*
X94496563Y-115147813D01*
X94774376Y-115147813D01*
X94774376Y-115425626D01*
G37*
G36*
X89495938Y-114036563D02*
G01*
X89218126Y-114036563D01*
X89218126Y-113758751D01*
X89495938Y-113758751D01*
X89495938Y-114036563D01*
G37*
G36*
X93107501Y-113480938D02*
G01*
X92829688Y-113480938D01*
X92829688Y-113203126D01*
X93107501Y-113203126D01*
X93107501Y-113480938D01*
G37*
G36*
X91162813Y-115981251D02*
G01*
X90885001Y-115981251D01*
X90885001Y-115703438D01*
X91162813Y-115703438D01*
X91162813Y-115981251D01*
G37*
G36*
X90051563Y-109035938D02*
G01*
X89773751Y-109035938D01*
X89773751Y-108758126D01*
X90051563Y-108758126D01*
X90051563Y-109035938D01*
G37*
G36*
X94496563Y-114870001D02*
G01*
X94218751Y-114870001D01*
X94218751Y-114592188D01*
X94496563Y-114592188D01*
X94496563Y-114870001D01*
G37*
G36*
X91996251Y-110980626D02*
G01*
X91718439Y-110980626D01*
X91718439Y-110702813D01*
X91996251Y-110702813D01*
X91996251Y-110980626D01*
G37*
G36*
X88384688Y-114592188D02*
G01*
X88106876Y-114592188D01*
X88106876Y-114314376D01*
X88384688Y-114314376D01*
X88384688Y-114592188D01*
G37*
G36*
X89495938Y-112925314D02*
G01*
X89218126Y-112925314D01*
X89218126Y-112647501D01*
X89495938Y-112647501D01*
X89495938Y-112925314D01*
G37*
G36*
X88662501Y-114314376D02*
G01*
X88384688Y-114314376D01*
X88384688Y-114036563D01*
X88662501Y-114036563D01*
X88662501Y-114314376D01*
G37*
G36*
X94496563Y-115147813D02*
G01*
X94218751Y-115147813D01*
X94218751Y-114870001D01*
X94496563Y-114870001D01*
X94496563Y-115147813D01*
G37*
G36*
X91996251Y-113480938D02*
G01*
X91718439Y-113480938D01*
X91718439Y-113203126D01*
X91996251Y-113203126D01*
X91996251Y-113480938D01*
G37*
G36*
X93385313Y-109313751D02*
G01*
X93107501Y-109313751D01*
X93107501Y-109035938D01*
X93385313Y-109035938D01*
X93385313Y-109313751D01*
G37*
G36*
X93385313Y-116536876D02*
G01*
X93107501Y-116536876D01*
X93107501Y-116259063D01*
X93385313Y-116259063D01*
X93385313Y-116536876D01*
G37*
G36*
X95607813Y-112925314D02*
G01*
X95330001Y-112925314D01*
X95330001Y-112647501D01*
X95607813Y-112647501D01*
X95607813Y-112925314D01*
G37*
G36*
X90051563Y-109869376D02*
G01*
X89773751Y-109869376D01*
X89773751Y-109591563D01*
X90051563Y-109591563D01*
X90051563Y-109869376D01*
G37*
G36*
X90329376Y-109869376D02*
G01*
X90051563Y-109869376D01*
X90051563Y-109591563D01*
X90329376Y-109591563D01*
X90329376Y-109869376D01*
G37*
G36*
X95052188Y-115703438D02*
G01*
X94774376Y-115703438D01*
X94774376Y-115425626D01*
X95052188Y-115425626D01*
X95052188Y-115703438D01*
G37*
G36*
X92274063Y-114592188D02*
G01*
X91996251Y-114592188D01*
X91996251Y-114314376D01*
X92274063Y-114314376D01*
X92274063Y-114592188D01*
G37*
G36*
X93663126Y-116536876D02*
G01*
X93385313Y-116536876D01*
X93385313Y-116259063D01*
X93663126Y-116259063D01*
X93663126Y-116536876D01*
G37*
G36*
X94218751Y-114592188D02*
G01*
X93940938Y-114592188D01*
X93940938Y-114314376D01*
X94218751Y-114314376D01*
X94218751Y-114592188D01*
G37*
G36*
X94496563Y-114314376D02*
G01*
X94218751Y-114314376D01*
X94218751Y-114036563D01*
X94496563Y-114036563D01*
X94496563Y-114314376D01*
G37*
G36*
X93107501Y-112925314D02*
G01*
X92829688Y-112925314D01*
X92829688Y-112647501D01*
X93107501Y-112647501D01*
X93107501Y-112925314D01*
G37*
G36*
X90051563Y-115981251D02*
G01*
X89773751Y-115981251D01*
X89773751Y-115703438D01*
X90051563Y-115703438D01*
X90051563Y-115981251D01*
G37*
G36*
X89773751Y-111258438D02*
G01*
X89495938Y-111258438D01*
X89495938Y-110980626D01*
X89773751Y-110980626D01*
X89773751Y-111258438D01*
G37*
G36*
X94218751Y-113203126D02*
G01*
X93940938Y-113203126D01*
X93940938Y-112925314D01*
X94218751Y-112925314D01*
X94218751Y-113203126D01*
G37*
G36*
X91996251Y-111258438D02*
G01*
X91718439Y-111258438D01*
X91718439Y-110980626D01*
X91996251Y-110980626D01*
X91996251Y-111258438D01*
G37*
G36*
X90329376Y-114870001D02*
G01*
X90051563Y-114870001D01*
X90051563Y-114592188D01*
X90329376Y-114592188D01*
X90329376Y-114870001D01*
G37*
G36*
X88662501Y-113480938D02*
G01*
X88384688Y-113480938D01*
X88384688Y-113203126D01*
X88662501Y-113203126D01*
X88662501Y-113480938D01*
G37*
G36*
X91718439Y-114314376D02*
G01*
X91440626Y-114314376D01*
X91440626Y-114036563D01*
X91718439Y-114036563D01*
X91718439Y-114314376D01*
G37*
G36*
X90885001Y-112091876D02*
G01*
X90607188Y-112091876D01*
X90607188Y-111814063D01*
X90885001Y-111814063D01*
X90885001Y-112091876D01*
G37*
G36*
X90329376Y-112925314D02*
G01*
X90051563Y-112925314D01*
X90051563Y-112647501D01*
X90329376Y-112647501D01*
X90329376Y-112925314D01*
G37*
G36*
X140285582Y-91410534D02*
G01*
X139247933Y-91410534D01*
X139217106Y-91410968D01*
X139187244Y-91412268D01*
X139158346Y-91414434D01*
X139130413Y-91417468D01*
X139103445Y-91421367D01*
X139077440Y-91426134D01*
X139052401Y-91431767D01*
X139028326Y-91438267D01*
X139005215Y-91445633D01*
X138983069Y-91453866D01*
X138961887Y-91462965D01*
X138941670Y-91472931D01*
X138922418Y-91483764D01*
X138904131Y-91495463D01*
X138886808Y-91508028D01*
X138870449Y-91521460D01*
X138855067Y-91535703D01*
X138840677Y-91550700D01*
X138827279Y-91566452D01*
X138814874Y-91582958D01*
X138803461Y-91600220D01*
X138793040Y-91618236D01*
X138783612Y-91637007D01*
X138775176Y-91656532D01*
X138767732Y-91676813D01*
X138761281Y-91697848D01*
X138755822Y-91719638D01*
X138751356Y-91742183D01*
X138747882Y-91765483D01*
X138745401Y-91789537D01*
X138743912Y-91814347D01*
X138743416Y-91839911D01*
X138743996Y-91867739D01*
X138745736Y-91894869D01*
X138748636Y-91921299D01*
X138752696Y-91947031D01*
X138757916Y-91972065D01*
X138764296Y-91996399D01*
X138771836Y-92020034D01*
X138780535Y-92042971D01*
X138790395Y-92065209D01*
X138801415Y-92086748D01*
X138813595Y-92107587D01*
X138826935Y-92127728D01*
X138841435Y-92147170D01*
X138857095Y-92165914D01*
X138873915Y-92183958D01*
X138891895Y-92201303D01*
X138910956Y-92217768D01*
X138931008Y-92233171D01*
X138952053Y-92247511D01*
X138974090Y-92260789D01*
X138997118Y-92273005D01*
X139021139Y-92284159D01*
X139046152Y-92294250D01*
X139072157Y-92303279D01*
X139099154Y-92311246D01*
X139127143Y-92318150D01*
X139156124Y-92323992D01*
X139186098Y-92328772D01*
X139217063Y-92332490D01*
X139249021Y-92335146D01*
X139281971Y-92336739D01*
X139315913Y-92337270D01*
X140285582Y-92337270D01*
X140285582Y-92784536D01*
X139247933Y-92784536D01*
X139217106Y-92784969D01*
X139187244Y-92786269D01*
X139158346Y-92788436D01*
X139130413Y-92791469D01*
X139103445Y-92795369D01*
X139077440Y-92800135D01*
X139052401Y-92805769D01*
X139028326Y-92812268D01*
X139005215Y-92819635D01*
X138983069Y-92827868D01*
X138961887Y-92836967D01*
X138941670Y-92846933D01*
X138922418Y-92857766D01*
X138904131Y-92869465D01*
X138886808Y-92882030D01*
X138870449Y-92895463D01*
X138855067Y-92909704D01*
X138840677Y-92924701D01*
X138827279Y-92940452D01*
X138814874Y-92956959D01*
X138803461Y-92974220D01*
X138793040Y-92992236D01*
X138783612Y-93011007D01*
X138775176Y-93030533D01*
X138767732Y-93050814D01*
X138761281Y-93071849D01*
X138755822Y-93093639D01*
X138751356Y-93116184D01*
X138747882Y-93139484D01*
X138745401Y-93163539D01*
X138743912Y-93188348D01*
X138743416Y-93213912D01*
X138743989Y-93242166D01*
X138745708Y-93269680D01*
X138748573Y-93296453D01*
X138752584Y-93322485D01*
X138757741Y-93347777D01*
X138764045Y-93372328D01*
X138771494Y-93396138D01*
X138780090Y-93419207D01*
X138789831Y-93441536D01*
X138800719Y-93463123D01*
X138812753Y-93483970D01*
X138825932Y-93504077D01*
X138840258Y-93523442D01*
X138855730Y-93542067D01*
X138872348Y-93559951D01*
X138890112Y-93577094D01*
X138908969Y-93593343D01*
X138928859Y-93608543D01*
X138949784Y-93622695D01*
X138971743Y-93635798D01*
X138994735Y-93647853D01*
X139018762Y-93658860D01*
X139043823Y-93668819D01*
X139069919Y-93677729D01*
X139097048Y-93685591D01*
X139125212Y-93692404D01*
X139154410Y-93698169D01*
X139184642Y-93702886D01*
X139215908Y-93706555D01*
X139248209Y-93709176D01*
X139281544Y-93710748D01*
X139315913Y-93711272D01*
X140285582Y-93711272D01*
X140285582Y-94158538D01*
X138374872Y-94158538D01*
X138374872Y-93732744D01*
X138618178Y-93732744D01*
X138602314Y-93719115D01*
X138586926Y-93705068D01*
X138572013Y-93690602D01*
X138557575Y-93675716D01*
X138543613Y-93660411D01*
X138530126Y-93644686D01*
X138517114Y-93628543D01*
X138504577Y-93611980D01*
X138492515Y-93594997D01*
X138480928Y-93577596D01*
X138469816Y-93559775D01*
X138459180Y-93541535D01*
X138449018Y-93522876D01*
X138439331Y-93503797D01*
X138430118Y-93484299D01*
X138421381Y-93464381D01*
X138413149Y-93444114D01*
X138405448Y-93423568D01*
X138398278Y-93402742D01*
X138391640Y-93381637D01*
X138385532Y-93360252D01*
X138379956Y-93338588D01*
X138374910Y-93316644D01*
X138370396Y-93294420D01*
X138366413Y-93271918D01*
X138362960Y-93249135D01*
X138360039Y-93226073D01*
X138357649Y-93202732D01*
X138355791Y-93179111D01*
X138354463Y-93155211D01*
X138353666Y-93131030D01*
X138353401Y-93106571D01*
X138353715Y-93079924D01*
X138354658Y-93053654D01*
X138356230Y-93027761D01*
X138358430Y-93002246D01*
X138361260Y-92977108D01*
X138364718Y-92952347D01*
X138368806Y-92927964D01*
X138373522Y-92903958D01*
X138378868Y-92880330D01*
X138384843Y-92857079D01*
X138391448Y-92834205D01*
X138398681Y-92811709D01*
X138406545Y-92789590D01*
X138415038Y-92767849D01*
X138424160Y-92746485D01*
X138433913Y-92725499D01*
X138444276Y-92704974D01*
X138455240Y-92684994D01*
X138466806Y-92665559D01*
X138478972Y-92646669D01*
X138491740Y-92628324D01*
X138505110Y-92610524D01*
X138519080Y-92593270D01*
X138533651Y-92576560D01*
X138548824Y-92560395D01*
X138564597Y-92544776D01*
X138580972Y-92529701D01*
X138597947Y-92515172D01*
X138615523Y-92501188D01*
X138633700Y-92487748D01*
X138652478Y-92474854D01*
X138671857Y-92462505D01*
X138653330Y-92447480D01*
X138635320Y-92431924D01*
X138617827Y-92415837D01*
X138600851Y-92399218D01*
X138584392Y-92382069D01*
X138568450Y-92364388D01*
X138553026Y-92346176D01*
X138538118Y-92327433D01*
X138523728Y-92308159D01*
X138509854Y-92288353D01*
X138496498Y-92268017D01*
X138483660Y-92247149D01*
X138471338Y-92225750D01*
X138459534Y-92203820D01*
X138448248Y-92181359D01*
X138437478Y-92158366D01*
X138427296Y-92134955D01*
X138417771Y-92111236D01*
X138408903Y-92087210D01*
X138400693Y-92062876D01*
X138393139Y-92038234D01*
X138386242Y-92013285D01*
X138380002Y-91988028D01*
X138374418Y-91962464D01*
X138369492Y-91936592D01*
X138365223Y-91910413D01*
X138361611Y-91883926D01*
X138358655Y-91857132D01*
X138356356Y-91830030D01*
X138354714Y-91802621D01*
X138353729Y-91774904D01*
X138353401Y-91746880D01*
X138354218Y-91702293D01*
X138356671Y-91658881D01*
X138360760Y-91616642D01*
X138366484Y-91575578D01*
X138373843Y-91535687D01*
X138382837Y-91496971D01*
X138393466Y-91459429D01*
X138405731Y-91423060D01*
X138419631Y-91387866D01*
X138435166Y-91353846D01*
X138452337Y-91320999D01*
X138471142Y-91289327D01*
X138491583Y-91258829D01*
X138513659Y-91229505D01*
X138537370Y-91201355D01*
X138562716Y-91174379D01*
X138589700Y-91148816D01*
X138618319Y-91124901D01*
X138648573Y-91102636D01*
X138680463Y-91082019D01*
X138713988Y-91063052D01*
X138749148Y-91045735D01*
X138785943Y-91030066D01*
X138824373Y-91016047D01*
X138864439Y-91003677D01*
X138906139Y-90992956D01*
X138949474Y-90983885D01*
X138994445Y-90976463D01*
X139041050Y-90970690D01*
X139089290Y-90966567D01*
X139139165Y-90964093D01*
X139190675Y-90963268D01*
X140285582Y-90963268D01*
X140285582Y-91410534D01*
G37*
G36*
X90329376Y-110980626D02*
G01*
X90051563Y-110980626D01*
X90051563Y-110702813D01*
X90329376Y-110702813D01*
X90329376Y-110980626D01*
G37*
G36*
X91162813Y-114592188D02*
G01*
X90885001Y-114592188D01*
X90885001Y-114314376D01*
X91162813Y-114314376D01*
X91162813Y-114592188D01*
G37*
G36*
X92551876Y-115703438D02*
G01*
X92274063Y-115703438D01*
X92274063Y-115425626D01*
X92551876Y-115425626D01*
X92551876Y-115703438D01*
G37*
G36*
X93385313Y-113480938D02*
G01*
X93107501Y-113480938D01*
X93107501Y-113203126D01*
X93385313Y-113203126D01*
X93385313Y-113480938D01*
G37*
G36*
X88106876Y-112647501D02*
G01*
X87829063Y-112647501D01*
X87829063Y-112369688D01*
X88106876Y-112369688D01*
X88106876Y-112647501D01*
G37*
G36*
X92274063Y-115981251D02*
G01*
X91996251Y-115981251D01*
X91996251Y-115703438D01*
X92274063Y-115703438D01*
X92274063Y-115981251D01*
G37*
G36*
X88940313Y-112647501D02*
G01*
X88662501Y-112647501D01*
X88662501Y-112369688D01*
X88940313Y-112369688D01*
X88940313Y-112647501D01*
G37*
G36*
X92551876Y-111258438D02*
G01*
X92274063Y-111258438D01*
X92274063Y-110980626D01*
X92551876Y-110980626D01*
X92551876Y-111258438D01*
G37*
G36*
X90329376Y-109591563D02*
G01*
X90051563Y-109591563D01*
X90051563Y-109313751D01*
X90329376Y-109313751D01*
X90329376Y-109591563D01*
G37*
G36*
X93663126Y-112091876D02*
G01*
X93385313Y-112091876D01*
X93385313Y-111814063D01*
X93663126Y-111814063D01*
X93663126Y-112091876D01*
G37*
G36*
X90329376Y-112091876D02*
G01*
X90051563Y-112091876D01*
X90051563Y-111814063D01*
X90329376Y-111814063D01*
X90329376Y-112091876D01*
G37*
G36*
X91162813Y-110147188D02*
G01*
X90885001Y-110147188D01*
X90885001Y-109869376D01*
X91162813Y-109869376D01*
X91162813Y-110147188D01*
G37*
G36*
X88940313Y-110147188D02*
G01*
X88106876Y-110147188D01*
X88106876Y-109313751D01*
X88940313Y-109313751D01*
X88940313Y-110147188D01*
G37*
G36*
X94496563Y-114592188D02*
G01*
X94218751Y-114592188D01*
X94218751Y-114314376D01*
X94496563Y-114314376D01*
X94496563Y-114592188D01*
G37*
G36*
X90051563Y-116814688D02*
G01*
X89773751Y-116814688D01*
X89773751Y-116536876D01*
X90051563Y-116536876D01*
X90051563Y-116814688D01*
G37*
G36*
X89773751Y-113758751D02*
G01*
X89495938Y-113758751D01*
X89495938Y-113480938D01*
X89773751Y-113480938D01*
X89773751Y-113758751D01*
G37*
G36*
X89773751Y-112091876D02*
G01*
X89495938Y-112091876D01*
X89495938Y-111814063D01*
X89773751Y-111814063D01*
X89773751Y-112091876D01*
G37*
G36*
X95607813Y-110702813D02*
G01*
X93663126Y-110702813D01*
X93663126Y-109049829D01*
X93954829Y-109049829D01*
X93954829Y-110411110D01*
X95316110Y-110411110D01*
X95316110Y-109049829D01*
X93954829Y-109049829D01*
X93663126Y-109049829D01*
X93663126Y-108758126D01*
X95607813Y-108758126D01*
X95607813Y-110702813D01*
G37*
G36*
X93940938Y-115147813D02*
G01*
X93663126Y-115147813D01*
X93663126Y-114870001D01*
X93940938Y-114870001D01*
X93940938Y-115147813D01*
G37*
G36*
X92551876Y-114314376D02*
G01*
X92274063Y-114314376D01*
X92274063Y-114036563D01*
X92551876Y-114036563D01*
X92551876Y-114314376D01*
G37*
G36*
X92829688Y-116814688D02*
G01*
X92551876Y-116814688D01*
X92551876Y-116536876D01*
X92829688Y-116536876D01*
X92829688Y-116814688D01*
G37*
G36*
X90607188Y-113480938D02*
G01*
X90329376Y-113480938D01*
X90329376Y-113203126D01*
X90607188Y-113203126D01*
X90607188Y-113480938D01*
G37*
G36*
X134317041Y-38985799D02*
G01*
X133638430Y-38985799D01*
X133240019Y-40001799D01*
X132884419Y-40001799D01*
X133795625Y-37665000D01*
X134317041Y-38985799D01*
G37*
G36*
X93940938Y-114314376D02*
G01*
X93663126Y-114314376D01*
X93663126Y-114036563D01*
X93940938Y-114036563D01*
X93940938Y-114314376D01*
G37*
G36*
X91440626Y-114592188D02*
G01*
X91162813Y-114592188D01*
X91162813Y-114314376D01*
X91440626Y-114314376D01*
X91440626Y-114592188D01*
G37*
G36*
X90885001Y-113758751D02*
G01*
X90607188Y-113758751D01*
X90607188Y-113480938D01*
X90885001Y-113480938D01*
X90885001Y-113758751D01*
G37*
G36*
X90051563Y-116259063D02*
G01*
X89773751Y-116259063D01*
X89773751Y-115981251D01*
X90051563Y-115981251D01*
X90051563Y-116259063D01*
G37*
G36*
X91440626Y-112925314D02*
G01*
X91162813Y-112925314D01*
X91162813Y-112647501D01*
X91440626Y-112647501D01*
X91440626Y-112925314D01*
G37*
G36*
X95607813Y-111258438D02*
G01*
X95330001Y-111258438D01*
X95330001Y-110980626D01*
X95607813Y-110980626D01*
X95607813Y-111258438D01*
G37*
G36*
X94496563Y-115425626D02*
G01*
X94218751Y-115425626D01*
X94218751Y-115147813D01*
X94496563Y-115147813D01*
X94496563Y-115425626D01*
G37*
G36*
X95330001Y-115703438D02*
G01*
X95052188Y-115703438D01*
X95052188Y-115425626D01*
X95330001Y-115425626D01*
X95330001Y-115703438D01*
G37*
G36*
X93940938Y-111536251D02*
G01*
X93663126Y-111536251D01*
X93663126Y-111258438D01*
X93940938Y-111258438D01*
X93940938Y-111536251D01*
G37*
G36*
X91718439Y-109869376D02*
G01*
X91440626Y-109869376D01*
X91440626Y-109591563D01*
X91718439Y-109591563D01*
X91718439Y-109869376D01*
G37*
G36*
X94496563Y-113480938D02*
G01*
X94218751Y-113480938D01*
X94218751Y-113203126D01*
X94496563Y-113203126D01*
X94496563Y-113480938D01*
G37*
G36*
X95052188Y-116259063D02*
G01*
X94774376Y-116259063D01*
X94774376Y-115981251D01*
X95052188Y-115981251D01*
X95052188Y-116259063D01*
G37*
G36*
X94218751Y-115703438D02*
G01*
X93940938Y-115703438D01*
X93940938Y-115425626D01*
X94218751Y-115425626D01*
X94218751Y-115703438D01*
G37*
D11*
G36*
X93021469Y-99702868D02*
G01*
X92785882Y-99702868D01*
X92899530Y-99340167D01*
X92907590Y-99340167D01*
X93021469Y-99702868D01*
G37*
G36*
X91919880Y-99662630D02*
G01*
X91931306Y-99663126D01*
X91942312Y-99664118D01*
X91952899Y-99665607D01*
X91963065Y-99667591D01*
X91972812Y-99670072D01*
X91984405Y-99673870D01*
X91995343Y-99678444D01*
X91999526Y-99680449D01*
X92009459Y-99685914D01*
X92018641Y-99692022D01*
X92027072Y-99698775D01*
X92034751Y-99706171D01*
X92041679Y-99714212D01*
X92047855Y-99722896D01*
X92050103Y-99726510D01*
X92055088Y-99735912D01*
X92059166Y-99745840D01*
X92062339Y-99756291D01*
X92064605Y-99767268D01*
X92065964Y-99778769D01*
X92066417Y-99790795D01*
X92066380Y-99794176D01*
X92065818Y-99804038D01*
X92064021Y-99816533D01*
X92061025Y-99828279D01*
X92056831Y-99839278D01*
X92051438Y-99849528D01*
X92044848Y-99859031D01*
X92037059Y-99867785D01*
X92028071Y-99875792D01*
X92023143Y-99879489D01*
X92012289Y-99886168D01*
X92003277Y-99890550D01*
X91993519Y-99894396D01*
X91983013Y-99897706D01*
X91971760Y-99900479D01*
X91959760Y-99902715D01*
X91947013Y-99904414D01*
X91933519Y-99905577D01*
X91919278Y-99906203D01*
X91909369Y-99906322D01*
X91756717Y-99906322D01*
X91756717Y-99662568D01*
X91914010Y-99662568D01*
X91919880Y-99662630D01*
G37*
G36*
X91901254Y-99278891D02*
G01*
X91912510Y-99279324D01*
X91923316Y-99280277D01*
X91933670Y-99281749D01*
X91943574Y-99283740D01*
X91953028Y-99286251D01*
X91964931Y-99290407D01*
X91976032Y-99295486D01*
X91986332Y-99301489D01*
X91995831Y-99308416D01*
X92004418Y-99316090D01*
X92011860Y-99324460D01*
X92018157Y-99333523D01*
X92023309Y-99343282D01*
X92027316Y-99353734D01*
X92030178Y-99364882D01*
X92031895Y-99376724D01*
X92032468Y-99389260D01*
X92032032Y-99400230D01*
X92030726Y-99410698D01*
X92028550Y-99420666D01*
X92025503Y-99430133D01*
X92020697Y-99440832D01*
X92014638Y-99450809D01*
X92008732Y-99458455D01*
X92000764Y-99466859D01*
X91991834Y-99474421D01*
X91983657Y-99480079D01*
X91974813Y-99485154D01*
X91965301Y-99489644D01*
X91959357Y-99492045D01*
X91949089Y-99495521D01*
X91938368Y-99498342D01*
X91927193Y-99500506D01*
X91915565Y-99502015D01*
X91903485Y-99502867D01*
X91893493Y-99503077D01*
X91756717Y-99503077D01*
X91756717Y-99278862D01*
X91897401Y-99278862D01*
X91901254Y-99278891D01*
G37*
G36*
X95498545Y-100473482D02*
G01*
X91141442Y-100473482D01*
X91141442Y-99082491D01*
X91509299Y-99082491D01*
X91509299Y-99278862D01*
X91509299Y-99662568D01*
X91509299Y-100105625D01*
X91968476Y-100105625D01*
X92393947Y-100105625D01*
X92659683Y-100105625D01*
X92727030Y-99890691D01*
X93080441Y-99890691D01*
X93147925Y-100105625D01*
X93413661Y-100105625D01*
X93068302Y-99082491D01*
X93357485Y-99082491D01*
X93357485Y-99283259D01*
X93668162Y-99283259D01*
X93668162Y-100105625D01*
X93911916Y-100105625D01*
X93911916Y-99500146D01*
X94657101Y-99500146D01*
X94657101Y-99687969D01*
X95130688Y-99687969D01*
X95130688Y-99500146D01*
X94657101Y-99500146D01*
X93911916Y-99500146D01*
X93911916Y-99283259D01*
X94222349Y-99283259D01*
X94222349Y-99082491D01*
X93357485Y-99082491D01*
X93068302Y-99082491D01*
X92739062Y-99082491D01*
X92393947Y-100105625D01*
X91968476Y-100105625D01*
X91982510Y-100105479D01*
X91996278Y-100105044D01*
X92009781Y-100104319D01*
X92023019Y-100103304D01*
X92035991Y-100101999D01*
X92048698Y-100100404D01*
X92061140Y-100098519D01*
X92073317Y-100096343D01*
X92085229Y-100093878D01*
X92096875Y-100091123D01*
X92108256Y-100088077D01*
X92119372Y-100084742D01*
X92130223Y-100081116D01*
X92140808Y-100077201D01*
X92151129Y-100072995D01*
X92161184Y-100068500D01*
X92170989Y-100063722D01*
X92180498Y-100058730D01*
X92189711Y-100053524D01*
X92198629Y-100048105D01*
X92207251Y-100042472D01*
X92215577Y-100036626D01*
X92223608Y-100030566D01*
X92231342Y-100024292D01*
X92238781Y-100017804D01*
X92245924Y-100011103D01*
X92256085Y-100000650D01*
X92265579Y-99989716D01*
X92274409Y-99978301D01*
X92282572Y-99966406D01*
X92285157Y-99962344D01*
X92292418Y-99949950D01*
X92298941Y-99937248D01*
X92304726Y-99924236D01*
X92309772Y-99910915D01*
X92314080Y-99897285D01*
X92317649Y-99883346D01*
X92320480Y-99869098D01*
X92321956Y-99859428D01*
X92323105Y-99849620D01*
X92323926Y-99839675D01*
X92324418Y-99829592D01*
X92324582Y-99819372D01*
X92324457Y-99810198D01*
X92323801Y-99796728D01*
X92322582Y-99783606D01*
X92320801Y-99770831D01*
X92318458Y-99758404D01*
X92315552Y-99746324D01*
X92312084Y-99734593D01*
X92308053Y-99723209D01*
X92303460Y-99712173D01*
X92298304Y-99701485D01*
X92292586Y-99691144D01*
X92288506Y-99684460D01*
X92282081Y-99674784D01*
X92275291Y-99665529D01*
X92268136Y-99656695D01*
X92260616Y-99648282D01*
X92252732Y-99640289D01*
X92244482Y-99632717D01*
X92235867Y-99625566D01*
X92226888Y-99618835D01*
X92217543Y-99612525D01*
X92207834Y-99606636D01*
X92201233Y-99602928D01*
X92191191Y-99597769D01*
X92180983Y-99593096D01*
X92170606Y-99588908D01*
X92160063Y-99585205D01*
X92149351Y-99581987D01*
X92138473Y-99579254D01*
X92127427Y-99577007D01*
X92116213Y-99575244D01*
X92104832Y-99573967D01*
X92093284Y-99573175D01*
X92093284Y-99563161D01*
X92100284Y-99561595D01*
X92110587Y-99558980D01*
X92120655Y-99556048D01*
X92130486Y-99552798D01*
X92140080Y-99549230D01*
X92149439Y-99545344D01*
X92158562Y-99541141D01*
X92167448Y-99536620D01*
X92176099Y-99531782D01*
X92184513Y-99526625D01*
X92192691Y-99521151D01*
X92203148Y-99513397D01*
X92213024Y-99505153D01*
X92222321Y-99496422D01*
X92231037Y-99487202D01*
X92239173Y-99477493D01*
X92246730Y-99467296D01*
X92253706Y-99456610D01*
X92260102Y-99445436D01*
X92261620Y-99442569D01*
X92267209Y-99430847D01*
X92270894Y-99421790D01*
X92274147Y-99412506D01*
X92276965Y-99402994D01*
X92279350Y-99393255D01*
X92281302Y-99383288D01*
X92282819Y-99373093D01*
X92283903Y-99362671D01*
X92284554Y-99352022D01*
X92284771Y-99341144D01*
X92284617Y-99331600D01*
X92283810Y-99317555D01*
X92282313Y-99303836D01*
X92280124Y-99290444D01*
X92277244Y-99277378D01*
X92273672Y-99264638D01*
X92269410Y-99252225D01*
X92264456Y-99240138D01*
X92258811Y-99228377D01*
X92252475Y-99216942D01*
X92245447Y-99205834D01*
X92237737Y-99195116D01*
X92229353Y-99184854D01*
X92220295Y-99175046D01*
X92210563Y-99165694D01*
X92200156Y-99156797D01*
X92189076Y-99148355D01*
X92177322Y-99140368D01*
X92164893Y-99132836D01*
X92156233Y-99128067D01*
X92147273Y-99123501D01*
X92138014Y-99119137D01*
X92128455Y-99114976D01*
X92118601Y-99111042D01*
X92108458Y-99107362D01*
X92098024Y-99103936D01*
X92087300Y-99100764D01*
X92076286Y-99097845D01*
X92064982Y-99095180D01*
X92053389Y-99092769D01*
X92041505Y-99090612D01*
X92029331Y-99088709D01*
X92016867Y-99087059D01*
X92004113Y-99085664D01*
X91991068Y-99084521D01*
X91977734Y-99083633D01*
X91964110Y-99082999D01*
X91950196Y-99082618D01*
X91935992Y-99082491D01*
X91509299Y-99082491D01*
X91141442Y-99082491D01*
X91141442Y-98714634D01*
X95498545Y-98714634D01*
X95498545Y-100473482D01*
G37*
G36*
X122778293Y-41151809D02*
G01*
X122788431Y-41152041D01*
X122801467Y-41152786D01*
X122813954Y-41154026D01*
X122825891Y-41155762D01*
X122837279Y-41157995D01*
X122848118Y-41160724D01*
X122858406Y-41163948D01*
X122868145Y-41167669D01*
X122875124Y-41170737D01*
X122883915Y-41175256D01*
X122894077Y-41181591D01*
X122903321Y-41188689D01*
X122911646Y-41196551D01*
X122919054Y-41205176D01*
X122925543Y-41214564D01*
X122927909Y-41218535D01*
X122933156Y-41229013D01*
X122937449Y-41240278D01*
X122940197Y-41249857D01*
X122942334Y-41259940D01*
X122943861Y-41270526D01*
X122944777Y-41281616D01*
X122945082Y-41293210D01*
X122945063Y-41296155D01*
X122944605Y-41307600D01*
X122943536Y-41318511D01*
X122941857Y-41328887D01*
X122939567Y-41338729D01*
X122935846Y-41350281D01*
X122931172Y-41360997D01*
X122925543Y-41370879D01*
X122921762Y-41376420D01*
X122914735Y-41385045D01*
X122906802Y-41392907D01*
X122897962Y-41400005D01*
X122888216Y-41406340D01*
X122877564Y-41411912D01*
X122868390Y-41415820D01*
X122863616Y-41417594D01*
X122853641Y-41420800D01*
X122843092Y-41423548D01*
X122831972Y-41425838D01*
X122820279Y-41427669D01*
X122808013Y-41429043D01*
X122795175Y-41429959D01*
X122785171Y-41430346D01*
X122774845Y-41430474D01*
X122652967Y-41430474D01*
X122652967Y-41151793D01*
X122774845Y-41151793D01*
X122778293Y-41151809D01*
G37*
G36*
X125455193Y-42356426D02*
G01*
X122037692Y-42356426D01*
X122037692Y-40952491D01*
X122405549Y-40952491D01*
X122405549Y-41975625D01*
X122652967Y-41975625D01*
X122652967Y-41625380D01*
X122779474Y-41625380D01*
X122966575Y-41975625D01*
X123236464Y-41975625D01*
X123050714Y-41634906D01*
X123302165Y-41634906D01*
X123302578Y-41649734D01*
X123303390Y-41664238D01*
X123304601Y-41678417D01*
X123306210Y-41692272D01*
X123308219Y-41705803D01*
X123310626Y-41719009D01*
X123313432Y-41731891D01*
X123316636Y-41744449D01*
X123320240Y-41756682D01*
X123324242Y-41768591D01*
X123328643Y-41780175D01*
X123333443Y-41791435D01*
X123338642Y-41802370D01*
X123344240Y-41812982D01*
X123350236Y-41823268D01*
X123356631Y-41833231D01*
X123363422Y-41842876D01*
X123370545Y-41852209D01*
X123378000Y-41861232D01*
X123385788Y-41869944D01*
X123393907Y-41878344D01*
X123402358Y-41886434D01*
X123411141Y-41894212D01*
X123420256Y-41901680D01*
X123429704Y-41908836D01*
X123439483Y-41915682D01*
X123449594Y-41922216D01*
X123460037Y-41928440D01*
X123470813Y-41934352D01*
X123481920Y-41939954D01*
X123493359Y-41945244D01*
X123505131Y-41950223D01*
X123517196Y-41954867D01*
X123529517Y-41959211D01*
X123542094Y-41963255D01*
X123554926Y-41967000D01*
X123568014Y-41970445D01*
X123581357Y-41973590D01*
X123594957Y-41976436D01*
X123608812Y-41978983D01*
X123622923Y-41981230D01*
X123637289Y-41983177D01*
X123651911Y-41984825D01*
X123666789Y-41986173D01*
X123681923Y-41987221D01*
X123697312Y-41987970D01*
X123712957Y-41988420D01*
X123728857Y-41988569D01*
X123744709Y-41988425D01*
X123760269Y-41987993D01*
X123775537Y-41987273D01*
X123790513Y-41986264D01*
X123805197Y-41984968D01*
X123819590Y-41983383D01*
X123833690Y-41981510D01*
X123847498Y-41979349D01*
X123861015Y-41976900D01*
X123874239Y-41974163D01*
X123887171Y-41971137D01*
X123899812Y-41967824D01*
X123912161Y-41964222D01*
X123924217Y-41960333D01*
X123935982Y-41956155D01*
X123947455Y-41951689D01*
X123958616Y-41946922D01*
X123969448Y-41941904D01*
X123979949Y-41936633D01*
X123990121Y-41931111D01*
X123999962Y-41925337D01*
X124009473Y-41919311D01*
X124018654Y-41913033D01*
X124027505Y-41906504D01*
X124036026Y-41899722D01*
X124044217Y-41892689D01*
X124052077Y-41885403D01*
X124059608Y-41877866D01*
X124066808Y-41870077D01*
X124073679Y-41862036D01*
X124080219Y-41853744D01*
X124086429Y-41845199D01*
X124092316Y-41836420D01*
X124097828Y-41827426D01*
X124102964Y-41818217D01*
X124107724Y-41808791D01*
X124112108Y-41799150D01*
X124116116Y-41789294D01*
X124119748Y-41779222D01*
X124123004Y-41768934D01*
X124125884Y-41758431D01*
X124128389Y-41747712D01*
X124130517Y-41736777D01*
X124132270Y-41725627D01*
X124133647Y-41714261D01*
X124134648Y-41702679D01*
X124135273Y-41690882D01*
X124135522Y-41678869D01*
X124135382Y-41671223D01*
X124134880Y-41659933D01*
X124134026Y-41648858D01*
X124132819Y-41637997D01*
X124131261Y-41627351D01*
X124129350Y-41616920D01*
X124127088Y-41606703D01*
X124124473Y-41596701D01*
X124121506Y-41586914D01*
X124118187Y-41577341D01*
X124114517Y-41567983D01*
X124111877Y-41561831D01*
X124107634Y-41552775D01*
X124103053Y-41543925D01*
X124098132Y-41535281D01*
X124092872Y-41526844D01*
X124087272Y-41518612D01*
X124081334Y-41510586D01*
X124075056Y-41502767D01*
X124068440Y-41495153D01*
X124061484Y-41487746D01*
X124054189Y-41480544D01*
X124049170Y-41475823D01*
X124041371Y-41468900D01*
X124033245Y-41462165D01*
X124024793Y-41455619D01*
X124016014Y-41449262D01*
X124006910Y-41443094D01*
X123997479Y-41437115D01*
X123987721Y-41431325D01*
X123977638Y-41425723D01*
X123967228Y-41420311D01*
X123956492Y-41415087D01*
X123949156Y-41411681D01*
X123937891Y-41406737D01*
X123926312Y-41401990D01*
X123914420Y-41397440D01*
X123902215Y-41393088D01*
X123889697Y-41388934D01*
X123876865Y-41384977D01*
X123863719Y-41381217D01*
X123850260Y-41377655D01*
X123836488Y-41374291D01*
X123822402Y-41371123D01*
X123734475Y-41351096D01*
X123732299Y-41350620D01*
X123721618Y-41348179D01*
X123711271Y-41345630D01*
X123701258Y-41342974D01*
X123691579Y-41340211D01*
X123682234Y-41337341D01*
X123671460Y-41333754D01*
X123661219Y-41329887D01*
X123651562Y-41325797D01*
X123642489Y-41321484D01*
X123632641Y-41316170D01*
X123623589Y-41310551D01*
X123622376Y-41309708D01*
X123614399Y-41303590D01*
X123606369Y-41296141D01*
X123599500Y-41288203D01*
X123593791Y-41279777D01*
X123593161Y-41278672D01*
X123588909Y-41269460D01*
X123586062Y-41259576D01*
X123584620Y-41249020D01*
X123584510Y-41239232D01*
X123584631Y-41235746D01*
X123585716Y-41225585D01*
X123587882Y-41215871D01*
X123591131Y-41206603D01*
X123595462Y-41197782D01*
X123600874Y-41189407D01*
X123605152Y-41184117D01*
X123612499Y-41176727D01*
X123620963Y-41169989D01*
X123630543Y-41163904D01*
X123639379Y-41159332D01*
X123648990Y-41155213D01*
X123653051Y-41153704D01*
X123663748Y-41150359D01*
X123675219Y-41147622D01*
X123684955Y-41145870D01*
X123695186Y-41144508D01*
X123705914Y-41143535D01*
X123717137Y-41142951D01*
X123728857Y-41142756D01*
X123742164Y-41143027D01*
X123754883Y-41143838D01*
X123767014Y-41145191D01*
X123778557Y-41147084D01*
X123789511Y-41149518D01*
X123799878Y-41152494D01*
X123809656Y-41156010D01*
X123818845Y-41160067D01*
X123830184Y-41166318D01*
X123840476Y-41173531D01*
X123845257Y-41177472D01*
X123854012Y-41185922D01*
X123861690Y-41195126D01*
X123868292Y-41205087D01*
X123873818Y-41215803D01*
X123878268Y-41227275D01*
X123881642Y-41239502D01*
X123883466Y-41249169D01*
X123884684Y-41259260D01*
X124121600Y-41259260D01*
X124121292Y-41247413D01*
X124120611Y-41235748D01*
X124119559Y-41224264D01*
X124118135Y-41212961D01*
X124116338Y-41201839D01*
X124114169Y-41190899D01*
X124111629Y-41180140D01*
X124108716Y-41169562D01*
X124105431Y-41159166D01*
X124101774Y-41148950D01*
X124097745Y-41138916D01*
X124093344Y-41129064D01*
X124088571Y-41119392D01*
X124083425Y-41109902D01*
X124077908Y-41100593D01*
X124072018Y-41091465D01*
X124065820Y-41082525D01*
X124059314Y-41073838D01*
X124052501Y-41065405D01*
X124045381Y-41057226D01*
X124037953Y-41049300D01*
X124030219Y-41041628D01*
X124022177Y-41034210D01*
X124013828Y-41027046D01*
X124005171Y-41020136D01*
X123996208Y-41013479D01*
X123986937Y-41007077D01*
X123977359Y-41000928D01*
X123967474Y-40995032D01*
X123957282Y-40989391D01*
X123946782Y-40984003D01*
X123935975Y-40978869D01*
X123924893Y-40973989D01*
X123913566Y-40969424D01*
X123901995Y-40965174D01*
X123890180Y-40961238D01*
X123878120Y-40957617D01*
X123865816Y-40954312D01*
X123858176Y-40952491D01*
X124222472Y-40952491D01*
X124222472Y-41153259D01*
X124533149Y-41153259D01*
X124533149Y-41975625D01*
X124776903Y-41975625D01*
X124776903Y-41153259D01*
X125087336Y-41153259D01*
X125087336Y-40952491D01*
X124222472Y-40952491D01*
X123858176Y-40952491D01*
X123853268Y-40951321D01*
X123840476Y-40948644D01*
X123827440Y-40946283D01*
X123814159Y-40944237D01*
X123800634Y-40942505D01*
X123786865Y-40941088D01*
X123772851Y-40939986D01*
X123758594Y-40939199D01*
X123744092Y-40938727D01*
X123729346Y-40938569D01*
X123714912Y-40938726D01*
X123700674Y-40939195D01*
X123686633Y-40939978D01*
X123672788Y-40941073D01*
X123659140Y-40942481D01*
X123645689Y-40944202D01*
X123632434Y-40946236D01*
X123619375Y-40948583D01*
X123606514Y-40951243D01*
X123593848Y-40954216D01*
X123581379Y-40957502D01*
X123569107Y-40961101D01*
X123557031Y-40965012D01*
X123545152Y-40969237D01*
X123533470Y-40973775D01*
X123521984Y-40978625D01*
X123510780Y-40983726D01*
X123499883Y-40989074D01*
X123489294Y-40994671D01*
X123479012Y-41000515D01*
X123469037Y-41006608D01*
X123459370Y-41012949D01*
X123450009Y-41019538D01*
X123440956Y-41026375D01*
X123432210Y-41033460D01*
X123423771Y-41040793D01*
X123415640Y-41048374D01*
X123407815Y-41056203D01*
X123400298Y-41064280D01*
X123393088Y-41072605D01*
X123386185Y-41081179D01*
X123379590Y-41090000D01*
X123373381Y-41099007D01*
X123367576Y-41108200D01*
X123362176Y-41117577D01*
X123357181Y-41127140D01*
X123352590Y-41136888D01*
X123348403Y-41146821D01*
X123344621Y-41156939D01*
X123341244Y-41167242D01*
X123338271Y-41177730D01*
X123335703Y-41188403D01*
X123333539Y-41199261D01*
X123331779Y-41210305D01*
X123330425Y-41221533D01*
X123329474Y-41232947D01*
X123328929Y-41244546D01*
X123328787Y-41256329D01*
X123329027Y-41270675D01*
X123329867Y-41284646D01*
X123331309Y-41298244D01*
X123333352Y-41311467D01*
X123335995Y-41324317D01*
X123339240Y-41336792D01*
X123343086Y-41348894D01*
X123347533Y-41360621D01*
X123352581Y-41371974D01*
X123358230Y-41382954D01*
X123364480Y-41393559D01*
X123371331Y-41403791D01*
X123378784Y-41413648D01*
X123386837Y-41423132D01*
X123395492Y-41432241D01*
X123404747Y-41440977D01*
X123414523Y-41449347D01*
X123424741Y-41457421D01*
X123435398Y-41465200D01*
X123446497Y-41472683D01*
X123458037Y-41479870D01*
X123470017Y-41486761D01*
X123482438Y-41493357D01*
X123495300Y-41499656D01*
X123508603Y-41505660D01*
X123522346Y-41511368D01*
X123536530Y-41516781D01*
X123551155Y-41521898D01*
X123566221Y-41526719D01*
X123581728Y-41531244D01*
X123597675Y-41535473D01*
X123614063Y-41539407D01*
X123720797Y-41564564D01*
X123727741Y-41566191D01*
X123737863Y-41568669D01*
X123747633Y-41571189D01*
X123760113Y-41574616D01*
X123771966Y-41578119D01*
X123783194Y-41581699D01*
X123793795Y-41585355D01*
X123803771Y-41589087D01*
X123813121Y-41592896D01*
X123823958Y-41597765D01*
X123833877Y-41602909D01*
X123842877Y-41608327D01*
X123850960Y-41614019D01*
X123859446Y-41621212D01*
X123866610Y-41628800D01*
X123868742Y-41631398D01*
X123874334Y-41639592D01*
X123878725Y-41648388D01*
X123881914Y-41657784D01*
X123883900Y-41667782D01*
X123884684Y-41678381D01*
X123884551Y-41682231D01*
X123883280Y-41693448D01*
X123880704Y-41704167D01*
X123876823Y-41714388D01*
X123871636Y-41724111D01*
X123865145Y-41733336D01*
X123863953Y-41734822D01*
X123856122Y-41743317D01*
X123848704Y-41749845D01*
X123840475Y-41755872D01*
X123831435Y-41761399D01*
X123821585Y-41766424D01*
X123810923Y-41770949D01*
X123801901Y-41774097D01*
X123792421Y-41776826D01*
X123782484Y-41779135D01*
X123772088Y-41781024D01*
X123761235Y-41782493D01*
X123749923Y-41783543D01*
X123738154Y-41784172D01*
X123725926Y-41784382D01*
X123722535Y-41784366D01*
X123712516Y-41784115D01*
X123699518Y-41783314D01*
X123686931Y-41781978D01*
X123674757Y-41780108D01*
X123662996Y-41777704D01*
X123651646Y-41774765D01*
X123640708Y-41771292D01*
X123630183Y-41767285D01*
X123620142Y-41762763D01*
X123610659Y-41757745D01*
X123601733Y-41752230D01*
X123593364Y-41746219D01*
X123585552Y-41739713D01*
X123578297Y-41732710D01*
X123571599Y-41725211D01*
X123565459Y-41717216D01*
X123559918Y-41708717D01*
X123555017Y-41699706D01*
X123550758Y-41690185D01*
X123547141Y-41680152D01*
X123544164Y-41669607D01*
X123541828Y-41658551D01*
X123540134Y-41646984D01*
X123539081Y-41634906D01*
X123302165Y-41634906D01*
X123050714Y-41634906D01*
X123024177Y-41586229D01*
X123033528Y-41581798D01*
X123043756Y-41576532D01*
X123053678Y-41570990D01*
X123063295Y-41565174D01*
X123072607Y-41559084D01*
X123081614Y-41552718D01*
X123090315Y-41546078D01*
X123098711Y-41539163D01*
X123106801Y-41531973D01*
X123114586Y-41524508D01*
X123122066Y-41516769D01*
X123129241Y-41508754D01*
X123136110Y-41500465D01*
X123142674Y-41491902D01*
X123148933Y-41483063D01*
X123154887Y-41473950D01*
X123160506Y-41464543D01*
X123165763Y-41454883D01*
X123170657Y-41444973D01*
X123175189Y-41434810D01*
X123179359Y-41424395D01*
X123183165Y-41413729D01*
X123186609Y-41402810D01*
X123189691Y-41391640D01*
X123192410Y-41380218D01*
X123194767Y-41368544D01*
X123196761Y-41356618D01*
X123198392Y-41344440D01*
X123199661Y-41332010D01*
X123200568Y-41319329D01*
X123201111Y-41306395D01*
X123201293Y-41293210D01*
X123201115Y-41280193D01*
X123200583Y-41267397D01*
X123199696Y-41254822D01*
X123198453Y-41242469D01*
X123196856Y-41230337D01*
X123194904Y-41218426D01*
X123192597Y-41206737D01*
X123189935Y-41195269D01*
X123186919Y-41184022D01*
X123183547Y-41172997D01*
X123179820Y-41162193D01*
X123175739Y-41151610D01*
X123171302Y-41141249D01*
X123166511Y-41131109D01*
X123161365Y-41121191D01*
X123155864Y-41111493D01*
X123150035Y-41102046D01*
X123143907Y-41092877D01*
X123137479Y-41083987D01*
X123130752Y-41075376D01*
X123123726Y-41067043D01*
X123116399Y-41058989D01*
X123108773Y-41051213D01*
X123100848Y-41043716D01*
X123092623Y-41036497D01*
X123084098Y-41029557D01*
X123075274Y-41022896D01*
X123066150Y-41016513D01*
X123056727Y-41010409D01*
X123047004Y-41004584D01*
X123036981Y-40999037D01*
X123026659Y-40993768D01*
X123016096Y-40988770D01*
X123005288Y-40984094D01*
X122994236Y-40979741D01*
X122982940Y-40975710D01*
X122971399Y-40972001D01*
X122959614Y-40968615D01*
X122947585Y-40965552D01*
X122935312Y-40962810D01*
X122922795Y-40960392D01*
X122910033Y-40958296D01*
X122897027Y-40956522D01*
X122883777Y-40955071D01*
X122870283Y-40953942D01*
X122856544Y-40953136D01*
X122842561Y-40952652D01*
X122828334Y-40952491D01*
X122405549Y-40952491D01*
X122037692Y-40952491D01*
X122037692Y-40570712D01*
X125455193Y-40570712D01*
X125455193Y-42356426D01*
G37*
D12*
G36*
X55620740Y-40667600D02*
G01*
X55630494Y-40668327D01*
X55643132Y-40670263D01*
X55655350Y-40673307D01*
X55667148Y-40677457D01*
X55678526Y-40682714D01*
X55689484Y-40689078D01*
X55700023Y-40696548D01*
X55707652Y-40702877D01*
X55712590Y-40707448D01*
X55719740Y-40714845D01*
X55726581Y-40722890D01*
X55733112Y-40731583D01*
X55739335Y-40740925D01*
X55745248Y-40750915D01*
X55750852Y-40761553D01*
X55756147Y-40772839D01*
X55761133Y-40784774D01*
X55765810Y-40797357D01*
X55770178Y-40810588D01*
X55772899Y-40819747D01*
X55775444Y-40829212D01*
X55777814Y-40838982D01*
X55780009Y-40849057D01*
X55782027Y-40859437D01*
X55783871Y-40870122D01*
X55785538Y-40881113D01*
X55787031Y-40892410D01*
X55788347Y-40904011D01*
X55789488Y-40915918D01*
X55790454Y-40928130D01*
X55791244Y-40940648D01*
X55791858Y-40953470D01*
X55792297Y-40966598D01*
X55792560Y-40980032D01*
X55792648Y-40993770D01*
X55792630Y-41004264D01*
X55792514Y-41014586D01*
X55792300Y-41024738D01*
X55791988Y-41034719D01*
X55791071Y-41054169D01*
X55789763Y-41072936D01*
X55788064Y-41091019D01*
X55785974Y-41108420D01*
X55783492Y-41125137D01*
X55780619Y-41141171D01*
X55777355Y-41156522D01*
X55773700Y-41171190D01*
X55769654Y-41185175D01*
X55765217Y-41198476D01*
X55760388Y-41211095D01*
X55755168Y-41223031D01*
X55749557Y-41234283D01*
X55743555Y-41244852D01*
X55737268Y-41254731D01*
X55730740Y-41263972D01*
X55723972Y-41272576D01*
X55716963Y-41280542D01*
X55709714Y-41287871D01*
X55702225Y-41294563D01*
X55690540Y-41303406D01*
X55678314Y-41310815D01*
X55665547Y-41316790D01*
X55652239Y-41321331D01*
X55638390Y-41324438D01*
X55624000Y-41326111D01*
X55614107Y-41326429D01*
X55607560Y-41326288D01*
X55594752Y-41325158D01*
X55582327Y-41322899D01*
X55570282Y-41319510D01*
X55558620Y-41314992D01*
X55547339Y-41309344D01*
X55536439Y-41302566D01*
X55528515Y-41296741D01*
X55520806Y-41290281D01*
X55515809Y-41285586D01*
X55508583Y-41277996D01*
X55501679Y-41269750D01*
X55495096Y-41260846D01*
X55488836Y-41251285D01*
X55482897Y-41241068D01*
X55477281Y-41230194D01*
X55471987Y-41218663D01*
X55467014Y-41206474D01*
X55462364Y-41193630D01*
X55458036Y-41180128D01*
X55455346Y-41170727D01*
X55452834Y-41161027D01*
X55450499Y-41151028D01*
X55448342Y-41140728D01*
X55446362Y-41130129D01*
X55444560Y-41119231D01*
X55442935Y-41108033D01*
X55441488Y-41096536D01*
X55440218Y-41084738D01*
X55439126Y-41072642D01*
X55438211Y-41060246D01*
X55437473Y-41047550D01*
X55436913Y-41034554D01*
X55436531Y-41021259D01*
X55436326Y-41007665D01*
X55436298Y-40993770D01*
X55436376Y-40983474D01*
X55436548Y-40973346D01*
X55436815Y-40963385D01*
X55437176Y-40953592D01*
X55438181Y-40934511D01*
X55439565Y-40916101D01*
X55441326Y-40898363D01*
X55443465Y-40881297D01*
X55445982Y-40864902D01*
X55448876Y-40849179D01*
X55452149Y-40834127D01*
X55455799Y-40819747D01*
X55459827Y-40806039D01*
X55464233Y-40793003D01*
X55469017Y-40780638D01*
X55474178Y-40768945D01*
X55479718Y-40757923D01*
X55485635Y-40747574D01*
X55491890Y-40737873D01*
X55498381Y-40728797D01*
X55505110Y-40720348D01*
X55512074Y-40712525D01*
X55519276Y-40705327D01*
X55526714Y-40698756D01*
X55538314Y-40690072D01*
X55550447Y-40682796D01*
X55563112Y-40676928D01*
X55576310Y-40672469D01*
X55590040Y-40669418D01*
X55604303Y-40667775D01*
X55614107Y-40667462D01*
X55620740Y-40667600D01*
G37*
G36*
X53687952Y-41069642D02*
G01*
X53698684Y-41070339D01*
X53709110Y-41071593D01*
X53719231Y-41073403D01*
X53729046Y-41075771D01*
X53738556Y-41078697D01*
X53747761Y-41082179D01*
X53758838Y-41087315D01*
X53763145Y-41089596D01*
X53773394Y-41095747D01*
X53782904Y-41102542D01*
X53791674Y-41109982D01*
X53799705Y-41118065D01*
X53806996Y-41126793D01*
X53813548Y-41136164D01*
X53817128Y-41142016D01*
X53822311Y-41152131D01*
X53826516Y-41162700D01*
X53829743Y-41173722D01*
X53831992Y-41185197D01*
X53833263Y-41197126D01*
X53833576Y-41206994D01*
X53833499Y-41211848D01*
X53832630Y-41223706D01*
X53830794Y-41235170D01*
X53827993Y-41246241D01*
X53824225Y-41256918D01*
X53819492Y-41267202D01*
X53813793Y-41277092D01*
X53811291Y-41280886D01*
X53804520Y-41289913D01*
X53797009Y-41298284D01*
X53788758Y-41305999D01*
X53779769Y-41313058D01*
X53770039Y-41319461D01*
X53759571Y-41325208D01*
X53753017Y-41328263D01*
X53741665Y-41332688D01*
X53732196Y-41335626D01*
X53722385Y-41338031D01*
X53712230Y-41339901D01*
X53701731Y-41341236D01*
X53690889Y-41342038D01*
X53679703Y-41342305D01*
X53671367Y-41342153D01*
X53660533Y-41341475D01*
X53650019Y-41340256D01*
X53639825Y-41338495D01*
X53629953Y-41336192D01*
X53620401Y-41333346D01*
X53611169Y-41329960D01*
X53600080Y-41324964D01*
X53595803Y-41322715D01*
X53585620Y-41316651D01*
X53576163Y-41309954D01*
X53567435Y-41302626D01*
X53559434Y-41294665D01*
X53552160Y-41286073D01*
X53545614Y-41276848D01*
X53543218Y-41272969D01*
X53537905Y-41262987D01*
X53533558Y-41252599D01*
X53530177Y-41241806D01*
X53527762Y-41230608D01*
X53526313Y-41219004D01*
X53525830Y-41206994D01*
X53525909Y-41202024D01*
X53526789Y-41189914D01*
X53528647Y-41178258D01*
X53531483Y-41167055D01*
X53535297Y-41156305D01*
X53540089Y-41146008D01*
X53545858Y-41136164D01*
X53548420Y-41132338D01*
X53555333Y-41123224D01*
X53562974Y-41114755D01*
X53571343Y-41106929D01*
X53580439Y-41099747D01*
X53590262Y-41093209D01*
X53600813Y-41087315D01*
X53609686Y-41083137D01*
X53618841Y-41079515D01*
X53628279Y-41076450D01*
X53637999Y-41073943D01*
X53648001Y-41071993D01*
X53658286Y-41070600D01*
X53668854Y-41069764D01*
X53679703Y-41069486D01*
X53687952Y-41069642D01*
G37*
G36*
X53684611Y-40647985D02*
G01*
X53696547Y-40648682D01*
X53708005Y-40650155D01*
X53718986Y-40652403D01*
X53729491Y-40655426D01*
X53739518Y-40659225D01*
X53749068Y-40663798D01*
X53752773Y-40665799D01*
X53761592Y-40671210D01*
X53769779Y-40677205D01*
X53777334Y-40683785D01*
X53784257Y-40690948D01*
X53790548Y-40698697D01*
X53796207Y-40707029D01*
X53798307Y-40710482D01*
X53802964Y-40719406D01*
X53806775Y-40728748D01*
X53809738Y-40738507D01*
X53811855Y-40748683D01*
X53813125Y-40759277D01*
X53813548Y-40770288D01*
X53813481Y-40774777D01*
X53812719Y-40785741D01*
X53811110Y-40796334D01*
X53808654Y-40806559D01*
X53805352Y-40816413D01*
X53801203Y-40825898D01*
X53796207Y-40835013D01*
X53794019Y-40838506D01*
X53788096Y-40846824D01*
X53781530Y-40854544D01*
X53774319Y-40861669D01*
X53766465Y-40868197D01*
X53757966Y-40874129D01*
X53748824Y-40879465D01*
X53745034Y-40881387D01*
X53735248Y-40885651D01*
X53725022Y-40889139D01*
X53714354Y-40891852D01*
X53703245Y-40893790D01*
X53691695Y-40894953D01*
X53679703Y-40895341D01*
X53674941Y-40895278D01*
X53663301Y-40894569D01*
X53652043Y-40893074D01*
X53641166Y-40890791D01*
X53630672Y-40887721D01*
X53620558Y-40883864D01*
X53610827Y-40879221D01*
X53607062Y-40877129D01*
X53598101Y-40871500D01*
X53589784Y-40865299D01*
X53582111Y-40858525D01*
X53575082Y-40851178D01*
X53568696Y-40843260D01*
X53562955Y-40834768D01*
X53560885Y-40831196D01*
X53556293Y-40821999D01*
X53552537Y-40812420D01*
X53549615Y-40802460D01*
X53547528Y-40792117D01*
X53546276Y-40781394D01*
X53545858Y-40770288D01*
X53545924Y-40765834D01*
X53546665Y-40754989D01*
X53548228Y-40744563D01*
X53550615Y-40734553D01*
X53553824Y-40724961D01*
X53557856Y-40715787D01*
X53562711Y-40707029D01*
X53564901Y-40703626D01*
X53570834Y-40695527D01*
X53577423Y-40688013D01*
X53584668Y-40681083D01*
X53592569Y-40674737D01*
X53601126Y-40668975D01*
X53610338Y-40663798D01*
X53614187Y-40661876D01*
X53624093Y-40657612D01*
X53634404Y-40654124D01*
X53645121Y-40651411D01*
X53656243Y-40649473D01*
X53667770Y-40648310D01*
X53679703Y-40647923D01*
X53684611Y-40647985D01*
G37*
G36*
X47920099Y-40683477D02*
G01*
X47933540Y-40684208D01*
X47946606Y-40685566D01*
X47959300Y-40687551D01*
X47971619Y-40690163D01*
X47983565Y-40693402D01*
X47995138Y-40697267D01*
X48006337Y-40701760D01*
X48017163Y-40706879D01*
X48027615Y-40712624D01*
X48037694Y-40718997D01*
X48044192Y-40723555D01*
X48053578Y-40730881D01*
X48062530Y-40738796D01*
X48071049Y-40747299D01*
X48079134Y-40756390D01*
X48086785Y-40766070D01*
X48094003Y-40776337D01*
X48100787Y-40787193D01*
X48107138Y-40798637D01*
X48113055Y-40810669D01*
X48118538Y-40823289D01*
X48123601Y-40836476D01*
X48128166Y-40850208D01*
X48130933Y-40859666D01*
X48133479Y-40869366D01*
X48135803Y-40879308D01*
X48137906Y-40889493D01*
X48139787Y-40899920D01*
X48141447Y-40910590D01*
X48142886Y-40921501D01*
X48144103Y-40932655D01*
X48145099Y-40944052D01*
X48145874Y-40955690D01*
X48146427Y-40967572D01*
X48146759Y-40979695D01*
X48146870Y-40992061D01*
X48146759Y-41004456D01*
X48146427Y-41016607D01*
X48145874Y-41028514D01*
X48145099Y-41040177D01*
X48144103Y-41051595D01*
X48142886Y-41062769D01*
X48141447Y-41073699D01*
X48139787Y-41084385D01*
X48137906Y-41094826D01*
X48135803Y-41105023D01*
X48133479Y-41114976D01*
X48130933Y-41124685D01*
X48128166Y-41134149D01*
X48123601Y-41147888D01*
X48118538Y-41161077D01*
X48114931Y-41169557D01*
X48109158Y-41181790D01*
X48102952Y-41193439D01*
X48096313Y-41204504D01*
X48089239Y-41214986D01*
X48081732Y-41224883D01*
X48073792Y-41234197D01*
X48065418Y-41242927D01*
X48056610Y-41251073D01*
X48047369Y-41258635D01*
X48037694Y-41265613D01*
X48031016Y-41269901D01*
X48020688Y-41275815D01*
X48009987Y-41281107D01*
X47998913Y-41285776D01*
X47987464Y-41289822D01*
X47975643Y-41293246D01*
X47963448Y-41296048D01*
X47950879Y-41298227D01*
X47937937Y-41299783D01*
X47924621Y-41300717D01*
X47910932Y-41301028D01*
X47901852Y-41300890D01*
X47888529Y-41300163D01*
X47875562Y-41298814D01*
X47862952Y-41296843D01*
X47850698Y-41294249D01*
X47838800Y-41291033D01*
X47827259Y-41287194D01*
X47816074Y-41282732D01*
X47805246Y-41277648D01*
X47794774Y-41271942D01*
X47784658Y-41265613D01*
X47778129Y-41261026D01*
X47768698Y-41253658D01*
X47759699Y-41245707D01*
X47751135Y-41237172D01*
X47743004Y-41228053D01*
X47735307Y-41218350D01*
X47728043Y-41208063D01*
X47721213Y-41197192D01*
X47714817Y-41185738D01*
X47708854Y-41173699D01*
X47703325Y-41161077D01*
X47698306Y-41147888D01*
X47693780Y-41134149D01*
X47691037Y-41124685D01*
X47688513Y-41114976D01*
X47686209Y-41105023D01*
X47684124Y-41094826D01*
X47682259Y-41084385D01*
X47680613Y-41073699D01*
X47679187Y-41062769D01*
X47677980Y-41051595D01*
X47676993Y-41040177D01*
X47676225Y-41028514D01*
X47675676Y-41016607D01*
X47675347Y-41004456D01*
X47675237Y-40992061D01*
X47675347Y-40979695D01*
X47675676Y-40967572D01*
X47676225Y-40955690D01*
X47676993Y-40944052D01*
X47677980Y-40932655D01*
X47679187Y-40921501D01*
X47680613Y-40910590D01*
X47682259Y-40899920D01*
X47684124Y-40889493D01*
X47686209Y-40879308D01*
X47688513Y-40869366D01*
X47691037Y-40859666D01*
X47693780Y-40850208D01*
X47698306Y-40836476D01*
X47703325Y-40823289D01*
X47706963Y-40814810D01*
X47712781Y-40802582D01*
X47719033Y-40790942D01*
X47725718Y-40779890D01*
X47732837Y-40769427D01*
X47740390Y-40759551D01*
X47748376Y-40750264D01*
X47756796Y-40741565D01*
X47765650Y-40733454D01*
X47774937Y-40725932D01*
X47784658Y-40718997D01*
X47791362Y-40714679D01*
X47801716Y-40708724D01*
X47812425Y-40703396D01*
X47823491Y-40698695D01*
X47834914Y-40694621D01*
X47846693Y-40691173D01*
X47858828Y-40688352D01*
X47871319Y-40686158D01*
X47884167Y-40684591D01*
X47897371Y-40683651D01*
X47910932Y-40683338D01*
X47920099Y-40683477D01*
G37*
G36*
X54712362Y-41139095D02*
G01*
X54459082Y-41139095D01*
X54459082Y-41131035D01*
X54704302Y-40742445D01*
X54712362Y-40742445D01*
X54712362Y-41139095D01*
G37*
G36*
X50098643Y-40679934D02*
G01*
X50108781Y-40680166D01*
X50121818Y-40680911D01*
X50134305Y-40682151D01*
X50146242Y-40683887D01*
X50157630Y-40686120D01*
X50168468Y-40688849D01*
X50178757Y-40692073D01*
X50188496Y-40695794D01*
X50195475Y-40698862D01*
X50204266Y-40703381D01*
X50214428Y-40709716D01*
X50223672Y-40716814D01*
X50231997Y-40724676D01*
X50239404Y-40733301D01*
X50245893Y-40742689D01*
X50248259Y-40746660D01*
X50253507Y-40757138D01*
X50257800Y-40768403D01*
X50260548Y-40777982D01*
X50262685Y-40788065D01*
X50264211Y-40798651D01*
X50265127Y-40809741D01*
X50265433Y-40821335D01*
X50265414Y-40824280D01*
X50264956Y-40835725D01*
X50263887Y-40846636D01*
X50262208Y-40857012D01*
X50259918Y-40866854D01*
X50256197Y-40878406D01*
X50251522Y-40889122D01*
X50245893Y-40899004D01*
X50242112Y-40904545D01*
X50235085Y-40913170D01*
X50227152Y-40921032D01*
X50218313Y-40928130D01*
X50208567Y-40934465D01*
X50197915Y-40940037D01*
X50188740Y-40943945D01*
X50183967Y-40945719D01*
X50173991Y-40948925D01*
X50163443Y-40951673D01*
X50152322Y-40953963D01*
X50140629Y-40955794D01*
X50128364Y-40957168D01*
X50115526Y-40958084D01*
X50105522Y-40958471D01*
X50095195Y-40958599D01*
X49973318Y-40958599D01*
X49973318Y-40679918D01*
X50095195Y-40679918D01*
X50098643Y-40679934D01*
G37*
G36*
X46984336Y-41100993D02*
G01*
X46748750Y-41100993D01*
X46862397Y-40738292D01*
X46870457Y-40738292D01*
X46984336Y-41100993D01*
G37*
G36*
X56564762Y-42046519D02*
G01*
X44413800Y-42046519D01*
X44413800Y-41503750D01*
X44931657Y-41503750D01*
X45213269Y-41503750D01*
X45405244Y-41176953D01*
X45413304Y-41176953D01*
X45605035Y-41503750D01*
X45888845Y-41503750D01*
X45570108Y-40992061D01*
X45878831Y-40480616D01*
X46001685Y-40480616D01*
X46001685Y-41503750D01*
X46249103Y-41503750D01*
X46356814Y-41503750D01*
X46622551Y-41503750D01*
X46689898Y-41288816D01*
X47043308Y-41288816D01*
X47110792Y-41503750D01*
X47376528Y-41503750D01*
X47203807Y-40992061D01*
X47422934Y-40992061D01*
X47422998Y-41002544D01*
X47423187Y-41012926D01*
X47423503Y-41023209D01*
X47423946Y-41033391D01*
X47424515Y-41043473D01*
X47425210Y-41053455D01*
X47426032Y-41063337D01*
X47426980Y-41073119D01*
X47429255Y-41092382D01*
X47432036Y-41111244D01*
X47435323Y-41129705D01*
X47439115Y-41147766D01*
X47443414Y-41165425D01*
X47448217Y-41182685D01*
X47453527Y-41199543D01*
X47459342Y-41216001D01*
X47465663Y-41232058D01*
X47472489Y-41247714D01*
X47479821Y-41262970D01*
X47487659Y-41277825D01*
X47495928Y-41292232D01*
X47504553Y-41306207D01*
X47513536Y-41319748D01*
X47522875Y-41332856D01*
X47532572Y-41345531D01*
X47542625Y-41357772D01*
X47553035Y-41369581D01*
X47563801Y-41380956D01*
X47574925Y-41391899D01*
X47586405Y-41402408D01*
X47598243Y-41412484D01*
X47610437Y-41422127D01*
X47622987Y-41431336D01*
X47635895Y-41440113D01*
X47649160Y-41448456D01*
X47662781Y-41456366D01*
X47676687Y-41463790D01*
X47690808Y-41470735D01*
X47705142Y-41477200D01*
X47719689Y-41483187D01*
X47734451Y-41488695D01*
X47749426Y-41493724D01*
X47764615Y-41498274D01*
X47780017Y-41502345D01*
X47795634Y-41505937D01*
X47811464Y-41509050D01*
X47827507Y-41511685D01*
X47843765Y-41513840D01*
X47860236Y-41515516D01*
X47876921Y-41516713D01*
X47893819Y-41517432D01*
X47910932Y-41517671D01*
X47928015Y-41517434D01*
X47944889Y-41516721D01*
X47961553Y-41515533D01*
X47978007Y-41513870D01*
X47994251Y-41511732D01*
X48010285Y-41509119D01*
X48026109Y-41506031D01*
X48036103Y-41503750D01*
X48838810Y-41503750D01*
X49083053Y-41503750D01*
X49083053Y-41066066D01*
X49083412Y-41055281D01*
X49084244Y-41044909D01*
X49085549Y-41034948D01*
X49087846Y-41023077D01*
X49090882Y-41011850D01*
X49094658Y-41001267D01*
X49099173Y-40991328D01*
X49101210Y-40987506D01*
X49106761Y-40978435D01*
X49112969Y-40970056D01*
X49119832Y-40962369D01*
X49127352Y-40955373D01*
X49135527Y-40949069D01*
X49144358Y-40943456D01*
X49148057Y-40941416D01*
X49157613Y-40936890D01*
X49167611Y-40933187D01*
X49178049Y-40930307D01*
X49188929Y-40928249D01*
X49200251Y-40927015D01*
X49212013Y-40926604D01*
X49219151Y-40926745D01*
X49229488Y-40927486D01*
X49239384Y-40928863D01*
X49251890Y-40931687D01*
X49263609Y-40935641D01*
X49274543Y-40940724D01*
X49284691Y-40946937D01*
X49294052Y-40954279D01*
X49302627Y-40962752D01*
X49306589Y-40967349D01*
X49313733Y-40977203D01*
X49319839Y-40987934D01*
X49324907Y-40999544D01*
X49328027Y-41008826D01*
X49330563Y-41018603D01*
X49332515Y-41028873D01*
X49333883Y-41039638D01*
X49334667Y-41050895D01*
X49334867Y-41062647D01*
X49334867Y-41503750D01*
X49579110Y-41503750D01*
X49579110Y-41014531D01*
X49579040Y-41003838D01*
X49578706Y-40993312D01*
X49578108Y-40982955D01*
X49577248Y-40972766D01*
X49576124Y-40962744D01*
X49574737Y-40952890D01*
X49573086Y-40943205D01*
X49570117Y-40928991D01*
X49566555Y-40915155D01*
X49562400Y-40901697D01*
X49557653Y-40888616D01*
X49552314Y-40875914D01*
X49546382Y-40863589D01*
X49542126Y-40855610D01*
X49535357Y-40844060D01*
X49528125Y-40833013D01*
X49520428Y-40822468D01*
X49512268Y-40812425D01*
X49503644Y-40802884D01*
X49494556Y-40793846D01*
X49485005Y-40785310D01*
X49474990Y-40777277D01*
X49464512Y-40769746D01*
X49453569Y-40762717D01*
X49449824Y-40760478D01*
X49438335Y-40754187D01*
X49426468Y-40748537D01*
X49414223Y-40743526D01*
X49401601Y-40739154D01*
X49388601Y-40735423D01*
X49375223Y-40732331D01*
X49361467Y-40729878D01*
X49347333Y-40728066D01*
X49332822Y-40726893D01*
X49322938Y-40726467D01*
X49312885Y-40726325D01*
X49307596Y-40726364D01*
X49297155Y-40726679D01*
X49286897Y-40727308D01*
X49276822Y-40728253D01*
X49266930Y-40729512D01*
X49257221Y-40731087D01*
X49243002Y-40734038D01*
X49229194Y-40737698D01*
X49215799Y-40742067D01*
X49202816Y-40747144D01*
X49190245Y-40752929D01*
X49178086Y-40759423D01*
X49166340Y-40766625D01*
X49158817Y-40771779D01*
X49148059Y-40779952D01*
X49137931Y-40788652D01*
X49128435Y-40797881D01*
X49119570Y-40807637D01*
X49111336Y-40817922D01*
X49103733Y-40828735D01*
X49096762Y-40840076D01*
X49090421Y-40851945D01*
X49084712Y-40864342D01*
X49079634Y-40877267D01*
X49071085Y-40877267D01*
X49071085Y-40736338D01*
X48838810Y-40736338D01*
X48838810Y-41503750D01*
X48036103Y-41503750D01*
X48041724Y-41502467D01*
X48057128Y-41498429D01*
X48072323Y-41493915D01*
X48087307Y-41488926D01*
X48102082Y-41483462D01*
X48116647Y-41477523D01*
X48131002Y-41471109D01*
X48145147Y-41464219D01*
X48159082Y-41456855D01*
X48172734Y-41449003D01*
X48186029Y-41440712D01*
X48198967Y-41431982D01*
X48211549Y-41422814D01*
X48223773Y-41413206D01*
X48235641Y-41403160D01*
X48247152Y-41392674D01*
X48258306Y-41381750D01*
X48269103Y-41370387D01*
X48279544Y-41358585D01*
X48289627Y-41346345D01*
X48299354Y-41333665D01*
X48308724Y-41320546D01*
X48317737Y-41306989D01*
X48326393Y-41292993D01*
X48334693Y-41278558D01*
X48342560Y-41263671D01*
X48349920Y-41248382D01*
X48356772Y-41232691D01*
X48363117Y-41216596D01*
X48368954Y-41200099D01*
X48374283Y-41183200D01*
X48379105Y-41165898D01*
X48383419Y-41148193D01*
X48387226Y-41130086D01*
X48390525Y-41111576D01*
X48393317Y-41092663D01*
X48395601Y-41073348D01*
X48396553Y-41063539D01*
X48397377Y-41053630D01*
X48398075Y-41043620D01*
X48398646Y-41033510D01*
X48399090Y-41023298D01*
X48399408Y-41012986D01*
X48399598Y-41002574D01*
X48399661Y-40992061D01*
X48399598Y-40981563D01*
X48399408Y-40971166D01*
X48399090Y-40960869D01*
X48398646Y-40950673D01*
X48398075Y-40940578D01*
X48397377Y-40930583D01*
X48396553Y-40920689D01*
X48395601Y-40910896D01*
X48393317Y-40891611D01*
X48390525Y-40872729D01*
X48387226Y-40854250D01*
X48383419Y-40836173D01*
X48379105Y-40818499D01*
X48374283Y-40801227D01*
X48368954Y-40784358D01*
X48363117Y-40767892D01*
X48356772Y-40751828D01*
X48349920Y-40736167D01*
X48342560Y-40720908D01*
X48334693Y-40706052D01*
X48326393Y-40691589D01*
X48317737Y-40677568D01*
X48308724Y-40663989D01*
X48299354Y-40650853D01*
X48289627Y-40638160D01*
X48279544Y-40625910D01*
X48269103Y-40614103D01*
X48258306Y-40602738D01*
X48247152Y-40591815D01*
X48235641Y-40581336D01*
X48223773Y-40571299D01*
X48211549Y-40561705D01*
X48198967Y-40552553D01*
X48186029Y-40543845D01*
X48172734Y-40535578D01*
X48159082Y-40527755D01*
X48145147Y-40520361D01*
X48131002Y-40513444D01*
X48116647Y-40507004D01*
X48102082Y-40501041D01*
X48087307Y-40495555D01*
X48072323Y-40490546D01*
X48057128Y-40486014D01*
X48041724Y-40481960D01*
X48035859Y-40480616D01*
X49725900Y-40480616D01*
X49725900Y-41503750D01*
X49973318Y-41503750D01*
X49973318Y-41153505D01*
X50099825Y-41153505D01*
X50286926Y-41503750D01*
X50556814Y-41503750D01*
X50344528Y-41114354D01*
X50353879Y-41109923D01*
X50364107Y-41104657D01*
X50374029Y-41099115D01*
X50383646Y-41093299D01*
X50392958Y-41087209D01*
X50401964Y-41080843D01*
X50410665Y-41074203D01*
X50419061Y-41067288D01*
X50427152Y-41060098D01*
X50434937Y-41052633D01*
X50442417Y-41044894D01*
X50449592Y-41036879D01*
X50456461Y-41028590D01*
X50463025Y-41020027D01*
X50469284Y-41011188D01*
X50475237Y-41002075D01*
X50480857Y-40992668D01*
X50486114Y-40983008D01*
X50491008Y-40973098D01*
X50495540Y-40962935D01*
X50499709Y-40952520D01*
X50503516Y-40941854D01*
X50506960Y-40930935D01*
X50510042Y-40919765D01*
X50512761Y-40908343D01*
X50515117Y-40896669D01*
X50517111Y-40884743D01*
X50518743Y-40872565D01*
X50520012Y-40860135D01*
X50520918Y-40847454D01*
X50521462Y-40834520D01*
X50521643Y-40821335D01*
X50521466Y-40808318D01*
X50520934Y-40795522D01*
X50520046Y-40782947D01*
X50518804Y-40770594D01*
X50517207Y-40758462D01*
X50515255Y-40746551D01*
X50512948Y-40734862D01*
X50510286Y-40723394D01*
X50507269Y-40712147D01*
X50503898Y-40701122D01*
X50500171Y-40690318D01*
X50496089Y-40679735D01*
X50491653Y-40669374D01*
X50486862Y-40659234D01*
X50481715Y-40649316D01*
X50476214Y-40639618D01*
X50470386Y-40630171D01*
X50464258Y-40621002D01*
X50457830Y-40612112D01*
X50451103Y-40603501D01*
X50444076Y-40595168D01*
X50436750Y-40587114D01*
X50429124Y-40579338D01*
X50421198Y-40571841D01*
X50412973Y-40564622D01*
X50404449Y-40557682D01*
X50395625Y-40551021D01*
X50386501Y-40544638D01*
X50377077Y-40538534D01*
X50367354Y-40532709D01*
X50357332Y-40527162D01*
X50347010Y-40521893D01*
X50336446Y-40516895D01*
X50325638Y-40512219D01*
X50314586Y-40507866D01*
X50303290Y-40503835D01*
X50291750Y-40500126D01*
X50279965Y-40496740D01*
X50267936Y-40493677D01*
X50255663Y-40490935D01*
X50243145Y-40488517D01*
X50230384Y-40486421D01*
X50217378Y-40484647D01*
X50204128Y-40483196D01*
X50190633Y-40482067D01*
X50176895Y-40481261D01*
X50162912Y-40480777D01*
X50148685Y-40480616D01*
X50652069Y-40480616D01*
X50652069Y-41503750D01*
X50899487Y-41503750D01*
X50899487Y-41203087D01*
X51471260Y-41203087D01*
X51471693Y-41214485D01*
X51472504Y-41225721D01*
X51473692Y-41236795D01*
X51475259Y-41247707D01*
X51477203Y-41258456D01*
X51479526Y-41269044D01*
X51482226Y-41279469D01*
X51485303Y-41289732D01*
X51488759Y-41299832D01*
X51492593Y-41309771D01*
X51496804Y-41319547D01*
X51501393Y-41329162D01*
X51506360Y-41338614D01*
X51511705Y-41347903D01*
X51517427Y-41357031D01*
X51523528Y-41365997D01*
X51529959Y-41374732D01*
X51536675Y-41383231D01*
X51543675Y-41391493D01*
X51550959Y-41399519D01*
X51558528Y-41407308D01*
X51566381Y-41414860D01*
X51574518Y-41422176D01*
X51582940Y-41429255D01*
X51591645Y-41436098D01*
X51600636Y-41442704D01*
X51609910Y-41449073D01*
X51619469Y-41455206D01*
X51629312Y-41461102D01*
X51639440Y-41466762D01*
X51649852Y-41472185D01*
X51660548Y-41477371D01*
X51671515Y-41482251D01*
X51682678Y-41486817D01*
X51694039Y-41491067D01*
X51705595Y-41495003D01*
X51717349Y-41498623D01*
X51729298Y-41501929D01*
X51741445Y-41504920D01*
X51753787Y-41507596D01*
X51766327Y-41509958D01*
X51779063Y-41512004D01*
X51791995Y-41513736D01*
X51805124Y-41515153D01*
X51818450Y-41516255D01*
X51831972Y-41517042D01*
X51845690Y-41517514D01*
X51859606Y-41517671D01*
X51874387Y-41517491D01*
X51888934Y-41516950D01*
X51903246Y-41516048D01*
X51917323Y-41514786D01*
X51931166Y-41513163D01*
X51944774Y-41511180D01*
X51958147Y-41508836D01*
X51971286Y-41506131D01*
X51984190Y-41503065D01*
X51996859Y-41499639D01*
X52009293Y-41495853D01*
X52021493Y-41491705D01*
X52033458Y-41487197D01*
X52045188Y-41482329D01*
X52056684Y-41477099D01*
X52067945Y-41471509D01*
X52078963Y-41465602D01*
X52089671Y-41459419D01*
X52100068Y-41452962D01*
X52110153Y-41446230D01*
X52119928Y-41439224D01*
X52129391Y-41431942D01*
X52138543Y-41424386D01*
X52147385Y-41416555D01*
X52155915Y-41408449D01*
X52164135Y-41400068D01*
X52172043Y-41391413D01*
X52179640Y-41382483D01*
X52186926Y-41373278D01*
X52193902Y-41363798D01*
X52200566Y-41354044D01*
X52206919Y-41344015D01*
X52212953Y-41333724D01*
X52218597Y-41323246D01*
X52223852Y-41312582D01*
X52228718Y-41301730D01*
X52233194Y-41290692D01*
X52237281Y-41279466D01*
X52240979Y-41268053D01*
X52244288Y-41256454D01*
X52247208Y-41244667D01*
X52249738Y-41232693D01*
X52251879Y-41220533D01*
X52253630Y-41208185D01*
X52254993Y-41195651D01*
X52255966Y-41182929D01*
X52256550Y-41170020D01*
X52256745Y-41156925D01*
X52256581Y-41144858D01*
X52256092Y-41132962D01*
X52255276Y-41121236D01*
X52254134Y-41109679D01*
X52252666Y-41098292D01*
X52250871Y-41087075D01*
X52248750Y-41076028D01*
X52246303Y-41065150D01*
X52243530Y-41054443D01*
X52240430Y-41043905D01*
X52237004Y-41033537D01*
X52233251Y-41023339D01*
X52229173Y-41013311D01*
X52224768Y-41003452D01*
X52220037Y-40993764D01*
X52214979Y-40984245D01*
X52209639Y-40974939D01*
X52204061Y-40965889D01*
X52198244Y-40957094D01*
X52192188Y-40948555D01*
X52185894Y-40940272D01*
X52179362Y-40932244D01*
X52172590Y-40924472D01*
X52165581Y-40916956D01*
X52158333Y-40909696D01*
X52150846Y-40902691D01*
X52143121Y-40895942D01*
X52135157Y-40889448D01*
X52126955Y-40883210D01*
X52118515Y-40877228D01*
X52109835Y-40871502D01*
X52100918Y-40866031D01*
X52091834Y-40860856D01*
X52082596Y-40856014D01*
X52073203Y-40851506D01*
X52063655Y-40847332D01*
X52053953Y-40843491D01*
X52044097Y-40839985D01*
X52034086Y-40836813D01*
X52023920Y-40833975D01*
X52013600Y-40831470D01*
X52003125Y-40829300D01*
X51992496Y-40827463D01*
X51981712Y-40825960D01*
X51970773Y-40824792D01*
X51959680Y-40823957D01*
X51948433Y-40823456D01*
X51937031Y-40823289D01*
X51928025Y-40823398D01*
X51914749Y-40823969D01*
X51901753Y-40825029D01*
X51889035Y-40826579D01*
X51876597Y-40828618D01*
X51864437Y-40831147D01*
X51852557Y-40834165D01*
X51840956Y-40837673D01*
X51829633Y-40841670D01*
X51818590Y-40846157D01*
X51807826Y-40851133D01*
X51800864Y-40854641D01*
X51790876Y-40860121D01*
X51781433Y-40865864D01*
X51772535Y-40871868D01*
X51764182Y-40878134D01*
X51756375Y-40884662D01*
X51749112Y-40891452D01*
X51740278Y-40900912D01*
X51732412Y-40910839D01*
X51725516Y-40921230D01*
X51719655Y-40921230D01*
X51730928Y-40805215D01*
X52372271Y-40805215D01*
X52606500Y-40805215D01*
X52606569Y-40799469D01*
X52607119Y-40788302D01*
X52608218Y-40777571D01*
X52609866Y-40767274D01*
X52612064Y-40757413D01*
X52614812Y-40747987D01*
X52619020Y-40736816D01*
X52624086Y-40726325D01*
X52626370Y-40722324D01*
X52632564Y-40712849D01*
X52639450Y-40704125D01*
X52647028Y-40696153D01*
X52655297Y-40688932D01*
X52664258Y-40682462D01*
X52673911Y-40676743D01*
X52684166Y-40671747D01*
X52694934Y-40667598D01*
X52706215Y-40664296D01*
X52718009Y-40661841D01*
X52727813Y-40660486D01*
X52737945Y-40659673D01*
X52748405Y-40659402D01*
X52758755Y-40659661D01*
X52768800Y-40660440D01*
X52778539Y-40661738D01*
X52790283Y-40664089D01*
X52801551Y-40667252D01*
X52812342Y-40671226D01*
X52822655Y-40676010D01*
X52826661Y-40678110D01*
X52836201Y-40683836D01*
X52845061Y-40690241D01*
X52853241Y-40697327D01*
X52860741Y-40705092D01*
X52867561Y-40713536D01*
X52873702Y-40722661D01*
X52879050Y-40732423D01*
X52883491Y-40742782D01*
X52887026Y-40753737D01*
X52889654Y-40765289D01*
X52891104Y-40774959D01*
X52891974Y-40785011D01*
X52892264Y-40795445D01*
X52892203Y-40800156D01*
X52891516Y-40811739D01*
X52890066Y-40823049D01*
X52887853Y-40834084D01*
X52884876Y-40844844D01*
X52881136Y-40855331D01*
X52876633Y-40865543D01*
X52875657Y-40867557D01*
X52870365Y-40877616D01*
X52864380Y-40887650D01*
X52857704Y-40897661D01*
X52851865Y-40905652D01*
X52845584Y-40913628D01*
X52838859Y-40921589D01*
X52831692Y-40929535D01*
X52824166Y-40937568D01*
X52816244Y-40945792D01*
X52807924Y-40954207D01*
X52799208Y-40962813D01*
X52790095Y-40971609D01*
X52782999Y-40978332D01*
X52775680Y-40985162D01*
X52768138Y-40992099D01*
X52760373Y-40999144D01*
X52387170Y-41325941D01*
X52387170Y-41503750D01*
X53144567Y-41503750D01*
X53144567Y-41304447D01*
X52729843Y-41304447D01*
X52729843Y-41297853D01*
X52806654Y-41227022D01*
X53266689Y-41227022D01*
X53266896Y-41237305D01*
X53267517Y-41247455D01*
X53268552Y-41257471D01*
X53270001Y-41267353D01*
X53271865Y-41277102D01*
X53274142Y-41286717D01*
X53276833Y-41296198D01*
X53279939Y-41305546D01*
X53283458Y-41314761D01*
X53287392Y-41323842D01*
X53291740Y-41332789D01*
X53296502Y-41341603D01*
X53301677Y-41350283D01*
X53307267Y-41358830D01*
X53313271Y-41367243D01*
X53319689Y-41375522D01*
X53326502Y-41383628D01*
X53333630Y-41391520D01*
X53341073Y-41399198D01*
X53348831Y-41406663D01*
X53356903Y-41413914D01*
X53365290Y-41420951D01*
X53373992Y-41427775D01*
X53383009Y-41434385D01*
X53392341Y-41440781D01*
X53401988Y-41446963D01*
X53411949Y-41452932D01*
X53422226Y-41458687D01*
X53432817Y-41464228D01*
X53443723Y-41469556D01*
X53454944Y-41474669D01*
X53466479Y-41479569D01*
X53478303Y-41484183D01*
X53490327Y-41488500D01*
X53502552Y-41492518D01*
X53514977Y-41496239D01*
X53527602Y-41499662D01*
X53540428Y-41502788D01*
X53553454Y-41505616D01*
X53566680Y-41508146D01*
X53580107Y-41510378D01*
X53593734Y-41512313D01*
X53607561Y-41513950D01*
X53621589Y-41515290D01*
X53635817Y-41516332D01*
X53650245Y-41517076D01*
X53664874Y-41517523D01*
X53679703Y-41517671D01*
X53694589Y-41517523D01*
X53709264Y-41517076D01*
X53723730Y-41516332D01*
X53737986Y-41515290D01*
X53752032Y-41513950D01*
X53765868Y-41512313D01*
X53779494Y-41510378D01*
X53792910Y-41508146D01*
X53806116Y-41505616D01*
X53819113Y-41502788D01*
X53831899Y-41499662D01*
X53844476Y-41496239D01*
X53856842Y-41492518D01*
X53868999Y-41488500D01*
X53880946Y-41484183D01*
X53892683Y-41479569D01*
X53904190Y-41474669D01*
X53915386Y-41469556D01*
X53926271Y-41464228D01*
X53936845Y-41458687D01*
X53947108Y-41452932D01*
X53957060Y-41446963D01*
X53966701Y-41440781D01*
X53976031Y-41434385D01*
X53985050Y-41427775D01*
X53993758Y-41420951D01*
X54002154Y-41413914D01*
X54010240Y-41406663D01*
X54018015Y-41399198D01*
X54025479Y-41391520D01*
X54032631Y-41383628D01*
X54039473Y-41375522D01*
X54045950Y-41367243D01*
X54052010Y-41358830D01*
X54057651Y-41350283D01*
X54062875Y-41341603D01*
X54067019Y-41334001D01*
X54213374Y-41334001D01*
X54707477Y-41334001D01*
X54707477Y-41503750D01*
X54943660Y-41503750D01*
X54943660Y-41334001D01*
X55066026Y-41334001D01*
X55066026Y-41139095D01*
X54943660Y-41139095D01*
X54943660Y-40993770D01*
X55182041Y-40993770D01*
X55182062Y-41004241D01*
X55182187Y-41014616D01*
X55182415Y-41024896D01*
X55182747Y-41035082D01*
X55183182Y-41045172D01*
X55183721Y-41055168D01*
X55184364Y-41065069D01*
X55185109Y-41074874D01*
X55186912Y-41094201D01*
X55189128Y-41113148D01*
X55191758Y-41131715D01*
X55194803Y-41149903D01*
X55198261Y-41167710D01*
X55202134Y-41185139D01*
X55206421Y-41202187D01*
X55211121Y-41218855D01*
X55216236Y-41235144D01*
X55221765Y-41251054D01*
X55227708Y-41266583D01*
X55234065Y-41281733D01*
X55240802Y-41296474D01*
X55247884Y-41310779D01*
X55255311Y-41324646D01*
X55263084Y-41338077D01*
X55271202Y-41351070D01*
X55279666Y-41363627D01*
X55288475Y-41375746D01*
X55297629Y-41387429D01*
X55307129Y-41398675D01*
X55316974Y-41409483D01*
X55327164Y-41419855D01*
X55337700Y-41429790D01*
X55348581Y-41439288D01*
X55359808Y-41448348D01*
X55371380Y-41456972D01*
X55383297Y-41465159D01*
X55395562Y-41472849D01*
X55408115Y-41480043D01*
X55420955Y-41486740D01*
X55434084Y-41492942D01*
X55447502Y-41498647D01*
X55461207Y-41503856D01*
X55475200Y-41508569D01*
X55489482Y-41512786D01*
X55504051Y-41516507D01*
X55518909Y-41519732D01*
X55534055Y-41522461D01*
X55549489Y-41524693D01*
X55565211Y-41526430D01*
X55581222Y-41527670D01*
X55597520Y-41528414D01*
X55614107Y-41528662D01*
X55630780Y-41528416D01*
X55647156Y-41527678D01*
X55663234Y-41526447D01*
X55679014Y-41524724D01*
X55694497Y-41522508D01*
X55709682Y-41519801D01*
X55724569Y-41516601D01*
X55739159Y-41512909D01*
X55753451Y-41508724D01*
X55767445Y-41504047D01*
X55781142Y-41498878D01*
X55794541Y-41493217D01*
X55807642Y-41487063D01*
X55820446Y-41480417D01*
X55832952Y-41473278D01*
X55845160Y-41465648D01*
X55857078Y-41457519D01*
X55868650Y-41448948D01*
X55879876Y-41439933D01*
X55890758Y-41430477D01*
X55901293Y-41420577D01*
X55911484Y-41410235D01*
X55921329Y-41399450D01*
X55930829Y-41388223D01*
X55939983Y-41376552D01*
X55948792Y-41364439D01*
X55957256Y-41351884D01*
X55965374Y-41338886D01*
X55973147Y-41325445D01*
X55980574Y-41311561D01*
X55987656Y-41297235D01*
X55994393Y-41282465D01*
X55997624Y-41274923D01*
X56003777Y-41259551D01*
X56009521Y-41243797D01*
X56014854Y-41227662D01*
X56019777Y-41211145D01*
X56024290Y-41194246D01*
X56028392Y-41176966D01*
X56032085Y-41159304D01*
X56035367Y-41141261D01*
X56038238Y-41122836D01*
X56040700Y-41104029D01*
X56042751Y-41084841D01*
X56043623Y-41075103D01*
X56044392Y-41065271D01*
X56045059Y-41055343D01*
X56045623Y-41045319D01*
X56046085Y-41035200D01*
X56046443Y-41024986D01*
X56046700Y-41014676D01*
X56046854Y-41004271D01*
X56046905Y-40993770D01*
X56046884Y-40983317D01*
X56046759Y-40972962D01*
X56046531Y-40962705D01*
X56046199Y-40952547D01*
X56045764Y-40942487D01*
X56045225Y-40932525D01*
X56044583Y-40922661D01*
X56043837Y-40912896D01*
X56042034Y-40893659D01*
X56039818Y-40874817D01*
X56037188Y-40856367D01*
X56034143Y-40838310D01*
X56030685Y-40820646D01*
X56026812Y-40803376D01*
X56022526Y-40786498D01*
X56017825Y-40770013D01*
X56012710Y-40753922D01*
X56007181Y-40738224D01*
X56001238Y-40722918D01*
X55994881Y-40708006D01*
X55988143Y-40693481D01*
X55981055Y-40679396D01*
X55973618Y-40665751D01*
X55965832Y-40652548D01*
X55957696Y-40639785D01*
X55949212Y-40627463D01*
X55940378Y-40615582D01*
X55931195Y-40604142D01*
X55921663Y-40593143D01*
X55911781Y-40582584D01*
X55901551Y-40572466D01*
X55890971Y-40562789D01*
X55880042Y-40553552D01*
X55868764Y-40544757D01*
X55857137Y-40536402D01*
X55845160Y-40528488D01*
X55832895Y-40521005D01*
X55820339Y-40514005D01*
X55807494Y-40507488D01*
X55794358Y-40501453D01*
X55780932Y-40495901D01*
X55767216Y-40490832D01*
X55753211Y-40486246D01*
X55738915Y-40482143D01*
X55724329Y-40478522D01*
X55709453Y-40475384D01*
X55694287Y-40472729D01*
X55678831Y-40470556D01*
X55663085Y-40468867D01*
X55647049Y-40467660D01*
X55630723Y-40466936D01*
X55614107Y-40466694D01*
X55597521Y-40466936D01*
X55581226Y-40467660D01*
X55565220Y-40468867D01*
X55549504Y-40470556D01*
X55534079Y-40472729D01*
X55518944Y-40475384D01*
X55504098Y-40478522D01*
X55489543Y-40482143D01*
X55475278Y-40486246D01*
X55461302Y-40490832D01*
X55447617Y-40495901D01*
X55434222Y-40501453D01*
X55421117Y-40507488D01*
X55408302Y-40514005D01*
X55395776Y-40521005D01*
X55383541Y-40528488D01*
X55371655Y-40536401D01*
X55360113Y-40544753D01*
X55348917Y-40553544D01*
X55338066Y-40562773D01*
X55327561Y-40572442D01*
X55317401Y-40582549D01*
X55307587Y-40593096D01*
X55298118Y-40604081D01*
X55288994Y-40615505D01*
X55280215Y-40627368D01*
X55271782Y-40639670D01*
X55263695Y-40652411D01*
X55255952Y-40665590D01*
X55248555Y-40679209D01*
X55241504Y-40693266D01*
X55234798Y-40707762D01*
X55228466Y-40722647D01*
X55222540Y-40737930D01*
X55217017Y-40753612D01*
X55211900Y-40769693D01*
X55207187Y-40786173D01*
X55202878Y-40803051D01*
X55198974Y-40820328D01*
X55195474Y-40838005D01*
X55192379Y-40856079D01*
X55189689Y-40874553D01*
X55187403Y-40893426D01*
X55185522Y-40912697D01*
X55184733Y-40922482D01*
X55184045Y-40932367D01*
X55183458Y-40942352D01*
X55182972Y-40952436D01*
X55182588Y-40962620D01*
X55182304Y-40972904D01*
X55182122Y-40983287D01*
X55182041Y-40993770D01*
X54943660Y-40993770D01*
X54943660Y-40480616D01*
X54803709Y-40480616D01*
X54632495Y-40480616D01*
X54213374Y-41141049D01*
X54213374Y-41334001D01*
X54067019Y-41334001D01*
X54067680Y-41332789D01*
X54072068Y-41323842D01*
X54076038Y-41314761D01*
X54079590Y-41305546D01*
X54082724Y-41296198D01*
X54085440Y-41286717D01*
X54087739Y-41277102D01*
X54089619Y-41267353D01*
X54091082Y-41257471D01*
X54092126Y-41247455D01*
X54092753Y-41237305D01*
X54092962Y-41227022D01*
X54092842Y-41219125D01*
X54092211Y-41207434D01*
X54091039Y-41195927D01*
X54089326Y-41184605D01*
X54087072Y-41173467D01*
X54084277Y-41162514D01*
X54080941Y-41151746D01*
X54077064Y-41141162D01*
X54072646Y-41130763D01*
X54067687Y-41120548D01*
X54062188Y-41110519D01*
X54058257Y-41103963D01*
X54052046Y-41094391D01*
X54045457Y-41085133D01*
X54038490Y-41076187D01*
X54031146Y-41067556D01*
X54023424Y-41059237D01*
X54015324Y-41051232D01*
X54006846Y-41043541D01*
X53997990Y-41036163D01*
X53988756Y-41029098D01*
X53979145Y-41022347D01*
X53972595Y-41018049D01*
X53962595Y-41011970D01*
X53952385Y-41006334D01*
X53941965Y-41001139D01*
X53931334Y-40996387D01*
X53920492Y-40992078D01*
X53909440Y-40988210D01*
X53898178Y-40984785D01*
X53886706Y-40981802D01*
X53875023Y-40979261D01*
X53863130Y-40977162D01*
X53863130Y-40969102D01*
X53873456Y-40966994D01*
X53883551Y-40964519D01*
X53893415Y-40961674D01*
X53903048Y-40958462D01*
X53912451Y-40954881D01*
X53921622Y-40950933D01*
X53930563Y-40946615D01*
X53939272Y-40941930D01*
X53947751Y-40936876D01*
X53955999Y-40931454D01*
X53964016Y-40925664D01*
X53971803Y-40919505D01*
X53979358Y-40912979D01*
X53986682Y-40906083D01*
X53993776Y-40898820D01*
X54000638Y-40891188D01*
X54007204Y-40883255D01*
X54013347Y-40875149D01*
X54019065Y-40866868D01*
X54024361Y-40858414D01*
X54029232Y-40849786D01*
X54033680Y-40840985D01*
X54037704Y-40832010D01*
X54041305Y-40822862D01*
X54044482Y-40813539D01*
X54047235Y-40804043D01*
X54049565Y-40794374D01*
X54051471Y-40784531D01*
X54052954Y-40774514D01*
X54054013Y-40764323D01*
X54054649Y-40753959D01*
X54054860Y-40743422D01*
X54054813Y-40738447D01*
X54054433Y-40728599D01*
X54053152Y-40714081D01*
X54051016Y-40699868D01*
X54048025Y-40685960D01*
X54044181Y-40672356D01*
X54039482Y-40659058D01*
X54033928Y-40646064D01*
X54027520Y-40633375D01*
X54020258Y-40620991D01*
X54012142Y-40608911D01*
X54006256Y-40601028D01*
X54000039Y-40593316D01*
X53993540Y-40585812D01*
X53986759Y-40578517D01*
X53979695Y-40571429D01*
X53972348Y-40564549D01*
X53964719Y-40557877D01*
X53956808Y-40551413D01*
X53948615Y-40545157D01*
X53940139Y-40539110D01*
X53931380Y-40533270D01*
X53922340Y-40527638D01*
X53913016Y-40522214D01*
X53903411Y-40516998D01*
X53893523Y-40511990D01*
X53883352Y-40507190D01*
X53872899Y-40502598D01*
X53862213Y-40498250D01*
X53851341Y-40494183D01*
X53840284Y-40490396D01*
X53829043Y-40486890D01*
X53817616Y-40483664D01*
X53806004Y-40480719D01*
X53794207Y-40478055D01*
X53782224Y-40475670D01*
X53770057Y-40473567D01*
X53757705Y-40471743D01*
X53745167Y-40470201D01*
X53732445Y-40468938D01*
X53719537Y-40467957D01*
X53706444Y-40467255D01*
X53693166Y-40466835D01*
X53679703Y-40466694D01*
X53666240Y-40466835D01*
X53652963Y-40467255D01*
X53639870Y-40467957D01*
X53626962Y-40468938D01*
X53614240Y-40470201D01*
X53601702Y-40471743D01*
X53589350Y-40473567D01*
X53577182Y-40475670D01*
X53565200Y-40478055D01*
X53553403Y-40480719D01*
X53541791Y-40483664D01*
X53530364Y-40486890D01*
X53519122Y-40490396D01*
X53508066Y-40494183D01*
X53497194Y-40498250D01*
X53486507Y-40502598D01*
X53476083Y-40507190D01*
X53465937Y-40511990D01*
X53456070Y-40516998D01*
X53446482Y-40522214D01*
X53437172Y-40527638D01*
X53428141Y-40533270D01*
X53419388Y-40539110D01*
X53410914Y-40545157D01*
X53402719Y-40551413D01*
X53394802Y-40557877D01*
X53387163Y-40564549D01*
X53379804Y-40571429D01*
X53372723Y-40578517D01*
X53365920Y-40585812D01*
X53359396Y-40593316D01*
X53353151Y-40601028D01*
X53350160Y-40604953D01*
X53341759Y-40616930D01*
X53334212Y-40629213D01*
X53327519Y-40641800D01*
X53321681Y-40654692D01*
X53316697Y-40667889D01*
X53312568Y-40681391D01*
X53309293Y-40695198D01*
X53306872Y-40709309D01*
X53305306Y-40723726D01*
X53304736Y-40733506D01*
X53304546Y-40743422D01*
X53304756Y-40753871D01*
X53305386Y-40764155D01*
X53306022Y-40770288D01*
X53306435Y-40774273D01*
X53307905Y-40784225D01*
X53309794Y-40794011D01*
X53312103Y-40803631D01*
X53314831Y-40813085D01*
X53317980Y-40822373D01*
X53321548Y-40831495D01*
X53325536Y-40840451D01*
X53329944Y-40849241D01*
X53334771Y-40857865D01*
X53340019Y-40866322D01*
X53345686Y-40874614D01*
X53351773Y-40882740D01*
X53358280Y-40890700D01*
X53365117Y-40898391D01*
X53372194Y-40905709D01*
X53379512Y-40912656D01*
X53387070Y-40919231D01*
X53394868Y-40925433D01*
X53402908Y-40931263D01*
X53411187Y-40936722D01*
X53419707Y-40941808D01*
X53428467Y-40946522D01*
X53437468Y-40950864D01*
X53446709Y-40954834D01*
X53456191Y-40958432D01*
X53465913Y-40961657D01*
X53475875Y-40964511D01*
X53486078Y-40966992D01*
X53496521Y-40969102D01*
X53496521Y-40977162D01*
X53488509Y-40978512D01*
X53476669Y-40980905D01*
X53465044Y-40983741D01*
X53453634Y-40987019D01*
X53442439Y-40990739D01*
X53431458Y-40994902D01*
X53420691Y-40999506D01*
X53410140Y-41004553D01*
X53399803Y-41010042D01*
X53389681Y-41015973D01*
X53379773Y-41022347D01*
X53373325Y-41026813D01*
X53363970Y-41033773D01*
X53354998Y-41041047D01*
X53346408Y-41048634D01*
X53338199Y-41056534D01*
X53330373Y-41064748D01*
X53322929Y-41073275D01*
X53315868Y-41082116D01*
X53309188Y-41091270D01*
X53302890Y-41100738D01*
X53296975Y-41110519D01*
X53293307Y-41117185D01*
X53288250Y-41127338D01*
X53283725Y-41137675D01*
X53279732Y-41148198D01*
X53276271Y-41158904D01*
X53273343Y-41169796D01*
X53270948Y-41180872D01*
X53269084Y-41192133D01*
X53267753Y-41203578D01*
X53267519Y-41206994D01*
X53266955Y-41215208D01*
X53266689Y-41227022D01*
X52806654Y-41227022D01*
X52852209Y-41185013D01*
X52865932Y-41173000D01*
X52879258Y-41161203D01*
X52892188Y-41149621D01*
X52904721Y-41138255D01*
X52916857Y-41127105D01*
X52928596Y-41116170D01*
X52939938Y-41105451D01*
X52950883Y-41094948D01*
X52961431Y-41084660D01*
X52971582Y-41074588D01*
X52981337Y-41064732D01*
X52990694Y-41055091D01*
X52999655Y-41045665D01*
X53008219Y-41036456D01*
X53016386Y-41027462D01*
X53024156Y-41018683D01*
X53031612Y-41010059D01*
X53038776Y-41001529D01*
X53045648Y-40993092D01*
X53052228Y-40984749D01*
X53058517Y-40976499D01*
X53064513Y-40968342D01*
X53070217Y-40960280D01*
X53078226Y-40948361D01*
X53085579Y-40936652D01*
X53092274Y-40925154D01*
X53098313Y-40913866D01*
X53103695Y-40902788D01*
X53108419Y-40891921D01*
X53111288Y-40884713D01*
X53115245Y-40873890D01*
X53118784Y-40863055D01*
X53121908Y-40852206D01*
X53124615Y-40841345D01*
X53126905Y-40830470D01*
X53128779Y-40819583D01*
X53130237Y-40808683D01*
X53131278Y-40797770D01*
X53131903Y-40786845D01*
X53132111Y-40775906D01*
X53131926Y-40764484D01*
X53131371Y-40753237D01*
X53130445Y-40742166D01*
X53129149Y-40731270D01*
X53127484Y-40720550D01*
X53125448Y-40710006D01*
X53123041Y-40699637D01*
X53120265Y-40689444D01*
X53117119Y-40679426D01*
X53113602Y-40669584D01*
X53109715Y-40659917D01*
X53105458Y-40650426D01*
X53100831Y-40641110D01*
X53095833Y-40631970D01*
X53090466Y-40623006D01*
X53084728Y-40614217D01*
X53078684Y-40605636D01*
X53072336Y-40597296D01*
X53065685Y-40589196D01*
X53058731Y-40581336D01*
X53051474Y-40573717D01*
X53043913Y-40566338D01*
X53036048Y-40559199D01*
X53027880Y-40552301D01*
X53019409Y-40545644D01*
X53010634Y-40539227D01*
X53001556Y-40533050D01*
X52992175Y-40527114D01*
X52982490Y-40521418D01*
X52972502Y-40515963D01*
X52962210Y-40510748D01*
X52951615Y-40505773D01*
X52940750Y-40501041D01*
X52929649Y-40496614D01*
X52918311Y-40492493D01*
X52906736Y-40488676D01*
X52894924Y-40485165D01*
X52882876Y-40481960D01*
X52870592Y-40479059D01*
X52858070Y-40476464D01*
X52845313Y-40474174D01*
X52832318Y-40472190D01*
X52819087Y-40470511D01*
X52805619Y-40469137D01*
X52791915Y-40468068D01*
X52777974Y-40467305D01*
X52763796Y-40466847D01*
X52749382Y-40466694D01*
X52735385Y-40466856D01*
X52721604Y-40467339D01*
X52708038Y-40468146D01*
X52694687Y-40469274D01*
X52681552Y-40470725D01*
X52668633Y-40472499D01*
X52655930Y-40474595D01*
X52643442Y-40477014D01*
X52631170Y-40479755D01*
X52619113Y-40482818D01*
X52607272Y-40486204D01*
X52595647Y-40489913D01*
X52584237Y-40493944D01*
X52573043Y-40498297D01*
X52562064Y-40502973D01*
X52551301Y-40507971D01*
X52540796Y-40513237D01*
X52530590Y-40518775D01*
X52520684Y-40524587D01*
X52511078Y-40530671D01*
X52501771Y-40537028D01*
X52492763Y-40543658D01*
X52484055Y-40550560D01*
X52475647Y-40557736D01*
X52467539Y-40565184D01*
X52459729Y-40572906D01*
X52452220Y-40580900D01*
X52445010Y-40589167D01*
X52438100Y-40597707D01*
X52431489Y-40606520D01*
X52425178Y-40615605D01*
X52419166Y-40624964D01*
X52413487Y-40634569D01*
X52408175Y-40644396D01*
X52403229Y-40654445D01*
X52398650Y-40664714D01*
X52394436Y-40675205D01*
X52390590Y-40685918D01*
X52387109Y-40696851D01*
X52383995Y-40708006D01*
X52381247Y-40719383D01*
X52378866Y-40730980D01*
X52376851Y-40742799D01*
X52375202Y-40754840D01*
X52373920Y-40767102D01*
X52373004Y-40779585D01*
X52372455Y-40792289D01*
X52372271Y-40805215D01*
X51730928Y-40805215D01*
X51743102Y-40679918D01*
X52196172Y-40679918D01*
X52196172Y-40480616D01*
X51539648Y-40480616D01*
X51495195Y-41032117D01*
X51713548Y-41073149D01*
X51718975Y-41064765D01*
X51724997Y-41056831D01*
X51731615Y-41049347D01*
X51738828Y-41042314D01*
X51746636Y-41035731D01*
X51755039Y-41029598D01*
X51764038Y-41023915D01*
X51773632Y-41018683D01*
X51783658Y-41013997D01*
X51793828Y-41009952D01*
X51804143Y-41006547D01*
X51814604Y-41003784D01*
X51825209Y-41001663D01*
X51835960Y-41000182D01*
X51846855Y-40999342D01*
X51857896Y-40999144D01*
X51869509Y-40999468D01*
X51880778Y-41000441D01*
X51891705Y-41002063D01*
X51902287Y-41004334D01*
X51912526Y-41007253D01*
X51922422Y-41010822D01*
X51931974Y-41015039D01*
X51941183Y-41019904D01*
X51949979Y-41025350D01*
X51958295Y-41031308D01*
X51966130Y-41037776D01*
X51973484Y-41044756D01*
X51980357Y-41052248D01*
X51986749Y-41060250D01*
X51992661Y-41068764D01*
X51998091Y-41077790D01*
X52002949Y-41087205D01*
X52007144Y-41097009D01*
X52010674Y-41107202D01*
X52013540Y-41117785D01*
X52015742Y-41128757D01*
X52017280Y-41140118D01*
X52018154Y-41151868D01*
X52018364Y-41164008D01*
X52018157Y-41175926D01*
X52017295Y-41187501D01*
X52015776Y-41198732D01*
X52013601Y-41209620D01*
X52010769Y-41220164D01*
X52007281Y-41230365D01*
X52003136Y-41240223D01*
X51998336Y-41249737D01*
X51992966Y-41258759D01*
X51987116Y-41267261D01*
X51980784Y-41275245D01*
X51973972Y-41282710D01*
X51966679Y-41289655D01*
X51958906Y-41296082D01*
X51950651Y-41301990D01*
X51941915Y-41307378D01*
X51932775Y-41312187D01*
X51923307Y-41316354D01*
X51913511Y-41319880D01*
X51903386Y-41322766D01*
X51892933Y-41325010D01*
X51882152Y-41326612D01*
X51871043Y-41327574D01*
X51859606Y-41327895D01*
X51852221Y-41327761D01*
X51841388Y-41327060D01*
X51830846Y-41325758D01*
X51820596Y-41323854D01*
X51810639Y-41321350D01*
X51800973Y-41318244D01*
X51791599Y-41314538D01*
X51782517Y-41310230D01*
X51773728Y-41305321D01*
X51765230Y-41299811D01*
X51757024Y-41293701D01*
X51754376Y-41291542D01*
X51746903Y-41284805D01*
X51740134Y-41277677D01*
X51732203Y-41267566D01*
X51725525Y-41256760D01*
X51720098Y-41245260D01*
X51715923Y-41233065D01*
X51713613Y-41223463D01*
X51712008Y-41213470D01*
X51711106Y-41203087D01*
X51471260Y-41203087D01*
X50899487Y-41203087D01*
X50899487Y-41092689D01*
X51306151Y-41092689D01*
X51306151Y-40891188D01*
X50899487Y-40891188D01*
X50899487Y-40681384D01*
X51350604Y-40681384D01*
X51350604Y-40480616D01*
X50652069Y-40480616D01*
X50148685Y-40480616D01*
X49725900Y-40480616D01*
X48035859Y-40480616D01*
X48026109Y-40478382D01*
X48010285Y-40475281D01*
X47994251Y-40472657D01*
X47978007Y-40470511D01*
X47961553Y-40468841D01*
X47944889Y-40467648D01*
X47928015Y-40466933D01*
X47910932Y-40466694D01*
X47893819Y-40466933D01*
X47876921Y-40467648D01*
X47860236Y-40468841D01*
X47843765Y-40470511D01*
X47827507Y-40472657D01*
X47811464Y-40475281D01*
X47795634Y-40478382D01*
X47780017Y-40481960D01*
X47764615Y-40486014D01*
X47749426Y-40490546D01*
X47734451Y-40495555D01*
X47719689Y-40501041D01*
X47705142Y-40507004D01*
X47690808Y-40513444D01*
X47676687Y-40520361D01*
X47662781Y-40527755D01*
X47649160Y-40535578D01*
X47635895Y-40543845D01*
X47622987Y-40552553D01*
X47610437Y-40561705D01*
X47598243Y-40571299D01*
X47586405Y-40581336D01*
X47574925Y-40591815D01*
X47563801Y-40602738D01*
X47553035Y-40614103D01*
X47542625Y-40625910D01*
X47532572Y-40638160D01*
X47522875Y-40650853D01*
X47513536Y-40663989D01*
X47504553Y-40677568D01*
X47495928Y-40691589D01*
X47487659Y-40706052D01*
X47479821Y-40720908D01*
X47472489Y-40736167D01*
X47465663Y-40751828D01*
X47459342Y-40767892D01*
X47453527Y-40784358D01*
X47448217Y-40801227D01*
X47443414Y-40818499D01*
X47439115Y-40836173D01*
X47435323Y-40854250D01*
X47432036Y-40872729D01*
X47429255Y-40891611D01*
X47426980Y-40910896D01*
X47426032Y-40920689D01*
X47425210Y-40930583D01*
X47424515Y-40940578D01*
X47423946Y-40950673D01*
X47423503Y-40960869D01*
X47423187Y-40971166D01*
X47422998Y-40981563D01*
X47422934Y-40992061D01*
X47203807Y-40992061D01*
X47031169Y-40480616D01*
X46701929Y-40480616D01*
X46356814Y-41503750D01*
X46249103Y-41503750D01*
X46249103Y-40480616D01*
X46001685Y-40480616D01*
X45878831Y-40480616D01*
X45602104Y-40480616D01*
X45413304Y-40803750D01*
X45405244Y-40803750D01*
X45218398Y-40480616D01*
X44939473Y-40480616D01*
X45248929Y-40992061D01*
X44931657Y-41503750D01*
X44413800Y-41503750D01*
X44413800Y-39948837D01*
X56564762Y-39948837D01*
X56564762Y-42046519D01*
G37*
D11*
G36*
X70074532Y-104302434D02*
G01*
X70084670Y-104302666D01*
X70097706Y-104303411D01*
X70110193Y-104304651D01*
X70122131Y-104306387D01*
X70133518Y-104308620D01*
X70144357Y-104311349D01*
X70154645Y-104314573D01*
X70164385Y-104318294D01*
X70171363Y-104321362D01*
X70180154Y-104325881D01*
X70190316Y-104332216D01*
X70199560Y-104339314D01*
X70207886Y-104347176D01*
X70215293Y-104355801D01*
X70221782Y-104365189D01*
X70224148Y-104369160D01*
X70229395Y-104379638D01*
X70233688Y-104390903D01*
X70236436Y-104400482D01*
X70238573Y-104410565D01*
X70240100Y-104421151D01*
X70241016Y-104432241D01*
X70241321Y-104443835D01*
X70241302Y-104446780D01*
X70240844Y-104458225D01*
X70239775Y-104469136D01*
X70238096Y-104479512D01*
X70235806Y-104489354D01*
X70232086Y-104500906D01*
X70227411Y-104511622D01*
X70221782Y-104521504D01*
X70218001Y-104527045D01*
X70210974Y-104535670D01*
X70203041Y-104543532D01*
X70194201Y-104550630D01*
X70184455Y-104556965D01*
X70173803Y-104562537D01*
X70164629Y-104566445D01*
X70159856Y-104568219D01*
X70149880Y-104571425D01*
X70139332Y-104574173D01*
X70128211Y-104576463D01*
X70116518Y-104578294D01*
X70104252Y-104579668D01*
X70091414Y-104580584D01*
X70081410Y-104580971D01*
X70071084Y-104581099D01*
X69949207Y-104581099D01*
X69949207Y-104302418D01*
X70071084Y-104302418D01*
X70074532Y-104302434D01*
G37*
G36*
X66573344Y-104723493D02*
G01*
X66337757Y-104723493D01*
X66451405Y-104360792D01*
X66459465Y-104360792D01*
X66573344Y-104723493D01*
G37*
G36*
X65471755Y-104683255D02*
G01*
X65483181Y-104683751D01*
X65494187Y-104684743D01*
X65504774Y-104686232D01*
X65514940Y-104688216D01*
X65524687Y-104690697D01*
X65536280Y-104694495D01*
X65547218Y-104699069D01*
X65551401Y-104701074D01*
X65561334Y-104706539D01*
X65570516Y-104712647D01*
X65578947Y-104719400D01*
X65586626Y-104726796D01*
X65593554Y-104734837D01*
X65599730Y-104743521D01*
X65601978Y-104747135D01*
X65606963Y-104756537D01*
X65611041Y-104766465D01*
X65614214Y-104776916D01*
X65616480Y-104787893D01*
X65617839Y-104799394D01*
X65618292Y-104811420D01*
X65618255Y-104814801D01*
X65617693Y-104824663D01*
X65615896Y-104837158D01*
X65612900Y-104848904D01*
X65608706Y-104859903D01*
X65603313Y-104870153D01*
X65596723Y-104879656D01*
X65588934Y-104888410D01*
X65579946Y-104896417D01*
X65575018Y-104900114D01*
X65564164Y-104906793D01*
X65555152Y-104911175D01*
X65545394Y-104915021D01*
X65534888Y-104918331D01*
X65523635Y-104921104D01*
X65511635Y-104923340D01*
X65498888Y-104925039D01*
X65485394Y-104926202D01*
X65471153Y-104926828D01*
X65461244Y-104926947D01*
X65308592Y-104926947D01*
X65308592Y-104683193D01*
X65465885Y-104683193D01*
X65471755Y-104683255D01*
G37*
G36*
X65453129Y-104299516D02*
G01*
X65464385Y-104299949D01*
X65475191Y-104300902D01*
X65485545Y-104302374D01*
X65495449Y-104304365D01*
X65504903Y-104306876D01*
X65516806Y-104311032D01*
X65527907Y-104316111D01*
X65538207Y-104322114D01*
X65547706Y-104329041D01*
X65556293Y-104336715D01*
X65563735Y-104345085D01*
X65570032Y-104354148D01*
X65575184Y-104363907D01*
X65579191Y-104374359D01*
X65582053Y-104385507D01*
X65583770Y-104397349D01*
X65584343Y-104409885D01*
X65583907Y-104420855D01*
X65582601Y-104431323D01*
X65580425Y-104441291D01*
X65577378Y-104450758D01*
X65572572Y-104461457D01*
X65566513Y-104471434D01*
X65560607Y-104479080D01*
X65552639Y-104487484D01*
X65543709Y-104495046D01*
X65535532Y-104500704D01*
X65526688Y-104505779D01*
X65517176Y-104510269D01*
X65511232Y-104512670D01*
X65500964Y-104516146D01*
X65490243Y-104518967D01*
X65479068Y-104521131D01*
X65467440Y-104522640D01*
X65455360Y-104523492D01*
X65445368Y-104523702D01*
X65308592Y-104523702D01*
X65308592Y-104299487D01*
X65449276Y-104299487D01*
X65453129Y-104299516D01*
G37*
G36*
X71894140Y-105494107D02*
G01*
X64693317Y-105494107D01*
X64693317Y-104103116D01*
X65061174Y-104103116D01*
X65061174Y-104299487D01*
X65061174Y-104683193D01*
X65061174Y-105126250D01*
X65520351Y-105126250D01*
X65945822Y-105126250D01*
X66211558Y-105126250D01*
X66278905Y-104911316D01*
X66632316Y-104911316D01*
X66699800Y-105126250D01*
X66965536Y-105126250D01*
X66620177Y-104103116D01*
X66909360Y-104103116D01*
X66909360Y-104303884D01*
X67220037Y-104303884D01*
X67220037Y-105126250D01*
X67463791Y-105126250D01*
X67463791Y-104303884D01*
X67774224Y-104303884D01*
X67774224Y-104103116D01*
X67857022Y-104103116D01*
X67857022Y-104303884D01*
X68167699Y-104303884D01*
X68167699Y-105126250D01*
X68411454Y-105126250D01*
X68411454Y-104303884D01*
X68721886Y-104303884D01*
X68721886Y-104103116D01*
X68838146Y-104103116D01*
X68838146Y-105126250D01*
X69551579Y-105126250D01*
X69551579Y-104925482D01*
X69085564Y-104925482D01*
X69085564Y-104715189D01*
X69515187Y-104715189D01*
X69515187Y-104513688D01*
X69085564Y-104513688D01*
X69085564Y-104303884D01*
X69551579Y-104303884D01*
X69551579Y-104103116D01*
X69701789Y-104103116D01*
X69701789Y-105126250D01*
X69949207Y-105126250D01*
X69949207Y-104776005D01*
X70075713Y-104776005D01*
X70262814Y-105126250D01*
X70532703Y-105126250D01*
X70320416Y-104736854D01*
X70329767Y-104732423D01*
X70339995Y-104727157D01*
X70349918Y-104721615D01*
X70359535Y-104715799D01*
X70368846Y-104709709D01*
X70377853Y-104703343D01*
X70386554Y-104696703D01*
X70394950Y-104689788D01*
X70403040Y-104682598D01*
X70410826Y-104675133D01*
X70418306Y-104667394D01*
X70425480Y-104659379D01*
X70432349Y-104651090D01*
X70438913Y-104642527D01*
X70445172Y-104633688D01*
X70451126Y-104624575D01*
X70456745Y-104615168D01*
X70462002Y-104605508D01*
X70466896Y-104595598D01*
X70471428Y-104585435D01*
X70475598Y-104575020D01*
X70479404Y-104564354D01*
X70482849Y-104553435D01*
X70485930Y-104542265D01*
X70488649Y-104530843D01*
X70491006Y-104519169D01*
X70493000Y-104507243D01*
X70494631Y-104495065D01*
X70495900Y-104482635D01*
X70496807Y-104469954D01*
X70497351Y-104457020D01*
X70497532Y-104443835D01*
X70497354Y-104430818D01*
X70496822Y-104418022D01*
X70495935Y-104405447D01*
X70494692Y-104393094D01*
X70493095Y-104380962D01*
X70491143Y-104369051D01*
X70488836Y-104357362D01*
X70486174Y-104345894D01*
X70483158Y-104334647D01*
X70479786Y-104323622D01*
X70476059Y-104312818D01*
X70471978Y-104302235D01*
X70467541Y-104291874D01*
X70462750Y-104281734D01*
X70457604Y-104271816D01*
X70452103Y-104262118D01*
X70446274Y-104252671D01*
X70440146Y-104243502D01*
X70433719Y-104234612D01*
X70426991Y-104226001D01*
X70419965Y-104217668D01*
X70412638Y-104209614D01*
X70405012Y-104201838D01*
X70397087Y-104194341D01*
X70388862Y-104187122D01*
X70380337Y-104180182D01*
X70371513Y-104173521D01*
X70362389Y-104167138D01*
X70352966Y-104161034D01*
X70343243Y-104155209D01*
X70333220Y-104149662D01*
X70322898Y-104144393D01*
X70312335Y-104139395D01*
X70301527Y-104134719D01*
X70290475Y-104130366D01*
X70279179Y-104126335D01*
X70267638Y-104122626D01*
X70255853Y-104119240D01*
X70243825Y-104116177D01*
X70231551Y-104113435D01*
X70219034Y-104111017D01*
X70206272Y-104108921D01*
X70193266Y-104107147D01*
X70180016Y-104105696D01*
X70166522Y-104104567D01*
X70152783Y-104103761D01*
X70138800Y-104103277D01*
X70124573Y-104103116D01*
X70531970Y-104103116D01*
X70906150Y-104784554D01*
X70906150Y-105126250D01*
X71152103Y-105126250D01*
X71152103Y-104784554D01*
X71526283Y-104103116D01*
X71250044Y-104103116D01*
X71033645Y-104531274D01*
X71024608Y-104531274D01*
X70808453Y-104103116D01*
X70531970Y-104103116D01*
X70124573Y-104103116D01*
X69701789Y-104103116D01*
X69551579Y-104103116D01*
X68838146Y-104103116D01*
X68721886Y-104103116D01*
X67857022Y-104103116D01*
X67774224Y-104103116D01*
X66909360Y-104103116D01*
X66620177Y-104103116D01*
X66290937Y-104103116D01*
X65945822Y-105126250D01*
X65520351Y-105126250D01*
X65534385Y-105126104D01*
X65548153Y-105125669D01*
X65561656Y-105124944D01*
X65574894Y-105123929D01*
X65587866Y-105122624D01*
X65600573Y-105121029D01*
X65613015Y-105119144D01*
X65625192Y-105116968D01*
X65637104Y-105114503D01*
X65648750Y-105111748D01*
X65660131Y-105108702D01*
X65671247Y-105105367D01*
X65682098Y-105101741D01*
X65692683Y-105097826D01*
X65703004Y-105093620D01*
X65713059Y-105089125D01*
X65722864Y-105084347D01*
X65732373Y-105079355D01*
X65741586Y-105074149D01*
X65750504Y-105068730D01*
X65759126Y-105063097D01*
X65767452Y-105057251D01*
X65775483Y-105051191D01*
X65783217Y-105044917D01*
X65790656Y-105038429D01*
X65797799Y-105031728D01*
X65807960Y-105021275D01*
X65817454Y-105010341D01*
X65826284Y-104998926D01*
X65834447Y-104987031D01*
X65837032Y-104982969D01*
X65844293Y-104970575D01*
X65850816Y-104957873D01*
X65856601Y-104944861D01*
X65861647Y-104931540D01*
X65865955Y-104917910D01*
X65869524Y-104903971D01*
X65872355Y-104889723D01*
X65873831Y-104880053D01*
X65874980Y-104870245D01*
X65875801Y-104860300D01*
X65876293Y-104850217D01*
X65876457Y-104839997D01*
X65876332Y-104830823D01*
X65875676Y-104817353D01*
X65874457Y-104804231D01*
X65872676Y-104791456D01*
X65870333Y-104779029D01*
X65867427Y-104766949D01*
X65863959Y-104755218D01*
X65859928Y-104743834D01*
X65855335Y-104732798D01*
X65850179Y-104722110D01*
X65844461Y-104711769D01*
X65840381Y-104705085D01*
X65833956Y-104695409D01*
X65827166Y-104686154D01*
X65820011Y-104677320D01*
X65812491Y-104668907D01*
X65804607Y-104660914D01*
X65796357Y-104653342D01*
X65787742Y-104646191D01*
X65778763Y-104639460D01*
X65769418Y-104633150D01*
X65759709Y-104627261D01*
X65753108Y-104623553D01*
X65743066Y-104618394D01*
X65732858Y-104613721D01*
X65722481Y-104609533D01*
X65711938Y-104605830D01*
X65701226Y-104602612D01*
X65690348Y-104599879D01*
X65679302Y-104597632D01*
X65668088Y-104595869D01*
X65656707Y-104594592D01*
X65645159Y-104593800D01*
X65645159Y-104583786D01*
X65652159Y-104582220D01*
X65662462Y-104579605D01*
X65672530Y-104576673D01*
X65682361Y-104573423D01*
X65691955Y-104569855D01*
X65701314Y-104565969D01*
X65710437Y-104561766D01*
X65719323Y-104557245D01*
X65727974Y-104552407D01*
X65736388Y-104547250D01*
X65744566Y-104541776D01*
X65755023Y-104534022D01*
X65764899Y-104525778D01*
X65774196Y-104517047D01*
X65782912Y-104507827D01*
X65791048Y-104498118D01*
X65798605Y-104487921D01*
X65805581Y-104477235D01*
X65811977Y-104466061D01*
X65813495Y-104463194D01*
X65819084Y-104451472D01*
X65822769Y-104442415D01*
X65826022Y-104433131D01*
X65828840Y-104423619D01*
X65831225Y-104413880D01*
X65833177Y-104403913D01*
X65834694Y-104393718D01*
X65835778Y-104383296D01*
X65836429Y-104372647D01*
X65836646Y-104361769D01*
X65836492Y-104352225D01*
X65835685Y-104338180D01*
X65834188Y-104324461D01*
X65831999Y-104311069D01*
X65829119Y-104298003D01*
X65825547Y-104285263D01*
X65821285Y-104272850D01*
X65816331Y-104260763D01*
X65810686Y-104249002D01*
X65804350Y-104237567D01*
X65797322Y-104226459D01*
X65789612Y-104215741D01*
X65781228Y-104205479D01*
X65772170Y-104195671D01*
X65762438Y-104186319D01*
X65752031Y-104177422D01*
X65740951Y-104168980D01*
X65729197Y-104160993D01*
X65716768Y-104153461D01*
X65708108Y-104148692D01*
X65699148Y-104144126D01*
X65689889Y-104139762D01*
X65680330Y-104135601D01*
X65670476Y-104131667D01*
X65660333Y-104127987D01*
X65649899Y-104124561D01*
X65639175Y-104121389D01*
X65628161Y-104118470D01*
X65616857Y-104115805D01*
X65605264Y-104113394D01*
X65593380Y-104111237D01*
X65581206Y-104109334D01*
X65568742Y-104107684D01*
X65555988Y-104106289D01*
X65542943Y-104105146D01*
X65529609Y-104104258D01*
X65515985Y-104103624D01*
X65502071Y-104103243D01*
X65487867Y-104103116D01*
X65061174Y-104103116D01*
X64693317Y-104103116D01*
X64693317Y-103735259D01*
X71894140Y-103735259D01*
X71894140Y-105494107D01*
G37*
G36*
X93021469Y-96652868D02*
G01*
X92785882Y-96652868D01*
X92899530Y-96290167D01*
X92907590Y-96290167D01*
X93021469Y-96652868D01*
G37*
G36*
X91919880Y-96612630D02*
G01*
X91931306Y-96613126D01*
X91942312Y-96614118D01*
X91952899Y-96615607D01*
X91963065Y-96617591D01*
X91972812Y-96620072D01*
X91984405Y-96623870D01*
X91995343Y-96628444D01*
X91999526Y-96630449D01*
X92009459Y-96635914D01*
X92018641Y-96642022D01*
X92027072Y-96648775D01*
X92034751Y-96656171D01*
X92041679Y-96664212D01*
X92047855Y-96672896D01*
X92050103Y-96676510D01*
X92055088Y-96685912D01*
X92059166Y-96695840D01*
X92062339Y-96706291D01*
X92064605Y-96717268D01*
X92065964Y-96728769D01*
X92066417Y-96740795D01*
X92066380Y-96744176D01*
X92065818Y-96754038D01*
X92064021Y-96766533D01*
X92061025Y-96778279D01*
X92056831Y-96789278D01*
X92051438Y-96799528D01*
X92044848Y-96809031D01*
X92037059Y-96817785D01*
X92028071Y-96825792D01*
X92023143Y-96829489D01*
X92012289Y-96836168D01*
X92003277Y-96840550D01*
X91993519Y-96844396D01*
X91983013Y-96847706D01*
X91971760Y-96850479D01*
X91959760Y-96852715D01*
X91947013Y-96854414D01*
X91933519Y-96855577D01*
X91919278Y-96856203D01*
X91909369Y-96856322D01*
X91756717Y-96856322D01*
X91756717Y-96612568D01*
X91914010Y-96612568D01*
X91919880Y-96612630D01*
G37*
G36*
X91901254Y-96228891D02*
G01*
X91912510Y-96229324D01*
X91923316Y-96230277D01*
X91933670Y-96231749D01*
X91943574Y-96233740D01*
X91953028Y-96236251D01*
X91964931Y-96240407D01*
X91976032Y-96245486D01*
X91986332Y-96251489D01*
X91995831Y-96258416D01*
X92004418Y-96266090D01*
X92011860Y-96274460D01*
X92018157Y-96283523D01*
X92023309Y-96293282D01*
X92027316Y-96303734D01*
X92030178Y-96314882D01*
X92031895Y-96326724D01*
X92032468Y-96339260D01*
X92032032Y-96350230D01*
X92030726Y-96360698D01*
X92028550Y-96370666D01*
X92025503Y-96380133D01*
X92020697Y-96390832D01*
X92014638Y-96400809D01*
X92008732Y-96408455D01*
X92000764Y-96416859D01*
X91991834Y-96424421D01*
X91983657Y-96430079D01*
X91974813Y-96435154D01*
X91965301Y-96439644D01*
X91959357Y-96442045D01*
X91949089Y-96445521D01*
X91938368Y-96448342D01*
X91927193Y-96450506D01*
X91915565Y-96452015D01*
X91903485Y-96452867D01*
X91893493Y-96453077D01*
X91756717Y-96453077D01*
X91756717Y-96228862D01*
X91897401Y-96228862D01*
X91901254Y-96228891D01*
G37*
G36*
X95774295Y-97423482D02*
G01*
X91141442Y-97423482D01*
X91141442Y-96032491D01*
X91509299Y-96032491D01*
X91509299Y-96228862D01*
X91509299Y-96612568D01*
X91509299Y-97055625D01*
X91968476Y-97055625D01*
X92393947Y-97055625D01*
X92659683Y-97055625D01*
X92727030Y-96840691D01*
X93080441Y-96840691D01*
X93147925Y-97055625D01*
X93413661Y-97055625D01*
X93068302Y-96032491D01*
X93357485Y-96032491D01*
X93357485Y-96233259D01*
X93668162Y-96233259D01*
X93668162Y-97055625D01*
X93911916Y-97055625D01*
X93911916Y-96647006D01*
X94682991Y-96647006D01*
X94944331Y-96647006D01*
X94944331Y-96907858D01*
X95145587Y-96907858D01*
X95145587Y-96647006D01*
X95406438Y-96647006D01*
X95406438Y-96445017D01*
X95145587Y-96445017D01*
X95145587Y-96184410D01*
X94944331Y-96184410D01*
X94944331Y-96445017D01*
X94682991Y-96445017D01*
X94682991Y-96647006D01*
X93911916Y-96647006D01*
X93911916Y-96233259D01*
X94222349Y-96233259D01*
X94222349Y-96032491D01*
X93357485Y-96032491D01*
X93068302Y-96032491D01*
X92739062Y-96032491D01*
X92393947Y-97055625D01*
X91968476Y-97055625D01*
X91982510Y-97055479D01*
X91996278Y-97055044D01*
X92009781Y-97054319D01*
X92023019Y-97053304D01*
X92035991Y-97051999D01*
X92048698Y-97050404D01*
X92061140Y-97048519D01*
X92073317Y-97046343D01*
X92085229Y-97043878D01*
X92096875Y-97041123D01*
X92108256Y-97038077D01*
X92119372Y-97034742D01*
X92130223Y-97031116D01*
X92140808Y-97027201D01*
X92151129Y-97022995D01*
X92161184Y-97018500D01*
X92170989Y-97013722D01*
X92180498Y-97008730D01*
X92189711Y-97003524D01*
X92198629Y-96998105D01*
X92207251Y-96992472D01*
X92215577Y-96986626D01*
X92223608Y-96980566D01*
X92231342Y-96974292D01*
X92238781Y-96967804D01*
X92245924Y-96961103D01*
X92256085Y-96950650D01*
X92265579Y-96939716D01*
X92274409Y-96928301D01*
X92282572Y-96916406D01*
X92285157Y-96912344D01*
X92292418Y-96899950D01*
X92298941Y-96887248D01*
X92304726Y-96874236D01*
X92309772Y-96860915D01*
X92314080Y-96847285D01*
X92317649Y-96833346D01*
X92320480Y-96819098D01*
X92321956Y-96809428D01*
X92323105Y-96799620D01*
X92323926Y-96789675D01*
X92324418Y-96779592D01*
X92324582Y-96769372D01*
X92324457Y-96760198D01*
X92323801Y-96746728D01*
X92322582Y-96733606D01*
X92320801Y-96720831D01*
X92318458Y-96708404D01*
X92315552Y-96696324D01*
X92312084Y-96684593D01*
X92308053Y-96673209D01*
X92303460Y-96662173D01*
X92298304Y-96651485D01*
X92292586Y-96641144D01*
X92288506Y-96634460D01*
X92282081Y-96624784D01*
X92275291Y-96615529D01*
X92268136Y-96606695D01*
X92260616Y-96598282D01*
X92252732Y-96590289D01*
X92244482Y-96582717D01*
X92235867Y-96575566D01*
X92226888Y-96568835D01*
X92217543Y-96562525D01*
X92207834Y-96556636D01*
X92201233Y-96552928D01*
X92191191Y-96547769D01*
X92180983Y-96543096D01*
X92170606Y-96538908D01*
X92160063Y-96535205D01*
X92149351Y-96531987D01*
X92138473Y-96529254D01*
X92127427Y-96527007D01*
X92116213Y-96525244D01*
X92104832Y-96523967D01*
X92093284Y-96523175D01*
X92093284Y-96513161D01*
X92100284Y-96511595D01*
X92110587Y-96508980D01*
X92120655Y-96506048D01*
X92130486Y-96502798D01*
X92140080Y-96499230D01*
X92149439Y-96495344D01*
X92158562Y-96491141D01*
X92167448Y-96486620D01*
X92176099Y-96481782D01*
X92184513Y-96476625D01*
X92192691Y-96471151D01*
X92203148Y-96463397D01*
X92213024Y-96455153D01*
X92222321Y-96446422D01*
X92231037Y-96437202D01*
X92239173Y-96427493D01*
X92246730Y-96417296D01*
X92253706Y-96406610D01*
X92260102Y-96395436D01*
X92261620Y-96392569D01*
X92267209Y-96380847D01*
X92270894Y-96371790D01*
X92274147Y-96362506D01*
X92276965Y-96352994D01*
X92279350Y-96343255D01*
X92281302Y-96333288D01*
X92282819Y-96323093D01*
X92283903Y-96312671D01*
X92284554Y-96302022D01*
X92284771Y-96291144D01*
X92284617Y-96281600D01*
X92283810Y-96267555D01*
X92282313Y-96253836D01*
X92280124Y-96240444D01*
X92277244Y-96227378D01*
X92273672Y-96214638D01*
X92269410Y-96202225D01*
X92264456Y-96190138D01*
X92258811Y-96178377D01*
X92252475Y-96166942D01*
X92245447Y-96155834D01*
X92237737Y-96145116D01*
X92229353Y-96134854D01*
X92220295Y-96125046D01*
X92210563Y-96115694D01*
X92200156Y-96106797D01*
X92189076Y-96098355D01*
X92177322Y-96090368D01*
X92164893Y-96082836D01*
X92156233Y-96078067D01*
X92147273Y-96073501D01*
X92138014Y-96069137D01*
X92128455Y-96064976D01*
X92118601Y-96061042D01*
X92108458Y-96057362D01*
X92098024Y-96053936D01*
X92087300Y-96050764D01*
X92076286Y-96047845D01*
X92064982Y-96045180D01*
X92053389Y-96042769D01*
X92041505Y-96040612D01*
X92029331Y-96038709D01*
X92016867Y-96037059D01*
X92004113Y-96035664D01*
X91991068Y-96034521D01*
X91977734Y-96033633D01*
X91964110Y-96032999D01*
X91950196Y-96032618D01*
X91935992Y-96032491D01*
X91509299Y-96032491D01*
X91141442Y-96032491D01*
X91141442Y-95664634D01*
X95774295Y-95664634D01*
X95774295Y-97423482D01*
G37*
%TO.C,SWL5*%
X121015625Y-48850000D02*
X121015625Y-47850000D01*
X121015625Y-61850000D02*
X121015625Y-60850000D01*
X121015625Y-61850000D02*
X122015625Y-61850000D01*
X122015625Y-47850000D02*
X121015625Y-47850000D01*
X134015625Y-61850000D02*
X135015625Y-61850000D01*
X135015625Y-47850000D02*
X134015625Y-47850000D01*
X135015625Y-47850000D02*
X135015625Y-48850000D01*
X135015625Y-60850000D02*
X135015625Y-61850000D01*
%TO.C,SWL13*%
X83015625Y-75925000D02*
X83015625Y-74925000D01*
X83015625Y-88925000D02*
X83015625Y-87925000D01*
X83015625Y-88925000D02*
X84015625Y-88925000D01*
X84015625Y-74925000D02*
X83015625Y-74925000D01*
X96015625Y-88925000D02*
X97015625Y-88925000D01*
X97015625Y-74925000D02*
X96015625Y-74925000D01*
X97015625Y-74925000D02*
X97015625Y-75925000D01*
X97015625Y-87925000D02*
X97015625Y-88925000D01*
%TO.C,SWL9*%
X102015625Y-63100000D02*
X102015625Y-62100000D01*
X102015625Y-76100000D02*
X102015625Y-75100000D01*
X102015625Y-76100000D02*
X103015625Y-76100000D01*
X103015625Y-62100000D02*
X102015625Y-62100000D01*
X115015625Y-76100000D02*
X116015625Y-76100000D01*
X116015625Y-62100000D02*
X115015625Y-62100000D01*
X116015625Y-62100000D02*
X116015625Y-63100000D01*
X116015625Y-75100000D02*
X116015625Y-76100000D01*
%TO.C,SWL18*%
X145378447Y-115028848D02*
X145878447Y-114162822D01*
X138878447Y-126287178D02*
X139378447Y-125421152D01*
X138878447Y-126287178D02*
X139744473Y-126787178D01*
X146744473Y-114662822D02*
X145878447Y-114162822D01*
X150136777Y-132787178D02*
X151002803Y-133287178D01*
X158002803Y-121162822D02*
X157136777Y-120662822D01*
X158002803Y-121162822D02*
X157502803Y-122028848D01*
X151502803Y-132421152D02*
X151002803Y-133287178D01*
%TO.C,SWL1*%
X45015625Y-59775000D02*
X45015625Y-58775000D01*
X45015625Y-72775000D02*
X45015625Y-71775000D01*
X45015625Y-72775000D02*
X46015625Y-72775000D01*
X46015625Y-58775000D02*
X45015625Y-58775000D01*
X58015625Y-72775000D02*
X59015625Y-72775000D01*
X59015625Y-58775000D02*
X58015625Y-58775000D01*
X59015625Y-58775000D02*
X59015625Y-59775000D01*
X59015625Y-71775000D02*
X59015625Y-72775000D01*
%TO.C,SWL17*%
X124232058Y-108042712D02*
X124490878Y-107076786D01*
X120867411Y-120599747D02*
X121126230Y-119633822D01*
X120867411Y-120599747D02*
X121833337Y-120858567D01*
X125456803Y-107335605D02*
X124490878Y-107076786D01*
X133424447Y-123964395D02*
X134390372Y-124223214D01*
X138013839Y-110700253D02*
X137047913Y-110441433D01*
X138013839Y-110700253D02*
X137755020Y-111666178D01*
X134649192Y-123257288D02*
X134390372Y-124223214D01*
%TO.C,SWL7*%
X64015625Y-63100000D02*
X64015625Y-62100000D01*
X64015625Y-76100000D02*
X64015625Y-75100000D01*
X64015625Y-76100000D02*
X65015625Y-76100000D01*
X65015625Y-62100000D02*
X64015625Y-62100000D01*
X77015625Y-76100000D02*
X78015625Y-76100000D01*
X78015625Y-62100000D02*
X77015625Y-62100000D01*
X78015625Y-62100000D02*
X78015625Y-63100000D01*
X78015625Y-75100000D02*
X78015625Y-76100000D01*
%TO.C,SWL15*%
X121015625Y-86850000D02*
X121015625Y-85850000D01*
X121015625Y-99850000D02*
X121015625Y-98850000D01*
X121015625Y-99850000D02*
X122015625Y-99850000D01*
X122015625Y-85850000D02*
X121015625Y-85850000D01*
X134015625Y-99850000D02*
X135015625Y-99850000D01*
X135015625Y-85850000D02*
X134015625Y-85850000D01*
X135015625Y-85850000D02*
X135015625Y-86850000D01*
X135015625Y-98850000D02*
X135015625Y-99850000D01*
D13*
%TO.C,J1*%
X83380625Y-102135000D02*
X83380625Y-101115000D01*
X87630625Y-102135000D02*
X83380625Y-102135000D01*
X83380625Y-101115000D02*
X84980625Y-101115000D01*
X84980625Y-101115000D02*
X84980625Y-99835000D01*
X91200625Y-100415000D02*
X91200625Y-95735000D01*
X84980625Y-99835000D02*
X82090625Y-99835000D01*
X83380625Y-95035000D02*
X84980625Y-95035000D01*
X84980625Y-95035000D02*
X84980625Y-96315000D01*
X83380625Y-94015000D02*
X83380625Y-95035000D01*
X87630625Y-94015000D02*
X83380625Y-94015000D01*
D11*
%TO.C,SWL4*%
X102015625Y-44100000D02*
X102015625Y-43100000D01*
X102015625Y-57100000D02*
X102015625Y-56100000D01*
X102015625Y-57100000D02*
X103015625Y-57100000D01*
X103015625Y-43100000D02*
X102015625Y-43100000D01*
X115015625Y-57100000D02*
X116015625Y-57100000D01*
X116015625Y-43100000D02*
X115015625Y-43100000D01*
X116015625Y-43100000D02*
X116015625Y-44100000D01*
X116015625Y-56100000D02*
X116015625Y-57100000D01*
%TO.C,SWL14*%
X102015625Y-82100000D02*
X102015625Y-81100000D01*
X102015625Y-95100000D02*
X102015625Y-94100000D01*
X102015625Y-95100000D02*
X103015625Y-95100000D01*
X103015625Y-81100000D02*
X102015625Y-81100000D01*
X115015625Y-95100000D02*
X116015625Y-95100000D01*
X116015625Y-81100000D02*
X115015625Y-81100000D01*
X116015625Y-81100000D02*
X116015625Y-82100000D01*
X116015625Y-94100000D02*
X116015625Y-95100000D01*
%TO.C,SWL8*%
X83015625Y-56925000D02*
X83015625Y-55925000D01*
X83015625Y-69925000D02*
X83015625Y-68925000D01*
X83015625Y-69925000D02*
X84015625Y-69925000D01*
X84015625Y-55925000D02*
X83015625Y-55925000D01*
X96015625Y-69925000D02*
X97015625Y-69925000D01*
X97015625Y-55925000D02*
X96015625Y-55925000D01*
X97015625Y-55925000D02*
X97015625Y-56925000D01*
X97015625Y-68925000D02*
X97015625Y-69925000D01*
%TO.C,SWL10*%
X121015625Y-67850000D02*
X121015625Y-66850000D01*
X121015625Y-80850000D02*
X121015625Y-79850000D01*
X121015625Y-80850000D02*
X122015625Y-80850000D01*
X122015625Y-66850000D02*
X121015625Y-66850000D01*
X134015625Y-80850000D02*
X135015625Y-80850000D01*
X135015625Y-66850000D02*
X134015625Y-66850000D01*
X135015625Y-66850000D02*
X135015625Y-67850000D01*
X135015625Y-79850000D02*
X135015625Y-80850000D01*
%TO.C,SWL11*%
X45015625Y-97775000D02*
X45015625Y-96775000D01*
X45015625Y-110775000D02*
X45015625Y-109775000D01*
X45015625Y-110775000D02*
X46015625Y-110775000D01*
X46015625Y-96775000D02*
X45015625Y-96775000D01*
X58015625Y-110775000D02*
X59015625Y-110775000D01*
X59015625Y-96775000D02*
X58015625Y-96775000D01*
X59015625Y-96775000D02*
X59015625Y-97775000D01*
X59015625Y-109775000D02*
X59015625Y-110775000D01*
%TO.C,SWL3*%
X83015625Y-37925000D02*
X83015625Y-36925000D01*
X83015625Y-50925000D02*
X83015625Y-49925000D01*
X83015625Y-50925000D02*
X84015625Y-50925000D01*
X84015625Y-36925000D02*
X83015625Y-36925000D01*
X96015625Y-50925000D02*
X97015625Y-50925000D01*
X97015625Y-36925000D02*
X96015625Y-36925000D01*
X97015625Y-36925000D02*
X97015625Y-37925000D01*
X97015625Y-49925000D02*
X97015625Y-50925000D01*
%TO.C,SWL6*%
X45015625Y-78775000D02*
X45015625Y-77775000D01*
X45015625Y-91775000D02*
X45015625Y-90775000D01*
X45015625Y-91775000D02*
X46015625Y-91775000D01*
X46015625Y-77775000D02*
X45015625Y-77775000D01*
X58015625Y-91775000D02*
X59015625Y-91775000D01*
X59015625Y-77775000D02*
X58015625Y-77775000D01*
X59015625Y-77775000D02*
X59015625Y-78775000D01*
X59015625Y-90775000D02*
X59015625Y-91775000D01*
D13*
%TO.C,RSW1*%
X119840625Y-36330000D02*
X127640625Y-36330000D01*
X119840625Y-40010000D02*
X119840625Y-36330000D01*
X121490625Y-40630000D02*
X125990625Y-40630000D01*
X122490625Y-35080000D02*
X124990625Y-35080000D01*
X122490625Y-36330000D02*
X122490625Y-35080000D01*
X124990625Y-36330000D02*
X124990625Y-35080000D01*
X127640625Y-40010000D02*
X127640625Y-36330000D01*
D11*
%TO.C,SWL12*%
X64015625Y-82100000D02*
X64015625Y-81100000D01*
X64015625Y-95100000D02*
X64015625Y-94100000D01*
X64015625Y-95100000D02*
X65015625Y-95100000D01*
X65015625Y-81100000D02*
X64015625Y-81100000D01*
X77015625Y-95100000D02*
X78015625Y-95100000D01*
X78015625Y-81100000D02*
X77015625Y-81100000D01*
X78015625Y-81100000D02*
X78015625Y-82100000D01*
X78015625Y-94100000D02*
X78015625Y-95100000D01*
%TO.C,SWL2*%
X64015625Y-44100000D02*
X64015625Y-43100000D01*
X64015625Y-57100000D02*
X64015625Y-56100000D01*
X64015625Y-57100000D02*
X65015625Y-57100000D01*
X65015625Y-43100000D02*
X64015625Y-43100000D01*
X77015625Y-57100000D02*
X78015625Y-57100000D01*
X78015625Y-43100000D02*
X77015625Y-43100000D01*
X78015625Y-43100000D02*
X78015625Y-44100000D01*
X78015625Y-56100000D02*
X78015625Y-57100000D01*
%TO.C,SWL16*%
X102015625Y-106800000D02*
X102015625Y-105800000D01*
X102015625Y-119800000D02*
X102015625Y-118800000D01*
X102015625Y-119800000D02*
X103015625Y-119800000D01*
X103015625Y-105800000D02*
X102015625Y-105800000D01*
X115015625Y-119800000D02*
X116015625Y-119800000D01*
X116015625Y-105800000D02*
X115015625Y-105800000D01*
X116015625Y-105800000D02*
X116015625Y-106800000D01*
X116015625Y-118800000D02*
X116015625Y-119800000D01*
%TD*%
%LPC*%
D14*
%TO.C,SWL5*%
X122515625Y-54850000D03*
D15*
X123015625Y-58600000D03*
D16*
X128015625Y-54850000D03*
D15*
X128015625Y-60800000D03*
D14*
X133515625Y-54850000D03*
%TD*%
%TO.C,SWL13*%
X84515625Y-81925000D03*
D15*
X85015625Y-85675000D03*
D16*
X90015625Y-81925000D03*
D15*
X90015625Y-87875000D03*
D14*
X95515625Y-81925000D03*
%TD*%
%TO.C,SWL9*%
X103515625Y-69100000D03*
D15*
X104015625Y-72850000D03*
D16*
X109015625Y-69100000D03*
D15*
X109015625Y-75050000D03*
D14*
X114515625Y-69100000D03*
%TD*%
%TO.C,SWL18*%
X143677485Y-120975000D03*
D15*
X142235498Y-124472595D03*
D16*
X148440625Y-123725000D03*
D15*
X145465625Y-128877851D03*
D14*
X153203765Y-126475000D03*
%TD*%
%TO.C,SWL1*%
X46515625Y-65775000D03*
D15*
X47015625Y-69525000D03*
D16*
X52015625Y-65775000D03*
D15*
X52015625Y-71725000D03*
D14*
X57515625Y-65775000D03*
%TD*%
%TO.C,SWL17*%
X124128033Y-114226495D03*
D15*
X123640424Y-117978127D03*
D16*
X129440625Y-115650000D03*
D15*
X127900652Y-121397259D03*
D14*
X134753217Y-117073505D03*
%TD*%
%TO.C,SWL7*%
X65515625Y-69100000D03*
D15*
X66015625Y-72850000D03*
D16*
X71015625Y-69100000D03*
D15*
X71015625Y-75050000D03*
D14*
X76515625Y-69100000D03*
%TD*%
%TO.C,SWL15*%
X122515625Y-92850000D03*
D15*
X123015625Y-96600000D03*
D16*
X128015625Y-92850000D03*
D15*
X128015625Y-98800000D03*
D14*
X133515625Y-92850000D03*
%TD*%
D17*
%TO.C,J1*%
X83840625Y-99075000D03*
X83840625Y-97075000D03*
D18*
X89590625Y-101425000D03*
X89590625Y-94725000D03*
%TD*%
D14*
%TO.C,SWL4*%
X103515625Y-50100000D03*
D15*
X104015625Y-53850000D03*
D16*
X109015625Y-50100000D03*
D15*
X109015625Y-56050000D03*
D14*
X114515625Y-50100000D03*
%TD*%
%TO.C,SWL14*%
X103515625Y-88100000D03*
D15*
X104015625Y-91850000D03*
D16*
X109015625Y-88100000D03*
D15*
X109015625Y-94050000D03*
D14*
X114515625Y-88100000D03*
%TD*%
%TO.C,SWL8*%
X84515625Y-62925000D03*
D15*
X85015625Y-66675000D03*
D16*
X90015625Y-62925000D03*
D15*
X90015625Y-68875000D03*
D14*
X95515625Y-62925000D03*
%TD*%
%TO.C,SWL10*%
X122515625Y-73850000D03*
D15*
X123015625Y-77600000D03*
D16*
X128015625Y-73850000D03*
D15*
X128015625Y-79800000D03*
D14*
X133515625Y-73850000D03*
%TD*%
%TO.C,SWL11*%
X46515625Y-103775000D03*
D15*
X47015625Y-107525000D03*
D16*
X52015625Y-103775000D03*
D15*
X52015625Y-109725000D03*
D14*
X57515625Y-103775000D03*
%TD*%
%TO.C,SWL3*%
X84515625Y-43925000D03*
D15*
X85015625Y-47675000D03*
D16*
X90015625Y-43925000D03*
D15*
X90015625Y-49875000D03*
D14*
X95515625Y-43925000D03*
%TD*%
%TO.C,SWL6*%
X46515625Y-84775000D03*
D15*
X47015625Y-88525000D03*
D16*
X52015625Y-84775000D03*
D15*
X52015625Y-90725000D03*
D14*
X57515625Y-84775000D03*
%TD*%
D19*
%TO.C,RSW1*%
X120240625Y-41330000D03*
X127240625Y-41330000D03*
%TD*%
D20*
%TO.C,REF\u002A\u002A*%
X139512297Y-103739073D03*
%TD*%
D21*
%TO.C,U1*%
X40595625Y-53920000D03*
X43135625Y-53920000D03*
X45675625Y-53920000D03*
X48215625Y-53920000D03*
X50755625Y-53920000D03*
X53295625Y-53920000D03*
X55835625Y-53920000D03*
X55835625Y-37730000D03*
X53295625Y-37730000D03*
X50755625Y-37730000D03*
X48215625Y-37730000D03*
X45675625Y-37730000D03*
X43135625Y-37730000D03*
X40595625Y-37730000D03*
D22*
X39643625Y-47095000D03*
X39643625Y-44555000D03*
X42183625Y-47095000D03*
X42183625Y-44555000D03*
X47898625Y-50270000D03*
X45993625Y-50270000D03*
%TD*%
D20*
%TO.C,REF\u002A\u002A*%
X40522298Y-115278567D03*
%TD*%
%TO.C,REF\u002A\u002A*%
X139512298Y-38603567D03*
%TD*%
D14*
%TO.C,SWL12*%
X65515625Y-88100000D03*
D15*
X66015625Y-91850000D03*
D16*
X71015625Y-88100000D03*
D15*
X71015625Y-94050000D03*
D14*
X76515625Y-88100000D03*
%TD*%
%TO.C,SWL2*%
X65515625Y-50100000D03*
D15*
X66015625Y-53850000D03*
D16*
X71015625Y-50100000D03*
D15*
X71015625Y-56050000D03*
D14*
X76515625Y-50100000D03*
%TD*%
D20*
%TO.C,REF\u002A\u002A*%
X62262298Y-38603567D03*
%TD*%
D14*
%TO.C,SWL16*%
X103515625Y-112800000D03*
D15*
X104015625Y-116550000D03*
D16*
X109015625Y-112800000D03*
D15*
X109015625Y-118750000D03*
D14*
X114515625Y-112800000D03*
%TD*%
M02*
