%TF.GenerationSoftware,KiCad,Pcbnew,7.0.1*%
%TF.CreationDate,2024-02-26T07:25:15-05:00*%
%TF.ProjectId,pcb-left,7063622d-6c65-4667-942e-6b696361645f,0.3*%
%TF.SameCoordinates,Original*%
%TF.FileFunction,Legend,Bot*%
%TF.FilePolarity,Positive*%
%FSLAX46Y46*%
G04 Gerber Fmt 4.6, Leading zero omitted, Abs format (unit mm)*
G04 Created by KiCad (PCBNEW 7.0.1) date 2024-02-26 07:25:15*
%MOMM*%
%LPD*%
G01*
G04 APERTURE LIST*
G04 Aperture macros list*
%AMRotRect*
0 Rectangle, with rotation*
0 The origin of the aperture is its center*
0 $1 length*
0 $2 width*
0 $3 Rotation angle, in degrees counterclockwise*
0 Add horizontal line*
21,1,$1,$2,0,0,$3*%
G04 Aperture macros list end*
%ADD10C,0.000000*%
%ADD11C,0.150000*%
%ADD12C,1.701800*%
%ADD13C,3.000000*%
%ADD14C,3.429000*%
%ADD15R,2.600000X2.600000*%
%ADD16RotRect,2.600000X2.600000X150.000000*%
%ADD17RotRect,2.600000X2.600000X165.000000*%
%ADD18C,1.800000*%
%ADD19C,2.100000*%
%ADD20C,3.800000*%
%ADD21O,1.800000X2.750000*%
%ADD22C,1.397000*%
%ADD23RotRect,1.800000X1.500000X240.000000*%
%ADD24R,1.500000X1.800000*%
%ADD25RotRect,1.800000X1.500000X255.000000*%
G04 APERTURE END LIST*
D10*
G36*
X132697616Y-40007400D02*
G01*
X132339779Y-40007400D01*
X133607543Y-36756194D01*
X133965380Y-36756194D01*
X132697616Y-40007400D01*
G37*
G36*
X139265202Y-90529834D02*
G01*
X139229364Y-90528388D01*
X139194086Y-90525977D01*
X139159367Y-90522601D01*
X139125207Y-90518262D01*
X139091606Y-90512957D01*
X139058565Y-90506689D01*
X139026083Y-90499456D01*
X138994160Y-90491258D01*
X138962796Y-90482096D01*
X138931992Y-90471970D01*
X138901747Y-90460879D01*
X138872061Y-90448824D01*
X138842934Y-90435804D01*
X138814367Y-90421820D01*
X138786359Y-90406871D01*
X138759017Y-90391063D01*
X138732459Y-90374500D01*
X138706684Y-90357182D01*
X138681691Y-90339110D01*
X138657482Y-90320282D01*
X138634056Y-90300700D01*
X138611413Y-90280364D01*
X138589552Y-90259272D01*
X138568475Y-90237426D01*
X138548179Y-90214825D01*
X138528667Y-90191469D01*
X138509937Y-90167359D01*
X138491989Y-90142494D01*
X138474824Y-90116875D01*
X138458441Y-90090501D01*
X138442840Y-90063372D01*
X138428110Y-90035634D01*
X138414330Y-90007435D01*
X138401501Y-89978775D01*
X138389621Y-89949654D01*
X138378692Y-89920071D01*
X138368713Y-89890027D01*
X138359685Y-89859522D01*
X138351607Y-89828556D01*
X138344479Y-89797128D01*
X138338301Y-89765239D01*
X138333074Y-89732889D01*
X138328797Y-89700078D01*
X138325470Y-89666805D01*
X138323094Y-89633071D01*
X138321669Y-89598876D01*
X138321193Y-89564219D01*
X138321459Y-89539753D01*
X138322256Y-89515553D01*
X138322335Y-89514126D01*
X138704051Y-89514126D01*
X138704694Y-89544645D01*
X138706623Y-89574479D01*
X138709837Y-89603629D01*
X138714337Y-89632094D01*
X138720123Y-89659873D01*
X138727195Y-89686968D01*
X138735553Y-89713378D01*
X138745197Y-89739103D01*
X138756127Y-89764143D01*
X138768343Y-89788498D01*
X138781846Y-89812169D01*
X138796635Y-89835154D01*
X138812710Y-89857454D01*
X138830071Y-89879069D01*
X138848719Y-89899999D01*
X138868654Y-89920244D01*
X138889632Y-89939526D01*
X138911421Y-89957564D01*
X138934021Y-89974358D01*
X138957432Y-89989907D01*
X138981653Y-90004213D01*
X139006686Y-90017275D01*
X139032529Y-90029093D01*
X139059183Y-90039667D01*
X139086648Y-90048997D01*
X139114923Y-90057083D01*
X139144009Y-90063925D01*
X139173906Y-90069523D01*
X139204613Y-90073877D01*
X139236131Y-90076987D01*
X139268459Y-90078853D01*
X139301599Y-90079475D01*
X139334740Y-90078853D01*
X139367070Y-90076987D01*
X139398588Y-90073877D01*
X139429296Y-90069523D01*
X139459192Y-90063925D01*
X139488277Y-90057083D01*
X139516552Y-90048997D01*
X139544016Y-90039667D01*
X139570669Y-90029093D01*
X139596512Y-90017275D01*
X139621545Y-90004213D01*
X139645767Y-89989907D01*
X139669180Y-89974358D01*
X139691782Y-89957564D01*
X139713574Y-89939526D01*
X139734557Y-89920244D01*
X139754487Y-89899999D01*
X139773131Y-89879069D01*
X139790490Y-89857454D01*
X139806563Y-89835154D01*
X139821350Y-89812169D01*
X139834851Y-89788498D01*
X139847067Y-89764143D01*
X139857997Y-89739103D01*
X139867641Y-89713378D01*
X139876000Y-89686968D01*
X139883072Y-89659873D01*
X139888859Y-89632094D01*
X139893359Y-89603629D01*
X139896574Y-89574479D01*
X139898503Y-89544645D01*
X139899146Y-89514126D01*
X139898503Y-89483600D01*
X139896574Y-89453745D01*
X139893359Y-89424561D01*
X139888859Y-89396048D01*
X139883072Y-89368206D01*
X139876000Y-89341035D01*
X139867641Y-89314535D01*
X139857997Y-89288705D01*
X139847067Y-89263547D01*
X139834851Y-89239059D01*
X139821350Y-89215242D01*
X139806563Y-89192096D01*
X139790490Y-89169621D01*
X139773131Y-89147817D01*
X139754487Y-89126683D01*
X139734557Y-89106221D01*
X139713574Y-89086723D01*
X139691782Y-89068482D01*
X139669180Y-89051500D01*
X139645767Y-89035776D01*
X139621545Y-89021310D01*
X139596512Y-89008102D01*
X139570669Y-88996152D01*
X139544016Y-88985460D01*
X139516552Y-88976025D01*
X139488277Y-88967849D01*
X139459192Y-88960930D01*
X139429296Y-88955270D01*
X139398588Y-88950867D01*
X139367070Y-88947723D01*
X139334740Y-88945836D01*
X139301599Y-88945207D01*
X139268459Y-88945836D01*
X139236131Y-88947723D01*
X139204613Y-88950867D01*
X139173906Y-88955270D01*
X139144009Y-88960930D01*
X139114923Y-88967849D01*
X139086648Y-88976025D01*
X139059183Y-88985460D01*
X139032529Y-88996152D01*
X139006686Y-89008102D01*
X138981653Y-89021310D01*
X138957432Y-89035776D01*
X138934021Y-89051500D01*
X138911421Y-89068482D01*
X138889632Y-89086723D01*
X138868654Y-89106221D01*
X138848719Y-89126683D01*
X138830071Y-89147817D01*
X138812710Y-89169621D01*
X138796635Y-89192096D01*
X138781846Y-89215242D01*
X138768343Y-89239059D01*
X138756127Y-89263547D01*
X138745197Y-89288705D01*
X138735553Y-89314535D01*
X138727195Y-89341035D01*
X138720123Y-89368206D01*
X138714337Y-89396048D01*
X138709837Y-89424561D01*
X138706623Y-89453745D01*
X138704694Y-89483600D01*
X138704051Y-89514126D01*
X138322335Y-89514126D01*
X138323583Y-89491617D01*
X138325442Y-89467948D01*
X138327832Y-89444543D01*
X138330753Y-89421404D01*
X138334205Y-89398531D01*
X138338189Y-89375923D01*
X138342703Y-89353581D01*
X138347748Y-89331504D01*
X138353325Y-89309692D01*
X138359432Y-89288147D01*
X138366071Y-89266866D01*
X138373241Y-89245852D01*
X138380942Y-89225103D01*
X138389174Y-89204619D01*
X138397937Y-89184471D01*
X138407232Y-89164729D01*
X138417058Y-89145392D01*
X138427415Y-89126460D01*
X138438303Y-89107933D01*
X138449723Y-89089812D01*
X138461674Y-89072096D01*
X138474156Y-89054785D01*
X138487169Y-89037880D01*
X138500713Y-89021380D01*
X138514788Y-89005286D01*
X138529394Y-88989596D01*
X138544531Y-88974312D01*
X138560199Y-88959433D01*
X138576398Y-88944960D01*
X138593128Y-88930892D01*
X138346244Y-88930892D01*
X138346244Y-88505092D01*
X140256954Y-88505092D01*
X140256954Y-88952357D01*
X140024384Y-88952357D01*
X140039800Y-88966831D01*
X140054740Y-88981627D01*
X140069205Y-88996744D01*
X140083196Y-89012182D01*
X140096711Y-89027942D01*
X140109751Y-89044023D01*
X140122316Y-89060425D01*
X140134406Y-89077149D01*
X140146021Y-89094194D01*
X140157161Y-89111561D01*
X140167826Y-89129248D01*
X140178016Y-89147258D01*
X140187730Y-89165588D01*
X140196970Y-89184240D01*
X140205734Y-89203214D01*
X140214024Y-89222509D01*
X140221821Y-89242084D01*
X140229116Y-89261897D01*
X140235908Y-89281947D01*
X140242198Y-89302235D01*
X140247984Y-89322761D01*
X140253266Y-89343523D01*
X140258046Y-89364524D01*
X140262323Y-89385761D01*
X140266097Y-89407237D01*
X140269368Y-89428950D01*
X140272135Y-89450901D01*
X140274400Y-89473089D01*
X140276161Y-89495515D01*
X140277419Y-89518179D01*
X140278174Y-89541080D01*
X140278425Y-89564219D01*
X140277950Y-89598876D01*
X140276524Y-89633071D01*
X140274148Y-89666805D01*
X140270822Y-89700078D01*
X140266545Y-89732889D01*
X140261317Y-89765239D01*
X140255139Y-89797128D01*
X140248010Y-89828556D01*
X140239932Y-89859522D01*
X140230902Y-89890027D01*
X140220922Y-89920071D01*
X140209992Y-89949654D01*
X140198111Y-89978775D01*
X140185280Y-90007435D01*
X140171498Y-90035634D01*
X140156766Y-90063372D01*
X140141174Y-90090501D01*
X140124814Y-90116875D01*
X140107684Y-90142494D01*
X140089786Y-90167359D01*
X140071120Y-90191469D01*
X140051684Y-90214825D01*
X140031480Y-90237426D01*
X140010507Y-90259272D01*
X139988766Y-90280364D01*
X139966256Y-90300700D01*
X139942977Y-90320282D01*
X139918930Y-90339110D01*
X139894114Y-90357182D01*
X139868530Y-90374500D01*
X139842177Y-90391063D01*
X139815056Y-90406871D01*
X139787261Y-90421820D01*
X139758894Y-90435804D01*
X139729955Y-90448824D01*
X139700442Y-90460879D01*
X139670357Y-90471970D01*
X139639699Y-90482096D01*
X139608468Y-90491258D01*
X139576664Y-90499456D01*
X139544287Y-90506689D01*
X139511337Y-90512957D01*
X139477814Y-90518262D01*
X139443717Y-90522601D01*
X139409048Y-90525977D01*
X139373805Y-90528388D01*
X139337988Y-90529834D01*
X139301599Y-90530317D01*
X139265202Y-90529834D01*
G37*
G36*
X139492661Y-90964093D02*
G01*
X139542536Y-90966567D01*
X139590776Y-90970690D01*
X139637381Y-90976463D01*
X139682352Y-90983885D01*
X139725687Y-90992956D01*
X139767387Y-91003677D01*
X139807453Y-91016047D01*
X139845883Y-91030066D01*
X139882678Y-91045735D01*
X139917838Y-91063052D01*
X139951363Y-91082019D01*
X139983253Y-91102636D01*
X140013507Y-91124901D01*
X140042126Y-91148816D01*
X140069110Y-91174379D01*
X140094456Y-91201355D01*
X140118167Y-91229505D01*
X140140243Y-91258829D01*
X140160684Y-91289327D01*
X140179489Y-91320999D01*
X140196660Y-91353846D01*
X140212195Y-91387866D01*
X140226095Y-91423060D01*
X140238360Y-91459429D01*
X140248989Y-91496971D01*
X140257983Y-91535687D01*
X140265342Y-91575578D01*
X140271066Y-91616642D01*
X140275155Y-91658881D01*
X140277608Y-91702293D01*
X140278425Y-91746880D01*
X140278097Y-91774904D01*
X140277112Y-91802621D01*
X140275470Y-91830030D01*
X140273171Y-91857132D01*
X140270215Y-91883926D01*
X140266603Y-91910413D01*
X140262334Y-91936592D01*
X140257408Y-91962464D01*
X140251824Y-91988028D01*
X140245584Y-92013285D01*
X140238687Y-92038234D01*
X140231133Y-92062876D01*
X140222923Y-92087210D01*
X140214055Y-92111236D01*
X140204530Y-92134955D01*
X140194348Y-92158366D01*
X140183578Y-92181359D01*
X140172292Y-92203820D01*
X140160488Y-92225750D01*
X140148166Y-92247149D01*
X140135328Y-92268017D01*
X140121972Y-92288353D01*
X140108098Y-92308159D01*
X140093708Y-92327433D01*
X140078800Y-92346176D01*
X140063376Y-92364388D01*
X140047434Y-92382069D01*
X140030975Y-92399218D01*
X140013999Y-92415837D01*
X139996506Y-92431924D01*
X139978496Y-92447480D01*
X139959969Y-92462505D01*
X139979348Y-92474854D01*
X139998126Y-92487748D01*
X140016303Y-92501188D01*
X140033879Y-92515172D01*
X140050854Y-92529701D01*
X140067229Y-92544776D01*
X140083002Y-92560395D01*
X140098175Y-92576560D01*
X140112746Y-92593270D01*
X140126716Y-92610524D01*
X140140086Y-92628324D01*
X140152854Y-92646669D01*
X140165020Y-92665559D01*
X140176586Y-92684994D01*
X140187550Y-92704974D01*
X140197913Y-92725499D01*
X140207666Y-92746485D01*
X140216788Y-92767849D01*
X140225281Y-92789590D01*
X140233145Y-92811709D01*
X140240378Y-92834205D01*
X140246983Y-92857079D01*
X140252958Y-92880330D01*
X140258304Y-92903958D01*
X140263020Y-92927964D01*
X140267108Y-92952347D01*
X140270566Y-92977108D01*
X140273396Y-93002246D01*
X140275596Y-93027761D01*
X140277168Y-93053654D01*
X140278111Y-93079924D01*
X140278425Y-93106571D01*
X140278160Y-93131030D01*
X140277363Y-93155211D01*
X140276035Y-93179111D01*
X140274177Y-93202732D01*
X140271787Y-93226073D01*
X140268866Y-93249135D01*
X140265413Y-93271918D01*
X140261430Y-93294420D01*
X140256916Y-93316644D01*
X140251870Y-93338588D01*
X140246294Y-93360252D01*
X140240186Y-93381637D01*
X140233548Y-93402742D01*
X140226378Y-93423568D01*
X140218677Y-93444114D01*
X140210445Y-93464381D01*
X140201708Y-93484299D01*
X140192495Y-93503797D01*
X140182808Y-93522876D01*
X140172646Y-93541535D01*
X140162010Y-93559775D01*
X140150898Y-93577596D01*
X140139311Y-93594997D01*
X140127249Y-93611980D01*
X140114712Y-93628543D01*
X140101700Y-93644686D01*
X140088213Y-93660411D01*
X140074251Y-93675716D01*
X140059813Y-93690602D01*
X140044900Y-93705068D01*
X140029512Y-93719115D01*
X140013648Y-93732744D01*
X140256954Y-93732744D01*
X140256954Y-94158538D01*
X138346244Y-94158538D01*
X138346244Y-93711272D01*
X139315913Y-93711272D01*
X139350282Y-93710748D01*
X139383617Y-93709176D01*
X139415918Y-93706555D01*
X139447184Y-93702886D01*
X139477416Y-93698169D01*
X139506614Y-93692404D01*
X139534778Y-93685591D01*
X139561907Y-93677729D01*
X139588003Y-93668819D01*
X139613064Y-93658860D01*
X139637091Y-93647853D01*
X139660083Y-93635798D01*
X139682042Y-93622695D01*
X139702967Y-93608543D01*
X139722857Y-93593343D01*
X139741714Y-93577094D01*
X139759478Y-93559951D01*
X139776096Y-93542067D01*
X139791568Y-93523442D01*
X139805894Y-93504077D01*
X139819073Y-93483970D01*
X139831107Y-93463123D01*
X139841995Y-93441536D01*
X139851736Y-93419207D01*
X139860332Y-93396138D01*
X139867781Y-93372328D01*
X139874085Y-93347777D01*
X139879242Y-93322485D01*
X139883253Y-93296453D01*
X139886118Y-93269680D01*
X139887837Y-93242166D01*
X139888410Y-93213912D01*
X139887914Y-93188348D01*
X139886425Y-93163539D01*
X139883944Y-93139484D01*
X139880470Y-93116184D01*
X139876004Y-93093639D01*
X139870545Y-93071849D01*
X139864094Y-93050814D01*
X139856650Y-93030533D01*
X139848214Y-93011007D01*
X139838786Y-92992236D01*
X139828365Y-92974220D01*
X139816952Y-92956959D01*
X139804547Y-92940452D01*
X139791149Y-92924701D01*
X139776759Y-92909704D01*
X139761377Y-92895463D01*
X139745018Y-92882030D01*
X139727695Y-92869465D01*
X139709408Y-92857766D01*
X139690156Y-92846933D01*
X139669939Y-92836967D01*
X139648757Y-92827868D01*
X139626611Y-92819635D01*
X139603500Y-92812268D01*
X139579425Y-92805769D01*
X139554386Y-92800135D01*
X139528381Y-92795369D01*
X139501413Y-92791469D01*
X139473480Y-92788436D01*
X139444582Y-92786269D01*
X139414720Y-92784969D01*
X139383893Y-92784536D01*
X138346244Y-92784536D01*
X138346244Y-92337270D01*
X139315913Y-92337270D01*
X139349855Y-92336739D01*
X139382805Y-92335146D01*
X139414763Y-92332490D01*
X139445728Y-92328772D01*
X139475702Y-92323992D01*
X139504683Y-92318150D01*
X139532672Y-92311246D01*
X139559669Y-92303279D01*
X139585674Y-92294250D01*
X139610687Y-92284159D01*
X139634708Y-92273005D01*
X139657736Y-92260789D01*
X139679773Y-92247511D01*
X139700818Y-92233171D01*
X139720870Y-92217768D01*
X139739931Y-92201303D01*
X139757911Y-92183958D01*
X139774731Y-92165914D01*
X139790391Y-92147170D01*
X139804891Y-92127728D01*
X139818231Y-92107587D01*
X139830411Y-92086748D01*
X139841431Y-92065209D01*
X139851291Y-92042971D01*
X139859990Y-92020034D01*
X139867530Y-91996399D01*
X139873910Y-91972065D01*
X139879130Y-91947031D01*
X139883190Y-91921299D01*
X139886090Y-91894869D01*
X139887830Y-91867739D01*
X139888410Y-91839911D01*
X139887914Y-91814347D01*
X139886425Y-91789537D01*
X139883944Y-91765483D01*
X139880470Y-91742183D01*
X139876004Y-91719638D01*
X139870545Y-91697848D01*
X139864094Y-91676813D01*
X139856650Y-91656532D01*
X139848214Y-91637007D01*
X139838786Y-91618236D01*
X139828365Y-91600220D01*
X139816952Y-91582958D01*
X139804547Y-91566452D01*
X139791149Y-91550700D01*
X139776759Y-91535703D01*
X139761377Y-91521460D01*
X139745018Y-91508028D01*
X139727695Y-91495463D01*
X139709408Y-91483764D01*
X139690156Y-91472931D01*
X139669939Y-91462965D01*
X139648757Y-91453866D01*
X139626611Y-91445633D01*
X139603500Y-91438267D01*
X139579425Y-91431767D01*
X139554386Y-91426134D01*
X139528381Y-91421367D01*
X139501413Y-91417468D01*
X139473480Y-91414434D01*
X139444582Y-91412268D01*
X139414720Y-91410968D01*
X139383893Y-91410534D01*
X138346244Y-91410534D01*
X138346244Y-90963268D01*
X139441151Y-90963268D01*
X139492661Y-90964093D01*
G37*
G36*
X133231016Y-40007400D02*
G01*
X132873179Y-40007400D01*
X134140943Y-36756194D01*
X134498780Y-36756194D01*
X133231016Y-40007400D01*
G37*
G36*
X135235377Y-40007398D02*
G01*
X134879777Y-40007398D01*
X134481366Y-38991398D01*
X133802755Y-38991398D01*
X134324171Y-37670599D01*
X135235377Y-40007398D01*
G37*
G36*
X139265202Y-98255018D02*
G01*
X139229364Y-98253571D01*
X139194086Y-98251160D01*
X139159367Y-98247785D01*
X139125207Y-98243445D01*
X139091606Y-98238140D01*
X139058565Y-98231871D01*
X139026083Y-98224638D01*
X138994160Y-98216441D01*
X138962796Y-98207278D01*
X138931992Y-98197152D01*
X138901747Y-98186061D01*
X138872061Y-98174006D01*
X138842934Y-98160987D01*
X138814367Y-98147003D01*
X138786359Y-98132055D01*
X138759017Y-98116247D01*
X138732459Y-98099684D01*
X138706684Y-98082366D01*
X138681691Y-98064293D01*
X138657482Y-98045466D01*
X138634056Y-98025884D01*
X138611413Y-98005547D01*
X138589552Y-97984455D01*
X138568475Y-97962609D01*
X138548179Y-97940008D01*
X138528667Y-97916652D01*
X138509937Y-97892541D01*
X138491989Y-97867676D01*
X138474824Y-97842056D01*
X138458441Y-97815681D01*
X138442840Y-97788552D01*
X138428110Y-97760815D01*
X138414330Y-97732616D01*
X138401501Y-97703956D01*
X138389621Y-97674835D01*
X138378692Y-97645253D01*
X138368713Y-97615209D01*
X138359685Y-97584704D01*
X138351607Y-97553738D01*
X138344479Y-97522311D01*
X138338301Y-97490422D01*
X138333074Y-97458072D01*
X138328797Y-97425261D01*
X138325470Y-97391988D01*
X138323094Y-97358254D01*
X138321669Y-97324059D01*
X138321193Y-97289403D01*
X138321459Y-97264936D01*
X138322256Y-97240734D01*
X138322335Y-97239309D01*
X138704051Y-97239309D01*
X138704694Y-97269828D01*
X138706623Y-97299663D01*
X138709837Y-97328812D01*
X138714337Y-97357276D01*
X138720123Y-97385056D01*
X138727195Y-97412150D01*
X138735553Y-97438560D01*
X138745197Y-97464284D01*
X138756127Y-97489324D01*
X138768343Y-97513679D01*
X138781846Y-97537349D01*
X138796635Y-97560335D01*
X138812710Y-97582635D01*
X138830071Y-97604251D01*
X138848719Y-97625182D01*
X138868654Y-97645428D01*
X138889632Y-97664709D01*
X138911421Y-97682746D01*
X138934021Y-97699539D01*
X138957432Y-97715089D01*
X138981653Y-97729394D01*
X139006686Y-97742455D01*
X139032529Y-97754273D01*
X139059183Y-97764846D01*
X139086648Y-97774176D01*
X139114923Y-97782261D01*
X139144009Y-97789103D01*
X139173906Y-97794701D01*
X139204613Y-97799055D01*
X139236131Y-97802165D01*
X139268459Y-97804031D01*
X139301599Y-97804652D01*
X139334740Y-97804031D01*
X139367070Y-97802165D01*
X139398588Y-97799055D01*
X139429296Y-97794701D01*
X139459192Y-97789103D01*
X139488277Y-97782261D01*
X139516552Y-97774176D01*
X139544016Y-97764846D01*
X139570669Y-97754273D01*
X139596512Y-97742455D01*
X139621545Y-97729394D01*
X139645767Y-97715089D01*
X139669180Y-97699539D01*
X139691782Y-97682746D01*
X139713574Y-97664709D01*
X139734557Y-97645428D01*
X139754487Y-97625182D01*
X139773131Y-97604251D01*
X139790490Y-97582635D01*
X139806563Y-97560335D01*
X139821350Y-97537349D01*
X139834851Y-97513679D01*
X139847067Y-97489324D01*
X139857997Y-97464284D01*
X139867641Y-97438560D01*
X139876000Y-97412150D01*
X139883072Y-97385056D01*
X139888859Y-97357276D01*
X139893359Y-97328812D01*
X139896574Y-97299663D01*
X139898503Y-97269828D01*
X139899146Y-97239309D01*
X139898503Y-97208783D01*
X139896574Y-97178928D01*
X139893359Y-97149744D01*
X139888859Y-97121230D01*
X139883072Y-97093388D01*
X139876000Y-97066217D01*
X139867641Y-97039717D01*
X139857997Y-97013888D01*
X139847067Y-96988729D01*
X139834851Y-96964242D01*
X139821350Y-96940425D01*
X139806563Y-96917279D01*
X139790490Y-96894805D01*
X139773131Y-96873000D01*
X139754487Y-96851867D01*
X139734557Y-96831405D01*
X139713574Y-96811906D01*
X139691782Y-96793666D01*
X139669180Y-96776683D01*
X139645767Y-96760959D01*
X139621545Y-96746492D01*
X139596512Y-96733283D01*
X139570669Y-96721333D01*
X139544016Y-96710640D01*
X139516552Y-96701205D01*
X139488277Y-96693028D01*
X139459192Y-96686109D01*
X139429296Y-96680448D01*
X139398588Y-96676045D01*
X139367070Y-96672900D01*
X139334740Y-96671013D01*
X139301599Y-96670384D01*
X139268459Y-96671013D01*
X139236131Y-96672900D01*
X139204613Y-96676045D01*
X139173906Y-96680448D01*
X139144009Y-96686109D01*
X139114923Y-96693028D01*
X139086648Y-96701205D01*
X139059183Y-96710640D01*
X139032529Y-96721333D01*
X139006686Y-96733283D01*
X138981653Y-96746492D01*
X138957432Y-96760959D01*
X138934021Y-96776683D01*
X138911421Y-96793666D01*
X138889632Y-96811906D01*
X138868654Y-96831405D01*
X138848719Y-96851867D01*
X138830071Y-96873000D01*
X138812710Y-96894805D01*
X138796635Y-96917279D01*
X138781846Y-96940425D01*
X138768343Y-96964242D01*
X138756127Y-96988729D01*
X138745197Y-97013888D01*
X138735553Y-97039717D01*
X138727195Y-97066217D01*
X138720123Y-97093388D01*
X138714337Y-97121230D01*
X138709837Y-97149744D01*
X138706623Y-97178928D01*
X138704694Y-97208783D01*
X138704051Y-97239309D01*
X138322335Y-97239309D01*
X138323583Y-97216798D01*
X138325442Y-97193128D01*
X138327832Y-97169724D01*
X138330753Y-97146585D01*
X138334205Y-97123712D01*
X138338189Y-97101104D01*
X138342703Y-97078762D01*
X138347748Y-97056686D01*
X138353325Y-97034875D01*
X138359432Y-97013329D01*
X138366071Y-96992049D01*
X138373241Y-96971035D01*
X138380942Y-96950286D01*
X138389174Y-96929803D01*
X138397937Y-96909655D01*
X138407232Y-96889912D01*
X138417058Y-96870575D01*
X138427415Y-96851643D01*
X138438303Y-96833117D01*
X138449723Y-96814995D01*
X138461674Y-96797280D01*
X138474156Y-96779969D01*
X138487169Y-96763064D01*
X138500713Y-96746564D01*
X138514788Y-96730469D01*
X138529394Y-96714780D01*
X138544531Y-96699496D01*
X138560199Y-96684617D01*
X138576398Y-96670144D01*
X138593128Y-96656076D01*
X138346244Y-96656076D01*
X138346244Y-96230275D01*
X140256954Y-96230275D01*
X140256954Y-96677541D01*
X140024384Y-96677541D01*
X140039800Y-96692014D01*
X140054740Y-96706809D01*
X140069205Y-96721925D01*
X140083196Y-96737363D01*
X140096711Y-96753122D01*
X140109751Y-96769203D01*
X140122316Y-96785605D01*
X140134406Y-96802329D01*
X140146021Y-96819374D01*
X140157161Y-96836741D01*
X140167826Y-96854430D01*
X140178016Y-96872439D01*
X140187730Y-96890770D01*
X140196970Y-96909423D01*
X140205734Y-96928397D01*
X140214024Y-96947693D01*
X140221821Y-96967267D01*
X140229116Y-96987079D01*
X140235908Y-97007129D01*
X140242198Y-97027416D01*
X140247984Y-97047942D01*
X140253266Y-97068704D01*
X140258046Y-97089705D01*
X140262323Y-97110943D01*
X140266097Y-97132419D01*
X140269368Y-97154132D01*
X140272135Y-97176083D01*
X140274400Y-97198272D01*
X140276161Y-97220698D01*
X140277419Y-97243362D01*
X140278174Y-97266264D01*
X140278425Y-97289403D01*
X140277950Y-97324059D01*
X140276524Y-97358254D01*
X140274148Y-97391988D01*
X140270822Y-97425261D01*
X140266545Y-97458072D01*
X140261317Y-97490422D01*
X140255139Y-97522311D01*
X140248010Y-97553738D01*
X140239932Y-97584704D01*
X140230902Y-97615209D01*
X140220922Y-97645253D01*
X140209992Y-97674835D01*
X140198111Y-97703956D01*
X140185280Y-97732616D01*
X140171498Y-97760815D01*
X140156766Y-97788552D01*
X140141174Y-97815681D01*
X140124814Y-97842056D01*
X140107684Y-97867676D01*
X140089786Y-97892541D01*
X140071120Y-97916652D01*
X140051684Y-97940008D01*
X140031480Y-97962609D01*
X140010507Y-97984455D01*
X139988766Y-98005547D01*
X139966256Y-98025884D01*
X139942977Y-98045466D01*
X139918930Y-98064293D01*
X139894114Y-98082366D01*
X139868530Y-98099684D01*
X139842177Y-98116247D01*
X139815056Y-98132055D01*
X139787261Y-98147003D01*
X139758894Y-98160987D01*
X139729955Y-98174006D01*
X139700442Y-98186061D01*
X139670357Y-98197152D01*
X139639699Y-98207278D01*
X139608468Y-98216441D01*
X139576664Y-98224638D01*
X139544287Y-98231871D01*
X139511337Y-98238140D01*
X139477814Y-98243445D01*
X139443717Y-98247785D01*
X139409048Y-98251160D01*
X139373805Y-98253571D01*
X139337988Y-98255018D01*
X139301599Y-98255500D01*
X139265202Y-98255018D01*
G37*
G36*
X135768777Y-40007400D02*
G01*
X135410940Y-40007400D01*
X134143176Y-36756194D01*
X134501012Y-36756194D01*
X135768777Y-40007400D01*
G37*
G36*
X134879778Y-40007411D02*
G01*
X134701904Y-40007411D01*
X134562272Y-39649311D01*
X134740125Y-39649270D01*
X134879778Y-40007411D01*
G37*
G36*
X140277251Y-94597505D02*
G01*
X140273729Y-94654895D01*
X140267859Y-94709992D01*
X140259640Y-94762797D01*
X140249073Y-94813310D01*
X140242910Y-94837707D01*
X140236159Y-94861531D01*
X140228821Y-94884781D01*
X140220896Y-94907459D01*
X140212384Y-94929564D01*
X140203285Y-94951095D01*
X140193598Y-94972054D01*
X140183325Y-94992439D01*
X140172465Y-95012252D01*
X140161018Y-95031491D01*
X140148984Y-95050158D01*
X140136362Y-95068251D01*
X140123154Y-95085771D01*
X140109359Y-95102718D01*
X140094976Y-95119092D01*
X140080007Y-95134894D01*
X140064450Y-95150122D01*
X140048307Y-95164777D01*
X140031576Y-95178859D01*
X140014259Y-95192367D01*
X139996354Y-95205303D01*
X139977862Y-95217666D01*
X140256954Y-95217666D01*
X140256954Y-95643464D01*
X138346244Y-95643464D01*
X138346244Y-95196194D01*
X139272970Y-95196194D01*
X139308228Y-95195621D01*
X139342438Y-95193902D01*
X139375600Y-95191037D01*
X139407713Y-95187026D01*
X139438777Y-95181868D01*
X139468793Y-95175565D01*
X139497761Y-95168115D01*
X139525681Y-95159520D01*
X139552552Y-95149778D01*
X139578375Y-95138890D01*
X139603150Y-95126856D01*
X139626876Y-95113676D01*
X139649555Y-95099350D01*
X139671185Y-95083878D01*
X139691768Y-95067259D01*
X139711302Y-95049495D01*
X139729714Y-95030710D01*
X139746939Y-95011030D01*
X139762976Y-94990456D01*
X139777826Y-94968987D01*
X139791488Y-94946623D01*
X139803963Y-94923365D01*
X139815250Y-94899213D01*
X139825349Y-94874165D01*
X139834260Y-94848224D01*
X139841984Y-94821387D01*
X139848519Y-94793657D01*
X139853866Y-94765032D01*
X139858025Y-94735512D01*
X139860996Y-94705098D01*
X139862779Y-94673790D01*
X139863373Y-94641587D01*
X139863205Y-94629790D01*
X139862700Y-94617658D01*
X139861860Y-94605191D01*
X139860684Y-94592388D01*
X139859174Y-94579249D01*
X139857329Y-94565776D01*
X139855150Y-94551967D01*
X139852637Y-94537824D01*
X140278425Y-94537824D01*
X140277251Y-94597505D01*
G37*
G36*
X139455452Y-99182236D02*
G01*
X140256954Y-98384310D01*
X140256954Y-98921031D01*
X139398221Y-99847767D01*
X141001211Y-99847767D01*
X141001211Y-100295033D01*
X138346244Y-100295033D01*
X138346244Y-99847767D01*
X138850761Y-99847767D01*
X139165625Y-99515000D01*
X138346244Y-98853048D01*
X138346244Y-98309169D01*
X139455452Y-99182236D01*
G37*
G36*
X133012899Y-39649311D02*
G01*
X132873266Y-40007411D01*
X132695393Y-40007411D01*
X132835046Y-39649270D01*
X133012899Y-39649311D01*
G37*
D11*
%TO.C,SWL5*%
X121015625Y-56350000D02*
X121015625Y-56850000D01*
X121015625Y-60450000D02*
X121015625Y-61050000D01*
X121015625Y-61050000D02*
X125515625Y-61050000D01*
X125515625Y-56350000D02*
X121015625Y-56350000D01*
X125515625Y-57050000D02*
X125515625Y-56350000D01*
X126015625Y-61550000D02*
X126015625Y-62550000D01*
X126515625Y-63050000D02*
X126015625Y-62550000D01*
X129515625Y-58550000D02*
X127015625Y-58550000D01*
X129515625Y-63050000D02*
X126515625Y-63050000D01*
X130015625Y-59050000D02*
X129515625Y-58550000D01*
X130015625Y-62550000D02*
X129515625Y-63050000D01*
X126015625Y-61550000D02*
G75*
G03*
X125515625Y-61050000I-500001J-1D01*
G01*
X125515625Y-57050000D02*
G75*
G03*
X127015625Y-58550000I1500001J1D01*
G01*
%TO.C,SWL13*%
X83015625Y-83425000D02*
X83015625Y-83925000D01*
X83015625Y-87525000D02*
X83015625Y-88125000D01*
X83015625Y-88125000D02*
X87515625Y-88125000D01*
X87515625Y-83425000D02*
X83015625Y-83425000D01*
X87515625Y-84125000D02*
X87515625Y-83425000D01*
X88015625Y-88625000D02*
X88015625Y-89625000D01*
X88515625Y-90125000D02*
X88015625Y-89625000D01*
X91515625Y-85625000D02*
X89015625Y-85625000D01*
X91515625Y-90125000D02*
X88515625Y-90125000D01*
X92015625Y-86125000D02*
X91515625Y-85625000D01*
X92015625Y-89625000D02*
X91515625Y-90125000D01*
X88015625Y-88625000D02*
G75*
G03*
X87515625Y-88125000I-500001J-1D01*
G01*
X87515625Y-84125000D02*
G75*
G03*
X89015625Y-85625000I1500001J1D01*
G01*
%TO.C,SWL9*%
X102015625Y-70600000D02*
X102015625Y-71100000D01*
X102015625Y-74700000D02*
X102015625Y-75300000D01*
X102015625Y-75300000D02*
X106515625Y-75300000D01*
X106515625Y-70600000D02*
X102015625Y-70600000D01*
X106515625Y-71300000D02*
X106515625Y-70600000D01*
X107015625Y-75800000D02*
X107015625Y-76800000D01*
X107515625Y-77300000D02*
X107015625Y-76800000D01*
X110515625Y-72800000D02*
X108015625Y-72800000D01*
X110515625Y-77300000D02*
X107515625Y-77300000D01*
X111015625Y-73300000D02*
X110515625Y-72800000D01*
X111015625Y-76800000D02*
X110515625Y-77300000D01*
X107015625Y-75800000D02*
G75*
G03*
X106515625Y-75300000I-500001J-1D01*
G01*
X106515625Y-71300000D02*
G75*
G03*
X108015625Y-72800000I1500001J1D01*
G01*
%TO.C,SWL18*%
X141628447Y-121524038D02*
X141378447Y-121957051D01*
X139578447Y-125074742D02*
X139278447Y-125594358D01*
X139278447Y-125594358D02*
X143175561Y-127844358D01*
X145525561Y-123774038D02*
X141628447Y-121524038D01*
X145175561Y-124380256D02*
X145525561Y-123774038D01*
X143358574Y-128527370D02*
X142858574Y-129393396D01*
X143041587Y-130076408D02*
X142858574Y-129393396D01*
X147889663Y-127679294D02*
X145724600Y-126429294D01*
X145639663Y-131576408D02*
X143041587Y-130076408D01*
X148072676Y-128362307D02*
X147889663Y-127679294D01*
X146322676Y-131393396D02*
X145639663Y-131576408D01*
X143358573Y-128527370D02*
G75*
G03*
X143175561Y-127844359I-433013J249999D01*
G01*
X145175562Y-124380257D02*
G75*
G03*
X145724600Y-126429294I1299039J-749999D01*
G01*
%TO.C,SWL1*%
X45015625Y-67275000D02*
X45015625Y-67775000D01*
X45015625Y-71375000D02*
X45015625Y-71975000D01*
X45015625Y-71975000D02*
X49515625Y-71975000D01*
X49515625Y-67275000D02*
X45015625Y-67275000D01*
X49515625Y-67975000D02*
X49515625Y-67275000D01*
X50015625Y-72475000D02*
X50015625Y-73475000D01*
X50515625Y-73975000D02*
X50015625Y-73475000D01*
X53515625Y-69475000D02*
X51015625Y-69475000D01*
X53515625Y-73975000D02*
X50515625Y-73975000D01*
X54015625Y-69975000D02*
X53515625Y-69475000D01*
X54015625Y-73475000D02*
X53515625Y-73975000D01*
X50015625Y-72475000D02*
G75*
G03*
X49515625Y-71975000I-500001J-1D01*
G01*
X49515625Y-67975000D02*
G75*
G03*
X51015625Y-69475000I1500001J1D01*
G01*
%TO.C,SWL17*%
X122290916Y-115287155D02*
X122161506Y-115770118D01*
X121229758Y-119247451D02*
X121074466Y-119827007D01*
X121074466Y-119827007D02*
X125421132Y-120991693D01*
X126637582Y-116451841D02*
X122290916Y-115287155D01*
X126456409Y-117127989D02*
X126637582Y-116451841D01*
X125774686Y-121604065D02*
X125515867Y-122569991D01*
X125869420Y-123182363D02*
X125515867Y-122569991D01*
X129931883Y-119612154D02*
X127517069Y-118965107D01*
X128767198Y-123958820D02*
X125869420Y-123182363D01*
X130285437Y-120224527D02*
X129931883Y-119612154D01*
X129379570Y-123605267D02*
X128767198Y-123958820D01*
X125774685Y-121604065D02*
G75*
G03*
X125421132Y-120991693I-482963J129409D01*
G01*
X126456409Y-117127989D02*
G75*
G03*
X127517069Y-118965106I1448891J-388227D01*
G01*
%TO.C,SWL7*%
X64015625Y-70600000D02*
X64015625Y-71100000D01*
X64015625Y-74700000D02*
X64015625Y-75300000D01*
X64015625Y-75300000D02*
X68515625Y-75300000D01*
X68515625Y-70600000D02*
X64015625Y-70600000D01*
X68515625Y-71300000D02*
X68515625Y-70600000D01*
X69015625Y-75800000D02*
X69015625Y-76800000D01*
X69515625Y-77300000D02*
X69015625Y-76800000D01*
X72515625Y-72800000D02*
X70015625Y-72800000D01*
X72515625Y-77300000D02*
X69515625Y-77300000D01*
X73015625Y-73300000D02*
X72515625Y-72800000D01*
X73015625Y-76800000D02*
X72515625Y-77300000D01*
X69015625Y-75800000D02*
G75*
G03*
X68515625Y-75300000I-500001J-1D01*
G01*
X68515625Y-71300000D02*
G75*
G03*
X70015625Y-72800000I1500001J1D01*
G01*
%TO.C,SWL15*%
X121015625Y-94350000D02*
X121015625Y-94850000D01*
X121015625Y-98450000D02*
X121015625Y-99050000D01*
X121015625Y-99050000D02*
X125515625Y-99050000D01*
X125515625Y-94350000D02*
X121015625Y-94350000D01*
X125515625Y-95050000D02*
X125515625Y-94350000D01*
X126015625Y-99550000D02*
X126015625Y-100550000D01*
X126515625Y-101050000D02*
X126015625Y-100550000D01*
X129515625Y-96550000D02*
X127015625Y-96550000D01*
X129515625Y-101050000D02*
X126515625Y-101050000D01*
X130015625Y-97050000D02*
X129515625Y-96550000D01*
X130015625Y-100550000D02*
X129515625Y-101050000D01*
X126015625Y-99550000D02*
G75*
G03*
X125515625Y-99050000I-500001J-1D01*
G01*
X125515625Y-95050000D02*
G75*
G03*
X127015625Y-96550000I1500001J1D01*
G01*
%TO.C,SWL4*%
X102015625Y-51600000D02*
X102015625Y-52100000D01*
X102015625Y-55700000D02*
X102015625Y-56300000D01*
X102015625Y-56300000D02*
X106515625Y-56300000D01*
X106515625Y-51600000D02*
X102015625Y-51600000D01*
X106515625Y-52300000D02*
X106515625Y-51600000D01*
X107015625Y-56800000D02*
X107015625Y-57800000D01*
X107515625Y-58300000D02*
X107015625Y-57800000D01*
X110515625Y-53800000D02*
X108015625Y-53800000D01*
X110515625Y-58300000D02*
X107515625Y-58300000D01*
X111015625Y-54300000D02*
X110515625Y-53800000D01*
X111015625Y-57800000D02*
X110515625Y-58300000D01*
X107015625Y-56800000D02*
G75*
G03*
X106515625Y-56300000I-500001J-1D01*
G01*
X106515625Y-52300000D02*
G75*
G03*
X108015625Y-53800000I1500001J1D01*
G01*
%TO.C,SWL14*%
X102015625Y-89600000D02*
X102015625Y-90100000D01*
X102015625Y-93700000D02*
X102015625Y-94300000D01*
X102015625Y-94300000D02*
X106515625Y-94300000D01*
X106515625Y-89600000D02*
X102015625Y-89600000D01*
X106515625Y-90300000D02*
X106515625Y-89600000D01*
X107015625Y-94800000D02*
X107015625Y-95800000D01*
X107515625Y-96300000D02*
X107015625Y-95800000D01*
X110515625Y-91800000D02*
X108015625Y-91800000D01*
X110515625Y-96300000D02*
X107515625Y-96300000D01*
X111015625Y-92300000D02*
X110515625Y-91800000D01*
X111015625Y-95800000D02*
X110515625Y-96300000D01*
X107015625Y-94800000D02*
G75*
G03*
X106515625Y-94300000I-500001J-1D01*
G01*
X106515625Y-90300000D02*
G75*
G03*
X108015625Y-91800000I1500001J1D01*
G01*
%TO.C,SWL8*%
X83015625Y-64425000D02*
X83015625Y-64925000D01*
X83015625Y-68525000D02*
X83015625Y-69125000D01*
X83015625Y-69125000D02*
X87515625Y-69125000D01*
X87515625Y-64425000D02*
X83015625Y-64425000D01*
X87515625Y-65125000D02*
X87515625Y-64425000D01*
X88015625Y-69625000D02*
X88015625Y-70625000D01*
X88515625Y-71125000D02*
X88015625Y-70625000D01*
X91515625Y-66625000D02*
X89015625Y-66625000D01*
X91515625Y-71125000D02*
X88515625Y-71125000D01*
X92015625Y-67125000D02*
X91515625Y-66625000D01*
X92015625Y-70625000D02*
X91515625Y-71125000D01*
X88015625Y-69625000D02*
G75*
G03*
X87515625Y-69125000I-500001J-1D01*
G01*
X87515625Y-65125000D02*
G75*
G03*
X89015625Y-66625000I1500001J1D01*
G01*
%TO.C,SWL10*%
X121015625Y-75350000D02*
X121015625Y-75850000D01*
X121015625Y-79450000D02*
X121015625Y-80050000D01*
X121015625Y-80050000D02*
X125515625Y-80050000D01*
X125515625Y-75350000D02*
X121015625Y-75350000D01*
X125515625Y-76050000D02*
X125515625Y-75350000D01*
X126015625Y-80550000D02*
X126015625Y-81550000D01*
X126515625Y-82050000D02*
X126015625Y-81550000D01*
X129515625Y-77550000D02*
X127015625Y-77550000D01*
X129515625Y-82050000D02*
X126515625Y-82050000D01*
X130015625Y-78050000D02*
X129515625Y-77550000D01*
X130015625Y-81550000D02*
X129515625Y-82050000D01*
X126015625Y-80550000D02*
G75*
G03*
X125515625Y-80050000I-500001J-1D01*
G01*
X125515625Y-76050000D02*
G75*
G03*
X127015625Y-77550000I1500001J1D01*
G01*
%TO.C,SWL11*%
X45015625Y-105275000D02*
X45015625Y-105775000D01*
X45015625Y-109375000D02*
X45015625Y-109975000D01*
X45015625Y-109975000D02*
X49515625Y-109975000D01*
X49515625Y-105275000D02*
X45015625Y-105275000D01*
X49515625Y-105975000D02*
X49515625Y-105275000D01*
X50015625Y-110475000D02*
X50015625Y-111475000D01*
X50515625Y-111975000D02*
X50015625Y-111475000D01*
X53515625Y-107475000D02*
X51015625Y-107475000D01*
X53515625Y-111975000D02*
X50515625Y-111975000D01*
X54015625Y-107975000D02*
X53515625Y-107475000D01*
X54015625Y-111475000D02*
X53515625Y-111975000D01*
X50015625Y-110475000D02*
G75*
G03*
X49515625Y-109975000I-500001J-1D01*
G01*
X49515625Y-105975000D02*
G75*
G03*
X51015625Y-107475000I1500001J1D01*
G01*
%TO.C,SWL3*%
X83015625Y-45425000D02*
X83015625Y-45925000D01*
X83015625Y-49525000D02*
X83015625Y-50125000D01*
X83015625Y-50125000D02*
X87515625Y-50125000D01*
X87515625Y-45425000D02*
X83015625Y-45425000D01*
X87515625Y-46125000D02*
X87515625Y-45425000D01*
X88015625Y-50625000D02*
X88015625Y-51625000D01*
X88515625Y-52125000D02*
X88015625Y-51625000D01*
X91515625Y-47625000D02*
X89015625Y-47625000D01*
X91515625Y-52125000D02*
X88515625Y-52125000D01*
X92015625Y-48125000D02*
X91515625Y-47625000D01*
X92015625Y-51625000D02*
X91515625Y-52125000D01*
X88015625Y-50625000D02*
G75*
G03*
X87515625Y-50125000I-500001J-1D01*
G01*
X87515625Y-46125000D02*
G75*
G03*
X89015625Y-47625000I1500001J1D01*
G01*
%TO.C,SWL6*%
X45015625Y-86275000D02*
X45015625Y-86775000D01*
X45015625Y-90375000D02*
X45015625Y-90975000D01*
X45015625Y-90975000D02*
X49515625Y-90975000D01*
X49515625Y-86275000D02*
X45015625Y-86275000D01*
X49515625Y-86975000D02*
X49515625Y-86275000D01*
X50015625Y-91475000D02*
X50015625Y-92475000D01*
X50515625Y-92975000D02*
X50015625Y-92475000D01*
X53515625Y-88475000D02*
X51015625Y-88475000D01*
X53515625Y-92975000D02*
X50515625Y-92975000D01*
X54015625Y-88975000D02*
X53515625Y-88475000D01*
X54015625Y-92475000D02*
X53515625Y-92975000D01*
X50015625Y-91475000D02*
G75*
G03*
X49515625Y-90975000I-500001J-1D01*
G01*
X49515625Y-86975000D02*
G75*
G03*
X51015625Y-88475000I1500001J1D01*
G01*
%TO.C,SWL12*%
X64015625Y-89600000D02*
X64015625Y-90100000D01*
X64015625Y-93700000D02*
X64015625Y-94300000D01*
X64015625Y-94300000D02*
X68515625Y-94300000D01*
X68515625Y-89600000D02*
X64015625Y-89600000D01*
X68515625Y-90300000D02*
X68515625Y-89600000D01*
X69015625Y-94800000D02*
X69015625Y-95800000D01*
X69515625Y-96300000D02*
X69015625Y-95800000D01*
X72515625Y-91800000D02*
X70015625Y-91800000D01*
X72515625Y-96300000D02*
X69515625Y-96300000D01*
X73015625Y-92300000D02*
X72515625Y-91800000D01*
X73015625Y-95800000D02*
X72515625Y-96300000D01*
X69015625Y-94800000D02*
G75*
G03*
X68515625Y-94300000I-500001J-1D01*
G01*
X68515625Y-90300000D02*
G75*
G03*
X70015625Y-91800000I1500001J1D01*
G01*
%TO.C,SWL2*%
X64015625Y-51600000D02*
X64015625Y-52100000D01*
X64015625Y-55700000D02*
X64015625Y-56300000D01*
X64015625Y-56300000D02*
X68515625Y-56300000D01*
X68515625Y-51600000D02*
X64015625Y-51600000D01*
X68515625Y-52300000D02*
X68515625Y-51600000D01*
X69015625Y-56800000D02*
X69015625Y-57800000D01*
X69515625Y-58300000D02*
X69015625Y-57800000D01*
X72515625Y-53800000D02*
X70015625Y-53800000D01*
X72515625Y-58300000D02*
X69515625Y-58300000D01*
X73015625Y-54300000D02*
X72515625Y-53800000D01*
X73015625Y-57800000D02*
X72515625Y-58300000D01*
X69015625Y-56800000D02*
G75*
G03*
X68515625Y-56300000I-500001J-1D01*
G01*
X68515625Y-52300000D02*
G75*
G03*
X70015625Y-53800000I1500001J1D01*
G01*
%TO.C,SWL16*%
X102015625Y-114300000D02*
X102015625Y-114800000D01*
X102015625Y-118400000D02*
X102015625Y-119000000D01*
X102015625Y-119000000D02*
X106515625Y-119000000D01*
X106515625Y-114300000D02*
X102015625Y-114300000D01*
X106515625Y-115000000D02*
X106515625Y-114300000D01*
X107015625Y-119500000D02*
X107015625Y-120500000D01*
X107515625Y-121000000D02*
X107015625Y-120500000D01*
X110515625Y-116500000D02*
X108015625Y-116500000D01*
X110515625Y-121000000D02*
X107515625Y-121000000D01*
X111015625Y-117000000D02*
X110515625Y-116500000D01*
X111015625Y-120500000D02*
X110515625Y-121000000D01*
X107015625Y-119500000D02*
G75*
G03*
X106515625Y-119000000I-500001J-1D01*
G01*
X106515625Y-115000000D02*
G75*
G03*
X108015625Y-116500000I1500001J1D01*
G01*
%TO.C,DL18*%
X144890625Y-113791987D02*
X143834407Y-114221410D01*
X144284407Y-113441987D02*
X145496843Y-114141987D01*
X145046843Y-114921410D02*
X144890625Y-113791987D01*
X143834407Y-114221410D02*
X145046843Y-114921410D01*
%TO.C,DL13*%
X81940625Y-75250000D02*
X81240625Y-76150000D01*
X81240625Y-75250000D02*
X82640625Y-75250000D01*
X82640625Y-76150000D02*
X81940625Y-75250000D01*
X81240625Y-76150000D02*
X82640625Y-76150000D01*
%TO.C,DL3*%
X81940625Y-37250000D02*
X81240625Y-38150000D01*
X81240625Y-37250000D02*
X82640625Y-37250000D01*
X82640625Y-38150000D02*
X81940625Y-37250000D01*
X81240625Y-38150000D02*
X82640625Y-38150000D01*
%TO.C,DL2*%
X62940625Y-43425000D02*
X62240625Y-44325000D01*
X62240625Y-43425000D02*
X63640625Y-43425000D01*
X63640625Y-44325000D02*
X62940625Y-43425000D01*
X62240625Y-44325000D02*
X63640625Y-44325000D01*
%TO.C,DL9*%
X100940625Y-62425000D02*
X100240625Y-63325000D01*
X100240625Y-62425000D02*
X101640625Y-62425000D01*
X101640625Y-63325000D02*
X100940625Y-62425000D01*
X100240625Y-63325000D02*
X101640625Y-63325000D01*
%TO.C,DL5*%
X119940625Y-48175000D02*
X119240625Y-49075000D01*
X119240625Y-48175000D02*
X120640625Y-48175000D01*
X120640625Y-49075000D02*
X119940625Y-48175000D01*
X119240625Y-49075000D02*
X120640625Y-49075000D01*
%TO.C,DL11*%
X43921875Y-97100000D02*
X43221875Y-98000000D01*
X43221875Y-97100000D02*
X44621875Y-97100000D01*
X44621875Y-98000000D02*
X43921875Y-97100000D01*
X43221875Y-98000000D02*
X44621875Y-98000000D01*
%TO.C,DL17*%
X123395035Y-107092037D02*
X122485949Y-107780197D01*
X122718886Y-106910864D02*
X124071183Y-107273210D01*
X123838245Y-108142544D02*
X123395035Y-107092037D01*
X122485949Y-107780197D02*
X123838245Y-108142544D01*
%TO.C,DL14*%
X100940625Y-81425000D02*
X100240625Y-82325000D01*
X100240625Y-81425000D02*
X101640625Y-81425000D01*
X101640625Y-82325000D02*
X100940625Y-81425000D01*
X100240625Y-82325000D02*
X101640625Y-82325000D01*
%TO.C,DL1*%
X43921875Y-59100000D02*
X43221875Y-60000000D01*
X43221875Y-59100000D02*
X44621875Y-59100000D01*
X44621875Y-60000000D02*
X43921875Y-59100000D01*
X43221875Y-60000000D02*
X44621875Y-60000000D01*
%TO.C,DL15*%
X119940625Y-86175000D02*
X119240625Y-87075000D01*
X119240625Y-86175000D02*
X120640625Y-86175000D01*
X120640625Y-87075000D02*
X119940625Y-86175000D01*
X119240625Y-87075000D02*
X120640625Y-87075000D01*
%TO.C,DL6*%
X43940625Y-78100000D02*
X43240625Y-79000000D01*
X43240625Y-78100000D02*
X44640625Y-78100000D01*
X44640625Y-79000000D02*
X43940625Y-78100000D01*
X43240625Y-79000000D02*
X44640625Y-79000000D01*
%TO.C,DL4*%
X100940625Y-43425000D02*
X100240625Y-44325000D01*
X100240625Y-43425000D02*
X101640625Y-43425000D01*
X101640625Y-44325000D02*
X100940625Y-43425000D01*
X100240625Y-44325000D02*
X101640625Y-44325000D01*
%TO.C,DL7*%
X62940625Y-62425000D02*
X62240625Y-63325000D01*
X62240625Y-62425000D02*
X63640625Y-62425000D01*
X63640625Y-63325000D02*
X62940625Y-62425000D01*
X62240625Y-63325000D02*
X63640625Y-63325000D01*
%TO.C,DL10*%
X119940625Y-67175000D02*
X119240625Y-68075000D01*
X119240625Y-67175000D02*
X120640625Y-67175000D01*
X120640625Y-68075000D02*
X119940625Y-67175000D01*
X119240625Y-68075000D02*
X120640625Y-68075000D01*
%TO.C,DL12*%
X62940625Y-81425000D02*
X62240625Y-82325000D01*
X62240625Y-81425000D02*
X63640625Y-81425000D01*
X63640625Y-82325000D02*
X62940625Y-81425000D01*
X62240625Y-82325000D02*
X63640625Y-82325000D01*
%TO.C,DL16*%
X100940625Y-106265625D02*
X100240625Y-107165625D01*
X100240625Y-106265625D02*
X101640625Y-106265625D01*
X101640625Y-107165625D02*
X100940625Y-106265625D01*
X100240625Y-107165625D02*
X101640625Y-107165625D01*
%TO.C,DL8*%
X81940625Y-56250000D02*
X81240625Y-57150000D01*
X81240625Y-56250000D02*
X82640625Y-56250000D01*
X82640625Y-57150000D02*
X81940625Y-56250000D01*
X81240625Y-57150000D02*
X82640625Y-57150000D01*
%TD*%
%LPC*%
D12*
%TO.C,SWL5*%
X122515625Y-54850000D03*
D13*
X123015625Y-58600000D03*
D14*
X128015625Y-54850000D03*
D13*
X128015625Y-60800000D03*
D12*
X133515625Y-54850000D03*
D15*
X131290625Y-60800000D03*
X119740625Y-58600000D03*
%TD*%
D12*
%TO.C,SWL13*%
X84515625Y-81925000D03*
D13*
X85015625Y-85675000D03*
D14*
X90015625Y-81925000D03*
D13*
X90015625Y-87875000D03*
D12*
X95515625Y-81925000D03*
D15*
X93290625Y-87875000D03*
X81740625Y-85675000D03*
%TD*%
D12*
%TO.C,SWL9*%
X103515625Y-69100000D03*
D13*
X104015625Y-72850000D03*
D14*
X109015625Y-69100000D03*
D13*
X109015625Y-75050000D03*
D12*
X114515625Y-69100000D03*
D15*
X112290625Y-75050000D03*
X100740625Y-72850000D03*
%TD*%
D12*
%TO.C,SWL18*%
X143677485Y-120975000D03*
D13*
X142235498Y-124472595D03*
D14*
X148440625Y-123725000D03*
D13*
X145465625Y-128877851D03*
D12*
X153203765Y-126475000D03*
D16*
X148301858Y-130515351D03*
X139399265Y-122835095D03*
%TD*%
D12*
%TO.C,SWL1*%
X46515625Y-65775000D03*
D13*
X47015625Y-69525000D03*
D14*
X52015625Y-65775000D03*
D13*
X52015625Y-71725000D03*
D12*
X57515625Y-65775000D03*
D15*
X55290625Y-71725000D03*
X43740625Y-69525000D03*
%TD*%
D12*
%TO.C,SWL17*%
X124128033Y-114226495D03*
D13*
X123640424Y-117978127D03*
D14*
X129440625Y-115650000D03*
D13*
X127900652Y-121397259D03*
D12*
X134753217Y-117073505D03*
D17*
X131064059Y-122244891D03*
X120477017Y-117130494D03*
%TD*%
D12*
%TO.C,SWL7*%
X65515625Y-69100000D03*
D13*
X66015625Y-72850000D03*
D14*
X71015625Y-69100000D03*
D13*
X71015625Y-75050000D03*
D12*
X76515625Y-69100000D03*
D15*
X74290625Y-75050000D03*
X62740625Y-72850000D03*
%TD*%
D12*
%TO.C,SWL15*%
X122515625Y-92850000D03*
D13*
X123015625Y-96600000D03*
D14*
X128015625Y-92850000D03*
D13*
X128015625Y-98800000D03*
D12*
X133515625Y-92850000D03*
D15*
X131290625Y-98800000D03*
X119740625Y-96600000D03*
%TD*%
D12*
%TO.C,SWL4*%
X103515625Y-50100000D03*
D13*
X104015625Y-53850000D03*
D14*
X109015625Y-50100000D03*
D13*
X109015625Y-56050000D03*
D12*
X114515625Y-50100000D03*
D15*
X112290625Y-56050000D03*
X100740625Y-53850000D03*
%TD*%
D12*
%TO.C,SWL14*%
X103515625Y-88100000D03*
D13*
X104015625Y-91850000D03*
D14*
X109015625Y-88100000D03*
D13*
X109015625Y-94050000D03*
D12*
X114515625Y-88100000D03*
D15*
X112290625Y-94050000D03*
X100740625Y-91850000D03*
%TD*%
D12*
%TO.C,SWL8*%
X84515625Y-62925000D03*
D13*
X85015625Y-66675000D03*
D14*
X90015625Y-62925000D03*
D13*
X90015625Y-68875000D03*
D12*
X95515625Y-62925000D03*
D15*
X93290625Y-68875000D03*
X81740625Y-66675000D03*
%TD*%
D12*
%TO.C,SWL10*%
X122515625Y-73850000D03*
D13*
X123015625Y-77600000D03*
D14*
X128015625Y-73850000D03*
D13*
X128015625Y-79800000D03*
D12*
X133515625Y-73850000D03*
D15*
X131290625Y-79800000D03*
X119740625Y-77600000D03*
%TD*%
D12*
%TO.C,SWL11*%
X46515625Y-103775000D03*
D13*
X47015625Y-107525000D03*
D14*
X52015625Y-103775000D03*
D13*
X52015625Y-109725000D03*
D12*
X57515625Y-103775000D03*
D15*
X55290625Y-109725000D03*
X43740625Y-107525000D03*
%TD*%
D12*
%TO.C,SWL3*%
X84515625Y-43925000D03*
D13*
X85015625Y-47675000D03*
D14*
X90015625Y-43925000D03*
D13*
X90015625Y-49875000D03*
D12*
X95515625Y-43925000D03*
D15*
X93290625Y-49875000D03*
X81740625Y-47675000D03*
%TD*%
D12*
%TO.C,SWL6*%
X46515625Y-84775000D03*
D13*
X47015625Y-88525000D03*
D14*
X52015625Y-84775000D03*
D13*
X52015625Y-90725000D03*
D12*
X57515625Y-84775000D03*
D15*
X55290625Y-90725000D03*
X43740625Y-88525000D03*
%TD*%
D18*
%TO.C,RSW1*%
X126240625Y-38830000D03*
X121240625Y-38830000D03*
D19*
X120240625Y-41330000D03*
X127240625Y-41330000D03*
%TD*%
D20*
%TO.C,REF\u002A\u002A*%
X139512297Y-103739073D03*
%TD*%
D21*
%TO.C,U1*%
X40595625Y-53920000D03*
X43135625Y-53920000D03*
X45675625Y-53920000D03*
X48215625Y-53920000D03*
X50755625Y-53920000D03*
X53295625Y-53920000D03*
X55835625Y-53920000D03*
X55835625Y-37730000D03*
X53295625Y-37730000D03*
X50755625Y-37730000D03*
X48215625Y-37730000D03*
X45675625Y-37730000D03*
X43135625Y-37730000D03*
X40595625Y-37730000D03*
D22*
X39643625Y-47095000D03*
X39643625Y-44555000D03*
X42183625Y-47095000D03*
X42183625Y-44555000D03*
X47898625Y-50270000D03*
X45993625Y-50270000D03*
%TD*%
D20*
%TO.C,REF\u002A\u002A*%
X40522298Y-115278567D03*
%TD*%
%TO.C,REF\u002A\u002A*%
X139512298Y-38603567D03*
%TD*%
D12*
%TO.C,SWL12*%
X65515625Y-88100000D03*
D13*
X66015625Y-91850000D03*
D14*
X71015625Y-88100000D03*
D13*
X71015625Y-94050000D03*
D12*
X76515625Y-88100000D03*
D15*
X74290625Y-94050000D03*
X62740625Y-91850000D03*
%TD*%
D12*
%TO.C,SWL2*%
X65515625Y-50100000D03*
D13*
X66015625Y-53850000D03*
D14*
X71015625Y-50100000D03*
D13*
X71015625Y-56050000D03*
D12*
X76515625Y-50100000D03*
D15*
X74290625Y-56050000D03*
X62740625Y-53850000D03*
%TD*%
D20*
%TO.C,REF\u002A\u002A*%
X62262298Y-38603567D03*
%TD*%
D12*
%TO.C,SWL16*%
X103515625Y-112800000D03*
D13*
X104015625Y-116550000D03*
D14*
X109015625Y-112800000D03*
D13*
X109015625Y-118750000D03*
D12*
X114515625Y-112800000D03*
D15*
X112290625Y-118750000D03*
X100740625Y-116550000D03*
%TD*%
D23*
%TO.C,DL18*%
X145490625Y-112752757D03*
X143790625Y-115697243D03*
%TD*%
D24*
%TO.C,DL13*%
X81940625Y-74050000D03*
X81940625Y-77450000D03*
%TD*%
%TO.C,DL3*%
X81940625Y-36050000D03*
X81940625Y-39450000D03*
%TD*%
%TO.C,DL2*%
X62940625Y-42225000D03*
X62940625Y-45625000D03*
%TD*%
%TO.C,DL9*%
X100940625Y-61225000D03*
X100940625Y-64625000D03*
%TD*%
%TO.C,DL5*%
X119940625Y-46975000D03*
X119940625Y-50375000D03*
%TD*%
%TO.C,DL11*%
X43921875Y-95900000D03*
X43921875Y-99300000D03*
%TD*%
D25*
%TO.C,DL17*%
X123705617Y-105932926D03*
X122825633Y-109217074D03*
%TD*%
D24*
%TO.C,DL14*%
X100940625Y-80225000D03*
X100940625Y-83625000D03*
%TD*%
%TO.C,DL1*%
X43921875Y-57900000D03*
X43921875Y-61300000D03*
%TD*%
%TO.C,DL15*%
X119940625Y-84975000D03*
X119940625Y-88375000D03*
%TD*%
%TO.C,DL6*%
X43940625Y-76900000D03*
X43940625Y-80300000D03*
%TD*%
%TO.C,DL4*%
X100940625Y-42225000D03*
X100940625Y-45625000D03*
%TD*%
%TO.C,DL7*%
X62940625Y-61225000D03*
X62940625Y-64625000D03*
%TD*%
%TO.C,DL10*%
X119940625Y-65975000D03*
X119940625Y-69375000D03*
%TD*%
%TO.C,DL12*%
X62940625Y-80225000D03*
X62940625Y-83625000D03*
%TD*%
%TO.C,DL16*%
X100940625Y-105065625D03*
X100940625Y-108465625D03*
%TD*%
%TO.C,DL8*%
X81940625Y-55050000D03*
X81940625Y-58450000D03*
%TD*%
M02*
