%TF.GenerationSoftware,KiCad,Pcbnew,7.0.1*%
%TF.CreationDate,2024-02-26T07:23:15-05:00*%
%TF.ProjectId,pcb-right,7063622d-7269-4676-9874-2e6b69636164,0.3*%
%TF.SameCoordinates,Original*%
%TF.FileFunction,Soldermask,Bot*%
%TF.FilePolarity,Negative*%
%FSLAX46Y46*%
G04 Gerber Fmt 4.6, Leading zero omitted, Abs format (unit mm)*
G04 Created by KiCad (PCBNEW 7.0.1) date 2024-02-26 07:23:15*
%MOMM*%
%LPD*%
G01*
G04 APERTURE LIST*
G04 Aperture macros list*
%AMRotRect*
0 Rectangle, with rotation*
0 The origin of the aperture is its center*
0 $1 length*
0 $2 width*
0 $3 Rotation angle, in degrees counterclockwise*
0 Add horizontal line*
21,1,$1,$2,0,0,$3*%
G04 Aperture macros list end*
%ADD10C,1.701800*%
%ADD11C,3.000000*%
%ADD12C,3.429000*%
%ADD13R,2.600000X2.600000*%
%ADD14C,3.800000*%
%ADD15RotRect,2.600000X2.600000X195.000000*%
%ADD16C,1.800000*%
%ADD17C,2.100000*%
%ADD18O,1.800000X2.750000*%
%ADD19C,1.397000*%
%ADD20RotRect,2.600000X2.600000X210.000000*%
%ADD21R,1.500000X1.800000*%
%ADD22RotRect,1.800000X1.500000X300.000000*%
%ADD23RotRect,1.800000X1.500000X285.000000*%
G04 APERTURE END LIST*
D10*
%TO.C,SWR2*%
X84945625Y-47365000D03*
D11*
X85445625Y-51115000D03*
D12*
X90445625Y-47365000D03*
D11*
X90445625Y-53315000D03*
D10*
X95945625Y-47365000D03*
D13*
X93720625Y-53315000D03*
X82170625Y-51115000D03*
%TD*%
D10*
%TO.C,SWR10*%
X141945625Y-82040000D03*
D11*
X142445625Y-85790000D03*
D12*
X147445625Y-82040000D03*
D11*
X147445625Y-87990000D03*
D10*
X152945625Y-82040000D03*
D13*
X150720625Y-87990000D03*
X139170625Y-85790000D03*
%TD*%
D10*
%TO.C,SWR7*%
X84945625Y-66365000D03*
D11*
X85445625Y-70115000D03*
D12*
X90445625Y-66365000D03*
D11*
X90445625Y-72315000D03*
D10*
X95945625Y-66365000D03*
D13*
X93720625Y-72315000D03*
X82170625Y-70115000D03*
%TD*%
D14*
%TO.C,REF\u002A\u002A*%
X59945625Y-101001000D03*
%TD*%
%TO.C,REF\u002A\u002A*%
X137195625Y-35865000D03*
%TD*%
D10*
%TO.C,SWR18*%
X84945625Y-110065000D03*
D11*
X85445625Y-113815000D03*
D12*
X90445625Y-110065000D03*
D11*
X90445625Y-116015000D03*
D10*
X95945625Y-110065000D03*
D13*
X93720625Y-116015000D03*
X82170625Y-113815000D03*
%TD*%
D10*
%TO.C,SWR4*%
X122945625Y-47365000D03*
D11*
X123445625Y-51115000D03*
D12*
X128445625Y-47365000D03*
D11*
X128445625Y-53315000D03*
D10*
X133945625Y-47365000D03*
D13*
X131720625Y-53315000D03*
X120170625Y-51115000D03*
%TD*%
D10*
%TO.C,SWR6*%
X65945625Y-71115000D03*
D11*
X66445625Y-74865000D03*
D12*
X71445625Y-71115000D03*
D11*
X71445625Y-77065000D03*
D10*
X76945625Y-71115000D03*
D13*
X74720625Y-77065000D03*
X63170625Y-74865000D03*
%TD*%
D10*
%TO.C,SWR13*%
X103945625Y-79190000D03*
D11*
X104445625Y-82940000D03*
D12*
X109445625Y-79190000D03*
D11*
X109445625Y-85140000D03*
D10*
X114945625Y-79190000D03*
D13*
X112720625Y-85140000D03*
X101170625Y-82940000D03*
%TD*%
D10*
%TO.C,SWR9*%
X122945625Y-66365000D03*
D11*
X123445625Y-70115000D03*
D12*
X128445625Y-66365000D03*
D11*
X128445625Y-72315000D03*
D10*
X133945625Y-66365000D03*
D13*
X131720625Y-72315000D03*
X120170625Y-70115000D03*
%TD*%
D10*
%TO.C,SWR17*%
X64708033Y-114338505D03*
D11*
X66161567Y-117831317D03*
D12*
X70020625Y-112915000D03*
D11*
X71560598Y-118662259D03*
D10*
X75333217Y-111491495D03*
D15*
X74724005Y-117814626D03*
X62998160Y-118678949D03*
%TD*%
D10*
%TO.C,SWR12*%
X84945625Y-85365000D03*
D11*
X85445625Y-89115000D03*
D12*
X90445625Y-85365000D03*
D11*
X90445625Y-91315000D03*
D10*
X95945625Y-85365000D03*
D13*
X93720625Y-91315000D03*
X82170625Y-89115000D03*
%TD*%
D16*
%TO.C,RSW2*%
X78217625Y-36095250D03*
X73217625Y-36095250D03*
D17*
X72217625Y-38595250D03*
X79217625Y-38595250D03*
%TD*%
D10*
%TO.C,SWR8*%
X103945625Y-60190000D03*
D11*
X104445625Y-63940000D03*
D12*
X109445625Y-60190000D03*
D11*
X109445625Y-66140000D03*
D10*
X114945625Y-60190000D03*
D13*
X112720625Y-66140000D03*
X101170625Y-63940000D03*
%TD*%
D10*
%TO.C,SWR5*%
X141945625Y-63040000D03*
D11*
X142445625Y-66790000D03*
D12*
X147445625Y-63040000D03*
D11*
X147445625Y-68990000D03*
D10*
X152945625Y-63040000D03*
D13*
X150720625Y-68990000D03*
X139170625Y-66790000D03*
%TD*%
D14*
%TO.C,REF\u002A\u002A*%
X158945625Y-112540000D03*
%TD*%
D18*
%TO.C,U2*%
X158865625Y-34995000D03*
X156325625Y-34995000D03*
X153785625Y-34995000D03*
X151245625Y-34995000D03*
X148705625Y-34995000D03*
X146165625Y-34995000D03*
X143625625Y-34995000D03*
X143625625Y-51185000D03*
X146165625Y-51185000D03*
X148705625Y-51185000D03*
X151245625Y-51185000D03*
X153785625Y-51185000D03*
X156325625Y-51185000D03*
X158865625Y-51185000D03*
D19*
X159817625Y-41820000D03*
X159817625Y-44360000D03*
X157277625Y-41820000D03*
X157277625Y-44360000D03*
X151562625Y-38645000D03*
X153467625Y-38645000D03*
%TD*%
D10*
%TO.C,SWR11*%
X65945625Y-90115000D03*
D11*
X66445625Y-93865000D03*
D12*
X71445625Y-90115000D03*
D11*
X71445625Y-96065000D03*
D10*
X76945625Y-90115000D03*
D13*
X74720625Y-96065000D03*
X63170625Y-93865000D03*
%TD*%
D14*
%TO.C,REF\u002A\u002A*%
X59945625Y-35865000D03*
%TD*%
D10*
%TO.C,SWR14*%
X122945625Y-85365000D03*
D11*
X123445625Y-89115000D03*
D12*
X128445625Y-85365000D03*
D11*
X128445625Y-91315000D03*
D10*
X133945625Y-85365000D03*
D13*
X131720625Y-91315000D03*
X120170625Y-89115000D03*
%TD*%
D10*
%TO.C,SWR15*%
X141945625Y-101040000D03*
D11*
X142445625Y-104790000D03*
D12*
X147445625Y-101040000D03*
D11*
X147445625Y-106990000D03*
D10*
X152945625Y-101040000D03*
D13*
X150720625Y-106990000D03*
X139170625Y-104790000D03*
%TD*%
D10*
%TO.C,SWR16*%
X46257485Y-123740000D03*
D11*
X48565498Y-126737595D03*
D12*
X51020625Y-120990000D03*
D11*
X53995625Y-126142851D03*
D10*
X55783765Y-118240000D03*
D20*
X56831858Y-124505351D03*
X45729265Y-128375095D03*
%TD*%
D10*
%TO.C,SWR3*%
X103945625Y-41190000D03*
D11*
X104445625Y-44940000D03*
D12*
X109445625Y-41190000D03*
D11*
X109445625Y-47140000D03*
D10*
X114945625Y-41190000D03*
D13*
X112720625Y-47140000D03*
X101170625Y-44940000D03*
%TD*%
D10*
%TO.C,SWR1*%
X65945625Y-52115000D03*
D11*
X66445625Y-55865000D03*
D12*
X71445625Y-52115000D03*
D11*
X71445625Y-58065000D03*
D10*
X76945625Y-52115000D03*
D13*
X74720625Y-58065000D03*
X63170625Y-55865000D03*
%TD*%
D21*
%TO.C,DR10*%
X139370625Y-74165000D03*
X139370625Y-77565000D03*
%TD*%
%TO.C,DR8*%
X101370625Y-52315000D03*
X101370625Y-55715000D03*
%TD*%
%TO.C,DR3*%
X101370625Y-33315000D03*
X101370625Y-36715000D03*
%TD*%
%TO.C,DR9*%
X120370625Y-58490000D03*
X120370625Y-61890000D03*
%TD*%
%TO.C,DR4*%
X120370625Y-39490000D03*
X120370625Y-42890000D03*
%TD*%
%TO.C,DR15*%
X139370625Y-93165000D03*
X139370625Y-96565000D03*
%TD*%
%TO.C,DR6*%
X63370625Y-63240000D03*
X63370625Y-66640000D03*
%TD*%
%TO.C,DR11*%
X63370625Y-82240000D03*
X63370625Y-85640000D03*
%TD*%
%TO.C,DR5*%
X139370625Y-55112500D03*
X139370625Y-58512500D03*
%TD*%
D22*
%TO.C,DR16*%
X39720625Y-118092757D03*
X41420625Y-121037243D03*
%TD*%
D21*
%TO.C,DR18*%
X82370625Y-102190000D03*
X82370625Y-105590000D03*
%TD*%
%TO.C,DR13*%
X101370625Y-71300000D03*
X101370625Y-74700000D03*
%TD*%
%TO.C,DR12*%
X82370625Y-77490000D03*
X82370625Y-80890000D03*
%TD*%
%TO.C,DR2*%
X82370625Y-39490000D03*
X82370625Y-42890000D03*
%TD*%
D23*
%TO.C,DR17*%
X60080633Y-107472926D03*
X60960617Y-110757074D03*
%TD*%
D21*
%TO.C,DR14*%
X120370625Y-77490000D03*
X120370625Y-80890000D03*
%TD*%
%TO.C,DR1*%
X63370625Y-44240000D03*
X63370625Y-47640000D03*
%TD*%
%TO.C,DR7*%
X82370625Y-58490000D03*
X82370625Y-61890000D03*
%TD*%
M02*
