%TF.GenerationSoftware,KiCad,Pcbnew,7.0.1*%
%TF.CreationDate,2024-02-26T07:23:15-05:00*%
%TF.ProjectId,pcb-right,7063622d-7269-4676-9874-2e6b69636164,0.3*%
%TF.SameCoordinates,Original*%
%TF.FileFunction,Profile,NP*%
%FSLAX46Y46*%
G04 Gerber Fmt 4.6, Leading zero omitted, Abs format (unit mm)*
G04 Created by KiCad (PCBNEW 7.0.1) date 2024-02-26 07:23:15*
%MOMM*%
%LPD*%
G01*
G04 APERTURE LIST*
%TA.AperFunction,Profile*%
%ADD10C,0.020000*%
%TD*%
%ADD11C,0.020000*%
%TA.AperFunction,Profile*%
%ADD12C,0.120000*%
%TD*%
G04 APERTURE END LIST*
D10*
X99450000Y-30687500D02*
G75*
G03*
X98950000Y-31187500I0J-500000D01*
G01*
X119950000Y-32612500D02*
X119950000Y-31187500D01*
X47614746Y-135080767D02*
X56275000Y-130080767D01*
D11*
X83227885Y-120973536D02*
X83160962Y-120981209D01*
X83093794Y-120988984D01*
X83026122Y-120996900D01*
X82957688Y-121005001D01*
X82888234Y-121013329D01*
X82817502Y-121021926D01*
X82745232Y-121030835D01*
X82671167Y-121040098D01*
X82595048Y-121049756D01*
X82516617Y-121059853D01*
X82435616Y-121070430D01*
X82351786Y-121081531D01*
X82264869Y-121093196D01*
X82174607Y-121105469D01*
X82080740Y-121118392D01*
X81983012Y-121132006D01*
X81881163Y-121146355D01*
X81774935Y-121161481D01*
X81664070Y-121177425D01*
X81548309Y-121194230D01*
X81427395Y-121211939D01*
X81301068Y-121230593D01*
X81169071Y-121250235D01*
X81031145Y-121270908D01*
X80887031Y-121292653D01*
X80736472Y-121315512D01*
X80579209Y-121339529D01*
X80414983Y-121364745D01*
X80243537Y-121391203D01*
X80064612Y-121418944D01*
X79877949Y-121448012D01*
X79683291Y-121478448D01*
D10*
X98450000Y-33112500D02*
G75*
G03*
X98950000Y-32612500I0J500000D01*
G01*
X100450000Y-120562500D02*
G75*
G03*
X100950000Y-120062500I0J500000D01*
G01*
D11*
X76185673Y-122174356D02*
X76120515Y-122189199D01*
X76055120Y-122204167D01*
X75989238Y-122219329D01*
X75922617Y-122234754D01*
X75855006Y-122250512D01*
X75786154Y-122266672D01*
X75715809Y-122283304D01*
X75643722Y-122300478D01*
X75569639Y-122318263D01*
X75493312Y-122336729D01*
X75414487Y-122355946D01*
X75332914Y-122375982D01*
X75248343Y-122396909D01*
X75160521Y-122418794D01*
X75069198Y-122441709D01*
X74974123Y-122465722D01*
X74875044Y-122490903D01*
X74771710Y-122517322D01*
X74663871Y-122545048D01*
X74551275Y-122574151D01*
X74433670Y-122604701D01*
X74310806Y-122636766D01*
X74182432Y-122670418D01*
X74048297Y-122705725D01*
X73908149Y-122742756D01*
X73761737Y-122781583D01*
X73608810Y-122822273D01*
X73449118Y-122864897D01*
X73282408Y-122909525D01*
X73108430Y-122956225D01*
X72926932Y-123005068D01*
X72737665Y-123056124D01*
D10*
X101450000Y-115287500D02*
G75*
G03*
X100950000Y-115787500I0J-500000D01*
G01*
X57200000Y-105298006D02*
X37114746Y-116894233D01*
D11*
X59463830Y-128338699D02*
X59403520Y-128369837D01*
X59342994Y-128401158D01*
X59282019Y-128432791D01*
X59220363Y-128464870D01*
X59157793Y-128497527D01*
X59094078Y-128530894D01*
X59028986Y-128565103D01*
X58962283Y-128600287D01*
X58893739Y-128636577D01*
X58823121Y-128674107D01*
X58750197Y-128713007D01*
X58674735Y-128753410D01*
X58596502Y-128795449D01*
X58515267Y-128839256D01*
X58430798Y-128884963D01*
X58342862Y-128932701D01*
X58251227Y-128982604D01*
X58155661Y-129034804D01*
X58055932Y-129089432D01*
X57951808Y-129146621D01*
X57843056Y-129206503D01*
X57729445Y-129269211D01*
X57610743Y-129334876D01*
X57486717Y-129403631D01*
X57357135Y-129475608D01*
X57221765Y-129550939D01*
X57080375Y-129629756D01*
X56932733Y-129712192D01*
X56778606Y-129798379D01*
X56617763Y-129888449D01*
X56449972Y-129982534D01*
X56275000Y-130080767D01*
D10*
X100950000Y-120062500D02*
X100950000Y-115787500D01*
X161700000Y-33612500D02*
G75*
G03*
X161200000Y-33112500I-500000J0D01*
G01*
X57700000Y-33112500D02*
G75*
G03*
X57200000Y-33612500I0J-500000D01*
G01*
D11*
X72737665Y-123056124D02*
X72673461Y-123074410D01*
X72609024Y-123092833D01*
X72544109Y-123111474D01*
X72478467Y-123130417D01*
X72411850Y-123149743D01*
X72344012Y-123169536D01*
X72274705Y-123189878D01*
X72203682Y-123210852D01*
X72130696Y-123232540D01*
X72055499Y-123255026D01*
X71977844Y-123278392D01*
X71897483Y-123302721D01*
X71814170Y-123328095D01*
X71727657Y-123354597D01*
X71637696Y-123382310D01*
X71544041Y-123411317D01*
X71446443Y-123441700D01*
X71344656Y-123473542D01*
X71238433Y-123506925D01*
X71127525Y-123541933D01*
X71011687Y-123578648D01*
X70890669Y-123617152D01*
X70764226Y-123657529D01*
X70632109Y-123699861D01*
X70494072Y-123744231D01*
X70349867Y-123790722D01*
X70199246Y-123839415D01*
X70041963Y-123890395D01*
X69877770Y-123943743D01*
X69706420Y-123999543D01*
X69527665Y-124057876D01*
X69341259Y-124118827D01*
D10*
X161200000Y-115287500D02*
G75*
G03*
X161700000Y-114787500I0J500000D01*
G01*
X57200000Y-105298006D02*
X57200000Y-33612500D01*
X37114773Y-116894280D02*
G75*
G03*
X36931733Y-117577246I250027J-433020D01*
G01*
D11*
X86817225Y-120666041D02*
X86749477Y-120669947D01*
X86681481Y-120673940D01*
X86612974Y-120678050D01*
X86543695Y-120682304D01*
X86473382Y-120686729D01*
X86401773Y-120691355D01*
X86328607Y-120696208D01*
X86253622Y-120701317D01*
X86176556Y-120706710D01*
X86097147Y-120712415D01*
X86015135Y-120718460D01*
X85930256Y-120724873D01*
X85842251Y-120731682D01*
X85750856Y-120738915D01*
X85655810Y-120746599D01*
X85556852Y-120754764D01*
X85453719Y-120763437D01*
X85346151Y-120772646D01*
X85233885Y-120782418D01*
X85116659Y-120792783D01*
X84994213Y-120803768D01*
X84866285Y-120815401D01*
X84732612Y-120827710D01*
X84592933Y-120840723D01*
X84446986Y-120854468D01*
X84294510Y-120868973D01*
X84135243Y-120884267D01*
X83968924Y-120900376D01*
X83795290Y-120917330D01*
X83614080Y-120935156D01*
X83425032Y-120953881D01*
X83227885Y-120973536D01*
D10*
X90450000Y-120562500D02*
X100450000Y-120562500D01*
X98950000Y-32612500D02*
X98950000Y-31187500D01*
X36931733Y-117577246D02*
X46931733Y-134897754D01*
X119950000Y-31187500D02*
G75*
G03*
X119450000Y-30687500I-500000J0D01*
G01*
X46931694Y-134897777D02*
G75*
G03*
X47614746Y-135080767I433006J249977D01*
G01*
X161700000Y-114787500D02*
X161700000Y-33612500D01*
X99450000Y-30687500D02*
X119450000Y-30687500D01*
X101450000Y-115287500D02*
X161200000Y-115287500D01*
D11*
X79683291Y-121478448D02*
X79617226Y-121489761D01*
X79550920Y-121501186D01*
X79484119Y-121512779D01*
X79416567Y-121524596D01*
X79348009Y-121536694D01*
X79278191Y-121549128D01*
X79206857Y-121561955D01*
X79133754Y-121575231D01*
X79058625Y-121589011D01*
X78981217Y-121603353D01*
X78901274Y-121618311D01*
X78818542Y-121633943D01*
X78732766Y-121650304D01*
X78643690Y-121667450D01*
X78551061Y-121685438D01*
X78454622Y-121704323D01*
X78354120Y-121724162D01*
X78249300Y-121745011D01*
X78139906Y-121766926D01*
X78025685Y-121789963D01*
X77906380Y-121814179D01*
X77781738Y-121839628D01*
X77651503Y-121866368D01*
X77515420Y-121894455D01*
X77373236Y-121923944D01*
X77224694Y-121954892D01*
X77069540Y-121987355D01*
X76907519Y-122021388D01*
X76738377Y-122057049D01*
X76561858Y-122094393D01*
X76377709Y-122133477D01*
X76185673Y-122174356D01*
X62704552Y-126763954D02*
X62643271Y-126791959D01*
X62581771Y-126820134D01*
X62519813Y-126848598D01*
X62457163Y-126877470D01*
X62393584Y-126906871D01*
X62328841Y-126936920D01*
X62262697Y-126967738D01*
X62194916Y-126999444D01*
X62125264Y-127032158D01*
X62053503Y-127066001D01*
X61979398Y-127101092D01*
X61902712Y-127137551D01*
X61823211Y-127175498D01*
X61740657Y-127215053D01*
X61654816Y-127256335D01*
X61565451Y-127299466D01*
X61472325Y-127344564D01*
X61375204Y-127391749D01*
X61273852Y-127441142D01*
X61168031Y-127492863D01*
X61057507Y-127547031D01*
X60942044Y-127603766D01*
X60821405Y-127663188D01*
X60695355Y-127725417D01*
X60563657Y-127790574D01*
X60426076Y-127858777D01*
X60282376Y-127930147D01*
X60132321Y-128004804D01*
X59975674Y-128082868D01*
X59812201Y-128164458D01*
X59641665Y-128249695D01*
X59463830Y-128338699D01*
X65996974Y-125356491D02*
X65934723Y-125381344D01*
X65872248Y-125406355D01*
X65809309Y-125431631D01*
X65745665Y-125457279D01*
X65681079Y-125483408D01*
X65615308Y-125510125D01*
X65548115Y-125537538D01*
X65479258Y-125565754D01*
X65408499Y-125594881D01*
X65335598Y-125625028D01*
X65260314Y-125656300D01*
X65182409Y-125688807D01*
X65101642Y-125722656D01*
X65017774Y-125757954D01*
X64930565Y-125794810D01*
X64839776Y-125833330D01*
X64745166Y-125873623D01*
X64646495Y-125915796D01*
X64543525Y-125959958D01*
X64436016Y-126006215D01*
X64323727Y-126054675D01*
X64206419Y-126105446D01*
X64083852Y-126158636D01*
X63955787Y-126214352D01*
X63821983Y-126272702D01*
X63682202Y-126333794D01*
X63536203Y-126397736D01*
X63383746Y-126464635D01*
X63224592Y-126534598D01*
X63058502Y-126607734D01*
X62885235Y-126684150D01*
X62704552Y-126763954D01*
D10*
X120450000Y-33112500D02*
X161200000Y-33112500D01*
X57700000Y-33112500D02*
X98450000Y-33112500D01*
D11*
X69341259Y-124118827D02*
X69278032Y-124140453D01*
X69214577Y-124162226D01*
X69150650Y-124184241D01*
X69086009Y-124206594D01*
X69020408Y-124229379D01*
X68953605Y-124252692D01*
X68885356Y-124276628D01*
X68815418Y-124301283D01*
X68743547Y-124326752D01*
X68669500Y-124353130D01*
X68593033Y-124380513D01*
X68513903Y-124408996D01*
X68431865Y-124438674D01*
X68346678Y-124469643D01*
X68258096Y-124501998D01*
X68165877Y-124535834D01*
X68069777Y-124571247D01*
X67969553Y-124608333D01*
X67864960Y-124647185D01*
X67755756Y-124687901D01*
X67641697Y-124730575D01*
X67522540Y-124775302D01*
X67398040Y-124822178D01*
X67267955Y-124871298D01*
X67132041Y-124922758D01*
X66990054Y-124976652D01*
X66841752Y-125033077D01*
X66686889Y-125092127D01*
X66525224Y-125153898D01*
X66356512Y-125218486D01*
X66180509Y-125285985D01*
X65996974Y-125356491D01*
D10*
X119950000Y-32612500D02*
G75*
G03*
X120450000Y-33112500I500000J0D01*
G01*
D11*
X90450000Y-120562500D02*
X90381444Y-120562532D01*
X90312635Y-120562639D01*
X90243310Y-120562833D01*
X90173202Y-120563128D01*
X90102048Y-120563536D01*
X90029581Y-120564072D01*
X89955538Y-120564748D01*
X89879654Y-120565578D01*
X89801662Y-120566575D01*
X89721300Y-120567751D01*
X89638301Y-120569122D01*
X89552401Y-120570698D01*
X89463335Y-120572495D01*
X89370838Y-120574525D01*
X89274645Y-120576801D01*
X89174491Y-120579337D01*
X89070112Y-120582146D01*
X88961242Y-120585241D01*
X88847617Y-120588636D01*
X88728971Y-120592343D01*
X88605041Y-120596376D01*
X88475560Y-120600748D01*
X88340264Y-120605473D01*
X88198889Y-120610563D01*
X88051169Y-120616032D01*
X87896839Y-120621894D01*
X87735635Y-120628160D01*
X87567291Y-120634846D01*
X87391543Y-120641964D01*
X87208126Y-120649526D01*
X87016775Y-120657548D01*
X86817225Y-120666041D01*
D12*
%TO.C,U2*%
X151994425Y-38391000D02*
X153035825Y-38391000D01*
X153721625Y-39076800D02*
X153721625Y-40677000D01*
X151308625Y-40677000D02*
X151308625Y-39076800D01*
X153340625Y-41058000D02*
X151689625Y-41058000D01*
X157709425Y-41566000D02*
X159385825Y-41566000D01*
X160071625Y-42251800D02*
X160071625Y-43928200D01*
X157023625Y-42251800D02*
X157023625Y-43928200D01*
X157709425Y-44614000D02*
X159385825Y-44614000D01*
X151308625Y-39076800D02*
G75*
G03*
X151994425Y-38391000I247753J438047D01*
G01*
X153035825Y-38391000D02*
G75*
G03*
X153721625Y-39076800I438047J-247753D01*
G01*
X153340625Y-41058000D02*
G75*
G03*
X153721625Y-40677000I1J380999D01*
G01*
X151308625Y-40677000D02*
G75*
G03*
X151689625Y-41058000I380999J-1D01*
G01*
X157023625Y-42251800D02*
G75*
G03*
X157709425Y-41566000I247753J438047D01*
G01*
X159385825Y-41566000D02*
G75*
G03*
X160071625Y-42251800I438047J-247753D01*
G01*
X157709425Y-44614000D02*
G75*
G03*
X157023625Y-43928200I-438047J247753D01*
G01*
X160071625Y-43928200D02*
G75*
G03*
X159385825Y-44614000I-247750J-438050D01*
G01*
%TD*%
M02*
