M48
; DRILL file {KiCad 7.0.1} date Sat May 27 21:35:22 2023
; FORMAT={-:-/ absolute / metric / decimal}
; #@! TF.CreationDate,2023-05-27T21:35:22-04:00
; #@! TF.GenerationSoftware,Kicad,Pcbnew,7.0.1
; #@! TF.FileFunction,NonPlated,1,2,NPTH
FMAT,2
METRIC
; #@! TA.AperFunction,NonPlated,NPTH,ComponentDrill
T1C1.702
; #@! TA.AperFunction,NonPlated,NPTH,ComponentDrill
T2C3.000
; #@! TA.AperFunction,NonPlated,NPTH,ComponentDrill
T3C3.429
%
G90
G05
T1
X46.257Y-123.74
X55.784Y-118.24
X64.708Y-114.339
X65.946Y-52.115
X65.946Y-71.115
X65.946Y-90.115
X75.333Y-111.491
X76.946Y-52.115
X76.946Y-71.115
X76.946Y-90.115
X84.946Y-47.365
X84.946Y-66.365
X84.946Y-85.365
X84.946Y-110.065
X95.946Y-47.365
X95.946Y-66.365
X95.946Y-85.365
X95.946Y-110.065
X103.946Y-41.19
X103.946Y-60.19
X103.946Y-79.19
X114.946Y-41.19
X114.946Y-60.19
X114.946Y-79.19
X122.946Y-47.365
X122.946Y-66.365
X122.946Y-85.365
X133.946Y-47.365
X133.946Y-66.365
X133.946Y-85.365
X141.946Y-63.04
X141.946Y-82.04
X141.946Y-101.04
X152.946Y-63.04
X152.946Y-82.04
X152.946Y-101.04
T2
X48.565Y-126.738
X53.996Y-126.143
X66.162Y-117.831
X66.446Y-55.865
X66.446Y-74.865
X66.446Y-93.865
X71.446Y-58.065
X71.446Y-77.065
X71.446Y-96.065
X71.561Y-118.662
X85.446Y-51.115
X85.446Y-70.115
X85.446Y-89.115
X85.446Y-113.815
X90.446Y-53.315
X90.446Y-72.315
X90.446Y-91.315
X90.446Y-116.015
X104.446Y-44.94
X104.446Y-63.94
X104.446Y-82.94
X109.446Y-47.14
X109.446Y-66.14
X109.446Y-85.14
X123.446Y-51.115
X123.446Y-70.115
X123.446Y-89.115
X128.446Y-53.315
X128.446Y-72.315
X128.446Y-91.315
X142.446Y-66.79
X142.446Y-85.79
X142.446Y-104.79
X147.446Y-68.99
X147.446Y-87.99
X147.446Y-106.99
T3
X51.021Y-120.99
X70.021Y-112.915
X71.446Y-52.115
X71.446Y-71.115
X71.446Y-90.115
X90.446Y-47.365
X90.446Y-66.365
X90.446Y-85.365
X90.446Y-110.065
X109.446Y-41.19
X109.446Y-60.19
X109.446Y-79.19
X128.446Y-47.365
X128.446Y-66.365
X128.446Y-85.365
X147.446Y-63.04
X147.446Y-82.04
X147.446Y-101.04
T0
M30
