%TF.GenerationSoftware,KiCad,Pcbnew,7.0.1*%
%TF.CreationDate,2024-02-26T07:23:15-05:00*%
%TF.ProjectId,pcb-right,7063622d-7269-4676-9874-2e6b69636164,0.3*%
%TF.SameCoordinates,Original*%
%TF.FileFunction,Legend,Bot*%
%TF.FilePolarity,Positive*%
%FSLAX46Y46*%
G04 Gerber Fmt 4.6, Leading zero omitted, Abs format (unit mm)*
G04 Created by KiCad (PCBNEW 7.0.1) date 2024-02-26 07:23:15*
%MOMM*%
%LPD*%
G01*
G04 APERTURE LIST*
G04 Aperture macros list*
%AMRotRect*
0 Rectangle, with rotation*
0 The origin of the aperture is its center*
0 $1 length*
0 $2 width*
0 $3 Rotation angle, in degrees counterclockwise*
0 Add horizontal line*
21,1,$1,$2,0,0,$3*%
G04 Aperture macros list end*
%ADD10C,0.000000*%
%ADD11C,0.150000*%
%ADD12C,1.701800*%
%ADD13C,3.000000*%
%ADD14C,3.429000*%
%ADD15R,2.600000X2.600000*%
%ADD16C,3.800000*%
%ADD17RotRect,2.600000X2.600000X195.000000*%
%ADD18C,1.800000*%
%ADD19C,2.100000*%
%ADD20O,1.800000X2.750000*%
%ADD21C,1.397000*%
%ADD22RotRect,2.600000X2.600000X210.000000*%
%ADD23R,1.500000X1.800000*%
%ADD24RotRect,1.800000X1.500000X300.000000*%
%ADD25RotRect,1.800000X1.500000X285.000000*%
G04 APERTURE END LIST*
D10*
G36*
X64187616Y-37521201D02*
G01*
X63829779Y-37521201D01*
X65097543Y-34269996D01*
X65455380Y-34269996D01*
X64187616Y-37521201D01*
G37*
G36*
X59908618Y-87806425D02*
G01*
X59872780Y-87804979D01*
X59837502Y-87802568D01*
X59802783Y-87799192D01*
X59768623Y-87794853D01*
X59735022Y-87789548D01*
X59701981Y-87783280D01*
X59669499Y-87776047D01*
X59637576Y-87767849D01*
X59606212Y-87758687D01*
X59575408Y-87748561D01*
X59545163Y-87737470D01*
X59515477Y-87725415D01*
X59486350Y-87712395D01*
X59457783Y-87698411D01*
X59429775Y-87683462D01*
X59402433Y-87667654D01*
X59375875Y-87651091D01*
X59350100Y-87633773D01*
X59325107Y-87615701D01*
X59300898Y-87596873D01*
X59277472Y-87577291D01*
X59254829Y-87556955D01*
X59232968Y-87535863D01*
X59211891Y-87514017D01*
X59191595Y-87491416D01*
X59172083Y-87468060D01*
X59153353Y-87443950D01*
X59135405Y-87419085D01*
X59118240Y-87393466D01*
X59101857Y-87367092D01*
X59086256Y-87339963D01*
X59071526Y-87312225D01*
X59057746Y-87284026D01*
X59044917Y-87255366D01*
X59033037Y-87226245D01*
X59022108Y-87196662D01*
X59012129Y-87166618D01*
X59003101Y-87136113D01*
X58995023Y-87105147D01*
X58987895Y-87073719D01*
X58981717Y-87041830D01*
X58976490Y-87009480D01*
X58972213Y-86976669D01*
X58968886Y-86943396D01*
X58966510Y-86909662D01*
X58965085Y-86875467D01*
X58964609Y-86840810D01*
X58964875Y-86816344D01*
X58965672Y-86792144D01*
X58965751Y-86790717D01*
X59347467Y-86790717D01*
X59348110Y-86821236D01*
X59350039Y-86851070D01*
X59353253Y-86880220D01*
X59357753Y-86908685D01*
X59363539Y-86936464D01*
X59370611Y-86963559D01*
X59378969Y-86989969D01*
X59388613Y-87015694D01*
X59399543Y-87040734D01*
X59411759Y-87065089D01*
X59425262Y-87088760D01*
X59440051Y-87111745D01*
X59456126Y-87134045D01*
X59473487Y-87155660D01*
X59492135Y-87176590D01*
X59512070Y-87196835D01*
X59533048Y-87216117D01*
X59554837Y-87234155D01*
X59577437Y-87250949D01*
X59600848Y-87266498D01*
X59625069Y-87280804D01*
X59650102Y-87293866D01*
X59675945Y-87305684D01*
X59702599Y-87316258D01*
X59730064Y-87325588D01*
X59758339Y-87333674D01*
X59787425Y-87340516D01*
X59817322Y-87346114D01*
X59848029Y-87350468D01*
X59879547Y-87353578D01*
X59911875Y-87355444D01*
X59945015Y-87356066D01*
X59978156Y-87355444D01*
X60010486Y-87353578D01*
X60042004Y-87350468D01*
X60072712Y-87346114D01*
X60102608Y-87340516D01*
X60131693Y-87333674D01*
X60159968Y-87325588D01*
X60187432Y-87316258D01*
X60214085Y-87305684D01*
X60239928Y-87293866D01*
X60264961Y-87280804D01*
X60289183Y-87266498D01*
X60312596Y-87250949D01*
X60335198Y-87234155D01*
X60356990Y-87216117D01*
X60377973Y-87196835D01*
X60397903Y-87176590D01*
X60416547Y-87155660D01*
X60433906Y-87134045D01*
X60449979Y-87111745D01*
X60464766Y-87088760D01*
X60478267Y-87065089D01*
X60490483Y-87040734D01*
X60501413Y-87015694D01*
X60511057Y-86989969D01*
X60519416Y-86963559D01*
X60526488Y-86936464D01*
X60532275Y-86908685D01*
X60536775Y-86880220D01*
X60539990Y-86851070D01*
X60541919Y-86821236D01*
X60542562Y-86790717D01*
X60541919Y-86760191D01*
X60539990Y-86730336D01*
X60536775Y-86701152D01*
X60532275Y-86672639D01*
X60526488Y-86644797D01*
X60519416Y-86617626D01*
X60511057Y-86591126D01*
X60501413Y-86565296D01*
X60490483Y-86540138D01*
X60478267Y-86515650D01*
X60464766Y-86491833D01*
X60449979Y-86468687D01*
X60433906Y-86446212D01*
X60416547Y-86424408D01*
X60397903Y-86403274D01*
X60377973Y-86382812D01*
X60356990Y-86363314D01*
X60335198Y-86345073D01*
X60312596Y-86328091D01*
X60289183Y-86312367D01*
X60264961Y-86297901D01*
X60239928Y-86284693D01*
X60214085Y-86272743D01*
X60187432Y-86262051D01*
X60159968Y-86252616D01*
X60131693Y-86244440D01*
X60102608Y-86237521D01*
X60072712Y-86231861D01*
X60042004Y-86227458D01*
X60010486Y-86224314D01*
X59978156Y-86222427D01*
X59945015Y-86221798D01*
X59911875Y-86222427D01*
X59879547Y-86224314D01*
X59848029Y-86227458D01*
X59817322Y-86231861D01*
X59787425Y-86237521D01*
X59758339Y-86244440D01*
X59730064Y-86252616D01*
X59702599Y-86262051D01*
X59675945Y-86272743D01*
X59650102Y-86284693D01*
X59625069Y-86297901D01*
X59600848Y-86312367D01*
X59577437Y-86328091D01*
X59554837Y-86345073D01*
X59533048Y-86363314D01*
X59512070Y-86382812D01*
X59492135Y-86403274D01*
X59473487Y-86424408D01*
X59456126Y-86446212D01*
X59440051Y-86468687D01*
X59425262Y-86491833D01*
X59411759Y-86515650D01*
X59399543Y-86540138D01*
X59388613Y-86565296D01*
X59378969Y-86591126D01*
X59370611Y-86617626D01*
X59363539Y-86644797D01*
X59357753Y-86672639D01*
X59353253Y-86701152D01*
X59350039Y-86730336D01*
X59348110Y-86760191D01*
X59347467Y-86790717D01*
X58965751Y-86790717D01*
X58966999Y-86768208D01*
X58968858Y-86744539D01*
X58971248Y-86721134D01*
X58974169Y-86697995D01*
X58977621Y-86675122D01*
X58981605Y-86652514D01*
X58986119Y-86630172D01*
X58991164Y-86608095D01*
X58996741Y-86586283D01*
X59002848Y-86564738D01*
X59009487Y-86543457D01*
X59016657Y-86522443D01*
X59024358Y-86501694D01*
X59032590Y-86481210D01*
X59041353Y-86461062D01*
X59050648Y-86441320D01*
X59060474Y-86421983D01*
X59070831Y-86403051D01*
X59081719Y-86384524D01*
X59093139Y-86366403D01*
X59105090Y-86348687D01*
X59117572Y-86331376D01*
X59130585Y-86314471D01*
X59144129Y-86297971D01*
X59158204Y-86281877D01*
X59172810Y-86266187D01*
X59187947Y-86250903D01*
X59203615Y-86236024D01*
X59219814Y-86221551D01*
X59236544Y-86207483D01*
X58989660Y-86207483D01*
X58989660Y-85781683D01*
X60900370Y-85781683D01*
X60900370Y-86228948D01*
X60667800Y-86228948D01*
X60683216Y-86243422D01*
X60698156Y-86258218D01*
X60712621Y-86273335D01*
X60726612Y-86288773D01*
X60740127Y-86304533D01*
X60753167Y-86320614D01*
X60765732Y-86337016D01*
X60777822Y-86353740D01*
X60789437Y-86370785D01*
X60800577Y-86388152D01*
X60811242Y-86405839D01*
X60821432Y-86423849D01*
X60831146Y-86442179D01*
X60840386Y-86460831D01*
X60849150Y-86479805D01*
X60857440Y-86499100D01*
X60865237Y-86518675D01*
X60872532Y-86538488D01*
X60879324Y-86558538D01*
X60885614Y-86578826D01*
X60891400Y-86599352D01*
X60896682Y-86620114D01*
X60901462Y-86641115D01*
X60905739Y-86662352D01*
X60909513Y-86683828D01*
X60912784Y-86705541D01*
X60915551Y-86727492D01*
X60917816Y-86749680D01*
X60919577Y-86772106D01*
X60920835Y-86794770D01*
X60921590Y-86817671D01*
X60921841Y-86840810D01*
X60921366Y-86875467D01*
X60919940Y-86909662D01*
X60917564Y-86943396D01*
X60914238Y-86976669D01*
X60909961Y-87009480D01*
X60904733Y-87041830D01*
X60898555Y-87073719D01*
X60891426Y-87105147D01*
X60883348Y-87136113D01*
X60874318Y-87166618D01*
X60864338Y-87196662D01*
X60853408Y-87226245D01*
X60841527Y-87255366D01*
X60828696Y-87284026D01*
X60814914Y-87312225D01*
X60800182Y-87339963D01*
X60784590Y-87367092D01*
X60768230Y-87393466D01*
X60751100Y-87419085D01*
X60733202Y-87443950D01*
X60714536Y-87468060D01*
X60695100Y-87491416D01*
X60674896Y-87514017D01*
X60653923Y-87535863D01*
X60632182Y-87556955D01*
X60609672Y-87577291D01*
X60586393Y-87596873D01*
X60562346Y-87615701D01*
X60537530Y-87633773D01*
X60511946Y-87651091D01*
X60485593Y-87667654D01*
X60458472Y-87683462D01*
X60430677Y-87698411D01*
X60402310Y-87712395D01*
X60373371Y-87725415D01*
X60343858Y-87737470D01*
X60313773Y-87748561D01*
X60283115Y-87758687D01*
X60251884Y-87767849D01*
X60220080Y-87776047D01*
X60187703Y-87783280D01*
X60154753Y-87789548D01*
X60121230Y-87794853D01*
X60087133Y-87799192D01*
X60052464Y-87802568D01*
X60017221Y-87804979D01*
X59981404Y-87806425D01*
X59945015Y-87806908D01*
X59908618Y-87806425D01*
G37*
G36*
X60920667Y-91874096D02*
G01*
X60917145Y-91931486D01*
X60911275Y-91986583D01*
X60903056Y-92039388D01*
X60892489Y-92089901D01*
X60886326Y-92114298D01*
X60879575Y-92138122D01*
X60872237Y-92161372D01*
X60864312Y-92184050D01*
X60855800Y-92206155D01*
X60846701Y-92227686D01*
X60837014Y-92248645D01*
X60826741Y-92269030D01*
X60815881Y-92288843D01*
X60804434Y-92308082D01*
X60792400Y-92326749D01*
X60779778Y-92344842D01*
X60766570Y-92362362D01*
X60752775Y-92379309D01*
X60738392Y-92395683D01*
X60723423Y-92411485D01*
X60707866Y-92426713D01*
X60691723Y-92441368D01*
X60674992Y-92455450D01*
X60657675Y-92468958D01*
X60639770Y-92481894D01*
X60621278Y-92494257D01*
X60900370Y-92494257D01*
X60900370Y-92920055D01*
X58989660Y-92920055D01*
X58989660Y-92472785D01*
X59916386Y-92472785D01*
X59951644Y-92472212D01*
X59985854Y-92470493D01*
X60019016Y-92467628D01*
X60051129Y-92463617D01*
X60082193Y-92458459D01*
X60112209Y-92452156D01*
X60141177Y-92444706D01*
X60169097Y-92436111D01*
X60195968Y-92426369D01*
X60221791Y-92415481D01*
X60246566Y-92403447D01*
X60270292Y-92390267D01*
X60292971Y-92375941D01*
X60314601Y-92360469D01*
X60335184Y-92343850D01*
X60354718Y-92326086D01*
X60373130Y-92307301D01*
X60390355Y-92287621D01*
X60406392Y-92267047D01*
X60421242Y-92245578D01*
X60434904Y-92223214D01*
X60447379Y-92199956D01*
X60458666Y-92175804D01*
X60468765Y-92150756D01*
X60477676Y-92124815D01*
X60485400Y-92097978D01*
X60491935Y-92070248D01*
X60497282Y-92041623D01*
X60501441Y-92012103D01*
X60504412Y-91981689D01*
X60506195Y-91950381D01*
X60506789Y-91918178D01*
X60506621Y-91906381D01*
X60506116Y-91894249D01*
X60505276Y-91881782D01*
X60504100Y-91868979D01*
X60502590Y-91855840D01*
X60500745Y-91842367D01*
X60498566Y-91828558D01*
X60496053Y-91814415D01*
X60921841Y-91814415D01*
X60920667Y-91874096D01*
G37*
G36*
X64502899Y-37163113D02*
G01*
X64363266Y-37521213D01*
X64185393Y-37521213D01*
X64325046Y-37163072D01*
X64502899Y-37163113D01*
G37*
G36*
X66725377Y-37521200D02*
G01*
X66369777Y-37521200D01*
X65971366Y-36505200D01*
X65292755Y-36505200D01*
X65814171Y-35184401D01*
X66725377Y-37521200D01*
G37*
G36*
X64721016Y-37521201D02*
G01*
X64363179Y-37521201D01*
X65630943Y-34269996D01*
X65988780Y-34269996D01*
X64721016Y-37521201D01*
G37*
G36*
X67258777Y-37521201D02*
G01*
X66900940Y-37521201D01*
X65633176Y-34269996D01*
X65991012Y-34269996D01*
X67258777Y-37521201D01*
G37*
G36*
X60098868Y-96458827D02*
G01*
X60900370Y-95660901D01*
X60900370Y-96197622D01*
X60041637Y-97124358D01*
X61644627Y-97124358D01*
X61644627Y-97571624D01*
X58989660Y-97571624D01*
X58989660Y-97124358D01*
X59494177Y-97124358D01*
X59809041Y-96791591D01*
X58989660Y-96129639D01*
X58989660Y-95585760D01*
X60098868Y-96458827D01*
G37*
G36*
X59908618Y-95531609D02*
G01*
X59872780Y-95530162D01*
X59837502Y-95527751D01*
X59802783Y-95524376D01*
X59768623Y-95520036D01*
X59735022Y-95514731D01*
X59701981Y-95508462D01*
X59669499Y-95501229D01*
X59637576Y-95493032D01*
X59606212Y-95483869D01*
X59575408Y-95473743D01*
X59545163Y-95462652D01*
X59515477Y-95450597D01*
X59486350Y-95437578D01*
X59457783Y-95423594D01*
X59429775Y-95408646D01*
X59402433Y-95392838D01*
X59375875Y-95376275D01*
X59350100Y-95358957D01*
X59325107Y-95340884D01*
X59300898Y-95322057D01*
X59277472Y-95302475D01*
X59254829Y-95282138D01*
X59232968Y-95261046D01*
X59211891Y-95239200D01*
X59191595Y-95216599D01*
X59172083Y-95193243D01*
X59153353Y-95169132D01*
X59135405Y-95144267D01*
X59118240Y-95118647D01*
X59101857Y-95092272D01*
X59086256Y-95065143D01*
X59071526Y-95037406D01*
X59057746Y-95009207D01*
X59044917Y-94980547D01*
X59033037Y-94951426D01*
X59022108Y-94921844D01*
X59012129Y-94891800D01*
X59003101Y-94861295D01*
X58995023Y-94830329D01*
X58987895Y-94798902D01*
X58981717Y-94767013D01*
X58976490Y-94734663D01*
X58972213Y-94701852D01*
X58968886Y-94668579D01*
X58966510Y-94634845D01*
X58965085Y-94600650D01*
X58964609Y-94565994D01*
X58964875Y-94541527D01*
X58965672Y-94517325D01*
X58965751Y-94515900D01*
X59347467Y-94515900D01*
X59348110Y-94546419D01*
X59350039Y-94576254D01*
X59353253Y-94605403D01*
X59357753Y-94633867D01*
X59363539Y-94661647D01*
X59370611Y-94688741D01*
X59378969Y-94715151D01*
X59388613Y-94740875D01*
X59399543Y-94765915D01*
X59411759Y-94790270D01*
X59425262Y-94813940D01*
X59440051Y-94836926D01*
X59456126Y-94859226D01*
X59473487Y-94880842D01*
X59492135Y-94901773D01*
X59512070Y-94922019D01*
X59533048Y-94941300D01*
X59554837Y-94959337D01*
X59577437Y-94976130D01*
X59600848Y-94991680D01*
X59625069Y-95005985D01*
X59650102Y-95019046D01*
X59675945Y-95030864D01*
X59702599Y-95041437D01*
X59730064Y-95050767D01*
X59758339Y-95058852D01*
X59787425Y-95065694D01*
X59817322Y-95071292D01*
X59848029Y-95075646D01*
X59879547Y-95078756D01*
X59911875Y-95080622D01*
X59945015Y-95081243D01*
X59978156Y-95080622D01*
X60010486Y-95078756D01*
X60042004Y-95075646D01*
X60072712Y-95071292D01*
X60102608Y-95065694D01*
X60131693Y-95058852D01*
X60159968Y-95050767D01*
X60187432Y-95041437D01*
X60214085Y-95030864D01*
X60239928Y-95019046D01*
X60264961Y-95005985D01*
X60289183Y-94991680D01*
X60312596Y-94976130D01*
X60335198Y-94959337D01*
X60356990Y-94941300D01*
X60377973Y-94922019D01*
X60397903Y-94901773D01*
X60416547Y-94880842D01*
X60433906Y-94859226D01*
X60449979Y-94836926D01*
X60464766Y-94813940D01*
X60478267Y-94790270D01*
X60490483Y-94765915D01*
X60501413Y-94740875D01*
X60511057Y-94715151D01*
X60519416Y-94688741D01*
X60526488Y-94661647D01*
X60532275Y-94633867D01*
X60536775Y-94605403D01*
X60539990Y-94576254D01*
X60541919Y-94546419D01*
X60542562Y-94515900D01*
X60541919Y-94485374D01*
X60539990Y-94455519D01*
X60536775Y-94426335D01*
X60532275Y-94397821D01*
X60526488Y-94369979D01*
X60519416Y-94342808D01*
X60511057Y-94316308D01*
X60501413Y-94290479D01*
X60490483Y-94265320D01*
X60478267Y-94240833D01*
X60464766Y-94217016D01*
X60449979Y-94193870D01*
X60433906Y-94171396D01*
X60416547Y-94149591D01*
X60397903Y-94128458D01*
X60377973Y-94107996D01*
X60356990Y-94088497D01*
X60335198Y-94070257D01*
X60312596Y-94053274D01*
X60289183Y-94037550D01*
X60264961Y-94023083D01*
X60239928Y-94009874D01*
X60214085Y-93997924D01*
X60187432Y-93987231D01*
X60159968Y-93977796D01*
X60131693Y-93969619D01*
X60102608Y-93962700D01*
X60072712Y-93957039D01*
X60042004Y-93952636D01*
X60010486Y-93949491D01*
X59978156Y-93947604D01*
X59945015Y-93946975D01*
X59911875Y-93947604D01*
X59879547Y-93949491D01*
X59848029Y-93952636D01*
X59817322Y-93957039D01*
X59787425Y-93962700D01*
X59758339Y-93969619D01*
X59730064Y-93977796D01*
X59702599Y-93987231D01*
X59675945Y-93997924D01*
X59650102Y-94009874D01*
X59625069Y-94023083D01*
X59600848Y-94037550D01*
X59577437Y-94053274D01*
X59554837Y-94070257D01*
X59533048Y-94088497D01*
X59512070Y-94107996D01*
X59492135Y-94128458D01*
X59473487Y-94149591D01*
X59456126Y-94171396D01*
X59440051Y-94193870D01*
X59425262Y-94217016D01*
X59411759Y-94240833D01*
X59399543Y-94265320D01*
X59388613Y-94290479D01*
X59378969Y-94316308D01*
X59370611Y-94342808D01*
X59363539Y-94369979D01*
X59357753Y-94397821D01*
X59353253Y-94426335D01*
X59350039Y-94455519D01*
X59348110Y-94485374D01*
X59347467Y-94515900D01*
X58965751Y-94515900D01*
X58966999Y-94493389D01*
X58968858Y-94469719D01*
X58971248Y-94446315D01*
X58974169Y-94423176D01*
X58977621Y-94400303D01*
X58981605Y-94377695D01*
X58986119Y-94355353D01*
X58991164Y-94333277D01*
X58996741Y-94311466D01*
X59002848Y-94289920D01*
X59009487Y-94268640D01*
X59016657Y-94247626D01*
X59024358Y-94226877D01*
X59032590Y-94206394D01*
X59041353Y-94186246D01*
X59050648Y-94166503D01*
X59060474Y-94147166D01*
X59070831Y-94128234D01*
X59081719Y-94109708D01*
X59093139Y-94091586D01*
X59105090Y-94073871D01*
X59117572Y-94056560D01*
X59130585Y-94039655D01*
X59144129Y-94023155D01*
X59158204Y-94007060D01*
X59172810Y-93991371D01*
X59187947Y-93976087D01*
X59203615Y-93961208D01*
X59219814Y-93946735D01*
X59236544Y-93932667D01*
X58989660Y-93932667D01*
X58989660Y-93506866D01*
X60900370Y-93506866D01*
X60900370Y-93954132D01*
X60667800Y-93954132D01*
X60683216Y-93968605D01*
X60698156Y-93983400D01*
X60712621Y-93998516D01*
X60726612Y-94013954D01*
X60740127Y-94029713D01*
X60753167Y-94045794D01*
X60765732Y-94062196D01*
X60777822Y-94078920D01*
X60789437Y-94095965D01*
X60800577Y-94113332D01*
X60811242Y-94131021D01*
X60821432Y-94149030D01*
X60831146Y-94167361D01*
X60840386Y-94186014D01*
X60849150Y-94204988D01*
X60857440Y-94224284D01*
X60865237Y-94243858D01*
X60872532Y-94263670D01*
X60879324Y-94283720D01*
X60885614Y-94304007D01*
X60891400Y-94324533D01*
X60896682Y-94345295D01*
X60901462Y-94366296D01*
X60905739Y-94387534D01*
X60909513Y-94409010D01*
X60912784Y-94430723D01*
X60915551Y-94452674D01*
X60917816Y-94474863D01*
X60919577Y-94497289D01*
X60920835Y-94519953D01*
X60921590Y-94542855D01*
X60921841Y-94565994D01*
X60921366Y-94600650D01*
X60919940Y-94634845D01*
X60917564Y-94668579D01*
X60914238Y-94701852D01*
X60909961Y-94734663D01*
X60904733Y-94767013D01*
X60898555Y-94798902D01*
X60891426Y-94830329D01*
X60883348Y-94861295D01*
X60874318Y-94891800D01*
X60864338Y-94921844D01*
X60853408Y-94951426D01*
X60841527Y-94980547D01*
X60828696Y-95009207D01*
X60814914Y-95037406D01*
X60800182Y-95065143D01*
X60784590Y-95092272D01*
X60768230Y-95118647D01*
X60751100Y-95144267D01*
X60733202Y-95169132D01*
X60714536Y-95193243D01*
X60695100Y-95216599D01*
X60674896Y-95239200D01*
X60653923Y-95261046D01*
X60632182Y-95282138D01*
X60609672Y-95302475D01*
X60586393Y-95322057D01*
X60562346Y-95340884D01*
X60537530Y-95358957D01*
X60511946Y-95376275D01*
X60485593Y-95392838D01*
X60458472Y-95408646D01*
X60430677Y-95423594D01*
X60402310Y-95437578D01*
X60373371Y-95450597D01*
X60343858Y-95462652D01*
X60313773Y-95473743D01*
X60283115Y-95483869D01*
X60251884Y-95493032D01*
X60220080Y-95501229D01*
X60187703Y-95508462D01*
X60154753Y-95514731D01*
X60121230Y-95520036D01*
X60087133Y-95524376D01*
X60052464Y-95527751D01*
X60017221Y-95530162D01*
X59981404Y-95531609D01*
X59945015Y-95532091D01*
X59908618Y-95531609D01*
G37*
G36*
X60136077Y-88240684D02*
G01*
X60185952Y-88243158D01*
X60234192Y-88247281D01*
X60280797Y-88253054D01*
X60325768Y-88260476D01*
X60369103Y-88269547D01*
X60410803Y-88280268D01*
X60450869Y-88292638D01*
X60489299Y-88306657D01*
X60526094Y-88322326D01*
X60561254Y-88339643D01*
X60594779Y-88358610D01*
X60626669Y-88379227D01*
X60656923Y-88401492D01*
X60685542Y-88425407D01*
X60712526Y-88450970D01*
X60737872Y-88477946D01*
X60761583Y-88506096D01*
X60783659Y-88535420D01*
X60804100Y-88565918D01*
X60822905Y-88597590D01*
X60840076Y-88630437D01*
X60855611Y-88664457D01*
X60869511Y-88699651D01*
X60881776Y-88736020D01*
X60892405Y-88773562D01*
X60901399Y-88812278D01*
X60908758Y-88852169D01*
X60914482Y-88893233D01*
X60918571Y-88935472D01*
X60921024Y-88978884D01*
X60921841Y-89023471D01*
X60921513Y-89051495D01*
X60920528Y-89079212D01*
X60918886Y-89106621D01*
X60916587Y-89133723D01*
X60913631Y-89160517D01*
X60910019Y-89187004D01*
X60905750Y-89213183D01*
X60900824Y-89239055D01*
X60895240Y-89264619D01*
X60889000Y-89289876D01*
X60882103Y-89314825D01*
X60874549Y-89339467D01*
X60866339Y-89363801D01*
X60857471Y-89387827D01*
X60847946Y-89411546D01*
X60837764Y-89434957D01*
X60826994Y-89457950D01*
X60815708Y-89480411D01*
X60803904Y-89502341D01*
X60791582Y-89523740D01*
X60778744Y-89544608D01*
X60765388Y-89564944D01*
X60751514Y-89584750D01*
X60737124Y-89604024D01*
X60722216Y-89622767D01*
X60706792Y-89640979D01*
X60690850Y-89658660D01*
X60674391Y-89675809D01*
X60657415Y-89692428D01*
X60639922Y-89708515D01*
X60621912Y-89724071D01*
X60603385Y-89739096D01*
X60622764Y-89751445D01*
X60641542Y-89764339D01*
X60659719Y-89777779D01*
X60677295Y-89791763D01*
X60694270Y-89806292D01*
X60710645Y-89821367D01*
X60726418Y-89836986D01*
X60741591Y-89853151D01*
X60756162Y-89869861D01*
X60770132Y-89887115D01*
X60783502Y-89904915D01*
X60796270Y-89923260D01*
X60808436Y-89942150D01*
X60820002Y-89961585D01*
X60830966Y-89981565D01*
X60841329Y-90002090D01*
X60851082Y-90023076D01*
X60860204Y-90044440D01*
X60868697Y-90066181D01*
X60876561Y-90088300D01*
X60883794Y-90110796D01*
X60890399Y-90133670D01*
X60896374Y-90156921D01*
X60901720Y-90180549D01*
X60906436Y-90204555D01*
X60910524Y-90228938D01*
X60913982Y-90253699D01*
X60916812Y-90278837D01*
X60919012Y-90304352D01*
X60920584Y-90330245D01*
X60921527Y-90356515D01*
X60921841Y-90383162D01*
X60921576Y-90407621D01*
X60920779Y-90431802D01*
X60919451Y-90455702D01*
X60917593Y-90479323D01*
X60915203Y-90502664D01*
X60912282Y-90525726D01*
X60908829Y-90548509D01*
X60904846Y-90571011D01*
X60900332Y-90593235D01*
X60895286Y-90615179D01*
X60889710Y-90636843D01*
X60883602Y-90658228D01*
X60876964Y-90679333D01*
X60869794Y-90700159D01*
X60862093Y-90720705D01*
X60853861Y-90740972D01*
X60845124Y-90760890D01*
X60835911Y-90780388D01*
X60826224Y-90799467D01*
X60816062Y-90818126D01*
X60805426Y-90836366D01*
X60794314Y-90854187D01*
X60782727Y-90871588D01*
X60770665Y-90888571D01*
X60758128Y-90905134D01*
X60745116Y-90921277D01*
X60731629Y-90937002D01*
X60717667Y-90952307D01*
X60703229Y-90967193D01*
X60688316Y-90981659D01*
X60672928Y-90995706D01*
X60657064Y-91009335D01*
X60900370Y-91009335D01*
X60900370Y-91435129D01*
X58989660Y-91435129D01*
X58989660Y-90987863D01*
X59959329Y-90987863D01*
X59993698Y-90987339D01*
X60027033Y-90985767D01*
X60059334Y-90983146D01*
X60090600Y-90979477D01*
X60120832Y-90974760D01*
X60150030Y-90968995D01*
X60178194Y-90962182D01*
X60205323Y-90954320D01*
X60231419Y-90945410D01*
X60256480Y-90935451D01*
X60280507Y-90924444D01*
X60303499Y-90912389D01*
X60325458Y-90899286D01*
X60346383Y-90885134D01*
X60366273Y-90869934D01*
X60385130Y-90853685D01*
X60402894Y-90836542D01*
X60419512Y-90818658D01*
X60434984Y-90800033D01*
X60449310Y-90780668D01*
X60462489Y-90760561D01*
X60474523Y-90739714D01*
X60485411Y-90718127D01*
X60495152Y-90695798D01*
X60503748Y-90672729D01*
X60511197Y-90648919D01*
X60517501Y-90624368D01*
X60522658Y-90599076D01*
X60526669Y-90573044D01*
X60529534Y-90546271D01*
X60531253Y-90518757D01*
X60531826Y-90490503D01*
X60531330Y-90464939D01*
X60529841Y-90440130D01*
X60527360Y-90416075D01*
X60523886Y-90392775D01*
X60519420Y-90370230D01*
X60513961Y-90348440D01*
X60507510Y-90327405D01*
X60500066Y-90307124D01*
X60491630Y-90287598D01*
X60482202Y-90268827D01*
X60471781Y-90250811D01*
X60460368Y-90233550D01*
X60447963Y-90217043D01*
X60434565Y-90201292D01*
X60420175Y-90186295D01*
X60404793Y-90172054D01*
X60388434Y-90158621D01*
X60371111Y-90146056D01*
X60352824Y-90134357D01*
X60333572Y-90123524D01*
X60313355Y-90113558D01*
X60292173Y-90104459D01*
X60270027Y-90096226D01*
X60246916Y-90088859D01*
X60222841Y-90082360D01*
X60197802Y-90076726D01*
X60171797Y-90071960D01*
X60144829Y-90068060D01*
X60116896Y-90065027D01*
X60087998Y-90062860D01*
X60058136Y-90061560D01*
X60027309Y-90061127D01*
X58989660Y-90061127D01*
X58989660Y-89613861D01*
X59959329Y-89613861D01*
X59993271Y-89613330D01*
X60026221Y-89611737D01*
X60058179Y-89609081D01*
X60089144Y-89605363D01*
X60119118Y-89600583D01*
X60148099Y-89594741D01*
X60176088Y-89587837D01*
X60203085Y-89579870D01*
X60229090Y-89570841D01*
X60254103Y-89560750D01*
X60278124Y-89549596D01*
X60301152Y-89537380D01*
X60323189Y-89524102D01*
X60344234Y-89509762D01*
X60364286Y-89494359D01*
X60383347Y-89477894D01*
X60401327Y-89460549D01*
X60418147Y-89442505D01*
X60433807Y-89423761D01*
X60448307Y-89404319D01*
X60461647Y-89384178D01*
X60473827Y-89363339D01*
X60484847Y-89341800D01*
X60494707Y-89319562D01*
X60503406Y-89296625D01*
X60510946Y-89272990D01*
X60517326Y-89248656D01*
X60522546Y-89223622D01*
X60526606Y-89197890D01*
X60529506Y-89171460D01*
X60531246Y-89144330D01*
X60531826Y-89116502D01*
X60531330Y-89090938D01*
X60529841Y-89066128D01*
X60527360Y-89042074D01*
X60523886Y-89018774D01*
X60519420Y-88996229D01*
X60513961Y-88974439D01*
X60507510Y-88953404D01*
X60500066Y-88933123D01*
X60491630Y-88913598D01*
X60482202Y-88894827D01*
X60471781Y-88876811D01*
X60460368Y-88859549D01*
X60447963Y-88843043D01*
X60434565Y-88827291D01*
X60420175Y-88812294D01*
X60404793Y-88798051D01*
X60388434Y-88784619D01*
X60371111Y-88772054D01*
X60352824Y-88760355D01*
X60333572Y-88749522D01*
X60313355Y-88739556D01*
X60292173Y-88730457D01*
X60270027Y-88722224D01*
X60246916Y-88714858D01*
X60222841Y-88708358D01*
X60197802Y-88702725D01*
X60171797Y-88697958D01*
X60144829Y-88694059D01*
X60116896Y-88691025D01*
X60087998Y-88688859D01*
X60058136Y-88687559D01*
X60027309Y-88687125D01*
X58989660Y-88687125D01*
X58989660Y-88239859D01*
X60084567Y-88239859D01*
X60136077Y-88240684D01*
G37*
G36*
X66369778Y-37521213D02*
G01*
X66191904Y-37521213D01*
X66052272Y-37163113D01*
X66230125Y-37163072D01*
X66369778Y-37521213D01*
G37*
D11*
%TO.C,SWR2*%
X83445625Y-48865000D02*
X83445625Y-49365000D01*
X83445625Y-52965000D02*
X83445625Y-53565000D01*
X83445625Y-53565000D02*
X87945625Y-53565000D01*
X87945625Y-48865000D02*
X83445625Y-48865000D01*
X87945625Y-49565000D02*
X87945625Y-48865000D01*
X88445625Y-54065000D02*
X88445625Y-55065000D01*
X88945625Y-55565000D02*
X88445625Y-55065000D01*
X91945625Y-51065000D02*
X89445625Y-51065000D01*
X91945625Y-55565000D02*
X88945625Y-55565000D01*
X92445625Y-51565000D02*
X91945625Y-51065000D01*
X92445625Y-55065000D02*
X91945625Y-55565000D01*
X88445625Y-54065000D02*
G75*
G03*
X87945625Y-53565000I-500001J-1D01*
G01*
X87945625Y-49565000D02*
G75*
G03*
X89445625Y-51065000I1500001J1D01*
G01*
%TO.C,SWR10*%
X140445625Y-83540000D02*
X140445625Y-84040000D01*
X140445625Y-87640000D02*
X140445625Y-88240000D01*
X140445625Y-88240000D02*
X144945625Y-88240000D01*
X144945625Y-83540000D02*
X140445625Y-83540000D01*
X144945625Y-84240000D02*
X144945625Y-83540000D01*
X145445625Y-88740000D02*
X145445625Y-89740000D01*
X145945625Y-90240000D02*
X145445625Y-89740000D01*
X148945625Y-85740000D02*
X146445625Y-85740000D01*
X148945625Y-90240000D02*
X145945625Y-90240000D01*
X149445625Y-86240000D02*
X148945625Y-85740000D01*
X149445625Y-89740000D02*
X148945625Y-90240000D01*
X145445625Y-88740000D02*
G75*
G03*
X144945625Y-88240000I-500001J-1D01*
G01*
X144945625Y-84240000D02*
G75*
G03*
X146445625Y-85740000I1500001J1D01*
G01*
%TO.C,SWR7*%
X83445625Y-67865000D02*
X83445625Y-68365000D01*
X83445625Y-71965000D02*
X83445625Y-72565000D01*
X83445625Y-72565000D02*
X87945625Y-72565000D01*
X87945625Y-67865000D02*
X83445625Y-67865000D01*
X87945625Y-68565000D02*
X87945625Y-67865000D01*
X88445625Y-73065000D02*
X88445625Y-74065000D01*
X88945625Y-74565000D02*
X88445625Y-74065000D01*
X91945625Y-70065000D02*
X89445625Y-70065000D01*
X91945625Y-74565000D02*
X88945625Y-74565000D01*
X92445625Y-70565000D02*
X91945625Y-70065000D01*
X92445625Y-74065000D02*
X91945625Y-74565000D01*
X88445625Y-73065000D02*
G75*
G03*
X87945625Y-72565000I-500001J-1D01*
G01*
X87945625Y-68565000D02*
G75*
G03*
X89445625Y-70065000I1500001J1D01*
G01*
%TO.C,SWR18*%
X83445625Y-111565000D02*
X83445625Y-112065000D01*
X83445625Y-115665000D02*
X83445625Y-116265000D01*
X83445625Y-116265000D02*
X87945625Y-116265000D01*
X87945625Y-111565000D02*
X83445625Y-111565000D01*
X87945625Y-112265000D02*
X87945625Y-111565000D01*
X88445625Y-116765000D02*
X88445625Y-117765000D01*
X88945625Y-118265000D02*
X88445625Y-117765000D01*
X91945625Y-113765000D02*
X89445625Y-113765000D01*
X91945625Y-118265000D02*
X88945625Y-118265000D01*
X92445625Y-114265000D02*
X91945625Y-113765000D01*
X92445625Y-117765000D02*
X91945625Y-118265000D01*
X88445625Y-116765000D02*
G75*
G03*
X87945625Y-116265000I-500001J-1D01*
G01*
X87945625Y-112265000D02*
G75*
G03*
X89445625Y-113765000I1500001J1D01*
G01*
%TO.C,SWR4*%
X121445625Y-48865000D02*
X121445625Y-49365000D01*
X121445625Y-52965000D02*
X121445625Y-53565000D01*
X121445625Y-53565000D02*
X125945625Y-53565000D01*
X125945625Y-48865000D02*
X121445625Y-48865000D01*
X125945625Y-49565000D02*
X125945625Y-48865000D01*
X126445625Y-54065000D02*
X126445625Y-55065000D01*
X126945625Y-55565000D02*
X126445625Y-55065000D01*
X129945625Y-51065000D02*
X127445625Y-51065000D01*
X129945625Y-55565000D02*
X126945625Y-55565000D01*
X130445625Y-51565000D02*
X129945625Y-51065000D01*
X130445625Y-55065000D02*
X129945625Y-55565000D01*
X126445625Y-54065000D02*
G75*
G03*
X125945625Y-53565000I-500001J-1D01*
G01*
X125945625Y-49565000D02*
G75*
G03*
X127445625Y-51065000I1500001J1D01*
G01*
%TO.C,SWR6*%
X64445625Y-72615000D02*
X64445625Y-73115000D01*
X64445625Y-76715000D02*
X64445625Y-77315000D01*
X64445625Y-77315000D02*
X68945625Y-77315000D01*
X68945625Y-72615000D02*
X64445625Y-72615000D01*
X68945625Y-73315000D02*
X68945625Y-72615000D01*
X69445625Y-77815000D02*
X69445625Y-78815000D01*
X69945625Y-79315000D02*
X69445625Y-78815000D01*
X72945625Y-74815000D02*
X70445625Y-74815000D01*
X72945625Y-79315000D02*
X69945625Y-79315000D01*
X73445625Y-75315000D02*
X72945625Y-74815000D01*
X73445625Y-78815000D02*
X72945625Y-79315000D01*
X69445625Y-77815000D02*
G75*
G03*
X68945625Y-77315000I-500001J-1D01*
G01*
X68945625Y-73315000D02*
G75*
G03*
X70445625Y-74815000I1500001J1D01*
G01*
%TO.C,SWR13*%
X102445625Y-80690000D02*
X102445625Y-81190000D01*
X102445625Y-84790000D02*
X102445625Y-85390000D01*
X102445625Y-85390000D02*
X106945625Y-85390000D01*
X106945625Y-80690000D02*
X102445625Y-80690000D01*
X106945625Y-81390000D02*
X106945625Y-80690000D01*
X107445625Y-85890000D02*
X107445625Y-86890000D01*
X107945625Y-87390000D02*
X107445625Y-86890000D01*
X110945625Y-82890000D02*
X108445625Y-82890000D01*
X110945625Y-87390000D02*
X107945625Y-87390000D01*
X111445625Y-83390000D02*
X110945625Y-82890000D01*
X111445625Y-86890000D02*
X110945625Y-87390000D01*
X107445625Y-85890000D02*
G75*
G03*
X106945625Y-85390000I-500001J-1D01*
G01*
X106945625Y-81390000D02*
G75*
G03*
X108445625Y-82890000I1500001J1D01*
G01*
%TO.C,SWR9*%
X121445625Y-67865000D02*
X121445625Y-68365000D01*
X121445625Y-71965000D02*
X121445625Y-72565000D01*
X121445625Y-72565000D02*
X125945625Y-72565000D01*
X125945625Y-67865000D02*
X121445625Y-67865000D01*
X125945625Y-68565000D02*
X125945625Y-67865000D01*
X126445625Y-73065000D02*
X126445625Y-74065000D01*
X126945625Y-74565000D02*
X126445625Y-74065000D01*
X129945625Y-70065000D02*
X127445625Y-70065000D01*
X129945625Y-74565000D02*
X126945625Y-74565000D01*
X130445625Y-70565000D02*
X129945625Y-70065000D01*
X130445625Y-74065000D02*
X129945625Y-74565000D01*
X126445625Y-73065000D02*
G75*
G03*
X125945625Y-72565000I-500001J-1D01*
G01*
X125945625Y-68565000D02*
G75*
G03*
X127445625Y-70065000I1500001J1D01*
G01*
%TO.C,SWR17*%
X63647373Y-116175622D02*
X63776782Y-116658585D01*
X64708531Y-120135918D02*
X64863822Y-120715473D01*
X64863822Y-120715473D02*
X69210489Y-119550788D01*
X67994039Y-115010936D02*
X63647373Y-116175622D01*
X68175212Y-115687084D02*
X67994039Y-115010936D01*
X69822861Y-119904341D02*
X70081680Y-120870267D01*
X70694052Y-121223820D02*
X70081680Y-120870267D01*
X72427144Y-116100697D02*
X70012330Y-116747745D01*
X73591830Y-120447363D02*
X70694052Y-121223820D01*
X73039517Y-116454250D02*
X72427144Y-116100697D01*
X73945383Y-119834991D02*
X73591830Y-120447363D01*
X69822860Y-119904341D02*
G75*
G03*
X69210489Y-119550789I-482963J-129411D01*
G01*
X68175212Y-115687084D02*
G75*
G03*
X70012330Y-116747745I1448890J388229D01*
G01*
%TO.C,SWR12*%
X83445625Y-86865000D02*
X83445625Y-87365000D01*
X83445625Y-90965000D02*
X83445625Y-91565000D01*
X83445625Y-91565000D02*
X87945625Y-91565000D01*
X87945625Y-86865000D02*
X83445625Y-86865000D01*
X87945625Y-87565000D02*
X87945625Y-86865000D01*
X88445625Y-92065000D02*
X88445625Y-93065000D01*
X88945625Y-93565000D02*
X88445625Y-93065000D01*
X91945625Y-89065000D02*
X89445625Y-89065000D01*
X91945625Y-93565000D02*
X88945625Y-93565000D01*
X92445625Y-89565000D02*
X91945625Y-89065000D01*
X92445625Y-93065000D02*
X91945625Y-93565000D01*
X88445625Y-92065000D02*
G75*
G03*
X87945625Y-91565000I-500001J-1D01*
G01*
X87945625Y-87565000D02*
G75*
G03*
X89445625Y-89065000I1500001J1D01*
G01*
%TO.C,SWR8*%
X102445625Y-61690000D02*
X102445625Y-62190000D01*
X102445625Y-65790000D02*
X102445625Y-66390000D01*
X102445625Y-66390000D02*
X106945625Y-66390000D01*
X106945625Y-61690000D02*
X102445625Y-61690000D01*
X106945625Y-62390000D02*
X106945625Y-61690000D01*
X107445625Y-66890000D02*
X107445625Y-67890000D01*
X107945625Y-68390000D02*
X107445625Y-67890000D01*
X110945625Y-63890000D02*
X108445625Y-63890000D01*
X110945625Y-68390000D02*
X107945625Y-68390000D01*
X111445625Y-64390000D02*
X110945625Y-63890000D01*
X111445625Y-67890000D02*
X110945625Y-68390000D01*
X107445625Y-66890000D02*
G75*
G03*
X106945625Y-66390000I-500001J-1D01*
G01*
X106945625Y-62390000D02*
G75*
G03*
X108445625Y-63890000I1500001J1D01*
G01*
%TO.C,SWR5*%
X140445625Y-64540000D02*
X140445625Y-65040000D01*
X140445625Y-68640000D02*
X140445625Y-69240000D01*
X140445625Y-69240000D02*
X144945625Y-69240000D01*
X144945625Y-64540000D02*
X140445625Y-64540000D01*
X144945625Y-65240000D02*
X144945625Y-64540000D01*
X145445625Y-69740000D02*
X145445625Y-70740000D01*
X145945625Y-71240000D02*
X145445625Y-70740000D01*
X148945625Y-66740000D02*
X146445625Y-66740000D01*
X148945625Y-71240000D02*
X145945625Y-71240000D01*
X149445625Y-67240000D02*
X148945625Y-66740000D01*
X149445625Y-70740000D02*
X148945625Y-71240000D01*
X145445625Y-69740000D02*
G75*
G03*
X144945625Y-69240000I-500001J-1D01*
G01*
X144945625Y-65240000D02*
G75*
G03*
X146445625Y-66740000I1500001J1D01*
G01*
%TO.C,SWR11*%
X64445625Y-91615000D02*
X64445625Y-92115000D01*
X64445625Y-95715000D02*
X64445625Y-96315000D01*
X64445625Y-96315000D02*
X68945625Y-96315000D01*
X68945625Y-91615000D02*
X64445625Y-91615000D01*
X68945625Y-92315000D02*
X68945625Y-91615000D01*
X69445625Y-96815000D02*
X69445625Y-97815000D01*
X69945625Y-98315000D02*
X69445625Y-97815000D01*
X72945625Y-93815000D02*
X70445625Y-93815000D01*
X72945625Y-98315000D02*
X69945625Y-98315000D01*
X73445625Y-94315000D02*
X72945625Y-93815000D01*
X73445625Y-97815000D02*
X72945625Y-98315000D01*
X69445625Y-96815000D02*
G75*
G03*
X68945625Y-96315000I-500001J-1D01*
G01*
X68945625Y-92315000D02*
G75*
G03*
X70445625Y-93815000I1500001J1D01*
G01*
%TO.C,SWR14*%
X121445625Y-86865000D02*
X121445625Y-87365000D01*
X121445625Y-90965000D02*
X121445625Y-91565000D01*
X121445625Y-91565000D02*
X125945625Y-91565000D01*
X125945625Y-86865000D02*
X121445625Y-86865000D01*
X125945625Y-87565000D02*
X125945625Y-86865000D01*
X126445625Y-92065000D02*
X126445625Y-93065000D01*
X126945625Y-93565000D02*
X126445625Y-93065000D01*
X129945625Y-89065000D02*
X127445625Y-89065000D01*
X129945625Y-93565000D02*
X126945625Y-93565000D01*
X130445625Y-89565000D02*
X129945625Y-89065000D01*
X130445625Y-93065000D02*
X129945625Y-93565000D01*
X126445625Y-92065000D02*
G75*
G03*
X125945625Y-91565000I-500001J-1D01*
G01*
X125945625Y-87565000D02*
G75*
G03*
X127445625Y-89065000I1500001J1D01*
G01*
%TO.C,SWR15*%
X140445625Y-102540000D02*
X140445625Y-103040000D01*
X140445625Y-106640000D02*
X140445625Y-107240000D01*
X140445625Y-107240000D02*
X144945625Y-107240000D01*
X144945625Y-102540000D02*
X140445625Y-102540000D01*
X144945625Y-103240000D02*
X144945625Y-102540000D01*
X145445625Y-107740000D02*
X145445625Y-108740000D01*
X145945625Y-109240000D02*
X145445625Y-108740000D01*
X148945625Y-104740000D02*
X146445625Y-104740000D01*
X148945625Y-109240000D02*
X145945625Y-109240000D01*
X149445625Y-105240000D02*
X148945625Y-104740000D01*
X149445625Y-108740000D02*
X148945625Y-109240000D01*
X145445625Y-107740000D02*
G75*
G03*
X144945625Y-107240000I-500001J-1D01*
G01*
X144945625Y-103240000D02*
G75*
G03*
X146445625Y-104740000I1500001J1D01*
G01*
%TO.C,SWR16*%
X45708447Y-125789038D02*
X45958447Y-126222051D01*
X47758447Y-129339742D02*
X48058447Y-129859358D01*
X48058447Y-129859358D02*
X51955561Y-127609358D01*
X49605561Y-123539038D02*
X45708447Y-125789038D01*
X49955561Y-124145256D02*
X49605561Y-123539038D01*
X52638574Y-127792370D02*
X53138574Y-128658396D01*
X53821587Y-128841408D02*
X53138574Y-128658396D01*
X54169663Y-123444294D02*
X52004600Y-124694294D01*
X56419663Y-127341408D02*
X53821587Y-128841408D01*
X54852676Y-123627307D02*
X54169663Y-123444294D01*
X56602676Y-126658396D02*
X56419663Y-127341408D01*
X52638574Y-127792370D02*
G75*
G03*
X51955561Y-127609358I-433013J-250002D01*
G01*
X49955561Y-124145256D02*
G75*
G03*
X52004600Y-124694294I1299039J750003D01*
G01*
%TO.C,SWR3*%
X102445625Y-42690000D02*
X102445625Y-43190000D01*
X102445625Y-46790000D02*
X102445625Y-47390000D01*
X102445625Y-47390000D02*
X106945625Y-47390000D01*
X106945625Y-42690000D02*
X102445625Y-42690000D01*
X106945625Y-43390000D02*
X106945625Y-42690000D01*
X107445625Y-47890000D02*
X107445625Y-48890000D01*
X107945625Y-49390000D02*
X107445625Y-48890000D01*
X110945625Y-44890000D02*
X108445625Y-44890000D01*
X110945625Y-49390000D02*
X107945625Y-49390000D01*
X111445625Y-45390000D02*
X110945625Y-44890000D01*
X111445625Y-48890000D02*
X110945625Y-49390000D01*
X107445625Y-47890000D02*
G75*
G03*
X106945625Y-47390000I-500001J-1D01*
G01*
X106945625Y-43390000D02*
G75*
G03*
X108445625Y-44890000I1500001J1D01*
G01*
%TO.C,SWR1*%
X64445625Y-53615000D02*
X64445625Y-54115000D01*
X64445625Y-57715000D02*
X64445625Y-58315000D01*
X64445625Y-58315000D02*
X68945625Y-58315000D01*
X68945625Y-53615000D02*
X64445625Y-53615000D01*
X68945625Y-54315000D02*
X68945625Y-53615000D01*
X69445625Y-58815000D02*
X69445625Y-59815000D01*
X69945625Y-60315000D02*
X69445625Y-59815000D01*
X72945625Y-55815000D02*
X70445625Y-55815000D01*
X72945625Y-60315000D02*
X69945625Y-60315000D01*
X73445625Y-56315000D02*
X72945625Y-55815000D01*
X73445625Y-59815000D02*
X72945625Y-60315000D01*
X69445625Y-58815000D02*
G75*
G03*
X68945625Y-58315000I-500001J-1D01*
G01*
X68945625Y-54315000D02*
G75*
G03*
X70445625Y-55815000I1500001J1D01*
G01*
%TO.C,DR10*%
X139370625Y-75365000D02*
X138670625Y-76265000D01*
X138670625Y-75365000D02*
X140070625Y-75365000D01*
X140070625Y-76265000D02*
X139370625Y-75365000D01*
X138670625Y-76265000D02*
X140070625Y-76265000D01*
%TO.C,DR8*%
X101370625Y-53515000D02*
X100670625Y-54415000D01*
X100670625Y-53515000D02*
X102070625Y-53515000D01*
X102070625Y-54415000D02*
X101370625Y-53515000D01*
X100670625Y-54415000D02*
X102070625Y-54415000D01*
%TO.C,DR3*%
X101370625Y-34515000D02*
X100670625Y-35415000D01*
X100670625Y-34515000D02*
X102070625Y-34515000D01*
X102070625Y-35415000D02*
X101370625Y-34515000D01*
X100670625Y-35415000D02*
X102070625Y-35415000D01*
%TO.C,DR9*%
X120370625Y-59690000D02*
X119670625Y-60590000D01*
X119670625Y-59690000D02*
X121070625Y-59690000D01*
X121070625Y-60590000D02*
X120370625Y-59690000D01*
X119670625Y-60590000D02*
X121070625Y-60590000D01*
%TO.C,DR4*%
X120370625Y-40690000D02*
X119670625Y-41590000D01*
X119670625Y-40690000D02*
X121070625Y-40690000D01*
X121070625Y-41590000D02*
X120370625Y-40690000D01*
X119670625Y-41590000D02*
X121070625Y-41590000D01*
%TO.C,DR15*%
X139370625Y-94365000D02*
X138670625Y-95265000D01*
X138670625Y-94365000D02*
X140070625Y-94365000D01*
X140070625Y-95265000D02*
X139370625Y-94365000D01*
X138670625Y-95265000D02*
X140070625Y-95265000D01*
%TO.C,DR6*%
X63370625Y-64440000D02*
X62670625Y-65340000D01*
X62670625Y-64440000D02*
X64070625Y-64440000D01*
X64070625Y-65340000D02*
X63370625Y-64440000D01*
X62670625Y-65340000D02*
X64070625Y-65340000D01*
%TO.C,DR11*%
X63370625Y-83440000D02*
X62670625Y-84340000D01*
X62670625Y-83440000D02*
X64070625Y-83440000D01*
X64070625Y-84340000D02*
X63370625Y-83440000D01*
X62670625Y-84340000D02*
X64070625Y-84340000D01*
%TO.C,DR5*%
X139370625Y-56312500D02*
X138670625Y-57212500D01*
X138670625Y-56312500D02*
X140070625Y-56312500D01*
X140070625Y-57212500D02*
X139370625Y-56312500D01*
X138670625Y-57212500D02*
X140070625Y-57212500D01*
%TO.C,DR16*%
X40320625Y-119131987D02*
X40164407Y-120261410D01*
X39714407Y-119481987D02*
X40926843Y-118781987D01*
X41376843Y-119561410D02*
X40320625Y-119131987D01*
X40164407Y-120261410D02*
X41376843Y-119561410D01*
%TO.C,DR18*%
X82370625Y-103390000D02*
X81670625Y-104290000D01*
X81670625Y-103390000D02*
X83070625Y-103390000D01*
X83070625Y-104290000D02*
X82370625Y-103390000D01*
X81670625Y-104290000D02*
X83070625Y-104290000D01*
%TO.C,DR13*%
X101370625Y-72500000D02*
X100670625Y-73400000D01*
X100670625Y-72500000D02*
X102070625Y-72500000D01*
X102070625Y-73400000D02*
X101370625Y-72500000D01*
X100670625Y-73400000D02*
X102070625Y-73400000D01*
%TO.C,DR12*%
X82370625Y-78690000D02*
X81670625Y-79590000D01*
X81670625Y-78690000D02*
X83070625Y-78690000D01*
X83070625Y-79590000D02*
X82370625Y-78690000D01*
X81670625Y-79590000D02*
X83070625Y-79590000D01*
%TO.C,DR2*%
X82370625Y-40690000D02*
X81670625Y-41590000D01*
X81670625Y-40690000D02*
X83070625Y-40690000D01*
X83070625Y-41590000D02*
X82370625Y-40690000D01*
X81670625Y-41590000D02*
X83070625Y-41590000D01*
%TO.C,DR17*%
X60391215Y-108632037D02*
X59948005Y-109682544D01*
X59715067Y-108813210D02*
X61067364Y-108450864D01*
X61300301Y-109320197D02*
X60391215Y-108632037D01*
X59948005Y-109682544D02*
X61300301Y-109320197D01*
%TO.C,DR14*%
X120370625Y-78690000D02*
X119670625Y-79590000D01*
X119670625Y-78690000D02*
X121070625Y-78690000D01*
X121070625Y-79590000D02*
X120370625Y-78690000D01*
X119670625Y-79590000D02*
X121070625Y-79590000D01*
%TO.C,DR1*%
X63370625Y-45440000D02*
X62670625Y-46340000D01*
X62670625Y-45440000D02*
X64070625Y-45440000D01*
X64070625Y-46340000D02*
X63370625Y-45440000D01*
X62670625Y-46340000D02*
X64070625Y-46340000D01*
%TO.C,DR7*%
X82370625Y-59690000D02*
X81670625Y-60590000D01*
X81670625Y-59690000D02*
X83070625Y-59690000D01*
X83070625Y-60590000D02*
X82370625Y-59690000D01*
X81670625Y-60590000D02*
X83070625Y-60590000D01*
%TD*%
%LPC*%
D12*
%TO.C,SWR2*%
X84945625Y-47365000D03*
D13*
X85445625Y-51115000D03*
D14*
X90445625Y-47365000D03*
D13*
X90445625Y-53315000D03*
D12*
X95945625Y-47365000D03*
D15*
X93720625Y-53315000D03*
X82170625Y-51115000D03*
%TD*%
D12*
%TO.C,SWR10*%
X141945625Y-82040000D03*
D13*
X142445625Y-85790000D03*
D14*
X147445625Y-82040000D03*
D13*
X147445625Y-87990000D03*
D12*
X152945625Y-82040000D03*
D15*
X150720625Y-87990000D03*
X139170625Y-85790000D03*
%TD*%
D12*
%TO.C,SWR7*%
X84945625Y-66365000D03*
D13*
X85445625Y-70115000D03*
D14*
X90445625Y-66365000D03*
D13*
X90445625Y-72315000D03*
D12*
X95945625Y-66365000D03*
D15*
X93720625Y-72315000D03*
X82170625Y-70115000D03*
%TD*%
D16*
%TO.C,REF\u002A\u002A*%
X59945625Y-101001000D03*
%TD*%
%TO.C,REF\u002A\u002A*%
X137195625Y-35865000D03*
%TD*%
D12*
%TO.C,SWR18*%
X84945625Y-110065000D03*
D13*
X85445625Y-113815000D03*
D14*
X90445625Y-110065000D03*
D13*
X90445625Y-116015000D03*
D12*
X95945625Y-110065000D03*
D15*
X93720625Y-116015000D03*
X82170625Y-113815000D03*
%TD*%
D12*
%TO.C,SWR4*%
X122945625Y-47365000D03*
D13*
X123445625Y-51115000D03*
D14*
X128445625Y-47365000D03*
D13*
X128445625Y-53315000D03*
D12*
X133945625Y-47365000D03*
D15*
X131720625Y-53315000D03*
X120170625Y-51115000D03*
%TD*%
D12*
%TO.C,SWR6*%
X65945625Y-71115000D03*
D13*
X66445625Y-74865000D03*
D14*
X71445625Y-71115000D03*
D13*
X71445625Y-77065000D03*
D12*
X76945625Y-71115000D03*
D15*
X74720625Y-77065000D03*
X63170625Y-74865000D03*
%TD*%
D12*
%TO.C,SWR13*%
X103945625Y-79190000D03*
D13*
X104445625Y-82940000D03*
D14*
X109445625Y-79190000D03*
D13*
X109445625Y-85140000D03*
D12*
X114945625Y-79190000D03*
D15*
X112720625Y-85140000D03*
X101170625Y-82940000D03*
%TD*%
D12*
%TO.C,SWR9*%
X122945625Y-66365000D03*
D13*
X123445625Y-70115000D03*
D14*
X128445625Y-66365000D03*
D13*
X128445625Y-72315000D03*
D12*
X133945625Y-66365000D03*
D15*
X131720625Y-72315000D03*
X120170625Y-70115000D03*
%TD*%
D12*
%TO.C,SWR17*%
X64708033Y-114338505D03*
D13*
X66161567Y-117831317D03*
D14*
X70020625Y-112915000D03*
D13*
X71560598Y-118662259D03*
D12*
X75333217Y-111491495D03*
D17*
X74724005Y-117814626D03*
X62998160Y-118678949D03*
%TD*%
D12*
%TO.C,SWR12*%
X84945625Y-85365000D03*
D13*
X85445625Y-89115000D03*
D14*
X90445625Y-85365000D03*
D13*
X90445625Y-91315000D03*
D12*
X95945625Y-85365000D03*
D15*
X93720625Y-91315000D03*
X82170625Y-89115000D03*
%TD*%
D18*
%TO.C,RSW2*%
X78217625Y-36095250D03*
X73217625Y-36095250D03*
D19*
X72217625Y-38595250D03*
X79217625Y-38595250D03*
%TD*%
D12*
%TO.C,SWR8*%
X103945625Y-60190000D03*
D13*
X104445625Y-63940000D03*
D14*
X109445625Y-60190000D03*
D13*
X109445625Y-66140000D03*
D12*
X114945625Y-60190000D03*
D15*
X112720625Y-66140000D03*
X101170625Y-63940000D03*
%TD*%
D12*
%TO.C,SWR5*%
X141945625Y-63040000D03*
D13*
X142445625Y-66790000D03*
D14*
X147445625Y-63040000D03*
D13*
X147445625Y-68990000D03*
D12*
X152945625Y-63040000D03*
D15*
X150720625Y-68990000D03*
X139170625Y-66790000D03*
%TD*%
D16*
%TO.C,REF\u002A\u002A*%
X158945625Y-112540000D03*
%TD*%
D20*
%TO.C,U2*%
X158865625Y-34995000D03*
X156325625Y-34995000D03*
X153785625Y-34995000D03*
X151245625Y-34995000D03*
X148705625Y-34995000D03*
X146165625Y-34995000D03*
X143625625Y-34995000D03*
X143625625Y-51185000D03*
X146165625Y-51185000D03*
X148705625Y-51185000D03*
X151245625Y-51185000D03*
X153785625Y-51185000D03*
X156325625Y-51185000D03*
X158865625Y-51185000D03*
D21*
X159817625Y-41820000D03*
X159817625Y-44360000D03*
X157277625Y-41820000D03*
X157277625Y-44360000D03*
X151562625Y-38645000D03*
X153467625Y-38645000D03*
%TD*%
D12*
%TO.C,SWR11*%
X65945625Y-90115000D03*
D13*
X66445625Y-93865000D03*
D14*
X71445625Y-90115000D03*
D13*
X71445625Y-96065000D03*
D12*
X76945625Y-90115000D03*
D15*
X74720625Y-96065000D03*
X63170625Y-93865000D03*
%TD*%
D16*
%TO.C,REF\u002A\u002A*%
X59945625Y-35865000D03*
%TD*%
D12*
%TO.C,SWR14*%
X122945625Y-85365000D03*
D13*
X123445625Y-89115000D03*
D14*
X128445625Y-85365000D03*
D13*
X128445625Y-91315000D03*
D12*
X133945625Y-85365000D03*
D15*
X131720625Y-91315000D03*
X120170625Y-89115000D03*
%TD*%
D12*
%TO.C,SWR15*%
X141945625Y-101040000D03*
D13*
X142445625Y-104790000D03*
D14*
X147445625Y-101040000D03*
D13*
X147445625Y-106990000D03*
D12*
X152945625Y-101040000D03*
D15*
X150720625Y-106990000D03*
X139170625Y-104790000D03*
%TD*%
D12*
%TO.C,SWR16*%
X46257485Y-123740000D03*
D13*
X48565498Y-126737595D03*
D14*
X51020625Y-120990000D03*
D13*
X53995625Y-126142851D03*
D12*
X55783765Y-118240000D03*
D22*
X56831858Y-124505351D03*
X45729265Y-128375095D03*
%TD*%
D12*
%TO.C,SWR3*%
X103945625Y-41190000D03*
D13*
X104445625Y-44940000D03*
D14*
X109445625Y-41190000D03*
D13*
X109445625Y-47140000D03*
D12*
X114945625Y-41190000D03*
D15*
X112720625Y-47140000D03*
X101170625Y-44940000D03*
%TD*%
D12*
%TO.C,SWR1*%
X65945625Y-52115000D03*
D13*
X66445625Y-55865000D03*
D14*
X71445625Y-52115000D03*
D13*
X71445625Y-58065000D03*
D12*
X76945625Y-52115000D03*
D15*
X74720625Y-58065000D03*
X63170625Y-55865000D03*
%TD*%
D23*
%TO.C,DR10*%
X139370625Y-74165000D03*
X139370625Y-77565000D03*
%TD*%
%TO.C,DR8*%
X101370625Y-52315000D03*
X101370625Y-55715000D03*
%TD*%
%TO.C,DR3*%
X101370625Y-33315000D03*
X101370625Y-36715000D03*
%TD*%
%TO.C,DR9*%
X120370625Y-58490000D03*
X120370625Y-61890000D03*
%TD*%
%TO.C,DR4*%
X120370625Y-39490000D03*
X120370625Y-42890000D03*
%TD*%
%TO.C,DR15*%
X139370625Y-93165000D03*
X139370625Y-96565000D03*
%TD*%
%TO.C,DR6*%
X63370625Y-63240000D03*
X63370625Y-66640000D03*
%TD*%
%TO.C,DR11*%
X63370625Y-82240000D03*
X63370625Y-85640000D03*
%TD*%
%TO.C,DR5*%
X139370625Y-55112500D03*
X139370625Y-58512500D03*
%TD*%
D24*
%TO.C,DR16*%
X39720625Y-118092757D03*
X41420625Y-121037243D03*
%TD*%
D23*
%TO.C,DR18*%
X82370625Y-102190000D03*
X82370625Y-105590000D03*
%TD*%
%TO.C,DR13*%
X101370625Y-71300000D03*
X101370625Y-74700000D03*
%TD*%
%TO.C,DR12*%
X82370625Y-77490000D03*
X82370625Y-80890000D03*
%TD*%
%TO.C,DR2*%
X82370625Y-39490000D03*
X82370625Y-42890000D03*
%TD*%
D25*
%TO.C,DR17*%
X60080633Y-107472926D03*
X60960617Y-110757074D03*
%TD*%
D23*
%TO.C,DR14*%
X120370625Y-77490000D03*
X120370625Y-80890000D03*
%TD*%
%TO.C,DR1*%
X63370625Y-44240000D03*
X63370625Y-47640000D03*
%TD*%
%TO.C,DR7*%
X82370625Y-58490000D03*
X82370625Y-61890000D03*
%TD*%
M02*
