%TF.GenerationSoftware,KiCad,Pcbnew,7.0.1*%
%TF.CreationDate,2024-02-26T07:23:15-05:00*%
%TF.ProjectId,pcb-right,7063622d-7269-4676-9874-2e6b69636164,0.3*%
%TF.SameCoordinates,Original*%
%TF.FileFunction,Soldermask,Top*%
%TF.FilePolarity,Negative*%
%FSLAX46Y46*%
G04 Gerber Fmt 4.6, Leading zero omitted, Abs format (unit mm)*
G04 Created by KiCad (PCBNEW 7.0.1) date 2024-02-26 07:23:15*
%MOMM*%
%LPD*%
G01*
G04 APERTURE LIST*
G04 Aperture macros list*
%AMRoundRect*
0 Rectangle with rounded corners*
0 $1 Rounding radius*
0 $2 $3 $4 $5 $6 $7 $8 $9 X,Y pos of 4 corners*
0 Add a 4 corners polygon primitive as box body*
4,1,4,$2,$3,$4,$5,$6,$7,$8,$9,$2,$3,0*
0 Add four circle primitives for the rounded corners*
1,1,$1+$1,$2,$3*
1,1,$1+$1,$4,$5*
1,1,$1+$1,$6,$7*
1,1,$1+$1,$8,$9*
0 Add four rect primitives between the rounded corners*
20,1,$1+$1,$2,$3,$4,$5,0*
20,1,$1+$1,$4,$5,$6,$7,0*
20,1,$1+$1,$6,$7,$8,$9,0*
20,1,$1+$1,$8,$9,$2,$3,0*%
G04 Aperture macros list end*
%ADD10C,1.701800*%
%ADD11C,3.000000*%
%ADD12C,3.429000*%
%ADD13C,3.800000*%
%ADD14C,2.100000*%
%ADD15RoundRect,0.250000X-1.500000X0.250000X-1.500000X-0.250000X1.500000X-0.250000X1.500000X0.250000X0*%
%ADD16RoundRect,0.250001X-1.449999X0.499999X-1.449999X-0.499999X1.449999X-0.499999X1.449999X0.499999X0*%
%ADD17O,1.800000X2.750000*%
%ADD18C,1.397000*%
G04 APERTURE END LIST*
D10*
%TO.C,SWR2*%
X84945625Y-47365000D03*
D11*
X85445625Y-51115000D03*
D12*
X90445625Y-47365000D03*
D11*
X90445625Y-53315000D03*
D10*
X95945625Y-47365000D03*
%TD*%
%TO.C,SWR10*%
X141945625Y-82040000D03*
D11*
X142445625Y-85790000D03*
D12*
X147445625Y-82040000D03*
D11*
X147445625Y-87990000D03*
D10*
X152945625Y-82040000D03*
%TD*%
%TO.C,SWR7*%
X84945625Y-66365000D03*
D11*
X85445625Y-70115000D03*
D12*
X90445625Y-66365000D03*
D11*
X90445625Y-72315000D03*
D10*
X95945625Y-66365000D03*
%TD*%
D13*
%TO.C,REF\u002A\u002A*%
X59945625Y-101001000D03*
%TD*%
%TO.C,REF\u002A\u002A*%
X137195625Y-35865000D03*
%TD*%
D10*
%TO.C,SWR18*%
X84945625Y-110065000D03*
D11*
X85445625Y-113815000D03*
D12*
X90445625Y-110065000D03*
D11*
X90445625Y-116015000D03*
D10*
X95945625Y-110065000D03*
%TD*%
%TO.C,SWR4*%
X122945625Y-47365000D03*
D11*
X123445625Y-51115000D03*
D12*
X128445625Y-47365000D03*
D11*
X128445625Y-53315000D03*
D10*
X133945625Y-47365000D03*
%TD*%
%TO.C,SWR6*%
X65945625Y-71115000D03*
D11*
X66445625Y-74865000D03*
D12*
X71445625Y-71115000D03*
D11*
X71445625Y-77065000D03*
D10*
X76945625Y-71115000D03*
%TD*%
%TO.C,SWR13*%
X103945625Y-79190000D03*
D11*
X104445625Y-82940000D03*
D12*
X109445625Y-79190000D03*
D11*
X109445625Y-85140000D03*
D10*
X114945625Y-79190000D03*
%TD*%
%TO.C,SWR9*%
X122945625Y-66365000D03*
D11*
X123445625Y-70115000D03*
D12*
X128445625Y-66365000D03*
D11*
X128445625Y-72315000D03*
D10*
X133945625Y-66365000D03*
%TD*%
%TO.C,SWR17*%
X64708033Y-114338505D03*
D11*
X66161567Y-117831317D03*
D12*
X70020625Y-112915000D03*
D11*
X71560598Y-118662259D03*
D10*
X75333217Y-111491495D03*
%TD*%
%TO.C,SWR12*%
X84945625Y-85365000D03*
D11*
X85445625Y-89115000D03*
D12*
X90445625Y-85365000D03*
D11*
X90445625Y-91315000D03*
D10*
X95945625Y-85365000D03*
%TD*%
D14*
%TO.C,RSW2*%
X72217625Y-38595250D03*
X79217625Y-38595250D03*
%TD*%
D10*
%TO.C,SWR8*%
X103945625Y-60190000D03*
D11*
X104445625Y-63940000D03*
D12*
X109445625Y-60190000D03*
D11*
X109445625Y-66140000D03*
D10*
X114945625Y-60190000D03*
%TD*%
%TO.C,SWR5*%
X141945625Y-63040000D03*
D11*
X142445625Y-66790000D03*
D12*
X147445625Y-63040000D03*
D11*
X147445625Y-68990000D03*
D10*
X152945625Y-63040000D03*
%TD*%
D15*
%TO.C,J2*%
X115627625Y-94336000D03*
X115627625Y-96336000D03*
D16*
X109877625Y-91986000D03*
X109877625Y-98686000D03*
%TD*%
D13*
%TO.C,REF\u002A\u002A*%
X158945625Y-112540000D03*
%TD*%
D17*
%TO.C,U2*%
X158865625Y-34995000D03*
X156325625Y-34995000D03*
X153785625Y-34995000D03*
X151245625Y-34995000D03*
X148705625Y-34995000D03*
X146165625Y-34995000D03*
X143625625Y-34995000D03*
X143625625Y-51185000D03*
X146165625Y-51185000D03*
X148705625Y-51185000D03*
X151245625Y-51185000D03*
X153785625Y-51185000D03*
X156325625Y-51185000D03*
X158865625Y-51185000D03*
D18*
X159817625Y-41820000D03*
X159817625Y-44360000D03*
X157277625Y-41820000D03*
X157277625Y-44360000D03*
X151562625Y-38645000D03*
X153467625Y-38645000D03*
%TD*%
D10*
%TO.C,SWR11*%
X65945625Y-90115000D03*
D11*
X66445625Y-93865000D03*
D12*
X71445625Y-90115000D03*
D11*
X71445625Y-96065000D03*
D10*
X76945625Y-90115000D03*
%TD*%
D13*
%TO.C,REF\u002A\u002A*%
X59945625Y-35865000D03*
%TD*%
D10*
%TO.C,SWR14*%
X122945625Y-85365000D03*
D11*
X123445625Y-89115000D03*
D12*
X128445625Y-85365000D03*
D11*
X128445625Y-91315000D03*
D10*
X133945625Y-85365000D03*
%TD*%
%TO.C,SWR15*%
X141945625Y-101040000D03*
D11*
X142445625Y-104790000D03*
D12*
X147445625Y-101040000D03*
D11*
X147445625Y-106990000D03*
D10*
X152945625Y-101040000D03*
%TD*%
%TO.C,SWR16*%
X46257485Y-123740000D03*
D11*
X48565498Y-126737595D03*
D12*
X51020625Y-120990000D03*
D11*
X53995625Y-126142851D03*
D10*
X55783765Y-118240000D03*
%TD*%
%TO.C,SWR3*%
X103945625Y-41190000D03*
D11*
X104445625Y-44940000D03*
D12*
X109445625Y-41190000D03*
D11*
X109445625Y-47140000D03*
D10*
X114945625Y-41190000D03*
%TD*%
%TO.C,SWR1*%
X65945625Y-52115000D03*
D11*
X66445625Y-55865000D03*
D12*
X71445625Y-52115000D03*
D11*
X71445625Y-58065000D03*
D10*
X76945625Y-52115000D03*
%TD*%
M02*
