%TF.GenerationSoftware,KiCad,Pcbnew,7.0.1*%
%TF.CreationDate,2024-02-26T07:05:48-05:00*%
%TF.ProjectId,pcb-right,7063622d-7269-4676-9874-2e6b69636164,0.3*%
%TF.SameCoordinates,Original*%
%TF.FileFunction,Drillmap*%
%TF.FilePolarity,Positive*%
%FSLAX45Y45*%
G04 Gerber Fmt 4.5, Leading zero omitted, Abs format (unit mm)*
G04 Created by KiCad (PCBNEW 7.0.1) date 2024-02-26 07:05:48*
%MOMM*%
%LPD*%
G01*
G04 APERTURE LIST*
%ADD10C,0.020000*%
%ADD11C,0.200000*%
%ADD12C,0.170180*%
%ADD13C,0.300000*%
%ADD14C,0.342900*%
G04 APERTURE END LIST*
D10*
X9945000Y-3068750D02*
G75*
G03*
X9895000Y-3118750I0J-50000D01*
G01*
X11995000Y-3261250D02*
X11995000Y-3118750D01*
X4761475Y-13508077D02*
X5627500Y-13008077D01*
X8322788Y-12097354D02*
X8316096Y-12098121D01*
X8309379Y-12098898D01*
X8302612Y-12099690D01*
X8295769Y-12100500D01*
X8288823Y-12101333D01*
X8281750Y-12102193D01*
X8274523Y-12103083D01*
X8267117Y-12104010D01*
X8259505Y-12104976D01*
X8251662Y-12105985D01*
X8243562Y-12107043D01*
X8235179Y-12108153D01*
X8226487Y-12109320D01*
X8217461Y-12110547D01*
X8208074Y-12111839D01*
X8198301Y-12113201D01*
X8188116Y-12114635D01*
X8177493Y-12116148D01*
X8166407Y-12117742D01*
X8154831Y-12119423D01*
X8142739Y-12121194D01*
X8130107Y-12123059D01*
X8116907Y-12125023D01*
X8103114Y-12127091D01*
X8088703Y-12129265D01*
X8073647Y-12131551D01*
X8057921Y-12133953D01*
X8041498Y-12136474D01*
X8024354Y-12139120D01*
X8006461Y-12141894D01*
X7987795Y-12144801D01*
X7968329Y-12147845D01*
X9845000Y-3311250D02*
G75*
G03*
X9895000Y-3261250I0J50000D01*
G01*
X10045000Y-12056250D02*
G75*
G03*
X10095000Y-12006250I0J50000D01*
G01*
X7618567Y-12217436D02*
X7612051Y-12218920D01*
X7605512Y-12220417D01*
X7598924Y-12221933D01*
X7592262Y-12223475D01*
X7585501Y-12225051D01*
X7578615Y-12226667D01*
X7571581Y-12228330D01*
X7564372Y-12230048D01*
X7556964Y-12231826D01*
X7549331Y-12233673D01*
X7541449Y-12235595D01*
X7533291Y-12237598D01*
X7524834Y-12239691D01*
X7516052Y-12241879D01*
X7506920Y-12244171D01*
X7497412Y-12246572D01*
X7487504Y-12249090D01*
X7477171Y-12251732D01*
X7466387Y-12254505D01*
X7455127Y-12257415D01*
X7443367Y-12260470D01*
X7431081Y-12263677D01*
X7418243Y-12267042D01*
X7404830Y-12270572D01*
X7390815Y-12274276D01*
X7376174Y-12278158D01*
X7360881Y-12282227D01*
X7344912Y-12286490D01*
X7328241Y-12290952D01*
X7310843Y-12295622D01*
X7292693Y-12300507D01*
X7273766Y-12305612D01*
X10145000Y-11528750D02*
G75*
G03*
X10095000Y-11578750I0J-50000D01*
G01*
X5720000Y-10529801D02*
X3711475Y-11689423D01*
X5946383Y-12833870D02*
X5940352Y-12836984D01*
X5934299Y-12840116D01*
X5928202Y-12843279D01*
X5922036Y-12846487D01*
X5915779Y-12849753D01*
X5909408Y-12853089D01*
X5902899Y-12856510D01*
X5896228Y-12860029D01*
X5889374Y-12863658D01*
X5882312Y-12867411D01*
X5875020Y-12871301D01*
X5867473Y-12875341D01*
X5859650Y-12879545D01*
X5851527Y-12883926D01*
X5843080Y-12888496D01*
X5834286Y-12893270D01*
X5825123Y-12898260D01*
X5815566Y-12903480D01*
X5805593Y-12908943D01*
X5795181Y-12914662D01*
X5784306Y-12920650D01*
X5772944Y-12926921D01*
X5761074Y-12933488D01*
X5748672Y-12940363D01*
X5735713Y-12947561D01*
X5722176Y-12955094D01*
X5708037Y-12962976D01*
X5693273Y-12971219D01*
X5677861Y-12979838D01*
X5661776Y-12988845D01*
X5644997Y-12998253D01*
X5627500Y-13008077D01*
X10095000Y-12006250D02*
X10095000Y-11578750D01*
X16170000Y-3361250D02*
G75*
G03*
X16120000Y-3311250I-50000J0D01*
G01*
X5770000Y-3311250D02*
G75*
G03*
X5720000Y-3361250I0J-50000D01*
G01*
X7273766Y-12305612D02*
X7267346Y-12307441D01*
X7260902Y-12309283D01*
X7254411Y-12311147D01*
X7247847Y-12313042D01*
X7241185Y-12314974D01*
X7234401Y-12316954D01*
X7227470Y-12318988D01*
X7220368Y-12321085D01*
X7213070Y-12323254D01*
X7205550Y-12325503D01*
X7197784Y-12327839D01*
X7189748Y-12330272D01*
X7181417Y-12332809D01*
X7172766Y-12335460D01*
X7163770Y-12338231D01*
X7154404Y-12341132D01*
X7144644Y-12344170D01*
X7134466Y-12347354D01*
X7123843Y-12350692D01*
X7112752Y-12354193D01*
X7101169Y-12357865D01*
X7089067Y-12361715D01*
X7076423Y-12365753D01*
X7063211Y-12369986D01*
X7049407Y-12374423D01*
X7034987Y-12379072D01*
X7019925Y-12383941D01*
X7004196Y-12389039D01*
X6987777Y-12394374D01*
X6970642Y-12399954D01*
X6952766Y-12405788D01*
X6934126Y-12411883D01*
X16120000Y-11528750D02*
G75*
G03*
X16170000Y-11478750I0J50000D01*
G01*
X5720000Y-10529801D02*
X5720000Y-3361250D01*
X3711477Y-11689428D02*
G75*
G03*
X3693173Y-11757725I25003J-43302D01*
G01*
X8681723Y-12066604D02*
X8674948Y-12066995D01*
X8668148Y-12067394D01*
X8661297Y-12067805D01*
X8654370Y-12068230D01*
X8647338Y-12068673D01*
X8640177Y-12069135D01*
X8632861Y-12069621D01*
X8625362Y-12070132D01*
X8617656Y-12070671D01*
X8609715Y-12071241D01*
X8601514Y-12071846D01*
X8593026Y-12072487D01*
X8584225Y-12073168D01*
X8575086Y-12073891D01*
X8565581Y-12074660D01*
X8555685Y-12075476D01*
X8545372Y-12076344D01*
X8534615Y-12077265D01*
X8523389Y-12078242D01*
X8511666Y-12079278D01*
X8499421Y-12080377D01*
X8486629Y-12081540D01*
X8473261Y-12082771D01*
X8459293Y-12084072D01*
X8444699Y-12085447D01*
X8429451Y-12086897D01*
X8413524Y-12088427D01*
X8396892Y-12090038D01*
X8379529Y-12091733D01*
X8361408Y-12093516D01*
X8342503Y-12095388D01*
X8322788Y-12097354D01*
X9045000Y-12056250D02*
X10045000Y-12056250D01*
X9895000Y-3261250D02*
X9895000Y-3118750D01*
X3693173Y-11757725D02*
X4693173Y-13489775D01*
X11995000Y-3118750D02*
G75*
G03*
X11945000Y-3068750I-50000J0D01*
G01*
X4693169Y-13489778D02*
G75*
G03*
X4761475Y-13508077I43301J24998D01*
G01*
X16170000Y-11478750D02*
X16170000Y-3361250D01*
X9945000Y-3068750D02*
X11945000Y-3068750D01*
X10145000Y-11528750D02*
X16120000Y-11528750D01*
X7968329Y-12147845D02*
X7961723Y-12148976D01*
X7955092Y-12150119D01*
X7948412Y-12151278D01*
X7941657Y-12152460D01*
X7934801Y-12153669D01*
X7927819Y-12154913D01*
X7920686Y-12156195D01*
X7913375Y-12157523D01*
X7905862Y-12158901D01*
X7898122Y-12160335D01*
X7890127Y-12161831D01*
X7881854Y-12163394D01*
X7873277Y-12165030D01*
X7864369Y-12166745D01*
X7855106Y-12168544D01*
X7845462Y-12170432D01*
X7835412Y-12172416D01*
X7824930Y-12174501D01*
X7813991Y-12176693D01*
X7802568Y-12178996D01*
X7790638Y-12181418D01*
X7778174Y-12183963D01*
X7765150Y-12186637D01*
X7751542Y-12189445D01*
X7737324Y-12192394D01*
X7722469Y-12195489D01*
X7706954Y-12198735D01*
X7690752Y-12202139D01*
X7673838Y-12205705D01*
X7656186Y-12209439D01*
X7637771Y-12213348D01*
X7618567Y-12217436D01*
X6270455Y-12676395D02*
X6264327Y-12679196D01*
X6258177Y-12682013D01*
X6251981Y-12684860D01*
X6245716Y-12687747D01*
X6239358Y-12690687D01*
X6232884Y-12693692D01*
X6226270Y-12696774D01*
X6219492Y-12699944D01*
X6212526Y-12703216D01*
X6205350Y-12706600D01*
X6197940Y-12710109D01*
X6190271Y-12713755D01*
X6182321Y-12717550D01*
X6174066Y-12721505D01*
X6165482Y-12725633D01*
X6156545Y-12729947D01*
X6147232Y-12734456D01*
X6137520Y-12739175D01*
X6127385Y-12744114D01*
X6116803Y-12749286D01*
X6105751Y-12754703D01*
X6094204Y-12760377D01*
X6082140Y-12766319D01*
X6069535Y-12772542D01*
X6056366Y-12779057D01*
X6042608Y-12785878D01*
X6028238Y-12793015D01*
X6013232Y-12800480D01*
X5997567Y-12808287D01*
X5981220Y-12816446D01*
X5964166Y-12824969D01*
X5946383Y-12833870D01*
X6599697Y-12535649D02*
X6593472Y-12538134D01*
X6587225Y-12540635D01*
X6580931Y-12543163D01*
X6574566Y-12545728D01*
X6568108Y-12548341D01*
X6561531Y-12551012D01*
X6554811Y-12553754D01*
X6547926Y-12556575D01*
X6540850Y-12559488D01*
X6533560Y-12562503D01*
X6526031Y-12565630D01*
X6518241Y-12568881D01*
X6510164Y-12572266D01*
X6501777Y-12575795D01*
X6493056Y-12579481D01*
X6483978Y-12583333D01*
X6474517Y-12587362D01*
X6464649Y-12591580D01*
X6454352Y-12595996D01*
X6443602Y-12600621D01*
X6432373Y-12605467D01*
X6420642Y-12610545D01*
X6408385Y-12615864D01*
X6395579Y-12621435D01*
X6382198Y-12627270D01*
X6368220Y-12633379D01*
X6353620Y-12639774D01*
X6338375Y-12646463D01*
X6322459Y-12653460D01*
X6305850Y-12660773D01*
X6288523Y-12668415D01*
X6270455Y-12676395D01*
X12045000Y-3311250D02*
X16120000Y-3311250D01*
X5770000Y-3311250D02*
X9845000Y-3311250D01*
X6934126Y-12411883D02*
X6927803Y-12414045D01*
X6921458Y-12416223D01*
X6915065Y-12418424D01*
X6908601Y-12420659D01*
X6902041Y-12422938D01*
X6895360Y-12425269D01*
X6888536Y-12427663D01*
X6881542Y-12430128D01*
X6874355Y-12432675D01*
X6866950Y-12435313D01*
X6859303Y-12438051D01*
X6851390Y-12440900D01*
X6843186Y-12443867D01*
X6834668Y-12446964D01*
X6825810Y-12450200D01*
X6816588Y-12453583D01*
X6806978Y-12457125D01*
X6796955Y-12460833D01*
X6786496Y-12464718D01*
X6775576Y-12468790D01*
X6764170Y-12473057D01*
X6752254Y-12477530D01*
X6739804Y-12482218D01*
X6726795Y-12487130D01*
X6713204Y-12492276D01*
X6699005Y-12497665D01*
X6684175Y-12503308D01*
X6668689Y-12509213D01*
X6652522Y-12515390D01*
X6635651Y-12521849D01*
X6618051Y-12528598D01*
X6599697Y-12535649D01*
X11995000Y-3261250D02*
G75*
G03*
X12045000Y-3311250I50000J0D01*
G01*
X9045000Y-12056250D02*
X9038144Y-12056253D01*
X9031264Y-12056264D01*
X9024331Y-12056283D01*
X9017320Y-12056313D01*
X9010205Y-12056354D01*
X9002958Y-12056407D01*
X8995554Y-12056475D01*
X8987965Y-12056558D01*
X8980166Y-12056657D01*
X8972130Y-12056775D01*
X8963830Y-12056912D01*
X8955240Y-12057070D01*
X8946334Y-12057249D01*
X8937084Y-12057452D01*
X8927465Y-12057680D01*
X8917449Y-12057934D01*
X8907011Y-12058215D01*
X8896124Y-12058524D01*
X8884762Y-12058864D01*
X8872897Y-12059234D01*
X8860504Y-12059638D01*
X8847556Y-12060075D01*
X8834026Y-12060547D01*
X8819889Y-12061056D01*
X8805117Y-12061603D01*
X8789684Y-12062189D01*
X8773564Y-12062816D01*
X8756729Y-12063485D01*
X8739154Y-12064196D01*
X8720813Y-12064953D01*
X8701678Y-12065755D01*
X8681723Y-12066604D01*
D11*
D12*
X4540659Y-12288910D02*
X4710839Y-12459090D01*
X4710839Y-12288910D02*
X4540659Y-12459090D01*
X5493287Y-11738910D02*
X5663466Y-11909090D01*
X5663466Y-11738910D02*
X5493287Y-11909090D01*
X6385713Y-11348760D02*
X6555893Y-11518940D01*
X6555893Y-11348760D02*
X6385713Y-11518940D01*
X6509472Y-5126410D02*
X6679652Y-5296590D01*
X6679652Y-5126410D02*
X6509472Y-5296590D01*
X6509472Y-7026410D02*
X6679652Y-7196590D01*
X6679652Y-7026410D02*
X6509472Y-7196590D01*
X6509472Y-8926410D02*
X6679652Y-9096590D01*
X6679652Y-8926410D02*
X6509472Y-9096590D01*
X7448232Y-11064060D02*
X7618412Y-11234239D01*
X7618412Y-11064060D02*
X7448232Y-11234239D01*
X7609472Y-5126410D02*
X7779652Y-5296590D01*
X7779652Y-5126410D02*
X7609472Y-5296590D01*
X7609472Y-7026410D02*
X7779652Y-7196590D01*
X7779652Y-7026410D02*
X7609472Y-7196590D01*
X7609472Y-8926410D02*
X7779652Y-9096590D01*
X7779652Y-8926410D02*
X7609472Y-9096590D01*
X8409473Y-4651410D02*
X8579653Y-4821590D01*
X8579653Y-4651410D02*
X8409473Y-4821590D01*
X8409473Y-6551410D02*
X8579653Y-6721590D01*
X8579653Y-6551410D02*
X8409473Y-6721590D01*
X8409473Y-8451410D02*
X8579653Y-8621590D01*
X8579653Y-8451410D02*
X8409473Y-8621590D01*
X8409473Y-10921410D02*
X8579653Y-11091590D01*
X8579653Y-10921410D02*
X8409473Y-11091590D01*
X9509473Y-4651410D02*
X9679653Y-4821590D01*
X9679653Y-4651410D02*
X9509473Y-4821590D01*
X9509473Y-6551410D02*
X9679653Y-6721590D01*
X9679653Y-6551410D02*
X9509473Y-6721590D01*
X9509473Y-8451410D02*
X9679653Y-8621590D01*
X9679653Y-8451410D02*
X9509473Y-8621590D01*
X9509473Y-10921410D02*
X9679653Y-11091590D01*
X9679653Y-10921410D02*
X9509473Y-11091590D01*
X10309473Y-4033910D02*
X10479653Y-4204090D01*
X10479653Y-4033910D02*
X10309473Y-4204090D01*
X10309473Y-5933910D02*
X10479653Y-6104090D01*
X10479653Y-5933910D02*
X10309473Y-6104090D01*
X10309473Y-7833910D02*
X10479653Y-8004090D01*
X10479653Y-7833910D02*
X10309473Y-8004090D01*
X11409472Y-4033910D02*
X11579652Y-4204090D01*
X11579652Y-4033910D02*
X11409472Y-4204090D01*
X11409472Y-5933910D02*
X11579652Y-6104090D01*
X11579652Y-5933910D02*
X11409472Y-6104090D01*
X11409472Y-7833910D02*
X11579652Y-8004090D01*
X11579652Y-7833910D02*
X11409472Y-8004090D01*
X12209472Y-4651410D02*
X12379652Y-4821590D01*
X12379652Y-4651410D02*
X12209472Y-4821590D01*
X12209472Y-6551410D02*
X12379652Y-6721590D01*
X12379652Y-6551410D02*
X12209472Y-6721590D01*
X12209472Y-8451410D02*
X12379652Y-8621590D01*
X12379652Y-8451410D02*
X12209472Y-8621590D01*
X13309472Y-4651410D02*
X13479652Y-4821590D01*
X13479652Y-4651410D02*
X13309472Y-4821590D01*
X13309472Y-6551410D02*
X13479652Y-6721590D01*
X13479652Y-6551410D02*
X13309472Y-6721590D01*
X13309472Y-8451410D02*
X13479652Y-8621590D01*
X13479652Y-8451410D02*
X13309472Y-8621590D01*
X14109472Y-6218910D02*
X14279652Y-6389090D01*
X14279652Y-6218910D02*
X14109472Y-6389090D01*
X14109472Y-8118910D02*
X14279652Y-8289090D01*
X14279652Y-8118910D02*
X14109472Y-8289090D01*
X14109472Y-10018910D02*
X14279652Y-10189090D01*
X14279652Y-10018910D02*
X14109472Y-10189090D01*
X15209472Y-6218910D02*
X15379652Y-6389090D01*
X15379652Y-6218910D02*
X15209472Y-6389090D01*
X15209472Y-8118910D02*
X15379652Y-8289090D01*
X15379652Y-8118910D02*
X15209472Y-8289090D01*
X15209472Y-10018910D02*
X15379652Y-10189090D01*
X15379652Y-10018910D02*
X15209472Y-10189090D01*
D13*
X5006550Y-12673759D02*
G75*
G03*
X5006550Y-12673759I-150000J0D01*
G01*
X5549563Y-12614285D02*
G75*
G03*
X5549563Y-12614285I-150000J0D01*
G01*
X6766157Y-11783132D02*
G75*
G03*
X6766157Y-11783132I-150000J0D01*
G01*
X6794562Y-5586500D02*
G75*
G03*
X6794562Y-5586500I-150000J0D01*
G01*
X6794562Y-7486500D02*
G75*
G03*
X6794562Y-7486500I-150000J0D01*
G01*
X6794562Y-9386500D02*
G75*
G03*
X6794562Y-9386500I-150000J0D01*
G01*
X7294562Y-5806500D02*
G75*
G03*
X7294562Y-5806500I-150000J0D01*
G01*
X7294562Y-7706500D02*
G75*
G03*
X7294562Y-7706500I-150000J0D01*
G01*
X7294562Y-9606500D02*
G75*
G03*
X7294562Y-9606500I-150000J0D01*
G01*
X7306060Y-11866226D02*
G75*
G03*
X7306060Y-11866226I-150000J0D01*
G01*
X8694563Y-5111500D02*
G75*
G03*
X8694563Y-5111500I-150000J0D01*
G01*
X8694563Y-7011500D02*
G75*
G03*
X8694563Y-7011500I-150000J0D01*
G01*
X8694563Y-8911500D02*
G75*
G03*
X8694563Y-8911500I-150000J0D01*
G01*
X8694563Y-11381500D02*
G75*
G03*
X8694563Y-11381500I-150000J0D01*
G01*
X9194563Y-5331500D02*
G75*
G03*
X9194563Y-5331500I-150000J0D01*
G01*
X9194563Y-7231500D02*
G75*
G03*
X9194563Y-7231500I-150000J0D01*
G01*
X9194563Y-9131500D02*
G75*
G03*
X9194563Y-9131500I-150000J0D01*
G01*
X9194563Y-11601500D02*
G75*
G03*
X9194563Y-11601500I-150000J0D01*
G01*
X10594563Y-4494000D02*
G75*
G03*
X10594563Y-4494000I-150000J0D01*
G01*
X10594563Y-6394000D02*
G75*
G03*
X10594563Y-6394000I-150000J0D01*
G01*
X10594563Y-8294000D02*
G75*
G03*
X10594563Y-8294000I-150000J0D01*
G01*
X11094563Y-4714000D02*
G75*
G03*
X11094563Y-4714000I-150000J0D01*
G01*
X11094563Y-6614000D02*
G75*
G03*
X11094563Y-6614000I-150000J0D01*
G01*
X11094563Y-8514000D02*
G75*
G03*
X11094563Y-8514000I-150000J0D01*
G01*
X12494562Y-5111500D02*
G75*
G03*
X12494562Y-5111500I-150000J0D01*
G01*
X12494562Y-7011500D02*
G75*
G03*
X12494562Y-7011500I-150000J0D01*
G01*
X12494562Y-8911500D02*
G75*
G03*
X12494562Y-8911500I-150000J0D01*
G01*
X12994562Y-5331500D02*
G75*
G03*
X12994562Y-5331500I-150000J0D01*
G01*
X12994562Y-7231500D02*
G75*
G03*
X12994562Y-7231500I-150000J0D01*
G01*
X12994562Y-9131500D02*
G75*
G03*
X12994562Y-9131500I-150000J0D01*
G01*
X14394562Y-6679000D02*
G75*
G03*
X14394562Y-6679000I-150000J0D01*
G01*
X14394562Y-8579000D02*
G75*
G03*
X14394562Y-8579000I-150000J0D01*
G01*
X14394562Y-10479000D02*
G75*
G03*
X14394562Y-10479000I-150000J0D01*
G01*
X14894562Y-6899000D02*
G75*
G03*
X14894562Y-6899000I-150000J0D01*
G01*
X14894562Y-8799000D02*
G75*
G03*
X14894562Y-8799000I-150000J0D01*
G01*
X14894562Y-10699000D02*
G75*
G03*
X14894562Y-10699000I-150000J0D01*
G01*
D14*
X5102063Y-11927550D02*
X5102063Y-12270450D01*
X4930613Y-12099000D02*
X5273513Y-12099000D01*
X7002062Y-11120050D02*
X7002062Y-11462950D01*
X6830612Y-11291500D02*
X7173512Y-11291500D01*
X7144562Y-5040050D02*
X7144562Y-5382950D01*
X6973112Y-5211500D02*
X7316012Y-5211500D01*
X7144562Y-6940050D02*
X7144562Y-7282950D01*
X6973112Y-7111500D02*
X7316012Y-7111500D01*
X7144562Y-8840050D02*
X7144562Y-9182950D01*
X6973112Y-9011500D02*
X7316012Y-9011500D01*
X9044563Y-4565050D02*
X9044563Y-4907950D01*
X8873113Y-4736500D02*
X9216013Y-4736500D01*
X9044563Y-6465050D02*
X9044563Y-6807950D01*
X8873113Y-6636500D02*
X9216013Y-6636500D01*
X9044563Y-8365050D02*
X9044563Y-8707950D01*
X8873113Y-8536500D02*
X9216013Y-8536500D01*
X9044563Y-10835050D02*
X9044563Y-11177950D01*
X8873113Y-11006500D02*
X9216013Y-11006500D01*
X10944563Y-3947550D02*
X10944563Y-4290450D01*
X10773113Y-4119000D02*
X11116013Y-4119000D01*
X10944563Y-5847550D02*
X10944563Y-6190450D01*
X10773113Y-6019000D02*
X11116013Y-6019000D01*
X10944563Y-7747550D02*
X10944563Y-8090450D01*
X10773113Y-7919000D02*
X11116013Y-7919000D01*
X12844562Y-4565050D02*
X12844562Y-4907950D01*
X12673112Y-4736500D02*
X13016012Y-4736500D01*
X12844562Y-6465050D02*
X12844562Y-6807950D01*
X12673112Y-6636500D02*
X13016012Y-6636500D01*
X12844562Y-8365050D02*
X12844562Y-8707950D01*
X12673112Y-8536500D02*
X13016012Y-8536500D01*
X14744562Y-6132550D02*
X14744562Y-6475450D01*
X14573112Y-6304000D02*
X14916012Y-6304000D01*
X14744562Y-8032550D02*
X14744562Y-8375450D01*
X14573112Y-8204000D02*
X14916012Y-8204000D01*
X14744562Y-9932550D02*
X14744562Y-10275450D01*
X14573112Y-10104000D02*
X14916012Y-10104000D01*
D11*
X3933097Y-13828302D02*
X3933097Y-13628302D01*
X3933097Y-13628302D02*
X3980716Y-13628302D01*
X3980716Y-13628302D02*
X4009287Y-13637826D01*
X4009287Y-13637826D02*
X4028335Y-13656873D01*
X4028335Y-13656873D02*
X4037859Y-13675921D01*
X4037859Y-13675921D02*
X4047383Y-13714016D01*
X4047383Y-13714016D02*
X4047383Y-13742588D01*
X4047383Y-13742588D02*
X4037859Y-13780683D01*
X4037859Y-13780683D02*
X4028335Y-13799731D01*
X4028335Y-13799731D02*
X4009287Y-13818778D01*
X4009287Y-13818778D02*
X3980716Y-13828302D01*
X3980716Y-13828302D02*
X3933097Y-13828302D01*
X4133097Y-13828302D02*
X4133097Y-13694969D01*
X4133097Y-13733064D02*
X4142621Y-13714016D01*
X4142621Y-13714016D02*
X4152145Y-13704492D01*
X4152145Y-13704492D02*
X4171192Y-13694969D01*
X4171192Y-13694969D02*
X4190240Y-13694969D01*
X4256907Y-13828302D02*
X4256907Y-13694969D01*
X4256907Y-13628302D02*
X4247383Y-13637826D01*
X4247383Y-13637826D02*
X4256907Y-13647350D01*
X4256907Y-13647350D02*
X4266430Y-13637826D01*
X4266430Y-13637826D02*
X4256907Y-13628302D01*
X4256907Y-13628302D02*
X4256907Y-13647350D01*
X4380716Y-13828302D02*
X4361668Y-13818778D01*
X4361668Y-13818778D02*
X4352145Y-13799731D01*
X4352145Y-13799731D02*
X4352145Y-13628302D01*
X4485478Y-13828302D02*
X4466430Y-13818778D01*
X4466430Y-13818778D02*
X4456907Y-13799731D01*
X4456907Y-13799731D02*
X4456907Y-13628302D01*
X4714049Y-13828302D02*
X4714049Y-13628302D01*
X4714049Y-13628302D02*
X4780716Y-13771159D01*
X4780716Y-13771159D02*
X4847383Y-13628302D01*
X4847383Y-13628302D02*
X4847383Y-13828302D01*
X5028335Y-13828302D02*
X5028335Y-13723540D01*
X5028335Y-13723540D02*
X5018811Y-13704492D01*
X5018811Y-13704492D02*
X4999764Y-13694969D01*
X4999764Y-13694969D02*
X4961668Y-13694969D01*
X4961668Y-13694969D02*
X4942621Y-13704492D01*
X5028335Y-13818778D02*
X5009288Y-13828302D01*
X5009288Y-13828302D02*
X4961668Y-13828302D01*
X4961668Y-13828302D02*
X4942621Y-13818778D01*
X4942621Y-13818778D02*
X4933097Y-13799731D01*
X4933097Y-13799731D02*
X4933097Y-13780683D01*
X4933097Y-13780683D02*
X4942621Y-13761635D01*
X4942621Y-13761635D02*
X4961668Y-13752112D01*
X4961668Y-13752112D02*
X5009288Y-13752112D01*
X5009288Y-13752112D02*
X5028335Y-13742588D01*
X5123573Y-13694969D02*
X5123573Y-13894969D01*
X5123573Y-13704492D02*
X5142621Y-13694969D01*
X5142621Y-13694969D02*
X5180716Y-13694969D01*
X5180716Y-13694969D02*
X5199764Y-13704492D01*
X5199764Y-13704492D02*
X5209288Y-13714016D01*
X5209288Y-13714016D02*
X5218811Y-13733064D01*
X5218811Y-13733064D02*
X5218811Y-13790207D01*
X5218811Y-13790207D02*
X5209288Y-13809254D01*
X5209288Y-13809254D02*
X5199764Y-13818778D01*
X5199764Y-13818778D02*
X5180716Y-13828302D01*
X5180716Y-13828302D02*
X5142621Y-13828302D01*
X5142621Y-13828302D02*
X5123573Y-13818778D01*
X5304526Y-13809254D02*
X5314049Y-13818778D01*
X5314049Y-13818778D02*
X5304526Y-13828302D01*
X5304526Y-13828302D02*
X5295002Y-13818778D01*
X5295002Y-13818778D02*
X5304526Y-13809254D01*
X5304526Y-13809254D02*
X5304526Y-13828302D01*
X5304526Y-13704492D02*
X5314049Y-13714016D01*
X5314049Y-13714016D02*
X5304526Y-13723540D01*
X5304526Y-13723540D02*
X5295002Y-13714016D01*
X5295002Y-13714016D02*
X5304526Y-13704492D01*
X5304526Y-13704492D02*
X5304526Y-13723540D01*
D12*
X3515298Y-14070688D02*
X3685478Y-14240868D01*
X3685478Y-14070688D02*
X3515298Y-14240868D01*
D11*
X4037859Y-14248302D02*
X3923573Y-14248302D01*
X3980716Y-14248302D02*
X3980716Y-14048302D01*
X3980716Y-14048302D02*
X3961668Y-14076873D01*
X3961668Y-14076873D02*
X3942621Y-14095921D01*
X3942621Y-14095921D02*
X3923573Y-14105445D01*
X4123573Y-14229254D02*
X4133097Y-14238778D01*
X4133097Y-14238778D02*
X4123573Y-14248302D01*
X4123573Y-14248302D02*
X4114049Y-14238778D01*
X4114049Y-14238778D02*
X4123573Y-14229254D01*
X4123573Y-14229254D02*
X4123573Y-14248302D01*
X4199764Y-14048302D02*
X4333097Y-14048302D01*
X4333097Y-14048302D02*
X4247383Y-14248302D01*
X4447383Y-14048302D02*
X4466430Y-14048302D01*
X4466430Y-14048302D02*
X4485478Y-14057826D01*
X4485478Y-14057826D02*
X4495002Y-14067350D01*
X4495002Y-14067350D02*
X4504526Y-14086397D01*
X4504526Y-14086397D02*
X4514049Y-14124492D01*
X4514049Y-14124492D02*
X4514049Y-14172112D01*
X4514049Y-14172112D02*
X4504526Y-14210207D01*
X4504526Y-14210207D02*
X4495002Y-14229254D01*
X4495002Y-14229254D02*
X4485478Y-14238778D01*
X4485478Y-14238778D02*
X4466430Y-14248302D01*
X4466430Y-14248302D02*
X4447383Y-14248302D01*
X4447383Y-14248302D02*
X4428335Y-14238778D01*
X4428335Y-14238778D02*
X4418811Y-14229254D01*
X4418811Y-14229254D02*
X4409288Y-14210207D01*
X4409288Y-14210207D02*
X4399764Y-14172112D01*
X4399764Y-14172112D02*
X4399764Y-14124492D01*
X4399764Y-14124492D02*
X4409288Y-14086397D01*
X4409288Y-14086397D02*
X4418811Y-14067350D01*
X4418811Y-14067350D02*
X4428335Y-14057826D01*
X4428335Y-14057826D02*
X4447383Y-14048302D01*
X4590240Y-14067350D02*
X4599764Y-14057826D01*
X4599764Y-14057826D02*
X4618811Y-14048302D01*
X4618811Y-14048302D02*
X4666430Y-14048302D01*
X4666430Y-14048302D02*
X4685478Y-14057826D01*
X4685478Y-14057826D02*
X4695002Y-14067350D01*
X4695002Y-14067350D02*
X4704526Y-14086397D01*
X4704526Y-14086397D02*
X4704526Y-14105445D01*
X4704526Y-14105445D02*
X4695002Y-14134016D01*
X4695002Y-14134016D02*
X4580716Y-14248302D01*
X4580716Y-14248302D02*
X4704526Y-14248302D01*
X4790240Y-14248302D02*
X4790240Y-14114969D01*
X4790240Y-14134016D02*
X4799764Y-14124492D01*
X4799764Y-14124492D02*
X4818811Y-14114969D01*
X4818811Y-14114969D02*
X4847383Y-14114969D01*
X4847383Y-14114969D02*
X4866430Y-14124492D01*
X4866430Y-14124492D02*
X4875954Y-14143540D01*
X4875954Y-14143540D02*
X4875954Y-14248302D01*
X4875954Y-14143540D02*
X4885478Y-14124492D01*
X4885478Y-14124492D02*
X4904526Y-14114969D01*
X4904526Y-14114969D02*
X4933097Y-14114969D01*
X4933097Y-14114969D02*
X4952145Y-14124492D01*
X4952145Y-14124492D02*
X4961669Y-14143540D01*
X4961669Y-14143540D02*
X4961669Y-14248302D01*
X5056907Y-14248302D02*
X5056907Y-14114969D01*
X5056907Y-14134016D02*
X5066430Y-14124492D01*
X5066430Y-14124492D02*
X5085478Y-14114969D01*
X5085478Y-14114969D02*
X5114050Y-14114969D01*
X5114050Y-14114969D02*
X5133097Y-14124492D01*
X5133097Y-14124492D02*
X5142621Y-14143540D01*
X5142621Y-14143540D02*
X5142621Y-14248302D01*
X5142621Y-14143540D02*
X5152145Y-14124492D01*
X5152145Y-14124492D02*
X5171192Y-14114969D01*
X5171192Y-14114969D02*
X5199764Y-14114969D01*
X5199764Y-14114969D02*
X5218811Y-14124492D01*
X5218811Y-14124492D02*
X5228335Y-14143540D01*
X5228335Y-14143540D02*
X5228335Y-14248302D01*
X5618811Y-14038778D02*
X5447383Y-14295921D01*
X5875954Y-14048302D02*
X5895002Y-14048302D01*
X5895002Y-14048302D02*
X5914050Y-14057826D01*
X5914050Y-14057826D02*
X5923573Y-14067350D01*
X5923573Y-14067350D02*
X5933097Y-14086397D01*
X5933097Y-14086397D02*
X5942621Y-14124492D01*
X5942621Y-14124492D02*
X5942621Y-14172112D01*
X5942621Y-14172112D02*
X5933097Y-14210207D01*
X5933097Y-14210207D02*
X5923573Y-14229254D01*
X5923573Y-14229254D02*
X5914050Y-14238778D01*
X5914050Y-14238778D02*
X5895002Y-14248302D01*
X5895002Y-14248302D02*
X5875954Y-14248302D01*
X5875954Y-14248302D02*
X5856907Y-14238778D01*
X5856907Y-14238778D02*
X5847383Y-14229254D01*
X5847383Y-14229254D02*
X5837859Y-14210207D01*
X5837859Y-14210207D02*
X5828335Y-14172112D01*
X5828335Y-14172112D02*
X5828335Y-14124492D01*
X5828335Y-14124492D02*
X5837859Y-14086397D01*
X5837859Y-14086397D02*
X5847383Y-14067350D01*
X5847383Y-14067350D02*
X5856907Y-14057826D01*
X5856907Y-14057826D02*
X5875954Y-14048302D01*
X6028335Y-14229254D02*
X6037859Y-14238778D01*
X6037859Y-14238778D02*
X6028335Y-14248302D01*
X6028335Y-14248302D02*
X6018811Y-14238778D01*
X6018811Y-14238778D02*
X6028335Y-14229254D01*
X6028335Y-14229254D02*
X6028335Y-14248302D01*
X6161669Y-14048302D02*
X6180716Y-14048302D01*
X6180716Y-14048302D02*
X6199764Y-14057826D01*
X6199764Y-14057826D02*
X6209288Y-14067350D01*
X6209288Y-14067350D02*
X6218811Y-14086397D01*
X6218811Y-14086397D02*
X6228335Y-14124492D01*
X6228335Y-14124492D02*
X6228335Y-14172112D01*
X6228335Y-14172112D02*
X6218811Y-14210207D01*
X6218811Y-14210207D02*
X6209288Y-14229254D01*
X6209288Y-14229254D02*
X6199764Y-14238778D01*
X6199764Y-14238778D02*
X6180716Y-14248302D01*
X6180716Y-14248302D02*
X6161669Y-14248302D01*
X6161669Y-14248302D02*
X6142621Y-14238778D01*
X6142621Y-14238778D02*
X6133097Y-14229254D01*
X6133097Y-14229254D02*
X6123573Y-14210207D01*
X6123573Y-14210207D02*
X6114050Y-14172112D01*
X6114050Y-14172112D02*
X6114050Y-14124492D01*
X6114050Y-14124492D02*
X6123573Y-14086397D01*
X6123573Y-14086397D02*
X6133097Y-14067350D01*
X6133097Y-14067350D02*
X6142621Y-14057826D01*
X6142621Y-14057826D02*
X6161669Y-14048302D01*
X6399764Y-14048302D02*
X6361669Y-14048302D01*
X6361669Y-14048302D02*
X6342621Y-14057826D01*
X6342621Y-14057826D02*
X6333097Y-14067350D01*
X6333097Y-14067350D02*
X6314050Y-14095921D01*
X6314050Y-14095921D02*
X6304526Y-14134016D01*
X6304526Y-14134016D02*
X6304526Y-14210207D01*
X6304526Y-14210207D02*
X6314050Y-14229254D01*
X6314050Y-14229254D02*
X6323573Y-14238778D01*
X6323573Y-14238778D02*
X6342621Y-14248302D01*
X6342621Y-14248302D02*
X6380716Y-14248302D01*
X6380716Y-14248302D02*
X6399764Y-14238778D01*
X6399764Y-14238778D02*
X6409288Y-14229254D01*
X6409288Y-14229254D02*
X6418811Y-14210207D01*
X6418811Y-14210207D02*
X6418811Y-14162588D01*
X6418811Y-14162588D02*
X6409288Y-14143540D01*
X6409288Y-14143540D02*
X6399764Y-14134016D01*
X6399764Y-14134016D02*
X6380716Y-14124492D01*
X6380716Y-14124492D02*
X6342621Y-14124492D01*
X6342621Y-14124492D02*
X6323573Y-14134016D01*
X6323573Y-14134016D02*
X6314050Y-14143540D01*
X6314050Y-14143540D02*
X6304526Y-14162588D01*
X6485478Y-14048302D02*
X6618811Y-14048302D01*
X6618811Y-14048302D02*
X6533097Y-14248302D01*
X6733097Y-14048302D02*
X6752145Y-14048302D01*
X6752145Y-14048302D02*
X6771192Y-14057826D01*
X6771192Y-14057826D02*
X6780716Y-14067350D01*
X6780716Y-14067350D02*
X6790240Y-14086397D01*
X6790240Y-14086397D02*
X6799764Y-14124492D01*
X6799764Y-14124492D02*
X6799764Y-14172112D01*
X6799764Y-14172112D02*
X6790240Y-14210207D01*
X6790240Y-14210207D02*
X6780716Y-14229254D01*
X6780716Y-14229254D02*
X6771192Y-14238778D01*
X6771192Y-14238778D02*
X6752145Y-14248302D01*
X6752145Y-14248302D02*
X6733097Y-14248302D01*
X6733097Y-14248302D02*
X6714050Y-14238778D01*
X6714050Y-14238778D02*
X6704526Y-14229254D01*
X6704526Y-14229254D02*
X6695002Y-14210207D01*
X6695002Y-14210207D02*
X6685478Y-14172112D01*
X6685478Y-14172112D02*
X6685478Y-14124492D01*
X6685478Y-14124492D02*
X6695002Y-14086397D01*
X6695002Y-14086397D02*
X6704526Y-14067350D01*
X6704526Y-14067350D02*
X6714050Y-14057826D01*
X6714050Y-14057826D02*
X6733097Y-14048302D01*
X6875954Y-14048302D02*
X6875954Y-14086397D01*
X6952145Y-14048302D02*
X6952145Y-14086397D01*
X7247383Y-14324492D02*
X7237859Y-14314969D01*
X7237859Y-14314969D02*
X7218812Y-14286397D01*
X7218812Y-14286397D02*
X7209288Y-14267350D01*
X7209288Y-14267350D02*
X7199764Y-14238778D01*
X7199764Y-14238778D02*
X7190240Y-14191159D01*
X7190240Y-14191159D02*
X7190240Y-14153064D01*
X7190240Y-14153064D02*
X7199764Y-14105445D01*
X7199764Y-14105445D02*
X7209288Y-14076873D01*
X7209288Y-14076873D02*
X7218812Y-14057826D01*
X7218812Y-14057826D02*
X7237859Y-14029254D01*
X7237859Y-14029254D02*
X7247383Y-14019731D01*
X7304526Y-14048302D02*
X7428335Y-14048302D01*
X7428335Y-14048302D02*
X7361669Y-14124492D01*
X7361669Y-14124492D02*
X7390240Y-14124492D01*
X7390240Y-14124492D02*
X7409288Y-14134016D01*
X7409288Y-14134016D02*
X7418812Y-14143540D01*
X7418812Y-14143540D02*
X7428335Y-14162588D01*
X7428335Y-14162588D02*
X7428335Y-14210207D01*
X7428335Y-14210207D02*
X7418812Y-14229254D01*
X7418812Y-14229254D02*
X7409288Y-14238778D01*
X7409288Y-14238778D02*
X7390240Y-14248302D01*
X7390240Y-14248302D02*
X7333097Y-14248302D01*
X7333097Y-14248302D02*
X7314050Y-14238778D01*
X7314050Y-14238778D02*
X7304526Y-14229254D01*
X7599764Y-14048302D02*
X7561669Y-14048302D01*
X7561669Y-14048302D02*
X7542621Y-14057826D01*
X7542621Y-14057826D02*
X7533097Y-14067350D01*
X7533097Y-14067350D02*
X7514050Y-14095921D01*
X7514050Y-14095921D02*
X7504526Y-14134016D01*
X7504526Y-14134016D02*
X7504526Y-14210207D01*
X7504526Y-14210207D02*
X7514050Y-14229254D01*
X7514050Y-14229254D02*
X7523573Y-14238778D01*
X7523573Y-14238778D02*
X7542621Y-14248302D01*
X7542621Y-14248302D02*
X7580716Y-14248302D01*
X7580716Y-14248302D02*
X7599764Y-14238778D01*
X7599764Y-14238778D02*
X7609288Y-14229254D01*
X7609288Y-14229254D02*
X7618812Y-14210207D01*
X7618812Y-14210207D02*
X7618812Y-14162588D01*
X7618812Y-14162588D02*
X7609288Y-14143540D01*
X7609288Y-14143540D02*
X7599764Y-14134016D01*
X7599764Y-14134016D02*
X7580716Y-14124492D01*
X7580716Y-14124492D02*
X7542621Y-14124492D01*
X7542621Y-14124492D02*
X7523573Y-14134016D01*
X7523573Y-14134016D02*
X7514050Y-14143540D01*
X7514050Y-14143540D02*
X7504526Y-14162588D01*
X7856907Y-14248302D02*
X7856907Y-14048302D01*
X7942621Y-14248302D02*
X7942621Y-14143540D01*
X7942621Y-14143540D02*
X7933097Y-14124492D01*
X7933097Y-14124492D02*
X7914050Y-14114969D01*
X7914050Y-14114969D02*
X7885478Y-14114969D01*
X7885478Y-14114969D02*
X7866431Y-14124492D01*
X7866431Y-14124492D02*
X7856907Y-14134016D01*
X8066431Y-14248302D02*
X8047383Y-14238778D01*
X8047383Y-14238778D02*
X8037859Y-14229254D01*
X8037859Y-14229254D02*
X8028335Y-14210207D01*
X8028335Y-14210207D02*
X8028335Y-14153064D01*
X8028335Y-14153064D02*
X8037859Y-14134016D01*
X8037859Y-14134016D02*
X8047383Y-14124492D01*
X8047383Y-14124492D02*
X8066431Y-14114969D01*
X8066431Y-14114969D02*
X8095002Y-14114969D01*
X8095002Y-14114969D02*
X8114050Y-14124492D01*
X8114050Y-14124492D02*
X8123574Y-14134016D01*
X8123574Y-14134016D02*
X8133097Y-14153064D01*
X8133097Y-14153064D02*
X8133097Y-14210207D01*
X8133097Y-14210207D02*
X8123574Y-14229254D01*
X8123574Y-14229254D02*
X8114050Y-14238778D01*
X8114050Y-14238778D02*
X8095002Y-14248302D01*
X8095002Y-14248302D02*
X8066431Y-14248302D01*
X8247383Y-14248302D02*
X8228335Y-14238778D01*
X8228335Y-14238778D02*
X8218812Y-14219731D01*
X8218812Y-14219731D02*
X8218812Y-14048302D01*
X8399764Y-14238778D02*
X8380716Y-14248302D01*
X8380716Y-14248302D02*
X8342621Y-14248302D01*
X8342621Y-14248302D02*
X8323574Y-14238778D01*
X8323574Y-14238778D02*
X8314050Y-14219731D01*
X8314050Y-14219731D02*
X8314050Y-14143540D01*
X8314050Y-14143540D02*
X8323574Y-14124492D01*
X8323574Y-14124492D02*
X8342621Y-14114969D01*
X8342621Y-14114969D02*
X8380716Y-14114969D01*
X8380716Y-14114969D02*
X8399764Y-14124492D01*
X8399764Y-14124492D02*
X8409288Y-14143540D01*
X8409288Y-14143540D02*
X8409288Y-14162588D01*
X8409288Y-14162588D02*
X8314050Y-14181635D01*
X8485478Y-14238778D02*
X8504526Y-14248302D01*
X8504526Y-14248302D02*
X8542621Y-14248302D01*
X8542621Y-14248302D02*
X8561669Y-14238778D01*
X8561669Y-14238778D02*
X8571193Y-14219731D01*
X8571193Y-14219731D02*
X8571193Y-14210207D01*
X8571193Y-14210207D02*
X8561669Y-14191159D01*
X8561669Y-14191159D02*
X8542621Y-14181635D01*
X8542621Y-14181635D02*
X8514050Y-14181635D01*
X8514050Y-14181635D02*
X8495002Y-14172112D01*
X8495002Y-14172112D02*
X8485478Y-14153064D01*
X8485478Y-14153064D02*
X8485478Y-14143540D01*
X8485478Y-14143540D02*
X8495002Y-14124492D01*
X8495002Y-14124492D02*
X8514050Y-14114969D01*
X8514050Y-14114969D02*
X8542621Y-14114969D01*
X8542621Y-14114969D02*
X8561669Y-14124492D01*
X8637859Y-14324492D02*
X8647383Y-14314969D01*
X8647383Y-14314969D02*
X8666431Y-14286397D01*
X8666431Y-14286397D02*
X8675955Y-14267350D01*
X8675955Y-14267350D02*
X8685478Y-14238778D01*
X8685478Y-14238778D02*
X8695002Y-14191159D01*
X8695002Y-14191159D02*
X8695002Y-14153064D01*
X8695002Y-14153064D02*
X8685478Y-14105445D01*
X8685478Y-14105445D02*
X8675955Y-14076873D01*
X8675955Y-14076873D02*
X8666431Y-14057826D01*
X8666431Y-14057826D02*
X8647383Y-14029254D01*
X8647383Y-14029254D02*
X8637859Y-14019731D01*
X8999764Y-14324492D02*
X8990240Y-14314969D01*
X8990240Y-14314969D02*
X8971193Y-14286397D01*
X8971193Y-14286397D02*
X8961669Y-14267350D01*
X8961669Y-14267350D02*
X8952145Y-14238778D01*
X8952145Y-14238778D02*
X8942621Y-14191159D01*
X8942621Y-14191159D02*
X8942621Y-14153064D01*
X8942621Y-14153064D02*
X8952145Y-14105445D01*
X8952145Y-14105445D02*
X8961669Y-14076873D01*
X8961669Y-14076873D02*
X8971193Y-14057826D01*
X8971193Y-14057826D02*
X8990240Y-14029254D01*
X8990240Y-14029254D02*
X8999764Y-14019731D01*
X9075955Y-14114969D02*
X9075955Y-14248302D01*
X9075955Y-14134016D02*
X9085478Y-14124492D01*
X9085478Y-14124492D02*
X9104526Y-14114969D01*
X9104526Y-14114969D02*
X9133098Y-14114969D01*
X9133098Y-14114969D02*
X9152145Y-14124492D01*
X9152145Y-14124492D02*
X9161669Y-14143540D01*
X9161669Y-14143540D02*
X9161669Y-14248302D01*
X9285478Y-14248302D02*
X9266431Y-14238778D01*
X9266431Y-14238778D02*
X9256907Y-14229254D01*
X9256907Y-14229254D02*
X9247383Y-14210207D01*
X9247383Y-14210207D02*
X9247383Y-14153064D01*
X9247383Y-14153064D02*
X9256907Y-14134016D01*
X9256907Y-14134016D02*
X9266431Y-14124492D01*
X9266431Y-14124492D02*
X9285478Y-14114969D01*
X9285478Y-14114969D02*
X9314050Y-14114969D01*
X9314050Y-14114969D02*
X9333098Y-14124492D01*
X9333098Y-14124492D02*
X9342621Y-14134016D01*
X9342621Y-14134016D02*
X9352145Y-14153064D01*
X9352145Y-14153064D02*
X9352145Y-14210207D01*
X9352145Y-14210207D02*
X9342621Y-14229254D01*
X9342621Y-14229254D02*
X9333098Y-14238778D01*
X9333098Y-14238778D02*
X9314050Y-14248302D01*
X9314050Y-14248302D02*
X9285478Y-14248302D01*
X9409288Y-14114969D02*
X9485478Y-14114969D01*
X9437859Y-14048302D02*
X9437859Y-14219731D01*
X9437859Y-14219731D02*
X9447383Y-14238778D01*
X9447383Y-14238778D02*
X9466431Y-14248302D01*
X9466431Y-14248302D02*
X9485478Y-14248302D01*
X9704526Y-14114969D02*
X9704526Y-14314969D01*
X9704526Y-14124492D02*
X9723574Y-14114969D01*
X9723574Y-14114969D02*
X9761669Y-14114969D01*
X9761669Y-14114969D02*
X9780717Y-14124492D01*
X9780717Y-14124492D02*
X9790240Y-14134016D01*
X9790240Y-14134016D02*
X9799764Y-14153064D01*
X9799764Y-14153064D02*
X9799764Y-14210207D01*
X9799764Y-14210207D02*
X9790240Y-14229254D01*
X9790240Y-14229254D02*
X9780717Y-14238778D01*
X9780717Y-14238778D02*
X9761669Y-14248302D01*
X9761669Y-14248302D02*
X9723574Y-14248302D01*
X9723574Y-14248302D02*
X9704526Y-14238778D01*
X9914050Y-14248302D02*
X9895002Y-14238778D01*
X9895002Y-14238778D02*
X9885479Y-14219731D01*
X9885479Y-14219731D02*
X9885479Y-14048302D01*
X10075955Y-14248302D02*
X10075955Y-14143540D01*
X10075955Y-14143540D02*
X10066431Y-14124492D01*
X10066431Y-14124492D02*
X10047383Y-14114969D01*
X10047383Y-14114969D02*
X10009288Y-14114969D01*
X10009288Y-14114969D02*
X9990240Y-14124492D01*
X10075955Y-14238778D02*
X10056907Y-14248302D01*
X10056907Y-14248302D02*
X10009288Y-14248302D01*
X10009288Y-14248302D02*
X9990240Y-14238778D01*
X9990240Y-14238778D02*
X9980717Y-14219731D01*
X9980717Y-14219731D02*
X9980717Y-14200683D01*
X9980717Y-14200683D02*
X9990240Y-14181635D01*
X9990240Y-14181635D02*
X10009288Y-14172112D01*
X10009288Y-14172112D02*
X10056907Y-14172112D01*
X10056907Y-14172112D02*
X10075955Y-14162588D01*
X10142621Y-14114969D02*
X10218812Y-14114969D01*
X10171193Y-14048302D02*
X10171193Y-14219731D01*
X10171193Y-14219731D02*
X10180717Y-14238778D01*
X10180717Y-14238778D02*
X10199764Y-14248302D01*
X10199764Y-14248302D02*
X10218812Y-14248302D01*
X10361669Y-14238778D02*
X10342621Y-14248302D01*
X10342621Y-14248302D02*
X10304526Y-14248302D01*
X10304526Y-14248302D02*
X10285479Y-14238778D01*
X10285479Y-14238778D02*
X10275955Y-14219731D01*
X10275955Y-14219731D02*
X10275955Y-14143540D01*
X10275955Y-14143540D02*
X10285479Y-14124492D01*
X10285479Y-14124492D02*
X10304526Y-14114969D01*
X10304526Y-14114969D02*
X10342621Y-14114969D01*
X10342621Y-14114969D02*
X10361669Y-14124492D01*
X10361669Y-14124492D02*
X10371193Y-14143540D01*
X10371193Y-14143540D02*
X10371193Y-14162588D01*
X10371193Y-14162588D02*
X10275955Y-14181635D01*
X10542621Y-14248302D02*
X10542621Y-14048302D01*
X10542621Y-14238778D02*
X10523574Y-14248302D01*
X10523574Y-14248302D02*
X10485479Y-14248302D01*
X10485479Y-14248302D02*
X10466431Y-14238778D01*
X10466431Y-14238778D02*
X10456907Y-14229254D01*
X10456907Y-14229254D02*
X10447383Y-14210207D01*
X10447383Y-14210207D02*
X10447383Y-14153064D01*
X10447383Y-14153064D02*
X10456907Y-14134016D01*
X10456907Y-14134016D02*
X10466431Y-14124492D01*
X10466431Y-14124492D02*
X10485479Y-14114969D01*
X10485479Y-14114969D02*
X10523574Y-14114969D01*
X10523574Y-14114969D02*
X10542621Y-14124492D01*
X10618812Y-14324492D02*
X10628336Y-14314969D01*
X10628336Y-14314969D02*
X10647383Y-14286397D01*
X10647383Y-14286397D02*
X10656907Y-14267350D01*
X10656907Y-14267350D02*
X10666431Y-14238778D01*
X10666431Y-14238778D02*
X10675955Y-14191159D01*
X10675955Y-14191159D02*
X10675955Y-14153064D01*
X10675955Y-14153064D02*
X10666431Y-14105445D01*
X10666431Y-14105445D02*
X10656907Y-14076873D01*
X10656907Y-14076873D02*
X10647383Y-14057826D01*
X10647383Y-14057826D02*
X10628336Y-14029254D01*
X10628336Y-14029254D02*
X10618812Y-14019731D01*
X3685478Y-14445958D02*
G75*
G03*
X3685478Y-14445958I-100000J0D01*
G01*
X3914049Y-14338482D02*
X4037859Y-14338482D01*
X4037859Y-14338482D02*
X3971192Y-14414672D01*
X3971192Y-14414672D02*
X3999764Y-14414672D01*
X3999764Y-14414672D02*
X4018811Y-14424196D01*
X4018811Y-14424196D02*
X4028335Y-14433720D01*
X4028335Y-14433720D02*
X4037859Y-14452768D01*
X4037859Y-14452768D02*
X4037859Y-14500387D01*
X4037859Y-14500387D02*
X4028335Y-14519434D01*
X4028335Y-14519434D02*
X4018811Y-14528958D01*
X4018811Y-14528958D02*
X3999764Y-14538482D01*
X3999764Y-14538482D02*
X3942621Y-14538482D01*
X3942621Y-14538482D02*
X3923573Y-14528958D01*
X3923573Y-14528958D02*
X3914049Y-14519434D01*
X4123573Y-14519434D02*
X4133097Y-14528958D01*
X4133097Y-14528958D02*
X4123573Y-14538482D01*
X4123573Y-14538482D02*
X4114049Y-14528958D01*
X4114049Y-14528958D02*
X4123573Y-14519434D01*
X4123573Y-14519434D02*
X4123573Y-14538482D01*
X4256907Y-14338482D02*
X4275954Y-14338482D01*
X4275954Y-14338482D02*
X4295002Y-14348006D01*
X4295002Y-14348006D02*
X4304526Y-14357530D01*
X4304526Y-14357530D02*
X4314049Y-14376577D01*
X4314049Y-14376577D02*
X4323573Y-14414672D01*
X4323573Y-14414672D02*
X4323573Y-14462292D01*
X4323573Y-14462292D02*
X4314049Y-14500387D01*
X4314049Y-14500387D02*
X4304526Y-14519434D01*
X4304526Y-14519434D02*
X4295002Y-14528958D01*
X4295002Y-14528958D02*
X4275954Y-14538482D01*
X4275954Y-14538482D02*
X4256907Y-14538482D01*
X4256907Y-14538482D02*
X4237859Y-14528958D01*
X4237859Y-14528958D02*
X4228335Y-14519434D01*
X4228335Y-14519434D02*
X4218811Y-14500387D01*
X4218811Y-14500387D02*
X4209288Y-14462292D01*
X4209288Y-14462292D02*
X4209288Y-14414672D01*
X4209288Y-14414672D02*
X4218811Y-14376577D01*
X4218811Y-14376577D02*
X4228335Y-14357530D01*
X4228335Y-14357530D02*
X4237859Y-14348006D01*
X4237859Y-14348006D02*
X4256907Y-14338482D01*
X4447383Y-14338482D02*
X4466430Y-14338482D01*
X4466430Y-14338482D02*
X4485478Y-14348006D01*
X4485478Y-14348006D02*
X4495002Y-14357530D01*
X4495002Y-14357530D02*
X4504526Y-14376577D01*
X4504526Y-14376577D02*
X4514049Y-14414672D01*
X4514049Y-14414672D02*
X4514049Y-14462292D01*
X4514049Y-14462292D02*
X4504526Y-14500387D01*
X4504526Y-14500387D02*
X4495002Y-14519434D01*
X4495002Y-14519434D02*
X4485478Y-14528958D01*
X4485478Y-14528958D02*
X4466430Y-14538482D01*
X4466430Y-14538482D02*
X4447383Y-14538482D01*
X4447383Y-14538482D02*
X4428335Y-14528958D01*
X4428335Y-14528958D02*
X4418811Y-14519434D01*
X4418811Y-14519434D02*
X4409288Y-14500387D01*
X4409288Y-14500387D02*
X4399764Y-14462292D01*
X4399764Y-14462292D02*
X4399764Y-14414672D01*
X4399764Y-14414672D02*
X4409288Y-14376577D01*
X4409288Y-14376577D02*
X4418811Y-14357530D01*
X4418811Y-14357530D02*
X4428335Y-14348006D01*
X4428335Y-14348006D02*
X4447383Y-14338482D01*
X4637859Y-14338482D02*
X4656907Y-14338482D01*
X4656907Y-14338482D02*
X4675954Y-14348006D01*
X4675954Y-14348006D02*
X4685478Y-14357530D01*
X4685478Y-14357530D02*
X4695002Y-14376577D01*
X4695002Y-14376577D02*
X4704526Y-14414672D01*
X4704526Y-14414672D02*
X4704526Y-14462292D01*
X4704526Y-14462292D02*
X4695002Y-14500387D01*
X4695002Y-14500387D02*
X4685478Y-14519434D01*
X4685478Y-14519434D02*
X4675954Y-14528958D01*
X4675954Y-14528958D02*
X4656907Y-14538482D01*
X4656907Y-14538482D02*
X4637859Y-14538482D01*
X4637859Y-14538482D02*
X4618811Y-14528958D01*
X4618811Y-14528958D02*
X4609288Y-14519434D01*
X4609288Y-14519434D02*
X4599764Y-14500387D01*
X4599764Y-14500387D02*
X4590240Y-14462292D01*
X4590240Y-14462292D02*
X4590240Y-14414672D01*
X4590240Y-14414672D02*
X4599764Y-14376577D01*
X4599764Y-14376577D02*
X4609288Y-14357530D01*
X4609288Y-14357530D02*
X4618811Y-14348006D01*
X4618811Y-14348006D02*
X4637859Y-14338482D01*
X4790240Y-14538482D02*
X4790240Y-14405149D01*
X4790240Y-14424196D02*
X4799764Y-14414672D01*
X4799764Y-14414672D02*
X4818811Y-14405149D01*
X4818811Y-14405149D02*
X4847383Y-14405149D01*
X4847383Y-14405149D02*
X4866430Y-14414672D01*
X4866430Y-14414672D02*
X4875954Y-14433720D01*
X4875954Y-14433720D02*
X4875954Y-14538482D01*
X4875954Y-14433720D02*
X4885478Y-14414672D01*
X4885478Y-14414672D02*
X4904526Y-14405149D01*
X4904526Y-14405149D02*
X4933097Y-14405149D01*
X4933097Y-14405149D02*
X4952145Y-14414672D01*
X4952145Y-14414672D02*
X4961669Y-14433720D01*
X4961669Y-14433720D02*
X4961669Y-14538482D01*
X5056907Y-14538482D02*
X5056907Y-14405149D01*
X5056907Y-14424196D02*
X5066430Y-14414672D01*
X5066430Y-14414672D02*
X5085478Y-14405149D01*
X5085478Y-14405149D02*
X5114050Y-14405149D01*
X5114050Y-14405149D02*
X5133097Y-14414672D01*
X5133097Y-14414672D02*
X5142621Y-14433720D01*
X5142621Y-14433720D02*
X5142621Y-14538482D01*
X5142621Y-14433720D02*
X5152145Y-14414672D01*
X5152145Y-14414672D02*
X5171192Y-14405149D01*
X5171192Y-14405149D02*
X5199764Y-14405149D01*
X5199764Y-14405149D02*
X5218811Y-14414672D01*
X5218811Y-14414672D02*
X5228335Y-14433720D01*
X5228335Y-14433720D02*
X5228335Y-14538482D01*
X5618811Y-14328958D02*
X5447383Y-14586101D01*
X5875954Y-14338482D02*
X5895002Y-14338482D01*
X5895002Y-14338482D02*
X5914050Y-14348006D01*
X5914050Y-14348006D02*
X5923573Y-14357530D01*
X5923573Y-14357530D02*
X5933097Y-14376577D01*
X5933097Y-14376577D02*
X5942621Y-14414672D01*
X5942621Y-14414672D02*
X5942621Y-14462292D01*
X5942621Y-14462292D02*
X5933097Y-14500387D01*
X5933097Y-14500387D02*
X5923573Y-14519434D01*
X5923573Y-14519434D02*
X5914050Y-14528958D01*
X5914050Y-14528958D02*
X5895002Y-14538482D01*
X5895002Y-14538482D02*
X5875954Y-14538482D01*
X5875954Y-14538482D02*
X5856907Y-14528958D01*
X5856907Y-14528958D02*
X5847383Y-14519434D01*
X5847383Y-14519434D02*
X5837859Y-14500387D01*
X5837859Y-14500387D02*
X5828335Y-14462292D01*
X5828335Y-14462292D02*
X5828335Y-14414672D01*
X5828335Y-14414672D02*
X5837859Y-14376577D01*
X5837859Y-14376577D02*
X5847383Y-14357530D01*
X5847383Y-14357530D02*
X5856907Y-14348006D01*
X5856907Y-14348006D02*
X5875954Y-14338482D01*
X6028335Y-14519434D02*
X6037859Y-14528958D01*
X6037859Y-14528958D02*
X6028335Y-14538482D01*
X6028335Y-14538482D02*
X6018811Y-14528958D01*
X6018811Y-14528958D02*
X6028335Y-14519434D01*
X6028335Y-14519434D02*
X6028335Y-14538482D01*
X6228335Y-14538482D02*
X6114050Y-14538482D01*
X6171192Y-14538482D02*
X6171192Y-14338482D01*
X6171192Y-14338482D02*
X6152145Y-14367053D01*
X6152145Y-14367053D02*
X6133097Y-14386101D01*
X6133097Y-14386101D02*
X6114050Y-14395625D01*
X6418811Y-14538482D02*
X6304526Y-14538482D01*
X6361669Y-14538482D02*
X6361669Y-14338482D01*
X6361669Y-14338482D02*
X6342621Y-14367053D01*
X6342621Y-14367053D02*
X6323573Y-14386101D01*
X6323573Y-14386101D02*
X6304526Y-14395625D01*
X6533097Y-14424196D02*
X6514050Y-14414672D01*
X6514050Y-14414672D02*
X6504526Y-14405149D01*
X6504526Y-14405149D02*
X6495002Y-14386101D01*
X6495002Y-14386101D02*
X6495002Y-14376577D01*
X6495002Y-14376577D02*
X6504526Y-14357530D01*
X6504526Y-14357530D02*
X6514050Y-14348006D01*
X6514050Y-14348006D02*
X6533097Y-14338482D01*
X6533097Y-14338482D02*
X6571192Y-14338482D01*
X6571192Y-14338482D02*
X6590240Y-14348006D01*
X6590240Y-14348006D02*
X6599764Y-14357530D01*
X6599764Y-14357530D02*
X6609288Y-14376577D01*
X6609288Y-14376577D02*
X6609288Y-14386101D01*
X6609288Y-14386101D02*
X6599764Y-14405149D01*
X6599764Y-14405149D02*
X6590240Y-14414672D01*
X6590240Y-14414672D02*
X6571192Y-14424196D01*
X6571192Y-14424196D02*
X6533097Y-14424196D01*
X6533097Y-14424196D02*
X6514050Y-14433720D01*
X6514050Y-14433720D02*
X6504526Y-14443244D01*
X6504526Y-14443244D02*
X6495002Y-14462292D01*
X6495002Y-14462292D02*
X6495002Y-14500387D01*
X6495002Y-14500387D02*
X6504526Y-14519434D01*
X6504526Y-14519434D02*
X6514050Y-14528958D01*
X6514050Y-14528958D02*
X6533097Y-14538482D01*
X6533097Y-14538482D02*
X6571192Y-14538482D01*
X6571192Y-14538482D02*
X6590240Y-14528958D01*
X6590240Y-14528958D02*
X6599764Y-14519434D01*
X6599764Y-14519434D02*
X6609288Y-14500387D01*
X6609288Y-14500387D02*
X6609288Y-14462292D01*
X6609288Y-14462292D02*
X6599764Y-14443244D01*
X6599764Y-14443244D02*
X6590240Y-14433720D01*
X6590240Y-14433720D02*
X6571192Y-14424196D01*
X6799764Y-14538482D02*
X6685478Y-14538482D01*
X6742621Y-14538482D02*
X6742621Y-14338482D01*
X6742621Y-14338482D02*
X6723573Y-14367053D01*
X6723573Y-14367053D02*
X6704526Y-14386101D01*
X6704526Y-14386101D02*
X6685478Y-14395625D01*
X6875954Y-14338482D02*
X6875954Y-14376577D01*
X6952145Y-14338482D02*
X6952145Y-14376577D01*
X7247383Y-14614672D02*
X7237859Y-14605149D01*
X7237859Y-14605149D02*
X7218812Y-14576577D01*
X7218812Y-14576577D02*
X7209288Y-14557530D01*
X7209288Y-14557530D02*
X7199764Y-14528958D01*
X7199764Y-14528958D02*
X7190240Y-14481339D01*
X7190240Y-14481339D02*
X7190240Y-14443244D01*
X7190240Y-14443244D02*
X7199764Y-14395625D01*
X7199764Y-14395625D02*
X7209288Y-14367053D01*
X7209288Y-14367053D02*
X7218812Y-14348006D01*
X7218812Y-14348006D02*
X7237859Y-14319434D01*
X7237859Y-14319434D02*
X7247383Y-14309911D01*
X7304526Y-14338482D02*
X7428335Y-14338482D01*
X7428335Y-14338482D02*
X7361669Y-14414672D01*
X7361669Y-14414672D02*
X7390240Y-14414672D01*
X7390240Y-14414672D02*
X7409288Y-14424196D01*
X7409288Y-14424196D02*
X7418812Y-14433720D01*
X7418812Y-14433720D02*
X7428335Y-14452768D01*
X7428335Y-14452768D02*
X7428335Y-14500387D01*
X7428335Y-14500387D02*
X7418812Y-14519434D01*
X7418812Y-14519434D02*
X7409288Y-14528958D01*
X7409288Y-14528958D02*
X7390240Y-14538482D01*
X7390240Y-14538482D02*
X7333097Y-14538482D01*
X7333097Y-14538482D02*
X7314050Y-14528958D01*
X7314050Y-14528958D02*
X7304526Y-14519434D01*
X7599764Y-14338482D02*
X7561669Y-14338482D01*
X7561669Y-14338482D02*
X7542621Y-14348006D01*
X7542621Y-14348006D02*
X7533097Y-14357530D01*
X7533097Y-14357530D02*
X7514050Y-14386101D01*
X7514050Y-14386101D02*
X7504526Y-14424196D01*
X7504526Y-14424196D02*
X7504526Y-14500387D01*
X7504526Y-14500387D02*
X7514050Y-14519434D01*
X7514050Y-14519434D02*
X7523573Y-14528958D01*
X7523573Y-14528958D02*
X7542621Y-14538482D01*
X7542621Y-14538482D02*
X7580716Y-14538482D01*
X7580716Y-14538482D02*
X7599764Y-14528958D01*
X7599764Y-14528958D02*
X7609288Y-14519434D01*
X7609288Y-14519434D02*
X7618812Y-14500387D01*
X7618812Y-14500387D02*
X7618812Y-14452768D01*
X7618812Y-14452768D02*
X7609288Y-14433720D01*
X7609288Y-14433720D02*
X7599764Y-14424196D01*
X7599764Y-14424196D02*
X7580716Y-14414672D01*
X7580716Y-14414672D02*
X7542621Y-14414672D01*
X7542621Y-14414672D02*
X7523573Y-14424196D01*
X7523573Y-14424196D02*
X7514050Y-14433720D01*
X7514050Y-14433720D02*
X7504526Y-14452768D01*
X7856907Y-14538482D02*
X7856907Y-14338482D01*
X7942621Y-14538482D02*
X7942621Y-14433720D01*
X7942621Y-14433720D02*
X7933097Y-14414672D01*
X7933097Y-14414672D02*
X7914050Y-14405149D01*
X7914050Y-14405149D02*
X7885478Y-14405149D01*
X7885478Y-14405149D02*
X7866431Y-14414672D01*
X7866431Y-14414672D02*
X7856907Y-14424196D01*
X8066431Y-14538482D02*
X8047383Y-14528958D01*
X8047383Y-14528958D02*
X8037859Y-14519434D01*
X8037859Y-14519434D02*
X8028335Y-14500387D01*
X8028335Y-14500387D02*
X8028335Y-14443244D01*
X8028335Y-14443244D02*
X8037859Y-14424196D01*
X8037859Y-14424196D02*
X8047383Y-14414672D01*
X8047383Y-14414672D02*
X8066431Y-14405149D01*
X8066431Y-14405149D02*
X8095002Y-14405149D01*
X8095002Y-14405149D02*
X8114050Y-14414672D01*
X8114050Y-14414672D02*
X8123574Y-14424196D01*
X8123574Y-14424196D02*
X8133097Y-14443244D01*
X8133097Y-14443244D02*
X8133097Y-14500387D01*
X8133097Y-14500387D02*
X8123574Y-14519434D01*
X8123574Y-14519434D02*
X8114050Y-14528958D01*
X8114050Y-14528958D02*
X8095002Y-14538482D01*
X8095002Y-14538482D02*
X8066431Y-14538482D01*
X8247383Y-14538482D02*
X8228335Y-14528958D01*
X8228335Y-14528958D02*
X8218812Y-14509911D01*
X8218812Y-14509911D02*
X8218812Y-14338482D01*
X8399764Y-14528958D02*
X8380716Y-14538482D01*
X8380716Y-14538482D02*
X8342621Y-14538482D01*
X8342621Y-14538482D02*
X8323574Y-14528958D01*
X8323574Y-14528958D02*
X8314050Y-14509911D01*
X8314050Y-14509911D02*
X8314050Y-14433720D01*
X8314050Y-14433720D02*
X8323574Y-14414672D01*
X8323574Y-14414672D02*
X8342621Y-14405149D01*
X8342621Y-14405149D02*
X8380716Y-14405149D01*
X8380716Y-14405149D02*
X8399764Y-14414672D01*
X8399764Y-14414672D02*
X8409288Y-14433720D01*
X8409288Y-14433720D02*
X8409288Y-14452768D01*
X8409288Y-14452768D02*
X8314050Y-14471815D01*
X8485478Y-14528958D02*
X8504526Y-14538482D01*
X8504526Y-14538482D02*
X8542621Y-14538482D01*
X8542621Y-14538482D02*
X8561669Y-14528958D01*
X8561669Y-14528958D02*
X8571193Y-14509911D01*
X8571193Y-14509911D02*
X8571193Y-14500387D01*
X8571193Y-14500387D02*
X8561669Y-14481339D01*
X8561669Y-14481339D02*
X8542621Y-14471815D01*
X8542621Y-14471815D02*
X8514050Y-14471815D01*
X8514050Y-14471815D02*
X8495002Y-14462292D01*
X8495002Y-14462292D02*
X8485478Y-14443244D01*
X8485478Y-14443244D02*
X8485478Y-14433720D01*
X8485478Y-14433720D02*
X8495002Y-14414672D01*
X8495002Y-14414672D02*
X8514050Y-14405149D01*
X8514050Y-14405149D02*
X8542621Y-14405149D01*
X8542621Y-14405149D02*
X8561669Y-14414672D01*
X8637859Y-14614672D02*
X8647383Y-14605149D01*
X8647383Y-14605149D02*
X8666431Y-14576577D01*
X8666431Y-14576577D02*
X8675955Y-14557530D01*
X8675955Y-14557530D02*
X8685478Y-14528958D01*
X8685478Y-14528958D02*
X8695002Y-14481339D01*
X8695002Y-14481339D02*
X8695002Y-14443244D01*
X8695002Y-14443244D02*
X8685478Y-14395625D01*
X8685478Y-14395625D02*
X8675955Y-14367053D01*
X8675955Y-14367053D02*
X8666431Y-14348006D01*
X8666431Y-14348006D02*
X8647383Y-14319434D01*
X8647383Y-14319434D02*
X8637859Y-14309911D01*
X8999764Y-14614672D02*
X8990240Y-14605149D01*
X8990240Y-14605149D02*
X8971193Y-14576577D01*
X8971193Y-14576577D02*
X8961669Y-14557530D01*
X8961669Y-14557530D02*
X8952145Y-14528958D01*
X8952145Y-14528958D02*
X8942621Y-14481339D01*
X8942621Y-14481339D02*
X8942621Y-14443244D01*
X8942621Y-14443244D02*
X8952145Y-14395625D01*
X8952145Y-14395625D02*
X8961669Y-14367053D01*
X8961669Y-14367053D02*
X8971193Y-14348006D01*
X8971193Y-14348006D02*
X8990240Y-14319434D01*
X8990240Y-14319434D02*
X8999764Y-14309911D01*
X9075955Y-14405149D02*
X9075955Y-14538482D01*
X9075955Y-14424196D02*
X9085478Y-14414672D01*
X9085478Y-14414672D02*
X9104526Y-14405149D01*
X9104526Y-14405149D02*
X9133098Y-14405149D01*
X9133098Y-14405149D02*
X9152145Y-14414672D01*
X9152145Y-14414672D02*
X9161669Y-14433720D01*
X9161669Y-14433720D02*
X9161669Y-14538482D01*
X9285478Y-14538482D02*
X9266431Y-14528958D01*
X9266431Y-14528958D02*
X9256907Y-14519434D01*
X9256907Y-14519434D02*
X9247383Y-14500387D01*
X9247383Y-14500387D02*
X9247383Y-14443244D01*
X9247383Y-14443244D02*
X9256907Y-14424196D01*
X9256907Y-14424196D02*
X9266431Y-14414672D01*
X9266431Y-14414672D02*
X9285478Y-14405149D01*
X9285478Y-14405149D02*
X9314050Y-14405149D01*
X9314050Y-14405149D02*
X9333098Y-14414672D01*
X9333098Y-14414672D02*
X9342621Y-14424196D01*
X9342621Y-14424196D02*
X9352145Y-14443244D01*
X9352145Y-14443244D02*
X9352145Y-14500387D01*
X9352145Y-14500387D02*
X9342621Y-14519434D01*
X9342621Y-14519434D02*
X9333098Y-14528958D01*
X9333098Y-14528958D02*
X9314050Y-14538482D01*
X9314050Y-14538482D02*
X9285478Y-14538482D01*
X9409288Y-14405149D02*
X9485478Y-14405149D01*
X9437859Y-14338482D02*
X9437859Y-14509911D01*
X9437859Y-14509911D02*
X9447383Y-14528958D01*
X9447383Y-14528958D02*
X9466431Y-14538482D01*
X9466431Y-14538482D02*
X9485478Y-14538482D01*
X9704526Y-14405149D02*
X9704526Y-14605149D01*
X9704526Y-14414672D02*
X9723574Y-14405149D01*
X9723574Y-14405149D02*
X9761669Y-14405149D01*
X9761669Y-14405149D02*
X9780717Y-14414672D01*
X9780717Y-14414672D02*
X9790240Y-14424196D01*
X9790240Y-14424196D02*
X9799764Y-14443244D01*
X9799764Y-14443244D02*
X9799764Y-14500387D01*
X9799764Y-14500387D02*
X9790240Y-14519434D01*
X9790240Y-14519434D02*
X9780717Y-14528958D01*
X9780717Y-14528958D02*
X9761669Y-14538482D01*
X9761669Y-14538482D02*
X9723574Y-14538482D01*
X9723574Y-14538482D02*
X9704526Y-14528958D01*
X9914050Y-14538482D02*
X9895002Y-14528958D01*
X9895002Y-14528958D02*
X9885479Y-14509911D01*
X9885479Y-14509911D02*
X9885479Y-14338482D01*
X10075955Y-14538482D02*
X10075955Y-14433720D01*
X10075955Y-14433720D02*
X10066431Y-14414672D01*
X10066431Y-14414672D02*
X10047383Y-14405149D01*
X10047383Y-14405149D02*
X10009288Y-14405149D01*
X10009288Y-14405149D02*
X9990240Y-14414672D01*
X10075955Y-14528958D02*
X10056907Y-14538482D01*
X10056907Y-14538482D02*
X10009288Y-14538482D01*
X10009288Y-14538482D02*
X9990240Y-14528958D01*
X9990240Y-14528958D02*
X9980717Y-14509911D01*
X9980717Y-14509911D02*
X9980717Y-14490863D01*
X9980717Y-14490863D02*
X9990240Y-14471815D01*
X9990240Y-14471815D02*
X10009288Y-14462292D01*
X10009288Y-14462292D02*
X10056907Y-14462292D01*
X10056907Y-14462292D02*
X10075955Y-14452768D01*
X10142621Y-14405149D02*
X10218812Y-14405149D01*
X10171193Y-14338482D02*
X10171193Y-14509911D01*
X10171193Y-14509911D02*
X10180717Y-14528958D01*
X10180717Y-14528958D02*
X10199764Y-14538482D01*
X10199764Y-14538482D02*
X10218812Y-14538482D01*
X10361669Y-14528958D02*
X10342621Y-14538482D01*
X10342621Y-14538482D02*
X10304526Y-14538482D01*
X10304526Y-14538482D02*
X10285479Y-14528958D01*
X10285479Y-14528958D02*
X10275955Y-14509911D01*
X10275955Y-14509911D02*
X10275955Y-14433720D01*
X10275955Y-14433720D02*
X10285479Y-14414672D01*
X10285479Y-14414672D02*
X10304526Y-14405149D01*
X10304526Y-14405149D02*
X10342621Y-14405149D01*
X10342621Y-14405149D02*
X10361669Y-14414672D01*
X10361669Y-14414672D02*
X10371193Y-14433720D01*
X10371193Y-14433720D02*
X10371193Y-14452768D01*
X10371193Y-14452768D02*
X10275955Y-14471815D01*
X10542621Y-14538482D02*
X10542621Y-14338482D01*
X10542621Y-14528958D02*
X10523574Y-14538482D01*
X10523574Y-14538482D02*
X10485479Y-14538482D01*
X10485479Y-14538482D02*
X10466431Y-14528958D01*
X10466431Y-14528958D02*
X10456907Y-14519434D01*
X10456907Y-14519434D02*
X10447383Y-14500387D01*
X10447383Y-14500387D02*
X10447383Y-14443244D01*
X10447383Y-14443244D02*
X10456907Y-14424196D01*
X10456907Y-14424196D02*
X10466431Y-14414672D01*
X10466431Y-14414672D02*
X10485479Y-14405149D01*
X10485479Y-14405149D02*
X10523574Y-14405149D01*
X10523574Y-14405149D02*
X10542621Y-14414672D01*
X10618812Y-14614672D02*
X10628336Y-14605149D01*
X10628336Y-14605149D02*
X10647383Y-14576577D01*
X10647383Y-14576577D02*
X10656907Y-14557530D01*
X10656907Y-14557530D02*
X10666431Y-14528958D01*
X10666431Y-14528958D02*
X10675955Y-14481339D01*
X10675955Y-14481339D02*
X10675955Y-14443244D01*
X10675955Y-14443244D02*
X10666431Y-14395625D01*
X10666431Y-14395625D02*
X10656907Y-14367053D01*
X10656907Y-14367053D02*
X10647383Y-14348006D01*
X10647383Y-14348006D02*
X10628336Y-14319434D01*
X10628336Y-14319434D02*
X10618812Y-14309911D01*
X3585478Y-14665958D02*
X3585478Y-14865958D01*
X3485478Y-14765958D02*
X3685478Y-14765958D01*
X3914049Y-14658482D02*
X4037859Y-14658482D01*
X4037859Y-14658482D02*
X3971192Y-14734672D01*
X3971192Y-14734672D02*
X3999764Y-14734672D01*
X3999764Y-14734672D02*
X4018811Y-14744196D01*
X4018811Y-14744196D02*
X4028335Y-14753720D01*
X4028335Y-14753720D02*
X4037859Y-14772768D01*
X4037859Y-14772768D02*
X4037859Y-14820387D01*
X4037859Y-14820387D02*
X4028335Y-14839434D01*
X4028335Y-14839434D02*
X4018811Y-14848958D01*
X4018811Y-14848958D02*
X3999764Y-14858482D01*
X3999764Y-14858482D02*
X3942621Y-14858482D01*
X3942621Y-14858482D02*
X3923573Y-14848958D01*
X3923573Y-14848958D02*
X3914049Y-14839434D01*
X4123573Y-14839434D02*
X4133097Y-14848958D01*
X4133097Y-14848958D02*
X4123573Y-14858482D01*
X4123573Y-14858482D02*
X4114049Y-14848958D01*
X4114049Y-14848958D02*
X4123573Y-14839434D01*
X4123573Y-14839434D02*
X4123573Y-14858482D01*
X4304526Y-14725149D02*
X4304526Y-14858482D01*
X4256907Y-14648958D02*
X4209288Y-14791815D01*
X4209288Y-14791815D02*
X4333097Y-14791815D01*
X4399764Y-14677530D02*
X4409288Y-14668006D01*
X4409288Y-14668006D02*
X4428335Y-14658482D01*
X4428335Y-14658482D02*
X4475954Y-14658482D01*
X4475954Y-14658482D02*
X4495002Y-14668006D01*
X4495002Y-14668006D02*
X4504526Y-14677530D01*
X4504526Y-14677530D02*
X4514049Y-14696577D01*
X4514049Y-14696577D02*
X4514049Y-14715625D01*
X4514049Y-14715625D02*
X4504526Y-14744196D01*
X4504526Y-14744196D02*
X4390240Y-14858482D01*
X4390240Y-14858482D02*
X4514049Y-14858482D01*
X4609288Y-14858482D02*
X4647383Y-14858482D01*
X4647383Y-14858482D02*
X4666430Y-14848958D01*
X4666430Y-14848958D02*
X4675954Y-14839434D01*
X4675954Y-14839434D02*
X4695002Y-14810863D01*
X4695002Y-14810863D02*
X4704526Y-14772768D01*
X4704526Y-14772768D02*
X4704526Y-14696577D01*
X4704526Y-14696577D02*
X4695002Y-14677530D01*
X4695002Y-14677530D02*
X4685478Y-14668006D01*
X4685478Y-14668006D02*
X4666430Y-14658482D01*
X4666430Y-14658482D02*
X4628335Y-14658482D01*
X4628335Y-14658482D02*
X4609288Y-14668006D01*
X4609288Y-14668006D02*
X4599764Y-14677530D01*
X4599764Y-14677530D02*
X4590240Y-14696577D01*
X4590240Y-14696577D02*
X4590240Y-14744196D01*
X4590240Y-14744196D02*
X4599764Y-14763244D01*
X4599764Y-14763244D02*
X4609288Y-14772768D01*
X4609288Y-14772768D02*
X4628335Y-14782292D01*
X4628335Y-14782292D02*
X4666430Y-14782292D01*
X4666430Y-14782292D02*
X4685478Y-14772768D01*
X4685478Y-14772768D02*
X4695002Y-14763244D01*
X4695002Y-14763244D02*
X4704526Y-14744196D01*
X4790240Y-14858482D02*
X4790240Y-14725149D01*
X4790240Y-14744196D02*
X4799764Y-14734672D01*
X4799764Y-14734672D02*
X4818811Y-14725149D01*
X4818811Y-14725149D02*
X4847383Y-14725149D01*
X4847383Y-14725149D02*
X4866430Y-14734672D01*
X4866430Y-14734672D02*
X4875954Y-14753720D01*
X4875954Y-14753720D02*
X4875954Y-14858482D01*
X4875954Y-14753720D02*
X4885478Y-14734672D01*
X4885478Y-14734672D02*
X4904526Y-14725149D01*
X4904526Y-14725149D02*
X4933097Y-14725149D01*
X4933097Y-14725149D02*
X4952145Y-14734672D01*
X4952145Y-14734672D02*
X4961669Y-14753720D01*
X4961669Y-14753720D02*
X4961669Y-14858482D01*
X5056907Y-14858482D02*
X5056907Y-14725149D01*
X5056907Y-14744196D02*
X5066430Y-14734672D01*
X5066430Y-14734672D02*
X5085478Y-14725149D01*
X5085478Y-14725149D02*
X5114050Y-14725149D01*
X5114050Y-14725149D02*
X5133097Y-14734672D01*
X5133097Y-14734672D02*
X5142621Y-14753720D01*
X5142621Y-14753720D02*
X5142621Y-14858482D01*
X5142621Y-14753720D02*
X5152145Y-14734672D01*
X5152145Y-14734672D02*
X5171192Y-14725149D01*
X5171192Y-14725149D02*
X5199764Y-14725149D01*
X5199764Y-14725149D02*
X5218811Y-14734672D01*
X5218811Y-14734672D02*
X5228335Y-14753720D01*
X5228335Y-14753720D02*
X5228335Y-14858482D01*
X5618811Y-14648958D02*
X5447383Y-14906101D01*
X5875954Y-14658482D02*
X5895002Y-14658482D01*
X5895002Y-14658482D02*
X5914050Y-14668006D01*
X5914050Y-14668006D02*
X5923573Y-14677530D01*
X5923573Y-14677530D02*
X5933097Y-14696577D01*
X5933097Y-14696577D02*
X5942621Y-14734672D01*
X5942621Y-14734672D02*
X5942621Y-14782292D01*
X5942621Y-14782292D02*
X5933097Y-14820387D01*
X5933097Y-14820387D02*
X5923573Y-14839434D01*
X5923573Y-14839434D02*
X5914050Y-14848958D01*
X5914050Y-14848958D02*
X5895002Y-14858482D01*
X5895002Y-14858482D02*
X5875954Y-14858482D01*
X5875954Y-14858482D02*
X5856907Y-14848958D01*
X5856907Y-14848958D02*
X5847383Y-14839434D01*
X5847383Y-14839434D02*
X5837859Y-14820387D01*
X5837859Y-14820387D02*
X5828335Y-14782292D01*
X5828335Y-14782292D02*
X5828335Y-14734672D01*
X5828335Y-14734672D02*
X5837859Y-14696577D01*
X5837859Y-14696577D02*
X5847383Y-14677530D01*
X5847383Y-14677530D02*
X5856907Y-14668006D01*
X5856907Y-14668006D02*
X5875954Y-14658482D01*
X6028335Y-14839434D02*
X6037859Y-14848958D01*
X6037859Y-14848958D02*
X6028335Y-14858482D01*
X6028335Y-14858482D02*
X6018811Y-14848958D01*
X6018811Y-14848958D02*
X6028335Y-14839434D01*
X6028335Y-14839434D02*
X6028335Y-14858482D01*
X6228335Y-14858482D02*
X6114050Y-14858482D01*
X6171192Y-14858482D02*
X6171192Y-14658482D01*
X6171192Y-14658482D02*
X6152145Y-14687053D01*
X6152145Y-14687053D02*
X6133097Y-14706101D01*
X6133097Y-14706101D02*
X6114050Y-14715625D01*
X6295002Y-14658482D02*
X6418811Y-14658482D01*
X6418811Y-14658482D02*
X6352145Y-14734672D01*
X6352145Y-14734672D02*
X6380716Y-14734672D01*
X6380716Y-14734672D02*
X6399764Y-14744196D01*
X6399764Y-14744196D02*
X6409288Y-14753720D01*
X6409288Y-14753720D02*
X6418811Y-14772768D01*
X6418811Y-14772768D02*
X6418811Y-14820387D01*
X6418811Y-14820387D02*
X6409288Y-14839434D01*
X6409288Y-14839434D02*
X6399764Y-14848958D01*
X6399764Y-14848958D02*
X6380716Y-14858482D01*
X6380716Y-14858482D02*
X6323573Y-14858482D01*
X6323573Y-14858482D02*
X6304526Y-14848958D01*
X6304526Y-14848958D02*
X6295002Y-14839434D01*
X6599764Y-14658482D02*
X6504526Y-14658482D01*
X6504526Y-14658482D02*
X6495002Y-14753720D01*
X6495002Y-14753720D02*
X6504526Y-14744196D01*
X6504526Y-14744196D02*
X6523573Y-14734672D01*
X6523573Y-14734672D02*
X6571192Y-14734672D01*
X6571192Y-14734672D02*
X6590240Y-14744196D01*
X6590240Y-14744196D02*
X6599764Y-14753720D01*
X6599764Y-14753720D02*
X6609288Y-14772768D01*
X6609288Y-14772768D02*
X6609288Y-14820387D01*
X6609288Y-14820387D02*
X6599764Y-14839434D01*
X6599764Y-14839434D02*
X6590240Y-14848958D01*
X6590240Y-14848958D02*
X6571192Y-14858482D01*
X6571192Y-14858482D02*
X6523573Y-14858482D01*
X6523573Y-14858482D02*
X6504526Y-14848958D01*
X6504526Y-14848958D02*
X6495002Y-14839434D01*
X6733097Y-14658482D02*
X6752145Y-14658482D01*
X6752145Y-14658482D02*
X6771192Y-14668006D01*
X6771192Y-14668006D02*
X6780716Y-14677530D01*
X6780716Y-14677530D02*
X6790240Y-14696577D01*
X6790240Y-14696577D02*
X6799764Y-14734672D01*
X6799764Y-14734672D02*
X6799764Y-14782292D01*
X6799764Y-14782292D02*
X6790240Y-14820387D01*
X6790240Y-14820387D02*
X6780716Y-14839434D01*
X6780716Y-14839434D02*
X6771192Y-14848958D01*
X6771192Y-14848958D02*
X6752145Y-14858482D01*
X6752145Y-14858482D02*
X6733097Y-14858482D01*
X6733097Y-14858482D02*
X6714050Y-14848958D01*
X6714050Y-14848958D02*
X6704526Y-14839434D01*
X6704526Y-14839434D02*
X6695002Y-14820387D01*
X6695002Y-14820387D02*
X6685478Y-14782292D01*
X6685478Y-14782292D02*
X6685478Y-14734672D01*
X6685478Y-14734672D02*
X6695002Y-14696577D01*
X6695002Y-14696577D02*
X6704526Y-14677530D01*
X6704526Y-14677530D02*
X6714050Y-14668006D01*
X6714050Y-14668006D02*
X6733097Y-14658482D01*
X6875954Y-14658482D02*
X6875954Y-14696577D01*
X6952145Y-14658482D02*
X6952145Y-14696577D01*
X7247383Y-14934672D02*
X7237859Y-14925149D01*
X7237859Y-14925149D02*
X7218812Y-14896577D01*
X7218812Y-14896577D02*
X7209288Y-14877530D01*
X7209288Y-14877530D02*
X7199764Y-14848958D01*
X7199764Y-14848958D02*
X7190240Y-14801339D01*
X7190240Y-14801339D02*
X7190240Y-14763244D01*
X7190240Y-14763244D02*
X7199764Y-14715625D01*
X7199764Y-14715625D02*
X7209288Y-14687053D01*
X7209288Y-14687053D02*
X7218812Y-14668006D01*
X7218812Y-14668006D02*
X7237859Y-14639434D01*
X7237859Y-14639434D02*
X7247383Y-14629911D01*
X7428335Y-14858482D02*
X7314050Y-14858482D01*
X7371192Y-14858482D02*
X7371192Y-14658482D01*
X7371192Y-14658482D02*
X7352145Y-14687053D01*
X7352145Y-14687053D02*
X7333097Y-14706101D01*
X7333097Y-14706101D02*
X7314050Y-14715625D01*
X7542621Y-14744196D02*
X7523573Y-14734672D01*
X7523573Y-14734672D02*
X7514050Y-14725149D01*
X7514050Y-14725149D02*
X7504526Y-14706101D01*
X7504526Y-14706101D02*
X7504526Y-14696577D01*
X7504526Y-14696577D02*
X7514050Y-14677530D01*
X7514050Y-14677530D02*
X7523573Y-14668006D01*
X7523573Y-14668006D02*
X7542621Y-14658482D01*
X7542621Y-14658482D02*
X7580716Y-14658482D01*
X7580716Y-14658482D02*
X7599764Y-14668006D01*
X7599764Y-14668006D02*
X7609288Y-14677530D01*
X7609288Y-14677530D02*
X7618812Y-14696577D01*
X7618812Y-14696577D02*
X7618812Y-14706101D01*
X7618812Y-14706101D02*
X7609288Y-14725149D01*
X7609288Y-14725149D02*
X7599764Y-14734672D01*
X7599764Y-14734672D02*
X7580716Y-14744196D01*
X7580716Y-14744196D02*
X7542621Y-14744196D01*
X7542621Y-14744196D02*
X7523573Y-14753720D01*
X7523573Y-14753720D02*
X7514050Y-14763244D01*
X7514050Y-14763244D02*
X7504526Y-14782292D01*
X7504526Y-14782292D02*
X7504526Y-14820387D01*
X7504526Y-14820387D02*
X7514050Y-14839434D01*
X7514050Y-14839434D02*
X7523573Y-14848958D01*
X7523573Y-14848958D02*
X7542621Y-14858482D01*
X7542621Y-14858482D02*
X7580716Y-14858482D01*
X7580716Y-14858482D02*
X7599764Y-14848958D01*
X7599764Y-14848958D02*
X7609288Y-14839434D01*
X7609288Y-14839434D02*
X7618812Y-14820387D01*
X7618812Y-14820387D02*
X7618812Y-14782292D01*
X7618812Y-14782292D02*
X7609288Y-14763244D01*
X7609288Y-14763244D02*
X7599764Y-14753720D01*
X7599764Y-14753720D02*
X7580716Y-14744196D01*
X7856907Y-14858482D02*
X7856907Y-14658482D01*
X7942621Y-14858482D02*
X7942621Y-14753720D01*
X7942621Y-14753720D02*
X7933097Y-14734672D01*
X7933097Y-14734672D02*
X7914050Y-14725149D01*
X7914050Y-14725149D02*
X7885478Y-14725149D01*
X7885478Y-14725149D02*
X7866431Y-14734672D01*
X7866431Y-14734672D02*
X7856907Y-14744196D01*
X8066431Y-14858482D02*
X8047383Y-14848958D01*
X8047383Y-14848958D02*
X8037859Y-14839434D01*
X8037859Y-14839434D02*
X8028335Y-14820387D01*
X8028335Y-14820387D02*
X8028335Y-14763244D01*
X8028335Y-14763244D02*
X8037859Y-14744196D01*
X8037859Y-14744196D02*
X8047383Y-14734672D01*
X8047383Y-14734672D02*
X8066431Y-14725149D01*
X8066431Y-14725149D02*
X8095002Y-14725149D01*
X8095002Y-14725149D02*
X8114050Y-14734672D01*
X8114050Y-14734672D02*
X8123574Y-14744196D01*
X8123574Y-14744196D02*
X8133097Y-14763244D01*
X8133097Y-14763244D02*
X8133097Y-14820387D01*
X8133097Y-14820387D02*
X8123574Y-14839434D01*
X8123574Y-14839434D02*
X8114050Y-14848958D01*
X8114050Y-14848958D02*
X8095002Y-14858482D01*
X8095002Y-14858482D02*
X8066431Y-14858482D01*
X8247383Y-14858482D02*
X8228335Y-14848958D01*
X8228335Y-14848958D02*
X8218812Y-14829911D01*
X8218812Y-14829911D02*
X8218812Y-14658482D01*
X8399764Y-14848958D02*
X8380716Y-14858482D01*
X8380716Y-14858482D02*
X8342621Y-14858482D01*
X8342621Y-14858482D02*
X8323574Y-14848958D01*
X8323574Y-14848958D02*
X8314050Y-14829911D01*
X8314050Y-14829911D02*
X8314050Y-14753720D01*
X8314050Y-14753720D02*
X8323574Y-14734672D01*
X8323574Y-14734672D02*
X8342621Y-14725149D01*
X8342621Y-14725149D02*
X8380716Y-14725149D01*
X8380716Y-14725149D02*
X8399764Y-14734672D01*
X8399764Y-14734672D02*
X8409288Y-14753720D01*
X8409288Y-14753720D02*
X8409288Y-14772768D01*
X8409288Y-14772768D02*
X8314050Y-14791815D01*
X8485478Y-14848958D02*
X8504526Y-14858482D01*
X8504526Y-14858482D02*
X8542621Y-14858482D01*
X8542621Y-14858482D02*
X8561669Y-14848958D01*
X8561669Y-14848958D02*
X8571193Y-14829911D01*
X8571193Y-14829911D02*
X8571193Y-14820387D01*
X8571193Y-14820387D02*
X8561669Y-14801339D01*
X8561669Y-14801339D02*
X8542621Y-14791815D01*
X8542621Y-14791815D02*
X8514050Y-14791815D01*
X8514050Y-14791815D02*
X8495002Y-14782292D01*
X8495002Y-14782292D02*
X8485478Y-14763244D01*
X8485478Y-14763244D02*
X8485478Y-14753720D01*
X8485478Y-14753720D02*
X8495002Y-14734672D01*
X8495002Y-14734672D02*
X8514050Y-14725149D01*
X8514050Y-14725149D02*
X8542621Y-14725149D01*
X8542621Y-14725149D02*
X8561669Y-14734672D01*
X8637859Y-14934672D02*
X8647383Y-14925149D01*
X8647383Y-14925149D02*
X8666431Y-14896577D01*
X8666431Y-14896577D02*
X8675955Y-14877530D01*
X8675955Y-14877530D02*
X8685478Y-14848958D01*
X8685478Y-14848958D02*
X8695002Y-14801339D01*
X8695002Y-14801339D02*
X8695002Y-14763244D01*
X8695002Y-14763244D02*
X8685478Y-14715625D01*
X8685478Y-14715625D02*
X8675955Y-14687053D01*
X8675955Y-14687053D02*
X8666431Y-14668006D01*
X8666431Y-14668006D02*
X8647383Y-14639434D01*
X8647383Y-14639434D02*
X8637859Y-14629911D01*
X8999764Y-14934672D02*
X8990240Y-14925149D01*
X8990240Y-14925149D02*
X8971193Y-14896577D01*
X8971193Y-14896577D02*
X8961669Y-14877530D01*
X8961669Y-14877530D02*
X8952145Y-14848958D01*
X8952145Y-14848958D02*
X8942621Y-14801339D01*
X8942621Y-14801339D02*
X8942621Y-14763244D01*
X8942621Y-14763244D02*
X8952145Y-14715625D01*
X8952145Y-14715625D02*
X8961669Y-14687053D01*
X8961669Y-14687053D02*
X8971193Y-14668006D01*
X8971193Y-14668006D02*
X8990240Y-14639434D01*
X8990240Y-14639434D02*
X8999764Y-14629911D01*
X9075955Y-14725149D02*
X9075955Y-14858482D01*
X9075955Y-14744196D02*
X9085478Y-14734672D01*
X9085478Y-14734672D02*
X9104526Y-14725149D01*
X9104526Y-14725149D02*
X9133098Y-14725149D01*
X9133098Y-14725149D02*
X9152145Y-14734672D01*
X9152145Y-14734672D02*
X9161669Y-14753720D01*
X9161669Y-14753720D02*
X9161669Y-14858482D01*
X9285478Y-14858482D02*
X9266431Y-14848958D01*
X9266431Y-14848958D02*
X9256907Y-14839434D01*
X9256907Y-14839434D02*
X9247383Y-14820387D01*
X9247383Y-14820387D02*
X9247383Y-14763244D01*
X9247383Y-14763244D02*
X9256907Y-14744196D01*
X9256907Y-14744196D02*
X9266431Y-14734672D01*
X9266431Y-14734672D02*
X9285478Y-14725149D01*
X9285478Y-14725149D02*
X9314050Y-14725149D01*
X9314050Y-14725149D02*
X9333098Y-14734672D01*
X9333098Y-14734672D02*
X9342621Y-14744196D01*
X9342621Y-14744196D02*
X9352145Y-14763244D01*
X9352145Y-14763244D02*
X9352145Y-14820387D01*
X9352145Y-14820387D02*
X9342621Y-14839434D01*
X9342621Y-14839434D02*
X9333098Y-14848958D01*
X9333098Y-14848958D02*
X9314050Y-14858482D01*
X9314050Y-14858482D02*
X9285478Y-14858482D01*
X9409288Y-14725149D02*
X9485478Y-14725149D01*
X9437859Y-14658482D02*
X9437859Y-14829911D01*
X9437859Y-14829911D02*
X9447383Y-14848958D01*
X9447383Y-14848958D02*
X9466431Y-14858482D01*
X9466431Y-14858482D02*
X9485478Y-14858482D01*
X9704526Y-14725149D02*
X9704526Y-14925149D01*
X9704526Y-14734672D02*
X9723574Y-14725149D01*
X9723574Y-14725149D02*
X9761669Y-14725149D01*
X9761669Y-14725149D02*
X9780717Y-14734672D01*
X9780717Y-14734672D02*
X9790240Y-14744196D01*
X9790240Y-14744196D02*
X9799764Y-14763244D01*
X9799764Y-14763244D02*
X9799764Y-14820387D01*
X9799764Y-14820387D02*
X9790240Y-14839434D01*
X9790240Y-14839434D02*
X9780717Y-14848958D01*
X9780717Y-14848958D02*
X9761669Y-14858482D01*
X9761669Y-14858482D02*
X9723574Y-14858482D01*
X9723574Y-14858482D02*
X9704526Y-14848958D01*
X9914050Y-14858482D02*
X9895002Y-14848958D01*
X9895002Y-14848958D02*
X9885479Y-14829911D01*
X9885479Y-14829911D02*
X9885479Y-14658482D01*
X10075955Y-14858482D02*
X10075955Y-14753720D01*
X10075955Y-14753720D02*
X10066431Y-14734672D01*
X10066431Y-14734672D02*
X10047383Y-14725149D01*
X10047383Y-14725149D02*
X10009288Y-14725149D01*
X10009288Y-14725149D02*
X9990240Y-14734672D01*
X10075955Y-14848958D02*
X10056907Y-14858482D01*
X10056907Y-14858482D02*
X10009288Y-14858482D01*
X10009288Y-14858482D02*
X9990240Y-14848958D01*
X9990240Y-14848958D02*
X9980717Y-14829911D01*
X9980717Y-14829911D02*
X9980717Y-14810863D01*
X9980717Y-14810863D02*
X9990240Y-14791815D01*
X9990240Y-14791815D02*
X10009288Y-14782292D01*
X10009288Y-14782292D02*
X10056907Y-14782292D01*
X10056907Y-14782292D02*
X10075955Y-14772768D01*
X10142621Y-14725149D02*
X10218812Y-14725149D01*
X10171193Y-14658482D02*
X10171193Y-14829911D01*
X10171193Y-14829911D02*
X10180717Y-14848958D01*
X10180717Y-14848958D02*
X10199764Y-14858482D01*
X10199764Y-14858482D02*
X10218812Y-14858482D01*
X10361669Y-14848958D02*
X10342621Y-14858482D01*
X10342621Y-14858482D02*
X10304526Y-14858482D01*
X10304526Y-14858482D02*
X10285479Y-14848958D01*
X10285479Y-14848958D02*
X10275955Y-14829911D01*
X10275955Y-14829911D02*
X10275955Y-14753720D01*
X10275955Y-14753720D02*
X10285479Y-14734672D01*
X10285479Y-14734672D02*
X10304526Y-14725149D01*
X10304526Y-14725149D02*
X10342621Y-14725149D01*
X10342621Y-14725149D02*
X10361669Y-14734672D01*
X10361669Y-14734672D02*
X10371193Y-14753720D01*
X10371193Y-14753720D02*
X10371193Y-14772768D01*
X10371193Y-14772768D02*
X10275955Y-14791815D01*
X10542621Y-14858482D02*
X10542621Y-14658482D01*
X10542621Y-14848958D02*
X10523574Y-14858482D01*
X10523574Y-14858482D02*
X10485479Y-14858482D01*
X10485479Y-14858482D02*
X10466431Y-14848958D01*
X10466431Y-14848958D02*
X10456907Y-14839434D01*
X10456907Y-14839434D02*
X10447383Y-14820387D01*
X10447383Y-14820387D02*
X10447383Y-14763244D01*
X10447383Y-14763244D02*
X10456907Y-14744196D01*
X10456907Y-14744196D02*
X10466431Y-14734672D01*
X10466431Y-14734672D02*
X10485479Y-14725149D01*
X10485479Y-14725149D02*
X10523574Y-14725149D01*
X10523574Y-14725149D02*
X10542621Y-14734672D01*
X10618812Y-14934672D02*
X10628336Y-14925149D01*
X10628336Y-14925149D02*
X10647383Y-14896577D01*
X10647383Y-14896577D02*
X10656907Y-14877530D01*
X10656907Y-14877530D02*
X10666431Y-14848958D01*
X10666431Y-14848958D02*
X10675955Y-14801339D01*
X10675955Y-14801339D02*
X10675955Y-14763244D01*
X10675955Y-14763244D02*
X10666431Y-14715625D01*
X10666431Y-14715625D02*
X10656907Y-14687053D01*
X10656907Y-14687053D02*
X10647383Y-14668006D01*
X10647383Y-14668006D02*
X10628336Y-14639434D01*
X10628336Y-14639434D02*
X10618812Y-14629911D01*
M02*
