M48
; DRILL file {KiCad 7.0.1} date Mon Feb 26 07:05:16 2024
; FORMAT={-:-/ absolute / metric / decimal}
; #@! TF.CreationDate,2024-02-26T07:05:16-05:00
; #@! TF.GenerationSoftware,Kicad,Pcbnew,7.0.1
; #@! TF.FileFunction,Plated,1,2,PTH
FMAT,2
METRIC
; #@! TA.AperFunction,Plated,PTH,ViaDrill
T1C0.400
; #@! TA.AperFunction,Plated,PTH,ComponentDrill
T2C1.000
; #@! TA.AperFunction,Plated,PTH,ComponentDrill
T3C1.016
; #@! TA.AperFunction,Plated,PTH,ComponentDrill
T4C1.300
; #@! TA.AperFunction,Plated,PTH,ComponentDrill
T5C2.200
%
G90
G05
T1
X59.571Y-105.315
X65.746Y-44.04
X65.746Y-63.04
X65.746Y-82.04
X79.521Y-41.19
X79.521Y-60.19
X79.521Y-79.19
X79.521Y-102.465
X84.746Y-39.29
X84.746Y-58.29
X84.746Y-77.29
X84.746Y-102.465
X98.521Y-52.115
X98.521Y-71.115
X99.946Y-34.065
X99.946Y-109.115
X103.746Y-33.115
X103.746Y-52.115
X103.746Y-71.115
X120.371Y-37.865
X120.371Y-56.865
X120.371Y-75.865
X120.846Y-34.54
X122.271Y-39.765
X122.746Y-58.765
X122.746Y-77.765
X123.221Y-34.54
X123.221Y-36.44
X125.596Y-34.54
X125.596Y-36.44
X127.971Y-34.54
X127.971Y-36.44
X130.346Y-34.54
X130.346Y-36.44
X132.721Y-34.54
X132.721Y-36.44
X135.096Y-58.765
X135.096Y-77.765
X135.571Y-54.965
X141.746Y-73.965
X141.746Y-92.965
X152.196Y-57.815
X152.196Y-59.715
X152.196Y-76.815
X152.196Y-78.715
X152.196Y-95.815
X152.196Y-97.715
X154.571Y-57.815
X154.571Y-59.715
X154.571Y-76.815
X154.571Y-78.715
X154.571Y-95.815
X154.571Y-97.715
X156.946Y-57.815
X156.946Y-59.715
X156.946Y-73.965
X156.946Y-76.815
X156.946Y-78.715
X156.946Y-92.965
X156.946Y-95.815
X156.946Y-97.715
T2
X73.218Y-36.095
X78.218Y-36.095
X143.626Y-35.47
X143.626Y-50.71
X146.166Y-35.47
X146.166Y-50.71
X148.706Y-35.47
X148.706Y-50.71
X151.246Y-35.47
X151.246Y-50.71
X153.786Y-35.47
X153.786Y-50.71
X156.326Y-35.47
X156.326Y-50.71
X158.866Y-35.47
X158.866Y-50.71
T3
X151.563Y-38.645
X153.468Y-38.645
X157.278Y-41.82
X157.278Y-44.36
X159.818Y-41.82
X159.818Y-44.36
T4
X72.218Y-38.595
X79.218Y-38.595
T5
X59.946Y-35.865
X59.946Y-101.001
X137.196Y-35.865
X158.946Y-112.54
T0
M30
