M48
; DRILL file {KiCad 7.0.1} date Sat May 27 21:32:00 2023
; FORMAT={-:-/ absolute / metric / decimal}
; #@! TF.CreationDate,2023-05-27T21:32:00-04:00
; #@! TF.GenerationSoftware,Kicad,Pcbnew,7.0.1
; #@! TF.FileFunction,Plated,1,2,PTH
FMAT,2
METRIC
; #@! TA.AperFunction,Plated,PTH,ViaDrill
T1C0.400
; #@! TA.AperFunction,Plated,PTH,ComponentDrill
T2C1.000
; #@! TA.AperFunction,Plated,PTH,ComponentDrill
T3C1.016
; #@! TA.AperFunction,Plated,PTH,ComponentDrill
T4C1.300
; #@! TA.AperFunction,Plated,PTH,ComponentDrill
T5C2.200
%
G90
G05
T1
X45.841Y-60.075
X45.841Y-61.5
X46.266Y-76.95
X46.266Y-95.95
X48.216Y-60.075
X48.216Y-61.5
X52.966Y-60.075
X52.966Y-61.5
X55.341Y-60.075
X55.341Y-61.5
X57.716Y-60.075
X57.716Y-61.5
X57.716Y-76.225
X57.716Y-95.225
X60.091Y-43.925
X65.266Y-61.275
X65.266Y-80.275
X66.266Y-37.75
X66.266Y-39.175
X68.641Y-37.75
X68.641Y-39.175
X71.016Y-37.75
X71.016Y-39.175
X73.391Y-37.75
X75.766Y-37.75
X79.516Y-55.1
X79.516Y-74.1
X84.266Y-55.1
X84.266Y-74.1
X85.266Y-37.75
X85.266Y-39.175
X87.641Y-37.75
X87.641Y-39.175
X90.016Y-37.75
X90.016Y-39.175
X92.391Y-37.75
X92.391Y-39.175
X94.766Y-37.75
X94.766Y-39.175
X100.891Y-59.375
X100.891Y-78.375
X103.266Y-42.275
X103.266Y-61.275
X103.266Y-80.275
X103.316Y-105.2
X104.266Y-37.75
X106.641Y-37.75
X106.641Y-39.175
X109.016Y-37.75
X109.016Y-39.175
X111.391Y-37.75
X111.391Y-39.175
X113.766Y-37.75
X113.766Y-39.175
X113.766Y-52.0
X113.766Y-53.425
X114.716Y-105.2
X116.141Y-37.75
X116.141Y-39.175
X116.141Y-52.0
X116.141Y-53.425
X118.516Y-37.75
X118.516Y-39.175
X118.516Y-52.0
X118.516Y-53.425
X119.891Y-45.125
X119.891Y-64.125
X119.891Y-83.125
T2
X40.596Y-38.205
X40.596Y-53.445
X43.136Y-38.205
X43.136Y-53.445
X45.676Y-38.205
X45.676Y-53.445
X48.216Y-38.205
X48.216Y-53.445
X50.756Y-38.205
X50.756Y-53.445
X53.296Y-38.205
X53.296Y-53.445
X55.836Y-38.205
X55.836Y-53.445
X121.241Y-38.83
X126.241Y-38.83
T3
X39.644Y-44.555
X39.644Y-47.095
X42.184Y-44.555
X42.184Y-47.095
X45.994Y-50.27
X47.899Y-50.27
T4
X120.241Y-41.33
X127.241Y-41.33
T5
X40.522Y-115.279
X62.262Y-38.604
X139.512Y-103.739
X139.512Y-38.604
T0
M30
