%TF.GenerationSoftware,KiCad,Pcbnew,7.0.1*%
%TF.CreationDate,2023-05-27T21:32:01-04:00*%
%TF.ProjectId,pcb-left,7063622d-6c65-4667-942e-6b696361645f,0.3*%
%TF.SameCoordinates,Original*%
%TF.FileFunction,Drillmap*%
%TF.FilePolarity,Positive*%
%FSLAX45Y45*%
G04 Gerber Fmt 4.5, Leading zero omitted, Abs format (unit mm)*
G04 Created by KiCad (PCBNEW 7.0.1) date 2023-05-27 21:32:01*
%MOMM*%
%LPD*%
G01*
G04 APERTURE LIST*
%ADD10C,0.020000*%
%ADD11C,0.200000*%
%ADD12C,0.040000*%
%ADD13C,0.100000*%
%ADD14C,0.101600*%
%ADD15C,0.130000*%
%ADD16C,0.220000*%
G04 APERTURE END LIST*
D10*
X14319730Y-13282182D02*
X15185756Y-13782182D01*
X8002230Y-3342855D02*
X10002230Y-3342855D01*
X13676775Y-12950501D02*
X13682903Y-12953301D01*
X13689053Y-12956119D01*
X13695249Y-12958965D01*
X13701514Y-12961852D01*
X13707872Y-12964792D01*
X13714346Y-12967797D01*
X13720960Y-12970879D01*
X13727739Y-12974050D01*
X13734704Y-12977321D01*
X13741880Y-12980705D01*
X13749290Y-12984214D01*
X13756959Y-12987860D01*
X13764909Y-12991655D01*
X13773164Y-12995611D01*
X13781749Y-12999739D01*
X13790685Y-13004052D01*
X13799998Y-13008562D01*
X13809710Y-13013280D01*
X13819845Y-13018219D01*
X13830427Y-13023392D01*
X13841479Y-13028808D01*
X13853026Y-13034482D01*
X13865090Y-13040424D01*
X13877695Y-13046647D01*
X13890864Y-13053163D01*
X13904623Y-13059983D01*
X13918993Y-13067120D01*
X13933998Y-13074586D01*
X13949663Y-13082392D01*
X13966010Y-13090551D01*
X13983064Y-13099075D01*
X14000847Y-13107975D01*
X11265508Y-12340709D02*
X11272282Y-12341100D01*
X11279082Y-12341499D01*
X11285933Y-12341910D01*
X11292861Y-12342336D01*
X11299892Y-12342778D01*
X11307053Y-12343241D01*
X11314369Y-12343726D01*
X11321868Y-12344237D01*
X11329575Y-12344776D01*
X11337515Y-12345347D01*
X11345717Y-12345951D01*
X11354205Y-12346593D01*
X11363005Y-12347273D01*
X11372145Y-12347997D01*
X11381649Y-12348765D01*
X11391545Y-12349582D01*
X11401858Y-12350449D01*
X11412615Y-12351370D01*
X11423842Y-12352347D01*
X11435564Y-12353384D01*
X11447809Y-12354482D01*
X11460602Y-12355645D01*
X11473969Y-12356876D01*
X11487937Y-12358178D01*
X11502532Y-12359552D01*
X11517779Y-12361003D01*
X11533706Y-12362532D01*
X11550338Y-12364143D01*
X11567701Y-12365838D01*
X11585822Y-12367621D01*
X11604727Y-12369493D01*
X11624442Y-12371459D01*
X3827230Y-3585355D02*
X7902230Y-3585355D01*
X11624442Y-12371459D02*
X11631134Y-12372226D01*
X11637851Y-12373004D01*
X11644618Y-12373795D01*
X11651461Y-12374605D01*
X11658407Y-12375438D01*
X11665480Y-12376298D01*
X11672707Y-12377189D01*
X11680113Y-12378115D01*
X11687725Y-12379081D01*
X11695568Y-12380091D01*
X11703669Y-12381148D01*
X11712052Y-12382258D01*
X11720743Y-12383425D01*
X11729769Y-12384652D01*
X11739156Y-12385944D01*
X11748929Y-12387306D01*
X11759114Y-12388741D01*
X11769737Y-12390253D01*
X11780823Y-12391848D01*
X11792399Y-12393528D01*
X11804491Y-12395299D01*
X11817123Y-12397165D01*
X11830323Y-12399129D01*
X11844116Y-12401196D01*
X11858527Y-12403371D01*
X11873583Y-12405656D01*
X11889309Y-12408058D01*
X11905732Y-12410580D01*
X11922876Y-12413226D01*
X11940769Y-12416000D01*
X11959435Y-12418906D01*
X11978901Y-12421950D01*
X10052225Y-3392855D02*
G75*
G03*
X10002230Y-3342855I-49985J15D01*
G01*
X12328663Y-12491541D02*
X12335179Y-12493025D01*
X12341718Y-12494522D01*
X12348306Y-12496038D01*
X12354968Y-12497581D01*
X12361730Y-12499156D01*
X12368615Y-12500772D01*
X12375649Y-12502436D01*
X12382858Y-12504153D01*
X12390266Y-12505932D01*
X12397899Y-12507778D01*
X12405781Y-12509700D01*
X12413939Y-12511703D01*
X12422396Y-12513796D01*
X12431178Y-12515985D01*
X12440310Y-12518276D01*
X12449818Y-12520677D01*
X12459726Y-12523196D01*
X12470059Y-12525837D01*
X12480843Y-12528610D01*
X12492103Y-12531520D01*
X12503863Y-12534575D01*
X12516150Y-12537782D01*
X12528987Y-12541147D01*
X12542400Y-12544678D01*
X12556415Y-12548381D01*
X12571056Y-12552264D01*
X12586349Y-12556333D01*
X12602318Y-12560595D01*
X12618989Y-12565058D01*
X12636387Y-12569728D01*
X12654537Y-12574612D01*
X12673464Y-12579718D01*
X10052225Y-3535355D02*
G75*
G03*
X10102230Y-3585355I50015J15D01*
G01*
X3827230Y-3585360D02*
G75*
G03*
X3777230Y-3635355I0J-50000D01*
G01*
X7952230Y-3392855D02*
X7952230Y-3535355D01*
X3777225Y-11752855D02*
G75*
G03*
X3827230Y-11802855I50015J15D01*
G01*
X10102230Y-3585355D02*
X14177230Y-3585355D01*
X14000847Y-13107975D02*
X14006878Y-13111089D01*
X14012931Y-13114221D01*
X14019028Y-13117384D01*
X14025194Y-13120592D01*
X14031451Y-13123858D01*
X14037822Y-13127195D01*
X14044332Y-13130616D01*
X14051002Y-13134134D01*
X14057856Y-13137763D01*
X14064918Y-13141516D01*
X14072210Y-13145406D01*
X14079757Y-13149446D01*
X14087580Y-13153650D01*
X14095703Y-13158031D01*
X14104150Y-13162602D01*
X14112944Y-13167375D01*
X14122107Y-13172366D01*
X14131664Y-13177586D01*
X14141637Y-13183048D01*
X14152049Y-13188767D01*
X14162925Y-13194756D01*
X14174286Y-13201026D01*
X14186156Y-13207593D01*
X14198558Y-13214468D01*
X14211517Y-13221666D01*
X14225054Y-13229199D01*
X14239193Y-13237081D01*
X14253957Y-13245324D01*
X14269370Y-13253943D01*
X14285454Y-13262950D01*
X14302233Y-13272359D01*
X14319730Y-13282182D01*
X13013104Y-12685988D02*
X13019427Y-12688151D01*
X13025772Y-12690328D01*
X13032165Y-12692529D01*
X13038629Y-12694765D01*
X13045189Y-12697043D01*
X13051870Y-12699374D01*
X13058695Y-12701768D01*
X13065688Y-12704234D01*
X13072875Y-12706780D01*
X13080280Y-12709418D01*
X13087927Y-12712157D01*
X13095840Y-12715005D01*
X13104044Y-12717973D01*
X13112562Y-12721070D01*
X13121421Y-12724305D01*
X13130642Y-12727689D01*
X13140252Y-12731230D01*
X13150275Y-12734939D01*
X13160734Y-12738824D01*
X13171655Y-12742895D01*
X13183060Y-12747163D01*
X13194976Y-12751635D01*
X13207426Y-12756323D01*
X13220435Y-12761235D01*
X13234026Y-12766381D01*
X13248225Y-12771770D01*
X13263055Y-12777413D01*
X13278541Y-12783318D01*
X13294708Y-12789495D01*
X13311579Y-12795954D01*
X13329179Y-12802704D01*
X13347533Y-12809754D01*
X16254055Y-12031829D02*
G75*
G03*
X16235756Y-11963529I-43305J24999D01*
G01*
X12673464Y-12579718D02*
X12679884Y-12581546D01*
X12686328Y-12583389D01*
X12692819Y-12585253D01*
X12699383Y-12587147D01*
X12706045Y-12589080D01*
X12712829Y-12591059D01*
X12719760Y-12593093D01*
X12726862Y-12595190D01*
X12734161Y-12597359D01*
X12741680Y-12599608D01*
X12749446Y-12601944D01*
X12757482Y-12604377D01*
X12765813Y-12606915D01*
X12774464Y-12609565D01*
X12783461Y-12612336D01*
X12792826Y-12615237D01*
X12802586Y-12618275D01*
X12812765Y-12621459D01*
X12823387Y-12624798D01*
X12834478Y-12628299D01*
X12846061Y-12631970D01*
X12858163Y-12635820D01*
X12870808Y-12639858D01*
X12884019Y-12644091D01*
X12897823Y-12648528D01*
X12912243Y-12653177D01*
X12927306Y-12658047D01*
X12943034Y-12663145D01*
X12959453Y-12668480D01*
X12976588Y-12674060D01*
X12994464Y-12679893D01*
X13013104Y-12685988D01*
X9902230Y-12330355D02*
X10902230Y-12330355D01*
X9852225Y-11852855D02*
G75*
G03*
X9802230Y-11802855I-49985J15D01*
G01*
X10052230Y-3392855D02*
X10052230Y-3535355D01*
X9852230Y-11852855D02*
X9852230Y-12280355D01*
X16235756Y-11963529D02*
X14227230Y-10803906D01*
X15254057Y-13763881D02*
X16254057Y-12031830D01*
X8002230Y-3342860D02*
G75*
G03*
X7952230Y-3392855I0J-50000D01*
G01*
X14227225Y-3635355D02*
G75*
G03*
X14177230Y-3585355I-49985J15D01*
G01*
X9852225Y-12280355D02*
G75*
G03*
X9902230Y-12330355I50015J15D01*
G01*
X15185757Y-13782180D02*
G75*
G03*
X15254057Y-13763881I25003J43290D01*
G01*
X3777230Y-3635355D02*
X3777230Y-11752855D01*
X13347533Y-12809754D02*
X13353758Y-12812240D01*
X13360005Y-12814741D01*
X13366299Y-12817268D01*
X13372664Y-12819833D01*
X13379122Y-12822446D01*
X13385699Y-12825118D01*
X13392419Y-12827859D01*
X13399304Y-12830681D01*
X13406380Y-12833593D01*
X13413670Y-12836608D01*
X13421199Y-12839735D01*
X13428989Y-12842986D01*
X13437066Y-12846371D01*
X13445453Y-12849901D01*
X13454174Y-12853586D01*
X13463253Y-12857438D01*
X13472714Y-12861468D01*
X13482581Y-12865685D01*
X13492878Y-12870101D01*
X13503629Y-12874727D01*
X13514857Y-12879573D01*
X13526588Y-12884650D01*
X13538845Y-12889969D01*
X13551651Y-12895540D01*
X13565032Y-12901375D01*
X13579010Y-12907485D01*
X13593610Y-12913879D01*
X13608856Y-12920569D01*
X13624771Y-12927565D01*
X13641380Y-12934879D01*
X13658707Y-12942520D01*
X13676775Y-12950501D01*
X14227230Y-3635355D02*
X14227230Y-10803906D01*
X11978901Y-12421950D02*
X11985508Y-12423081D01*
X11992138Y-12424224D01*
X11998818Y-12425383D01*
X12005573Y-12426565D01*
X12012429Y-12427775D01*
X12019411Y-12429018D01*
X12026544Y-12430301D01*
X12033855Y-12431628D01*
X12041368Y-12433006D01*
X12049108Y-12434441D01*
X12057103Y-12435936D01*
X12065376Y-12437500D01*
X12073954Y-12439136D01*
X12082861Y-12440850D01*
X12092124Y-12442649D01*
X12101768Y-12444538D01*
X12111818Y-12446521D01*
X12122300Y-12448606D01*
X12133240Y-12450798D01*
X12144662Y-12453102D01*
X12156592Y-12455523D01*
X12169056Y-12458068D01*
X12182080Y-12460742D01*
X12195688Y-12463551D01*
X12209907Y-12466500D01*
X12224761Y-12469594D01*
X12240276Y-12472841D01*
X12256478Y-12476244D01*
X12273392Y-12479810D01*
X12291044Y-12483545D01*
X12309459Y-12487453D01*
X12328663Y-12491541D01*
X10902230Y-12330355D02*
X10909086Y-12330358D01*
X10915967Y-12330369D01*
X10922899Y-12330389D01*
X10929910Y-12330418D01*
X10937025Y-12330459D01*
X10944272Y-12330512D01*
X10951676Y-12330580D01*
X10959265Y-12330663D01*
X10967064Y-12330763D01*
X10975100Y-12330880D01*
X10983400Y-12331017D01*
X10991990Y-12331175D01*
X11000897Y-12331355D01*
X11010146Y-12331558D01*
X11019766Y-12331785D01*
X11029781Y-12332039D01*
X11040219Y-12332320D01*
X11051106Y-12332629D01*
X11062469Y-12332969D01*
X11074333Y-12333340D01*
X11086726Y-12333743D01*
X11099674Y-12334180D01*
X11113204Y-12334653D01*
X11127341Y-12335162D01*
X11142113Y-12335708D01*
X11157546Y-12336295D01*
X11173667Y-12336921D01*
X11190501Y-12337590D01*
X11208076Y-12338302D01*
X11226418Y-12339058D01*
X11245553Y-12339860D01*
X11265508Y-12340709D01*
X7902230Y-3585360D02*
G75*
G03*
X7952230Y-3535355I0J50000D01*
G01*
X3827230Y-11802855D02*
X9802230Y-11802855D01*
D11*
D12*
X4564063Y-5987500D02*
X4604063Y-6027500D01*
X4604063Y-5987500D02*
X4564063Y-6027500D01*
X4564063Y-6130000D02*
X4604063Y-6170000D01*
X4604063Y-6130000D02*
X4564063Y-6170000D01*
X4606563Y-7675000D02*
X4646563Y-7715000D01*
X4646563Y-7675000D02*
X4606563Y-7715000D01*
X4606563Y-9575000D02*
X4646563Y-9615000D01*
X4646563Y-9575000D02*
X4606563Y-9615000D01*
X4801563Y-5987500D02*
X4841563Y-6027500D01*
X4841563Y-5987500D02*
X4801563Y-6027500D01*
X4801563Y-6130000D02*
X4841563Y-6170000D01*
X4841563Y-6130000D02*
X4801563Y-6170000D01*
X5276563Y-5987500D02*
X5316563Y-6027500D01*
X5316563Y-5987500D02*
X5276563Y-6027500D01*
X5276563Y-6130000D02*
X5316563Y-6170000D01*
X5316563Y-6130000D02*
X5276563Y-6170000D01*
X5514063Y-5987500D02*
X5554063Y-6027500D01*
X5554063Y-5987500D02*
X5514063Y-6027500D01*
X5514063Y-6130000D02*
X5554063Y-6170000D01*
X5554063Y-6130000D02*
X5514063Y-6170000D01*
X5751562Y-5987500D02*
X5791562Y-6027500D01*
X5791562Y-5987500D02*
X5751562Y-6027500D01*
X5751562Y-6130000D02*
X5791562Y-6170000D01*
X5791562Y-6130000D02*
X5751562Y-6170000D01*
X5751562Y-7602500D02*
X5791562Y-7642500D01*
X5791562Y-7602500D02*
X5751562Y-7642500D01*
X5751562Y-9502500D02*
X5791562Y-9542500D01*
X5791562Y-9502500D02*
X5751562Y-9542500D01*
X5989062Y-4372500D02*
X6029062Y-4412500D01*
X6029062Y-4372500D02*
X5989062Y-4412500D01*
X6506562Y-6107500D02*
X6546562Y-6147500D01*
X6546562Y-6107500D02*
X6506562Y-6147500D01*
X6506562Y-8007500D02*
X6546562Y-8047500D01*
X6546562Y-8007500D02*
X6506562Y-8047500D01*
X6606562Y-3755000D02*
X6646562Y-3795000D01*
X6646562Y-3755000D02*
X6606562Y-3795000D01*
X6606562Y-3897500D02*
X6646562Y-3937500D01*
X6646562Y-3897500D02*
X6606562Y-3937500D01*
X6844062Y-3755000D02*
X6884062Y-3795000D01*
X6884062Y-3755000D02*
X6844062Y-3795000D01*
X6844062Y-3897500D02*
X6884062Y-3937500D01*
X6884062Y-3897500D02*
X6844062Y-3937500D01*
X7081562Y-3755000D02*
X7121562Y-3795000D01*
X7121562Y-3755000D02*
X7081562Y-3795000D01*
X7081562Y-3897500D02*
X7121562Y-3937500D01*
X7121562Y-3897500D02*
X7081562Y-3937500D01*
X7319062Y-3755000D02*
X7359062Y-3795000D01*
X7359062Y-3755000D02*
X7319062Y-3795000D01*
X7556562Y-3755000D02*
X7596562Y-3795000D01*
X7596562Y-3755000D02*
X7556562Y-3795000D01*
X7931562Y-5490000D02*
X7971562Y-5530000D01*
X7971562Y-5490000D02*
X7931562Y-5530000D01*
X7931562Y-7390000D02*
X7971562Y-7430000D01*
X7971562Y-7390000D02*
X7931562Y-7430000D01*
X8406563Y-5490000D02*
X8446563Y-5530000D01*
X8446563Y-5490000D02*
X8406563Y-5530000D01*
X8406563Y-7390000D02*
X8446563Y-7430000D01*
X8446563Y-7390000D02*
X8406563Y-7430000D01*
X8506563Y-3755000D02*
X8546563Y-3795000D01*
X8546563Y-3755000D02*
X8506563Y-3795000D01*
X8506563Y-3897500D02*
X8546563Y-3937500D01*
X8546563Y-3897500D02*
X8506563Y-3937500D01*
X8744063Y-3755000D02*
X8784063Y-3795000D01*
X8784063Y-3755000D02*
X8744063Y-3795000D01*
X8744063Y-3897500D02*
X8784063Y-3937500D01*
X8784063Y-3897500D02*
X8744063Y-3937500D01*
X8981563Y-3755000D02*
X9021563Y-3795000D01*
X9021563Y-3755000D02*
X8981563Y-3795000D01*
X8981563Y-3897500D02*
X9021563Y-3937500D01*
X9021563Y-3897500D02*
X8981563Y-3937500D01*
X9219063Y-3755000D02*
X9259063Y-3795000D01*
X9259063Y-3755000D02*
X9219063Y-3795000D01*
X9219063Y-3897500D02*
X9259063Y-3937500D01*
X9259063Y-3897500D02*
X9219063Y-3937500D01*
X9456563Y-3755000D02*
X9496563Y-3795000D01*
X9496563Y-3755000D02*
X9456563Y-3795000D01*
X9456563Y-3897500D02*
X9496563Y-3937500D01*
X9496563Y-3897500D02*
X9456563Y-3937500D01*
X10069063Y-5917500D02*
X10109063Y-5957500D01*
X10109063Y-5917500D02*
X10069063Y-5957500D01*
X10069063Y-7817500D02*
X10109063Y-7857500D01*
X10109063Y-7817500D02*
X10069063Y-7857500D01*
X10306563Y-4207500D02*
X10346563Y-4247500D01*
X10346563Y-4207500D02*
X10306563Y-4247500D01*
X10306563Y-6107500D02*
X10346563Y-6147500D01*
X10346563Y-6107500D02*
X10306563Y-6147500D01*
X10306563Y-8007500D02*
X10346563Y-8047500D01*
X10346563Y-8007500D02*
X10306563Y-8047500D01*
X10311563Y-10500000D02*
X10351563Y-10540000D01*
X10351563Y-10500000D02*
X10311563Y-10540000D01*
X10406563Y-3755000D02*
X10446563Y-3795000D01*
X10446563Y-3755000D02*
X10406563Y-3795000D01*
X10644063Y-3755000D02*
X10684063Y-3795000D01*
X10684063Y-3755000D02*
X10644063Y-3795000D01*
X10644063Y-3897500D02*
X10684063Y-3937500D01*
X10684063Y-3897500D02*
X10644063Y-3937500D01*
X10881563Y-3755000D02*
X10921563Y-3795000D01*
X10921563Y-3755000D02*
X10881563Y-3795000D01*
X10881563Y-3897500D02*
X10921563Y-3937500D01*
X10921563Y-3897500D02*
X10881563Y-3937500D01*
X11119063Y-3755000D02*
X11159063Y-3795000D01*
X11159063Y-3755000D02*
X11119063Y-3795000D01*
X11119063Y-3897500D02*
X11159063Y-3937500D01*
X11159063Y-3897500D02*
X11119063Y-3937500D01*
X11356562Y-3755000D02*
X11396562Y-3795000D01*
X11396562Y-3755000D02*
X11356562Y-3795000D01*
X11356562Y-3897500D02*
X11396562Y-3937500D01*
X11396562Y-3897500D02*
X11356562Y-3937500D01*
X11356562Y-5180000D02*
X11396562Y-5220000D01*
X11396562Y-5180000D02*
X11356562Y-5220000D01*
X11356562Y-5322500D02*
X11396562Y-5362500D01*
X11396562Y-5322500D02*
X11356562Y-5362500D01*
X11451562Y-10500000D02*
X11491562Y-10540000D01*
X11491562Y-10500000D02*
X11451562Y-10540000D01*
X11594062Y-3755000D02*
X11634062Y-3795000D01*
X11634062Y-3755000D02*
X11594062Y-3795000D01*
X11594062Y-3897500D02*
X11634062Y-3937500D01*
X11634062Y-3897500D02*
X11594062Y-3937500D01*
X11594062Y-5180000D02*
X11634062Y-5220000D01*
X11634062Y-5180000D02*
X11594062Y-5220000D01*
X11594062Y-5322500D02*
X11634062Y-5362500D01*
X11634062Y-5322500D02*
X11594062Y-5362500D01*
X11831562Y-3755000D02*
X11871562Y-3795000D01*
X11871562Y-3755000D02*
X11831562Y-3795000D01*
X11831562Y-3897500D02*
X11871562Y-3937500D01*
X11871562Y-3897500D02*
X11831562Y-3937500D01*
X11831562Y-5180000D02*
X11871562Y-5220000D01*
X11871562Y-5180000D02*
X11831562Y-5220000D01*
X11831562Y-5322500D02*
X11871562Y-5362500D01*
X11871562Y-5322500D02*
X11831562Y-5362500D01*
X11969062Y-4492500D02*
X12009062Y-4532500D01*
X12009062Y-4492500D02*
X11969062Y-4532500D01*
X11969062Y-6392500D02*
X12009062Y-6432500D01*
X12009062Y-6392500D02*
X11969062Y-6432500D01*
X11969062Y-8292500D02*
X12009062Y-8332500D01*
X12009062Y-8292500D02*
X11969062Y-8332500D01*
D13*
X4109562Y-3820500D02*
G75*
G03*
X4109562Y-3820500I-50000J0D01*
G01*
X4109562Y-5344500D02*
G75*
G03*
X4109562Y-5344500I-50000J0D01*
G01*
X4363563Y-3820500D02*
G75*
G03*
X4363563Y-3820500I-50000J0D01*
G01*
X4363563Y-5344500D02*
G75*
G03*
X4363563Y-5344500I-50000J0D01*
G01*
X4617563Y-3820500D02*
G75*
G03*
X4617563Y-3820500I-50000J0D01*
G01*
X4617563Y-5344500D02*
G75*
G03*
X4617563Y-5344500I-50000J0D01*
G01*
X4871563Y-3820500D02*
G75*
G03*
X4871563Y-3820500I-50000J0D01*
G01*
X4871563Y-5344500D02*
G75*
G03*
X4871563Y-5344500I-50000J0D01*
G01*
X5125563Y-3820500D02*
G75*
G03*
X5125563Y-3820500I-50000J0D01*
G01*
X5125563Y-5344500D02*
G75*
G03*
X5125563Y-5344500I-50000J0D01*
G01*
X5379563Y-3820500D02*
G75*
G03*
X5379563Y-3820500I-50000J0D01*
G01*
X5379563Y-5344500D02*
G75*
G03*
X5379563Y-5344500I-50000J0D01*
G01*
X5633562Y-3820500D02*
G75*
G03*
X5633562Y-3820500I-50000J0D01*
G01*
X5633562Y-5344500D02*
G75*
G03*
X5633562Y-5344500I-50000J0D01*
G01*
X12174062Y-3883000D02*
G75*
G03*
X12174062Y-3883000I-50000J0D01*
G01*
X12674062Y-3883000D02*
G75*
G03*
X12674062Y-3883000I-50000J0D01*
G01*
D14*
X3964362Y-4404700D02*
X3964362Y-4506300D01*
X3913562Y-4455500D02*
X4015162Y-4455500D01*
X3964362Y-4658700D02*
X3964362Y-4760300D01*
X3913562Y-4709500D02*
X4015162Y-4709500D01*
X4218363Y-4404700D02*
X4218363Y-4506300D01*
X4167562Y-4455500D02*
X4269163Y-4455500D01*
X4218363Y-4658700D02*
X4218363Y-4760300D01*
X4167562Y-4709500D02*
X4269163Y-4709500D01*
X4599363Y-4976200D02*
X4599363Y-5077800D01*
X4548563Y-5027000D02*
X4650163Y-5027000D01*
X4789863Y-4976200D02*
X4789863Y-5077800D01*
X4739063Y-5027000D02*
X4840663Y-5027000D01*
D15*
X12070025Y-4178962D02*
X12070025Y-4087038D01*
X11978100Y-4087038D01*
X11978100Y-4178962D01*
X12070025Y-4178962D01*
X12770025Y-4178962D02*
X12770025Y-4087038D01*
X12678100Y-4087038D01*
X12678100Y-4178962D01*
X12770025Y-4178962D01*
D16*
X4052230Y-11637857D02*
X4162230Y-11527857D01*
X4052230Y-11417857D01*
X3942230Y-11527857D01*
X4052230Y-11637857D01*
X6226230Y-3970357D02*
X6336230Y-3860357D01*
X6226230Y-3750357D01*
X6116230Y-3860357D01*
X6226230Y-3970357D01*
X13951230Y-10483907D02*
X14061230Y-10373907D01*
X13951230Y-10263907D01*
X13841230Y-10373907D01*
X13951230Y-10483907D01*
X13951230Y-3970357D02*
X14061230Y-3860357D01*
X13951230Y-3750357D01*
X13841230Y-3860357D01*
X13951230Y-3970357D01*
D11*
X4023849Y-14102405D02*
X4023849Y-13902405D01*
X4023849Y-13902405D02*
X4071468Y-13902405D01*
X4071468Y-13902405D02*
X4100040Y-13911929D01*
X4100040Y-13911929D02*
X4119087Y-13930977D01*
X4119087Y-13930977D02*
X4128611Y-13950024D01*
X4128611Y-13950024D02*
X4138135Y-13988120D01*
X4138135Y-13988120D02*
X4138135Y-14016691D01*
X4138135Y-14016691D02*
X4128611Y-14054786D01*
X4128611Y-14054786D02*
X4119087Y-14073834D01*
X4119087Y-14073834D02*
X4100040Y-14092882D01*
X4100040Y-14092882D02*
X4071468Y-14102405D01*
X4071468Y-14102405D02*
X4023849Y-14102405D01*
X4223849Y-14102405D02*
X4223849Y-13969072D01*
X4223849Y-14007167D02*
X4233373Y-13988120D01*
X4233373Y-13988120D02*
X4242897Y-13978596D01*
X4242897Y-13978596D02*
X4261945Y-13969072D01*
X4261945Y-13969072D02*
X4280992Y-13969072D01*
X4347659Y-14102405D02*
X4347659Y-13969072D01*
X4347659Y-13902405D02*
X4338135Y-13911929D01*
X4338135Y-13911929D02*
X4347659Y-13921453D01*
X4347659Y-13921453D02*
X4357183Y-13911929D01*
X4357183Y-13911929D02*
X4347659Y-13902405D01*
X4347659Y-13902405D02*
X4347659Y-13921453D01*
X4471468Y-14102405D02*
X4452421Y-14092882D01*
X4452421Y-14092882D02*
X4442897Y-14073834D01*
X4442897Y-14073834D02*
X4442897Y-13902405D01*
X4576230Y-14102405D02*
X4557183Y-14092882D01*
X4557183Y-14092882D02*
X4547659Y-14073834D01*
X4547659Y-14073834D02*
X4547659Y-13902405D01*
X4804802Y-14102405D02*
X4804802Y-13902405D01*
X4804802Y-13902405D02*
X4871468Y-14045263D01*
X4871468Y-14045263D02*
X4938135Y-13902405D01*
X4938135Y-13902405D02*
X4938135Y-14102405D01*
X5119087Y-14102405D02*
X5119087Y-13997644D01*
X5119087Y-13997644D02*
X5109564Y-13978596D01*
X5109564Y-13978596D02*
X5090516Y-13969072D01*
X5090516Y-13969072D02*
X5052421Y-13969072D01*
X5052421Y-13969072D02*
X5033373Y-13978596D01*
X5119087Y-14092882D02*
X5100040Y-14102405D01*
X5100040Y-14102405D02*
X5052421Y-14102405D01*
X5052421Y-14102405D02*
X5033373Y-14092882D01*
X5033373Y-14092882D02*
X5023849Y-14073834D01*
X5023849Y-14073834D02*
X5023849Y-14054786D01*
X5023849Y-14054786D02*
X5033373Y-14035739D01*
X5033373Y-14035739D02*
X5052421Y-14026215D01*
X5052421Y-14026215D02*
X5100040Y-14026215D01*
X5100040Y-14026215D02*
X5119087Y-14016691D01*
X5214326Y-13969072D02*
X5214326Y-14169072D01*
X5214326Y-13978596D02*
X5233373Y-13969072D01*
X5233373Y-13969072D02*
X5271468Y-13969072D01*
X5271468Y-13969072D02*
X5290516Y-13978596D01*
X5290516Y-13978596D02*
X5300040Y-13988120D01*
X5300040Y-13988120D02*
X5309564Y-14007167D01*
X5309564Y-14007167D02*
X5309564Y-14064310D01*
X5309564Y-14064310D02*
X5300040Y-14083358D01*
X5300040Y-14083358D02*
X5290516Y-14092882D01*
X5290516Y-14092882D02*
X5271468Y-14102405D01*
X5271468Y-14102405D02*
X5233373Y-14102405D01*
X5233373Y-14102405D02*
X5214326Y-14092882D01*
X5395278Y-14083358D02*
X5404802Y-14092882D01*
X5404802Y-14092882D02*
X5395278Y-14102405D01*
X5395278Y-14102405D02*
X5385754Y-14092882D01*
X5385754Y-14092882D02*
X5395278Y-14083358D01*
X5395278Y-14083358D02*
X5395278Y-14102405D01*
X5395278Y-13978596D02*
X5404802Y-13988120D01*
X5404802Y-13988120D02*
X5395278Y-13997644D01*
X5395278Y-13997644D02*
X5385754Y-13988120D01*
X5385754Y-13988120D02*
X5395278Y-13978596D01*
X5395278Y-13978596D02*
X5395278Y-13997644D01*
D12*
X3736230Y-14409882D02*
X3776230Y-14449882D01*
X3776230Y-14409882D02*
X3736230Y-14449882D01*
D11*
X4061944Y-14322405D02*
X4080992Y-14322405D01*
X4080992Y-14322405D02*
X4100040Y-14331929D01*
X4100040Y-14331929D02*
X4109564Y-14341453D01*
X4109564Y-14341453D02*
X4119087Y-14360501D01*
X4119087Y-14360501D02*
X4128611Y-14398596D01*
X4128611Y-14398596D02*
X4128611Y-14446215D01*
X4128611Y-14446215D02*
X4119087Y-14484310D01*
X4119087Y-14484310D02*
X4109564Y-14503358D01*
X4109564Y-14503358D02*
X4100040Y-14512882D01*
X4100040Y-14512882D02*
X4080992Y-14522405D01*
X4080992Y-14522405D02*
X4061944Y-14522405D01*
X4061944Y-14522405D02*
X4042897Y-14512882D01*
X4042897Y-14512882D02*
X4033373Y-14503358D01*
X4033373Y-14503358D02*
X4023849Y-14484310D01*
X4023849Y-14484310D02*
X4014325Y-14446215D01*
X4014325Y-14446215D02*
X4014325Y-14398596D01*
X4014325Y-14398596D02*
X4023849Y-14360501D01*
X4023849Y-14360501D02*
X4033373Y-14341453D01*
X4033373Y-14341453D02*
X4042897Y-14331929D01*
X4042897Y-14331929D02*
X4061944Y-14322405D01*
X4214326Y-14503358D02*
X4223849Y-14512882D01*
X4223849Y-14512882D02*
X4214326Y-14522405D01*
X4214326Y-14522405D02*
X4204802Y-14512882D01*
X4204802Y-14512882D02*
X4214326Y-14503358D01*
X4214326Y-14503358D02*
X4214326Y-14522405D01*
X4395278Y-14389072D02*
X4395278Y-14522405D01*
X4347659Y-14312882D02*
X4300040Y-14455739D01*
X4300040Y-14455739D02*
X4423849Y-14455739D01*
X4538135Y-14322405D02*
X4557183Y-14322405D01*
X4557183Y-14322405D02*
X4576230Y-14331929D01*
X4576230Y-14331929D02*
X4585754Y-14341453D01*
X4585754Y-14341453D02*
X4595278Y-14360501D01*
X4595278Y-14360501D02*
X4604802Y-14398596D01*
X4604802Y-14398596D02*
X4604802Y-14446215D01*
X4604802Y-14446215D02*
X4595278Y-14484310D01*
X4595278Y-14484310D02*
X4585754Y-14503358D01*
X4585754Y-14503358D02*
X4576230Y-14512882D01*
X4576230Y-14512882D02*
X4557183Y-14522405D01*
X4557183Y-14522405D02*
X4538135Y-14522405D01*
X4538135Y-14522405D02*
X4519087Y-14512882D01*
X4519087Y-14512882D02*
X4509564Y-14503358D01*
X4509564Y-14503358D02*
X4500040Y-14484310D01*
X4500040Y-14484310D02*
X4490516Y-14446215D01*
X4490516Y-14446215D02*
X4490516Y-14398596D01*
X4490516Y-14398596D02*
X4500040Y-14360501D01*
X4500040Y-14360501D02*
X4509564Y-14341453D01*
X4509564Y-14341453D02*
X4519087Y-14331929D01*
X4519087Y-14331929D02*
X4538135Y-14322405D01*
X4728611Y-14322405D02*
X4747659Y-14322405D01*
X4747659Y-14322405D02*
X4766707Y-14331929D01*
X4766707Y-14331929D02*
X4776230Y-14341453D01*
X4776230Y-14341453D02*
X4785754Y-14360501D01*
X4785754Y-14360501D02*
X4795278Y-14398596D01*
X4795278Y-14398596D02*
X4795278Y-14446215D01*
X4795278Y-14446215D02*
X4785754Y-14484310D01*
X4785754Y-14484310D02*
X4776230Y-14503358D01*
X4776230Y-14503358D02*
X4766707Y-14512882D01*
X4766707Y-14512882D02*
X4747659Y-14522405D01*
X4747659Y-14522405D02*
X4728611Y-14522405D01*
X4728611Y-14522405D02*
X4709564Y-14512882D01*
X4709564Y-14512882D02*
X4700040Y-14503358D01*
X4700040Y-14503358D02*
X4690516Y-14484310D01*
X4690516Y-14484310D02*
X4680992Y-14446215D01*
X4680992Y-14446215D02*
X4680992Y-14398596D01*
X4680992Y-14398596D02*
X4690516Y-14360501D01*
X4690516Y-14360501D02*
X4700040Y-14341453D01*
X4700040Y-14341453D02*
X4709564Y-14331929D01*
X4709564Y-14331929D02*
X4728611Y-14322405D01*
X4880992Y-14522405D02*
X4880992Y-14389072D01*
X4880992Y-14408120D02*
X4890516Y-14398596D01*
X4890516Y-14398596D02*
X4909564Y-14389072D01*
X4909564Y-14389072D02*
X4938135Y-14389072D01*
X4938135Y-14389072D02*
X4957183Y-14398596D01*
X4957183Y-14398596D02*
X4966707Y-14417644D01*
X4966707Y-14417644D02*
X4966707Y-14522405D01*
X4966707Y-14417644D02*
X4976230Y-14398596D01*
X4976230Y-14398596D02*
X4995278Y-14389072D01*
X4995278Y-14389072D02*
X5023849Y-14389072D01*
X5023849Y-14389072D02*
X5042897Y-14398596D01*
X5042897Y-14398596D02*
X5052421Y-14417644D01*
X5052421Y-14417644D02*
X5052421Y-14522405D01*
X5147659Y-14522405D02*
X5147659Y-14389072D01*
X5147659Y-14408120D02*
X5157183Y-14398596D01*
X5157183Y-14398596D02*
X5176230Y-14389072D01*
X5176230Y-14389072D02*
X5204802Y-14389072D01*
X5204802Y-14389072D02*
X5223849Y-14398596D01*
X5223849Y-14398596D02*
X5233373Y-14417644D01*
X5233373Y-14417644D02*
X5233373Y-14522405D01*
X5233373Y-14417644D02*
X5242897Y-14398596D01*
X5242897Y-14398596D02*
X5261945Y-14389072D01*
X5261945Y-14389072D02*
X5290516Y-14389072D01*
X5290516Y-14389072D02*
X5309564Y-14398596D01*
X5309564Y-14398596D02*
X5319088Y-14417644D01*
X5319088Y-14417644D02*
X5319088Y-14522405D01*
X5709564Y-14312882D02*
X5538135Y-14570024D01*
X5966707Y-14322405D02*
X5985754Y-14322405D01*
X5985754Y-14322405D02*
X6004802Y-14331929D01*
X6004802Y-14331929D02*
X6014326Y-14341453D01*
X6014326Y-14341453D02*
X6023849Y-14360501D01*
X6023849Y-14360501D02*
X6033373Y-14398596D01*
X6033373Y-14398596D02*
X6033373Y-14446215D01*
X6033373Y-14446215D02*
X6023849Y-14484310D01*
X6023849Y-14484310D02*
X6014326Y-14503358D01*
X6014326Y-14503358D02*
X6004802Y-14512882D01*
X6004802Y-14512882D02*
X5985754Y-14522405D01*
X5985754Y-14522405D02*
X5966707Y-14522405D01*
X5966707Y-14522405D02*
X5947659Y-14512882D01*
X5947659Y-14512882D02*
X5938135Y-14503358D01*
X5938135Y-14503358D02*
X5928611Y-14484310D01*
X5928611Y-14484310D02*
X5919088Y-14446215D01*
X5919088Y-14446215D02*
X5919088Y-14398596D01*
X5919088Y-14398596D02*
X5928611Y-14360501D01*
X5928611Y-14360501D02*
X5938135Y-14341453D01*
X5938135Y-14341453D02*
X5947659Y-14331929D01*
X5947659Y-14331929D02*
X5966707Y-14322405D01*
X6119088Y-14503358D02*
X6128611Y-14512882D01*
X6128611Y-14512882D02*
X6119088Y-14522405D01*
X6119088Y-14522405D02*
X6109564Y-14512882D01*
X6109564Y-14512882D02*
X6119088Y-14503358D01*
X6119088Y-14503358D02*
X6119088Y-14522405D01*
X6252421Y-14322405D02*
X6271469Y-14322405D01*
X6271469Y-14322405D02*
X6290516Y-14331929D01*
X6290516Y-14331929D02*
X6300040Y-14341453D01*
X6300040Y-14341453D02*
X6309564Y-14360501D01*
X6309564Y-14360501D02*
X6319088Y-14398596D01*
X6319088Y-14398596D02*
X6319088Y-14446215D01*
X6319088Y-14446215D02*
X6309564Y-14484310D01*
X6309564Y-14484310D02*
X6300040Y-14503358D01*
X6300040Y-14503358D02*
X6290516Y-14512882D01*
X6290516Y-14512882D02*
X6271469Y-14522405D01*
X6271469Y-14522405D02*
X6252421Y-14522405D01*
X6252421Y-14522405D02*
X6233373Y-14512882D01*
X6233373Y-14512882D02*
X6223849Y-14503358D01*
X6223849Y-14503358D02*
X6214326Y-14484310D01*
X6214326Y-14484310D02*
X6204802Y-14446215D01*
X6204802Y-14446215D02*
X6204802Y-14398596D01*
X6204802Y-14398596D02*
X6214326Y-14360501D01*
X6214326Y-14360501D02*
X6223849Y-14341453D01*
X6223849Y-14341453D02*
X6233373Y-14331929D01*
X6233373Y-14331929D02*
X6252421Y-14322405D01*
X6509564Y-14522405D02*
X6395278Y-14522405D01*
X6452421Y-14522405D02*
X6452421Y-14322405D01*
X6452421Y-14322405D02*
X6433373Y-14350977D01*
X6433373Y-14350977D02*
X6414326Y-14370024D01*
X6414326Y-14370024D02*
X6395278Y-14379548D01*
X6690516Y-14322405D02*
X6595278Y-14322405D01*
X6595278Y-14322405D02*
X6585754Y-14417644D01*
X6585754Y-14417644D02*
X6595278Y-14408120D01*
X6595278Y-14408120D02*
X6614326Y-14398596D01*
X6614326Y-14398596D02*
X6661945Y-14398596D01*
X6661945Y-14398596D02*
X6680992Y-14408120D01*
X6680992Y-14408120D02*
X6690516Y-14417644D01*
X6690516Y-14417644D02*
X6700040Y-14436691D01*
X6700040Y-14436691D02*
X6700040Y-14484310D01*
X6700040Y-14484310D02*
X6690516Y-14503358D01*
X6690516Y-14503358D02*
X6680992Y-14512882D01*
X6680992Y-14512882D02*
X6661945Y-14522405D01*
X6661945Y-14522405D02*
X6614326Y-14522405D01*
X6614326Y-14522405D02*
X6595278Y-14512882D01*
X6595278Y-14512882D02*
X6585754Y-14503358D01*
X6766707Y-14322405D02*
X6900040Y-14322405D01*
X6900040Y-14322405D02*
X6814326Y-14522405D01*
X6966707Y-14322405D02*
X6966707Y-14360501D01*
X7042897Y-14322405D02*
X7042897Y-14360501D01*
X7338135Y-14598596D02*
X7328611Y-14589072D01*
X7328611Y-14589072D02*
X7309564Y-14560501D01*
X7309564Y-14560501D02*
X7300040Y-14541453D01*
X7300040Y-14541453D02*
X7290516Y-14512882D01*
X7290516Y-14512882D02*
X7280992Y-14465263D01*
X7280992Y-14465263D02*
X7280992Y-14427167D01*
X7280992Y-14427167D02*
X7290516Y-14379548D01*
X7290516Y-14379548D02*
X7300040Y-14350977D01*
X7300040Y-14350977D02*
X7309564Y-14331929D01*
X7309564Y-14331929D02*
X7328611Y-14303358D01*
X7328611Y-14303358D02*
X7338135Y-14293834D01*
X7500040Y-14322405D02*
X7461945Y-14322405D01*
X7461945Y-14322405D02*
X7442897Y-14331929D01*
X7442897Y-14331929D02*
X7433373Y-14341453D01*
X7433373Y-14341453D02*
X7414326Y-14370024D01*
X7414326Y-14370024D02*
X7404802Y-14408120D01*
X7404802Y-14408120D02*
X7404802Y-14484310D01*
X7404802Y-14484310D02*
X7414326Y-14503358D01*
X7414326Y-14503358D02*
X7423850Y-14512882D01*
X7423850Y-14512882D02*
X7442897Y-14522405D01*
X7442897Y-14522405D02*
X7480992Y-14522405D01*
X7480992Y-14522405D02*
X7500040Y-14512882D01*
X7500040Y-14512882D02*
X7509564Y-14503358D01*
X7509564Y-14503358D02*
X7519088Y-14484310D01*
X7519088Y-14484310D02*
X7519088Y-14436691D01*
X7519088Y-14436691D02*
X7509564Y-14417644D01*
X7509564Y-14417644D02*
X7500040Y-14408120D01*
X7500040Y-14408120D02*
X7480992Y-14398596D01*
X7480992Y-14398596D02*
X7442897Y-14398596D01*
X7442897Y-14398596D02*
X7423850Y-14408120D01*
X7423850Y-14408120D02*
X7414326Y-14417644D01*
X7414326Y-14417644D02*
X7404802Y-14436691D01*
X7633373Y-14408120D02*
X7614326Y-14398596D01*
X7614326Y-14398596D02*
X7604802Y-14389072D01*
X7604802Y-14389072D02*
X7595278Y-14370024D01*
X7595278Y-14370024D02*
X7595278Y-14360501D01*
X7595278Y-14360501D02*
X7604802Y-14341453D01*
X7604802Y-14341453D02*
X7614326Y-14331929D01*
X7614326Y-14331929D02*
X7633373Y-14322405D01*
X7633373Y-14322405D02*
X7671469Y-14322405D01*
X7671469Y-14322405D02*
X7690516Y-14331929D01*
X7690516Y-14331929D02*
X7700040Y-14341453D01*
X7700040Y-14341453D02*
X7709564Y-14360501D01*
X7709564Y-14360501D02*
X7709564Y-14370024D01*
X7709564Y-14370024D02*
X7700040Y-14389072D01*
X7700040Y-14389072D02*
X7690516Y-14398596D01*
X7690516Y-14398596D02*
X7671469Y-14408120D01*
X7671469Y-14408120D02*
X7633373Y-14408120D01*
X7633373Y-14408120D02*
X7614326Y-14417644D01*
X7614326Y-14417644D02*
X7604802Y-14427167D01*
X7604802Y-14427167D02*
X7595278Y-14446215D01*
X7595278Y-14446215D02*
X7595278Y-14484310D01*
X7595278Y-14484310D02*
X7604802Y-14503358D01*
X7604802Y-14503358D02*
X7614326Y-14512882D01*
X7614326Y-14512882D02*
X7633373Y-14522405D01*
X7633373Y-14522405D02*
X7671469Y-14522405D01*
X7671469Y-14522405D02*
X7690516Y-14512882D01*
X7690516Y-14512882D02*
X7700040Y-14503358D01*
X7700040Y-14503358D02*
X7709564Y-14484310D01*
X7709564Y-14484310D02*
X7709564Y-14446215D01*
X7709564Y-14446215D02*
X7700040Y-14427167D01*
X7700040Y-14427167D02*
X7690516Y-14417644D01*
X7690516Y-14417644D02*
X7671469Y-14408120D01*
X7947659Y-14522405D02*
X7947659Y-14322405D01*
X8033373Y-14522405D02*
X8033373Y-14417644D01*
X8033373Y-14417644D02*
X8023850Y-14398596D01*
X8023850Y-14398596D02*
X8004802Y-14389072D01*
X8004802Y-14389072D02*
X7976231Y-14389072D01*
X7976231Y-14389072D02*
X7957183Y-14398596D01*
X7957183Y-14398596D02*
X7947659Y-14408120D01*
X8157183Y-14522405D02*
X8138135Y-14512882D01*
X8138135Y-14512882D02*
X8128612Y-14503358D01*
X8128612Y-14503358D02*
X8119088Y-14484310D01*
X8119088Y-14484310D02*
X8119088Y-14427167D01*
X8119088Y-14427167D02*
X8128612Y-14408120D01*
X8128612Y-14408120D02*
X8138135Y-14398596D01*
X8138135Y-14398596D02*
X8157183Y-14389072D01*
X8157183Y-14389072D02*
X8185754Y-14389072D01*
X8185754Y-14389072D02*
X8204802Y-14398596D01*
X8204802Y-14398596D02*
X8214326Y-14408120D01*
X8214326Y-14408120D02*
X8223850Y-14427167D01*
X8223850Y-14427167D02*
X8223850Y-14484310D01*
X8223850Y-14484310D02*
X8214326Y-14503358D01*
X8214326Y-14503358D02*
X8204802Y-14512882D01*
X8204802Y-14512882D02*
X8185754Y-14522405D01*
X8185754Y-14522405D02*
X8157183Y-14522405D01*
X8338135Y-14522405D02*
X8319088Y-14512882D01*
X8319088Y-14512882D02*
X8309564Y-14493834D01*
X8309564Y-14493834D02*
X8309564Y-14322405D01*
X8490516Y-14512882D02*
X8471469Y-14522405D01*
X8471469Y-14522405D02*
X8433374Y-14522405D01*
X8433374Y-14522405D02*
X8414326Y-14512882D01*
X8414326Y-14512882D02*
X8404802Y-14493834D01*
X8404802Y-14493834D02*
X8404802Y-14417644D01*
X8404802Y-14417644D02*
X8414326Y-14398596D01*
X8414326Y-14398596D02*
X8433374Y-14389072D01*
X8433374Y-14389072D02*
X8471469Y-14389072D01*
X8471469Y-14389072D02*
X8490516Y-14398596D01*
X8490516Y-14398596D02*
X8500040Y-14417644D01*
X8500040Y-14417644D02*
X8500040Y-14436691D01*
X8500040Y-14436691D02*
X8404802Y-14455739D01*
X8576231Y-14512882D02*
X8595278Y-14522405D01*
X8595278Y-14522405D02*
X8633374Y-14522405D01*
X8633374Y-14522405D02*
X8652421Y-14512882D01*
X8652421Y-14512882D02*
X8661945Y-14493834D01*
X8661945Y-14493834D02*
X8661945Y-14484310D01*
X8661945Y-14484310D02*
X8652421Y-14465263D01*
X8652421Y-14465263D02*
X8633374Y-14455739D01*
X8633374Y-14455739D02*
X8604802Y-14455739D01*
X8604802Y-14455739D02*
X8585755Y-14446215D01*
X8585755Y-14446215D02*
X8576231Y-14427167D01*
X8576231Y-14427167D02*
X8576231Y-14417644D01*
X8576231Y-14417644D02*
X8585755Y-14398596D01*
X8585755Y-14398596D02*
X8604802Y-14389072D01*
X8604802Y-14389072D02*
X8633374Y-14389072D01*
X8633374Y-14389072D02*
X8652421Y-14398596D01*
X8728612Y-14598596D02*
X8738136Y-14589072D01*
X8738136Y-14589072D02*
X8757183Y-14560501D01*
X8757183Y-14560501D02*
X8766707Y-14541453D01*
X8766707Y-14541453D02*
X8776231Y-14512882D01*
X8776231Y-14512882D02*
X8785755Y-14465263D01*
X8785755Y-14465263D02*
X8785755Y-14427167D01*
X8785755Y-14427167D02*
X8776231Y-14379548D01*
X8776231Y-14379548D02*
X8766707Y-14350977D01*
X8766707Y-14350977D02*
X8757183Y-14331929D01*
X8757183Y-14331929D02*
X8738136Y-14303358D01*
X8738136Y-14303358D02*
X8728612Y-14293834D01*
D13*
X3776230Y-14693882D02*
G75*
G03*
X3776230Y-14693882I-50000J0D01*
G01*
D11*
X4128611Y-14786405D02*
X4014325Y-14786405D01*
X4071468Y-14786405D02*
X4071468Y-14586405D01*
X4071468Y-14586405D02*
X4052421Y-14614977D01*
X4052421Y-14614977D02*
X4033373Y-14634024D01*
X4033373Y-14634024D02*
X4014325Y-14643548D01*
X4214326Y-14767358D02*
X4223849Y-14776882D01*
X4223849Y-14776882D02*
X4214326Y-14786405D01*
X4214326Y-14786405D02*
X4204802Y-14776882D01*
X4204802Y-14776882D02*
X4214326Y-14767358D01*
X4214326Y-14767358D02*
X4214326Y-14786405D01*
X4347659Y-14586405D02*
X4366707Y-14586405D01*
X4366707Y-14586405D02*
X4385754Y-14595929D01*
X4385754Y-14595929D02*
X4395278Y-14605453D01*
X4395278Y-14605453D02*
X4404802Y-14624501D01*
X4404802Y-14624501D02*
X4414326Y-14662596D01*
X4414326Y-14662596D02*
X4414326Y-14710215D01*
X4414326Y-14710215D02*
X4404802Y-14748310D01*
X4404802Y-14748310D02*
X4395278Y-14767358D01*
X4395278Y-14767358D02*
X4385754Y-14776882D01*
X4385754Y-14776882D02*
X4366707Y-14786405D01*
X4366707Y-14786405D02*
X4347659Y-14786405D01*
X4347659Y-14786405D02*
X4328611Y-14776882D01*
X4328611Y-14776882D02*
X4319087Y-14767358D01*
X4319087Y-14767358D02*
X4309564Y-14748310D01*
X4309564Y-14748310D02*
X4300040Y-14710215D01*
X4300040Y-14710215D02*
X4300040Y-14662596D01*
X4300040Y-14662596D02*
X4309564Y-14624501D01*
X4309564Y-14624501D02*
X4319087Y-14605453D01*
X4319087Y-14605453D02*
X4328611Y-14595929D01*
X4328611Y-14595929D02*
X4347659Y-14586405D01*
X4538135Y-14586405D02*
X4557183Y-14586405D01*
X4557183Y-14586405D02*
X4576230Y-14595929D01*
X4576230Y-14595929D02*
X4585754Y-14605453D01*
X4585754Y-14605453D02*
X4595278Y-14624501D01*
X4595278Y-14624501D02*
X4604802Y-14662596D01*
X4604802Y-14662596D02*
X4604802Y-14710215D01*
X4604802Y-14710215D02*
X4595278Y-14748310D01*
X4595278Y-14748310D02*
X4585754Y-14767358D01*
X4585754Y-14767358D02*
X4576230Y-14776882D01*
X4576230Y-14776882D02*
X4557183Y-14786405D01*
X4557183Y-14786405D02*
X4538135Y-14786405D01*
X4538135Y-14786405D02*
X4519087Y-14776882D01*
X4519087Y-14776882D02*
X4509564Y-14767358D01*
X4509564Y-14767358D02*
X4500040Y-14748310D01*
X4500040Y-14748310D02*
X4490516Y-14710215D01*
X4490516Y-14710215D02*
X4490516Y-14662596D01*
X4490516Y-14662596D02*
X4500040Y-14624501D01*
X4500040Y-14624501D02*
X4509564Y-14605453D01*
X4509564Y-14605453D02*
X4519087Y-14595929D01*
X4519087Y-14595929D02*
X4538135Y-14586405D01*
X4728611Y-14586405D02*
X4747659Y-14586405D01*
X4747659Y-14586405D02*
X4766707Y-14595929D01*
X4766707Y-14595929D02*
X4776230Y-14605453D01*
X4776230Y-14605453D02*
X4785754Y-14624501D01*
X4785754Y-14624501D02*
X4795278Y-14662596D01*
X4795278Y-14662596D02*
X4795278Y-14710215D01*
X4795278Y-14710215D02*
X4785754Y-14748310D01*
X4785754Y-14748310D02*
X4776230Y-14767358D01*
X4776230Y-14767358D02*
X4766707Y-14776882D01*
X4766707Y-14776882D02*
X4747659Y-14786405D01*
X4747659Y-14786405D02*
X4728611Y-14786405D01*
X4728611Y-14786405D02*
X4709564Y-14776882D01*
X4709564Y-14776882D02*
X4700040Y-14767358D01*
X4700040Y-14767358D02*
X4690516Y-14748310D01*
X4690516Y-14748310D02*
X4680992Y-14710215D01*
X4680992Y-14710215D02*
X4680992Y-14662596D01*
X4680992Y-14662596D02*
X4690516Y-14624501D01*
X4690516Y-14624501D02*
X4700040Y-14605453D01*
X4700040Y-14605453D02*
X4709564Y-14595929D01*
X4709564Y-14595929D02*
X4728611Y-14586405D01*
X4880992Y-14786405D02*
X4880992Y-14653072D01*
X4880992Y-14672120D02*
X4890516Y-14662596D01*
X4890516Y-14662596D02*
X4909564Y-14653072D01*
X4909564Y-14653072D02*
X4938135Y-14653072D01*
X4938135Y-14653072D02*
X4957183Y-14662596D01*
X4957183Y-14662596D02*
X4966707Y-14681644D01*
X4966707Y-14681644D02*
X4966707Y-14786405D01*
X4966707Y-14681644D02*
X4976230Y-14662596D01*
X4976230Y-14662596D02*
X4995278Y-14653072D01*
X4995278Y-14653072D02*
X5023849Y-14653072D01*
X5023849Y-14653072D02*
X5042897Y-14662596D01*
X5042897Y-14662596D02*
X5052421Y-14681644D01*
X5052421Y-14681644D02*
X5052421Y-14786405D01*
X5147659Y-14786405D02*
X5147659Y-14653072D01*
X5147659Y-14672120D02*
X5157183Y-14662596D01*
X5157183Y-14662596D02*
X5176230Y-14653072D01*
X5176230Y-14653072D02*
X5204802Y-14653072D01*
X5204802Y-14653072D02*
X5223849Y-14662596D01*
X5223849Y-14662596D02*
X5233373Y-14681644D01*
X5233373Y-14681644D02*
X5233373Y-14786405D01*
X5233373Y-14681644D02*
X5242897Y-14662596D01*
X5242897Y-14662596D02*
X5261945Y-14653072D01*
X5261945Y-14653072D02*
X5290516Y-14653072D01*
X5290516Y-14653072D02*
X5309564Y-14662596D01*
X5309564Y-14662596D02*
X5319088Y-14681644D01*
X5319088Y-14681644D02*
X5319088Y-14786405D01*
X5709564Y-14576882D02*
X5538135Y-14834024D01*
X5966707Y-14586405D02*
X5985754Y-14586405D01*
X5985754Y-14586405D02*
X6004802Y-14595929D01*
X6004802Y-14595929D02*
X6014326Y-14605453D01*
X6014326Y-14605453D02*
X6023849Y-14624501D01*
X6023849Y-14624501D02*
X6033373Y-14662596D01*
X6033373Y-14662596D02*
X6033373Y-14710215D01*
X6033373Y-14710215D02*
X6023849Y-14748310D01*
X6023849Y-14748310D02*
X6014326Y-14767358D01*
X6014326Y-14767358D02*
X6004802Y-14776882D01*
X6004802Y-14776882D02*
X5985754Y-14786405D01*
X5985754Y-14786405D02*
X5966707Y-14786405D01*
X5966707Y-14786405D02*
X5947659Y-14776882D01*
X5947659Y-14776882D02*
X5938135Y-14767358D01*
X5938135Y-14767358D02*
X5928611Y-14748310D01*
X5928611Y-14748310D02*
X5919088Y-14710215D01*
X5919088Y-14710215D02*
X5919088Y-14662596D01*
X5919088Y-14662596D02*
X5928611Y-14624501D01*
X5928611Y-14624501D02*
X5938135Y-14605453D01*
X5938135Y-14605453D02*
X5947659Y-14595929D01*
X5947659Y-14595929D02*
X5966707Y-14586405D01*
X6119088Y-14767358D02*
X6128611Y-14776882D01*
X6128611Y-14776882D02*
X6119088Y-14786405D01*
X6119088Y-14786405D02*
X6109564Y-14776882D01*
X6109564Y-14776882D02*
X6119088Y-14767358D01*
X6119088Y-14767358D02*
X6119088Y-14786405D01*
X6252421Y-14586405D02*
X6271469Y-14586405D01*
X6271469Y-14586405D02*
X6290516Y-14595929D01*
X6290516Y-14595929D02*
X6300040Y-14605453D01*
X6300040Y-14605453D02*
X6309564Y-14624501D01*
X6309564Y-14624501D02*
X6319088Y-14662596D01*
X6319088Y-14662596D02*
X6319088Y-14710215D01*
X6319088Y-14710215D02*
X6309564Y-14748310D01*
X6309564Y-14748310D02*
X6300040Y-14767358D01*
X6300040Y-14767358D02*
X6290516Y-14776882D01*
X6290516Y-14776882D02*
X6271469Y-14786405D01*
X6271469Y-14786405D02*
X6252421Y-14786405D01*
X6252421Y-14786405D02*
X6233373Y-14776882D01*
X6233373Y-14776882D02*
X6223849Y-14767358D01*
X6223849Y-14767358D02*
X6214326Y-14748310D01*
X6214326Y-14748310D02*
X6204802Y-14710215D01*
X6204802Y-14710215D02*
X6204802Y-14662596D01*
X6204802Y-14662596D02*
X6214326Y-14624501D01*
X6214326Y-14624501D02*
X6223849Y-14605453D01*
X6223849Y-14605453D02*
X6233373Y-14595929D01*
X6233373Y-14595929D02*
X6252421Y-14586405D01*
X6385754Y-14586405D02*
X6509564Y-14586405D01*
X6509564Y-14586405D02*
X6442897Y-14662596D01*
X6442897Y-14662596D02*
X6471469Y-14662596D01*
X6471469Y-14662596D02*
X6490516Y-14672120D01*
X6490516Y-14672120D02*
X6500040Y-14681644D01*
X6500040Y-14681644D02*
X6509564Y-14700691D01*
X6509564Y-14700691D02*
X6509564Y-14748310D01*
X6509564Y-14748310D02*
X6500040Y-14767358D01*
X6500040Y-14767358D02*
X6490516Y-14776882D01*
X6490516Y-14776882D02*
X6471469Y-14786405D01*
X6471469Y-14786405D02*
X6414326Y-14786405D01*
X6414326Y-14786405D02*
X6395278Y-14776882D01*
X6395278Y-14776882D02*
X6385754Y-14767358D01*
X6604802Y-14786405D02*
X6642897Y-14786405D01*
X6642897Y-14786405D02*
X6661945Y-14776882D01*
X6661945Y-14776882D02*
X6671469Y-14767358D01*
X6671469Y-14767358D02*
X6690516Y-14738786D01*
X6690516Y-14738786D02*
X6700040Y-14700691D01*
X6700040Y-14700691D02*
X6700040Y-14624501D01*
X6700040Y-14624501D02*
X6690516Y-14605453D01*
X6690516Y-14605453D02*
X6680992Y-14595929D01*
X6680992Y-14595929D02*
X6661945Y-14586405D01*
X6661945Y-14586405D02*
X6623849Y-14586405D01*
X6623849Y-14586405D02*
X6604802Y-14595929D01*
X6604802Y-14595929D02*
X6595278Y-14605453D01*
X6595278Y-14605453D02*
X6585754Y-14624501D01*
X6585754Y-14624501D02*
X6585754Y-14672120D01*
X6585754Y-14672120D02*
X6595278Y-14691167D01*
X6595278Y-14691167D02*
X6604802Y-14700691D01*
X6604802Y-14700691D02*
X6623849Y-14710215D01*
X6623849Y-14710215D02*
X6661945Y-14710215D01*
X6661945Y-14710215D02*
X6680992Y-14700691D01*
X6680992Y-14700691D02*
X6690516Y-14691167D01*
X6690516Y-14691167D02*
X6700040Y-14672120D01*
X6871469Y-14653072D02*
X6871469Y-14786405D01*
X6823849Y-14576882D02*
X6776230Y-14719739D01*
X6776230Y-14719739D02*
X6900040Y-14719739D01*
X6966707Y-14586405D02*
X6966707Y-14624501D01*
X7042897Y-14586405D02*
X7042897Y-14624501D01*
X7338135Y-14862596D02*
X7328611Y-14853072D01*
X7328611Y-14853072D02*
X7309564Y-14824501D01*
X7309564Y-14824501D02*
X7300040Y-14805453D01*
X7300040Y-14805453D02*
X7290516Y-14776882D01*
X7290516Y-14776882D02*
X7280992Y-14729263D01*
X7280992Y-14729263D02*
X7280992Y-14691167D01*
X7280992Y-14691167D02*
X7290516Y-14643548D01*
X7290516Y-14643548D02*
X7300040Y-14614977D01*
X7300040Y-14614977D02*
X7309564Y-14595929D01*
X7309564Y-14595929D02*
X7328611Y-14567358D01*
X7328611Y-14567358D02*
X7338135Y-14557834D01*
X7519088Y-14786405D02*
X7404802Y-14786405D01*
X7461945Y-14786405D02*
X7461945Y-14586405D01*
X7461945Y-14586405D02*
X7442897Y-14614977D01*
X7442897Y-14614977D02*
X7423850Y-14634024D01*
X7423850Y-14634024D02*
X7404802Y-14643548D01*
X7690516Y-14586405D02*
X7652421Y-14586405D01*
X7652421Y-14586405D02*
X7633373Y-14595929D01*
X7633373Y-14595929D02*
X7623850Y-14605453D01*
X7623850Y-14605453D02*
X7604802Y-14634024D01*
X7604802Y-14634024D02*
X7595278Y-14672120D01*
X7595278Y-14672120D02*
X7595278Y-14748310D01*
X7595278Y-14748310D02*
X7604802Y-14767358D01*
X7604802Y-14767358D02*
X7614326Y-14776882D01*
X7614326Y-14776882D02*
X7633373Y-14786405D01*
X7633373Y-14786405D02*
X7671469Y-14786405D01*
X7671469Y-14786405D02*
X7690516Y-14776882D01*
X7690516Y-14776882D02*
X7700040Y-14767358D01*
X7700040Y-14767358D02*
X7709564Y-14748310D01*
X7709564Y-14748310D02*
X7709564Y-14700691D01*
X7709564Y-14700691D02*
X7700040Y-14681644D01*
X7700040Y-14681644D02*
X7690516Y-14672120D01*
X7690516Y-14672120D02*
X7671469Y-14662596D01*
X7671469Y-14662596D02*
X7633373Y-14662596D01*
X7633373Y-14662596D02*
X7614326Y-14672120D01*
X7614326Y-14672120D02*
X7604802Y-14681644D01*
X7604802Y-14681644D02*
X7595278Y-14700691D01*
X7947659Y-14786405D02*
X7947659Y-14586405D01*
X8033373Y-14786405D02*
X8033373Y-14681644D01*
X8033373Y-14681644D02*
X8023850Y-14662596D01*
X8023850Y-14662596D02*
X8004802Y-14653072D01*
X8004802Y-14653072D02*
X7976231Y-14653072D01*
X7976231Y-14653072D02*
X7957183Y-14662596D01*
X7957183Y-14662596D02*
X7947659Y-14672120D01*
X8157183Y-14786405D02*
X8138135Y-14776882D01*
X8138135Y-14776882D02*
X8128612Y-14767358D01*
X8128612Y-14767358D02*
X8119088Y-14748310D01*
X8119088Y-14748310D02*
X8119088Y-14691167D01*
X8119088Y-14691167D02*
X8128612Y-14672120D01*
X8128612Y-14672120D02*
X8138135Y-14662596D01*
X8138135Y-14662596D02*
X8157183Y-14653072D01*
X8157183Y-14653072D02*
X8185754Y-14653072D01*
X8185754Y-14653072D02*
X8204802Y-14662596D01*
X8204802Y-14662596D02*
X8214326Y-14672120D01*
X8214326Y-14672120D02*
X8223850Y-14691167D01*
X8223850Y-14691167D02*
X8223850Y-14748310D01*
X8223850Y-14748310D02*
X8214326Y-14767358D01*
X8214326Y-14767358D02*
X8204802Y-14776882D01*
X8204802Y-14776882D02*
X8185754Y-14786405D01*
X8185754Y-14786405D02*
X8157183Y-14786405D01*
X8338135Y-14786405D02*
X8319088Y-14776882D01*
X8319088Y-14776882D02*
X8309564Y-14757834D01*
X8309564Y-14757834D02*
X8309564Y-14586405D01*
X8490516Y-14776882D02*
X8471469Y-14786405D01*
X8471469Y-14786405D02*
X8433374Y-14786405D01*
X8433374Y-14786405D02*
X8414326Y-14776882D01*
X8414326Y-14776882D02*
X8404802Y-14757834D01*
X8404802Y-14757834D02*
X8404802Y-14681644D01*
X8404802Y-14681644D02*
X8414326Y-14662596D01*
X8414326Y-14662596D02*
X8433374Y-14653072D01*
X8433374Y-14653072D02*
X8471469Y-14653072D01*
X8471469Y-14653072D02*
X8490516Y-14662596D01*
X8490516Y-14662596D02*
X8500040Y-14681644D01*
X8500040Y-14681644D02*
X8500040Y-14700691D01*
X8500040Y-14700691D02*
X8404802Y-14719739D01*
X8576231Y-14776882D02*
X8595278Y-14786405D01*
X8595278Y-14786405D02*
X8633374Y-14786405D01*
X8633374Y-14786405D02*
X8652421Y-14776882D01*
X8652421Y-14776882D02*
X8661945Y-14757834D01*
X8661945Y-14757834D02*
X8661945Y-14748310D01*
X8661945Y-14748310D02*
X8652421Y-14729263D01*
X8652421Y-14729263D02*
X8633374Y-14719739D01*
X8633374Y-14719739D02*
X8604802Y-14719739D01*
X8604802Y-14719739D02*
X8585755Y-14710215D01*
X8585755Y-14710215D02*
X8576231Y-14691167D01*
X8576231Y-14691167D02*
X8576231Y-14681644D01*
X8576231Y-14681644D02*
X8585755Y-14662596D01*
X8585755Y-14662596D02*
X8604802Y-14653072D01*
X8604802Y-14653072D02*
X8633374Y-14653072D01*
X8633374Y-14653072D02*
X8652421Y-14662596D01*
X8728612Y-14862596D02*
X8738136Y-14853072D01*
X8738136Y-14853072D02*
X8757183Y-14824501D01*
X8757183Y-14824501D02*
X8766707Y-14805453D01*
X8766707Y-14805453D02*
X8776231Y-14776882D01*
X8776231Y-14776882D02*
X8785755Y-14729263D01*
X8785755Y-14729263D02*
X8785755Y-14691167D01*
X8785755Y-14691167D02*
X8776231Y-14643548D01*
X8776231Y-14643548D02*
X8766707Y-14614977D01*
X8766707Y-14614977D02*
X8757183Y-14595929D01*
X8757183Y-14595929D02*
X8738136Y-14567358D01*
X8738136Y-14567358D02*
X8728612Y-14557834D01*
D14*
X3725430Y-14907082D02*
X3725430Y-15008682D01*
X3674630Y-14957882D02*
X3776230Y-14957882D01*
D11*
X4128611Y-15050405D02*
X4014325Y-15050405D01*
X4071468Y-15050405D02*
X4071468Y-14850405D01*
X4071468Y-14850405D02*
X4052421Y-14878977D01*
X4052421Y-14878977D02*
X4033373Y-14898024D01*
X4033373Y-14898024D02*
X4014325Y-14907548D01*
X4214326Y-15031358D02*
X4223849Y-15040882D01*
X4223849Y-15040882D02*
X4214326Y-15050405D01*
X4214326Y-15050405D02*
X4204802Y-15040882D01*
X4204802Y-15040882D02*
X4214326Y-15031358D01*
X4214326Y-15031358D02*
X4214326Y-15050405D01*
X4347659Y-14850405D02*
X4366707Y-14850405D01*
X4366707Y-14850405D02*
X4385754Y-14859929D01*
X4385754Y-14859929D02*
X4395278Y-14869453D01*
X4395278Y-14869453D02*
X4404802Y-14888501D01*
X4404802Y-14888501D02*
X4414326Y-14926596D01*
X4414326Y-14926596D02*
X4414326Y-14974215D01*
X4414326Y-14974215D02*
X4404802Y-15012310D01*
X4404802Y-15012310D02*
X4395278Y-15031358D01*
X4395278Y-15031358D02*
X4385754Y-15040882D01*
X4385754Y-15040882D02*
X4366707Y-15050405D01*
X4366707Y-15050405D02*
X4347659Y-15050405D01*
X4347659Y-15050405D02*
X4328611Y-15040882D01*
X4328611Y-15040882D02*
X4319087Y-15031358D01*
X4319087Y-15031358D02*
X4309564Y-15012310D01*
X4309564Y-15012310D02*
X4300040Y-14974215D01*
X4300040Y-14974215D02*
X4300040Y-14926596D01*
X4300040Y-14926596D02*
X4309564Y-14888501D01*
X4309564Y-14888501D02*
X4319087Y-14869453D01*
X4319087Y-14869453D02*
X4328611Y-14859929D01*
X4328611Y-14859929D02*
X4347659Y-14850405D01*
X4604802Y-15050405D02*
X4490516Y-15050405D01*
X4547659Y-15050405D02*
X4547659Y-14850405D01*
X4547659Y-14850405D02*
X4528611Y-14878977D01*
X4528611Y-14878977D02*
X4509564Y-14898024D01*
X4509564Y-14898024D02*
X4490516Y-14907548D01*
X4776230Y-14850405D02*
X4738135Y-14850405D01*
X4738135Y-14850405D02*
X4719087Y-14859929D01*
X4719087Y-14859929D02*
X4709564Y-14869453D01*
X4709564Y-14869453D02*
X4690516Y-14898024D01*
X4690516Y-14898024D02*
X4680992Y-14936120D01*
X4680992Y-14936120D02*
X4680992Y-15012310D01*
X4680992Y-15012310D02*
X4690516Y-15031358D01*
X4690516Y-15031358D02*
X4700040Y-15040882D01*
X4700040Y-15040882D02*
X4719087Y-15050405D01*
X4719087Y-15050405D02*
X4757183Y-15050405D01*
X4757183Y-15050405D02*
X4776230Y-15040882D01*
X4776230Y-15040882D02*
X4785754Y-15031358D01*
X4785754Y-15031358D02*
X4795278Y-15012310D01*
X4795278Y-15012310D02*
X4795278Y-14964691D01*
X4795278Y-14964691D02*
X4785754Y-14945644D01*
X4785754Y-14945644D02*
X4776230Y-14936120D01*
X4776230Y-14936120D02*
X4757183Y-14926596D01*
X4757183Y-14926596D02*
X4719087Y-14926596D01*
X4719087Y-14926596D02*
X4700040Y-14936120D01*
X4700040Y-14936120D02*
X4690516Y-14945644D01*
X4690516Y-14945644D02*
X4680992Y-14964691D01*
X4880992Y-15050405D02*
X4880992Y-14917072D01*
X4880992Y-14936120D02*
X4890516Y-14926596D01*
X4890516Y-14926596D02*
X4909564Y-14917072D01*
X4909564Y-14917072D02*
X4938135Y-14917072D01*
X4938135Y-14917072D02*
X4957183Y-14926596D01*
X4957183Y-14926596D02*
X4966707Y-14945644D01*
X4966707Y-14945644D02*
X4966707Y-15050405D01*
X4966707Y-14945644D02*
X4976230Y-14926596D01*
X4976230Y-14926596D02*
X4995278Y-14917072D01*
X4995278Y-14917072D02*
X5023849Y-14917072D01*
X5023849Y-14917072D02*
X5042897Y-14926596D01*
X5042897Y-14926596D02*
X5052421Y-14945644D01*
X5052421Y-14945644D02*
X5052421Y-15050405D01*
X5147659Y-15050405D02*
X5147659Y-14917072D01*
X5147659Y-14936120D02*
X5157183Y-14926596D01*
X5157183Y-14926596D02*
X5176230Y-14917072D01*
X5176230Y-14917072D02*
X5204802Y-14917072D01*
X5204802Y-14917072D02*
X5223849Y-14926596D01*
X5223849Y-14926596D02*
X5233373Y-14945644D01*
X5233373Y-14945644D02*
X5233373Y-15050405D01*
X5233373Y-14945644D02*
X5242897Y-14926596D01*
X5242897Y-14926596D02*
X5261945Y-14917072D01*
X5261945Y-14917072D02*
X5290516Y-14917072D01*
X5290516Y-14917072D02*
X5309564Y-14926596D01*
X5309564Y-14926596D02*
X5319088Y-14945644D01*
X5319088Y-14945644D02*
X5319088Y-15050405D01*
X5709564Y-14840882D02*
X5538135Y-15098024D01*
X5966707Y-14850405D02*
X5985754Y-14850405D01*
X5985754Y-14850405D02*
X6004802Y-14859929D01*
X6004802Y-14859929D02*
X6014326Y-14869453D01*
X6014326Y-14869453D02*
X6023849Y-14888501D01*
X6023849Y-14888501D02*
X6033373Y-14926596D01*
X6033373Y-14926596D02*
X6033373Y-14974215D01*
X6033373Y-14974215D02*
X6023849Y-15012310D01*
X6023849Y-15012310D02*
X6014326Y-15031358D01*
X6014326Y-15031358D02*
X6004802Y-15040882D01*
X6004802Y-15040882D02*
X5985754Y-15050405D01*
X5985754Y-15050405D02*
X5966707Y-15050405D01*
X5966707Y-15050405D02*
X5947659Y-15040882D01*
X5947659Y-15040882D02*
X5938135Y-15031358D01*
X5938135Y-15031358D02*
X5928611Y-15012310D01*
X5928611Y-15012310D02*
X5919088Y-14974215D01*
X5919088Y-14974215D02*
X5919088Y-14926596D01*
X5919088Y-14926596D02*
X5928611Y-14888501D01*
X5928611Y-14888501D02*
X5938135Y-14869453D01*
X5938135Y-14869453D02*
X5947659Y-14859929D01*
X5947659Y-14859929D02*
X5966707Y-14850405D01*
X6119088Y-15031358D02*
X6128611Y-15040882D01*
X6128611Y-15040882D02*
X6119088Y-15050405D01*
X6119088Y-15050405D02*
X6109564Y-15040882D01*
X6109564Y-15040882D02*
X6119088Y-15031358D01*
X6119088Y-15031358D02*
X6119088Y-15050405D01*
X6252421Y-14850405D02*
X6271469Y-14850405D01*
X6271469Y-14850405D02*
X6290516Y-14859929D01*
X6290516Y-14859929D02*
X6300040Y-14869453D01*
X6300040Y-14869453D02*
X6309564Y-14888501D01*
X6309564Y-14888501D02*
X6319088Y-14926596D01*
X6319088Y-14926596D02*
X6319088Y-14974215D01*
X6319088Y-14974215D02*
X6309564Y-15012310D01*
X6309564Y-15012310D02*
X6300040Y-15031358D01*
X6300040Y-15031358D02*
X6290516Y-15040882D01*
X6290516Y-15040882D02*
X6271469Y-15050405D01*
X6271469Y-15050405D02*
X6252421Y-15050405D01*
X6252421Y-15050405D02*
X6233373Y-15040882D01*
X6233373Y-15040882D02*
X6223849Y-15031358D01*
X6223849Y-15031358D02*
X6214326Y-15012310D01*
X6214326Y-15012310D02*
X6204802Y-14974215D01*
X6204802Y-14974215D02*
X6204802Y-14926596D01*
X6204802Y-14926596D02*
X6214326Y-14888501D01*
X6214326Y-14888501D02*
X6223849Y-14869453D01*
X6223849Y-14869453D02*
X6233373Y-14859929D01*
X6233373Y-14859929D02*
X6252421Y-14850405D01*
X6490516Y-14917072D02*
X6490516Y-15050405D01*
X6442897Y-14840882D02*
X6395278Y-14983739D01*
X6395278Y-14983739D02*
X6519088Y-14983739D01*
X6633373Y-14850405D02*
X6652421Y-14850405D01*
X6652421Y-14850405D02*
X6671469Y-14859929D01*
X6671469Y-14859929D02*
X6680992Y-14869453D01*
X6680992Y-14869453D02*
X6690516Y-14888501D01*
X6690516Y-14888501D02*
X6700040Y-14926596D01*
X6700040Y-14926596D02*
X6700040Y-14974215D01*
X6700040Y-14974215D02*
X6690516Y-15012310D01*
X6690516Y-15012310D02*
X6680992Y-15031358D01*
X6680992Y-15031358D02*
X6671469Y-15040882D01*
X6671469Y-15040882D02*
X6652421Y-15050405D01*
X6652421Y-15050405D02*
X6633373Y-15050405D01*
X6633373Y-15050405D02*
X6614326Y-15040882D01*
X6614326Y-15040882D02*
X6604802Y-15031358D01*
X6604802Y-15031358D02*
X6595278Y-15012310D01*
X6595278Y-15012310D02*
X6585754Y-14974215D01*
X6585754Y-14974215D02*
X6585754Y-14926596D01*
X6585754Y-14926596D02*
X6595278Y-14888501D01*
X6595278Y-14888501D02*
X6604802Y-14869453D01*
X6604802Y-14869453D02*
X6614326Y-14859929D01*
X6614326Y-14859929D02*
X6633373Y-14850405D01*
X6823849Y-14850405D02*
X6842897Y-14850405D01*
X6842897Y-14850405D02*
X6861945Y-14859929D01*
X6861945Y-14859929D02*
X6871469Y-14869453D01*
X6871469Y-14869453D02*
X6880992Y-14888501D01*
X6880992Y-14888501D02*
X6890516Y-14926596D01*
X6890516Y-14926596D02*
X6890516Y-14974215D01*
X6890516Y-14974215D02*
X6880992Y-15012310D01*
X6880992Y-15012310D02*
X6871469Y-15031358D01*
X6871469Y-15031358D02*
X6861945Y-15040882D01*
X6861945Y-15040882D02*
X6842897Y-15050405D01*
X6842897Y-15050405D02*
X6823849Y-15050405D01*
X6823849Y-15050405D02*
X6804802Y-15040882D01*
X6804802Y-15040882D02*
X6795278Y-15031358D01*
X6795278Y-15031358D02*
X6785754Y-15012310D01*
X6785754Y-15012310D02*
X6776230Y-14974215D01*
X6776230Y-14974215D02*
X6776230Y-14926596D01*
X6776230Y-14926596D02*
X6785754Y-14888501D01*
X6785754Y-14888501D02*
X6795278Y-14869453D01*
X6795278Y-14869453D02*
X6804802Y-14859929D01*
X6804802Y-14859929D02*
X6823849Y-14850405D01*
X6966707Y-14850405D02*
X6966707Y-14888501D01*
X7042897Y-14850405D02*
X7042897Y-14888501D01*
X7338135Y-15126596D02*
X7328611Y-15117072D01*
X7328611Y-15117072D02*
X7309564Y-15088501D01*
X7309564Y-15088501D02*
X7300040Y-15069453D01*
X7300040Y-15069453D02*
X7290516Y-15040882D01*
X7290516Y-15040882D02*
X7280992Y-14993263D01*
X7280992Y-14993263D02*
X7280992Y-14955167D01*
X7280992Y-14955167D02*
X7290516Y-14907548D01*
X7290516Y-14907548D02*
X7300040Y-14878977D01*
X7300040Y-14878977D02*
X7309564Y-14859929D01*
X7309564Y-14859929D02*
X7328611Y-14831358D01*
X7328611Y-14831358D02*
X7338135Y-14821834D01*
X7500040Y-14850405D02*
X7461945Y-14850405D01*
X7461945Y-14850405D02*
X7442897Y-14859929D01*
X7442897Y-14859929D02*
X7433373Y-14869453D01*
X7433373Y-14869453D02*
X7414326Y-14898024D01*
X7414326Y-14898024D02*
X7404802Y-14936120D01*
X7404802Y-14936120D02*
X7404802Y-15012310D01*
X7404802Y-15012310D02*
X7414326Y-15031358D01*
X7414326Y-15031358D02*
X7423850Y-15040882D01*
X7423850Y-15040882D02*
X7442897Y-15050405D01*
X7442897Y-15050405D02*
X7480992Y-15050405D01*
X7480992Y-15050405D02*
X7500040Y-15040882D01*
X7500040Y-15040882D02*
X7509564Y-15031358D01*
X7509564Y-15031358D02*
X7519088Y-15012310D01*
X7519088Y-15012310D02*
X7519088Y-14964691D01*
X7519088Y-14964691D02*
X7509564Y-14945644D01*
X7509564Y-14945644D02*
X7500040Y-14936120D01*
X7500040Y-14936120D02*
X7480992Y-14926596D01*
X7480992Y-14926596D02*
X7442897Y-14926596D01*
X7442897Y-14926596D02*
X7423850Y-14936120D01*
X7423850Y-14936120D02*
X7414326Y-14945644D01*
X7414326Y-14945644D02*
X7404802Y-14964691D01*
X7757183Y-15050405D02*
X7757183Y-14850405D01*
X7842897Y-15050405D02*
X7842897Y-14945644D01*
X7842897Y-14945644D02*
X7833373Y-14926596D01*
X7833373Y-14926596D02*
X7814326Y-14917072D01*
X7814326Y-14917072D02*
X7785754Y-14917072D01*
X7785754Y-14917072D02*
X7766707Y-14926596D01*
X7766707Y-14926596D02*
X7757183Y-14936120D01*
X7966707Y-15050405D02*
X7947659Y-15040882D01*
X7947659Y-15040882D02*
X7938135Y-15031358D01*
X7938135Y-15031358D02*
X7928612Y-15012310D01*
X7928612Y-15012310D02*
X7928612Y-14955167D01*
X7928612Y-14955167D02*
X7938135Y-14936120D01*
X7938135Y-14936120D02*
X7947659Y-14926596D01*
X7947659Y-14926596D02*
X7966707Y-14917072D01*
X7966707Y-14917072D02*
X7995278Y-14917072D01*
X7995278Y-14917072D02*
X8014326Y-14926596D01*
X8014326Y-14926596D02*
X8023850Y-14936120D01*
X8023850Y-14936120D02*
X8033373Y-14955167D01*
X8033373Y-14955167D02*
X8033373Y-15012310D01*
X8033373Y-15012310D02*
X8023850Y-15031358D01*
X8023850Y-15031358D02*
X8014326Y-15040882D01*
X8014326Y-15040882D02*
X7995278Y-15050405D01*
X7995278Y-15050405D02*
X7966707Y-15050405D01*
X8147659Y-15050405D02*
X8128612Y-15040882D01*
X8128612Y-15040882D02*
X8119088Y-15021834D01*
X8119088Y-15021834D02*
X8119088Y-14850405D01*
X8300040Y-15040882D02*
X8280993Y-15050405D01*
X8280993Y-15050405D02*
X8242897Y-15050405D01*
X8242897Y-15050405D02*
X8223850Y-15040882D01*
X8223850Y-15040882D02*
X8214326Y-15021834D01*
X8214326Y-15021834D02*
X8214326Y-14945644D01*
X8214326Y-14945644D02*
X8223850Y-14926596D01*
X8223850Y-14926596D02*
X8242897Y-14917072D01*
X8242897Y-14917072D02*
X8280993Y-14917072D01*
X8280993Y-14917072D02*
X8300040Y-14926596D01*
X8300040Y-14926596D02*
X8309564Y-14945644D01*
X8309564Y-14945644D02*
X8309564Y-14964691D01*
X8309564Y-14964691D02*
X8214326Y-14983739D01*
X8385754Y-15040882D02*
X8404802Y-15050405D01*
X8404802Y-15050405D02*
X8442897Y-15050405D01*
X8442897Y-15050405D02*
X8461945Y-15040882D01*
X8461945Y-15040882D02*
X8471469Y-15021834D01*
X8471469Y-15021834D02*
X8471469Y-15012310D01*
X8471469Y-15012310D02*
X8461945Y-14993263D01*
X8461945Y-14993263D02*
X8442897Y-14983739D01*
X8442897Y-14983739D02*
X8414326Y-14983739D01*
X8414326Y-14983739D02*
X8395278Y-14974215D01*
X8395278Y-14974215D02*
X8385754Y-14955167D01*
X8385754Y-14955167D02*
X8385754Y-14945644D01*
X8385754Y-14945644D02*
X8395278Y-14926596D01*
X8395278Y-14926596D02*
X8414326Y-14917072D01*
X8414326Y-14917072D02*
X8442897Y-14917072D01*
X8442897Y-14917072D02*
X8461945Y-14926596D01*
X8538136Y-15126596D02*
X8547659Y-15117072D01*
X8547659Y-15117072D02*
X8566707Y-15088501D01*
X8566707Y-15088501D02*
X8576231Y-15069453D01*
X8576231Y-15069453D02*
X8585755Y-15040882D01*
X8585755Y-15040882D02*
X8595278Y-14993263D01*
X8595278Y-14993263D02*
X8595278Y-14955167D01*
X8595278Y-14955167D02*
X8585755Y-14907548D01*
X8585755Y-14907548D02*
X8576231Y-14878977D01*
X8576231Y-14878977D02*
X8566707Y-14859929D01*
X8566707Y-14859929D02*
X8547659Y-14831358D01*
X8547659Y-14831358D02*
X8538136Y-14821834D01*
D15*
X3757193Y-15267844D02*
X3757193Y-15175919D01*
X3665268Y-15175919D01*
X3665268Y-15267844D01*
X3757193Y-15267844D01*
D11*
X4128611Y-15314405D02*
X4014325Y-15314405D01*
X4071468Y-15314405D02*
X4071468Y-15114405D01*
X4071468Y-15114405D02*
X4052421Y-15142977D01*
X4052421Y-15142977D02*
X4033373Y-15162024D01*
X4033373Y-15162024D02*
X4014325Y-15171548D01*
X4214326Y-15295358D02*
X4223849Y-15304882D01*
X4223849Y-15304882D02*
X4214326Y-15314405D01*
X4214326Y-15314405D02*
X4204802Y-15304882D01*
X4204802Y-15304882D02*
X4214326Y-15295358D01*
X4214326Y-15295358D02*
X4214326Y-15314405D01*
X4290516Y-15114405D02*
X4414326Y-15114405D01*
X4414326Y-15114405D02*
X4347659Y-15190596D01*
X4347659Y-15190596D02*
X4376230Y-15190596D01*
X4376230Y-15190596D02*
X4395278Y-15200120D01*
X4395278Y-15200120D02*
X4404802Y-15209644D01*
X4404802Y-15209644D02*
X4414326Y-15228691D01*
X4414326Y-15228691D02*
X4414326Y-15276310D01*
X4414326Y-15276310D02*
X4404802Y-15295358D01*
X4404802Y-15295358D02*
X4395278Y-15304882D01*
X4395278Y-15304882D02*
X4376230Y-15314405D01*
X4376230Y-15314405D02*
X4319087Y-15314405D01*
X4319087Y-15314405D02*
X4300040Y-15304882D01*
X4300040Y-15304882D02*
X4290516Y-15295358D01*
X4538135Y-15114405D02*
X4557183Y-15114405D01*
X4557183Y-15114405D02*
X4576230Y-15123929D01*
X4576230Y-15123929D02*
X4585754Y-15133453D01*
X4585754Y-15133453D02*
X4595278Y-15152501D01*
X4595278Y-15152501D02*
X4604802Y-15190596D01*
X4604802Y-15190596D02*
X4604802Y-15238215D01*
X4604802Y-15238215D02*
X4595278Y-15276310D01*
X4595278Y-15276310D02*
X4585754Y-15295358D01*
X4585754Y-15295358D02*
X4576230Y-15304882D01*
X4576230Y-15304882D02*
X4557183Y-15314405D01*
X4557183Y-15314405D02*
X4538135Y-15314405D01*
X4538135Y-15314405D02*
X4519087Y-15304882D01*
X4519087Y-15304882D02*
X4509564Y-15295358D01*
X4509564Y-15295358D02*
X4500040Y-15276310D01*
X4500040Y-15276310D02*
X4490516Y-15238215D01*
X4490516Y-15238215D02*
X4490516Y-15190596D01*
X4490516Y-15190596D02*
X4500040Y-15152501D01*
X4500040Y-15152501D02*
X4509564Y-15133453D01*
X4509564Y-15133453D02*
X4519087Y-15123929D01*
X4519087Y-15123929D02*
X4538135Y-15114405D01*
X4728611Y-15114405D02*
X4747659Y-15114405D01*
X4747659Y-15114405D02*
X4766707Y-15123929D01*
X4766707Y-15123929D02*
X4776230Y-15133453D01*
X4776230Y-15133453D02*
X4785754Y-15152501D01*
X4785754Y-15152501D02*
X4795278Y-15190596D01*
X4795278Y-15190596D02*
X4795278Y-15238215D01*
X4795278Y-15238215D02*
X4785754Y-15276310D01*
X4785754Y-15276310D02*
X4776230Y-15295358D01*
X4776230Y-15295358D02*
X4766707Y-15304882D01*
X4766707Y-15304882D02*
X4747659Y-15314405D01*
X4747659Y-15314405D02*
X4728611Y-15314405D01*
X4728611Y-15314405D02*
X4709564Y-15304882D01*
X4709564Y-15304882D02*
X4700040Y-15295358D01*
X4700040Y-15295358D02*
X4690516Y-15276310D01*
X4690516Y-15276310D02*
X4680992Y-15238215D01*
X4680992Y-15238215D02*
X4680992Y-15190596D01*
X4680992Y-15190596D02*
X4690516Y-15152501D01*
X4690516Y-15152501D02*
X4700040Y-15133453D01*
X4700040Y-15133453D02*
X4709564Y-15123929D01*
X4709564Y-15123929D02*
X4728611Y-15114405D01*
X4880992Y-15314405D02*
X4880992Y-15181072D01*
X4880992Y-15200120D02*
X4890516Y-15190596D01*
X4890516Y-15190596D02*
X4909564Y-15181072D01*
X4909564Y-15181072D02*
X4938135Y-15181072D01*
X4938135Y-15181072D02*
X4957183Y-15190596D01*
X4957183Y-15190596D02*
X4966707Y-15209644D01*
X4966707Y-15209644D02*
X4966707Y-15314405D01*
X4966707Y-15209644D02*
X4976230Y-15190596D01*
X4976230Y-15190596D02*
X4995278Y-15181072D01*
X4995278Y-15181072D02*
X5023849Y-15181072D01*
X5023849Y-15181072D02*
X5042897Y-15190596D01*
X5042897Y-15190596D02*
X5052421Y-15209644D01*
X5052421Y-15209644D02*
X5052421Y-15314405D01*
X5147659Y-15314405D02*
X5147659Y-15181072D01*
X5147659Y-15200120D02*
X5157183Y-15190596D01*
X5157183Y-15190596D02*
X5176230Y-15181072D01*
X5176230Y-15181072D02*
X5204802Y-15181072D01*
X5204802Y-15181072D02*
X5223849Y-15190596D01*
X5223849Y-15190596D02*
X5233373Y-15209644D01*
X5233373Y-15209644D02*
X5233373Y-15314405D01*
X5233373Y-15209644D02*
X5242897Y-15190596D01*
X5242897Y-15190596D02*
X5261945Y-15181072D01*
X5261945Y-15181072D02*
X5290516Y-15181072D01*
X5290516Y-15181072D02*
X5309564Y-15190596D01*
X5309564Y-15190596D02*
X5319088Y-15209644D01*
X5319088Y-15209644D02*
X5319088Y-15314405D01*
X5709564Y-15104882D02*
X5538135Y-15362024D01*
X5966707Y-15114405D02*
X5985754Y-15114405D01*
X5985754Y-15114405D02*
X6004802Y-15123929D01*
X6004802Y-15123929D02*
X6014326Y-15133453D01*
X6014326Y-15133453D02*
X6023849Y-15152501D01*
X6023849Y-15152501D02*
X6033373Y-15190596D01*
X6033373Y-15190596D02*
X6033373Y-15238215D01*
X6033373Y-15238215D02*
X6023849Y-15276310D01*
X6023849Y-15276310D02*
X6014326Y-15295358D01*
X6014326Y-15295358D02*
X6004802Y-15304882D01*
X6004802Y-15304882D02*
X5985754Y-15314405D01*
X5985754Y-15314405D02*
X5966707Y-15314405D01*
X5966707Y-15314405D02*
X5947659Y-15304882D01*
X5947659Y-15304882D02*
X5938135Y-15295358D01*
X5938135Y-15295358D02*
X5928611Y-15276310D01*
X5928611Y-15276310D02*
X5919088Y-15238215D01*
X5919088Y-15238215D02*
X5919088Y-15190596D01*
X5919088Y-15190596D02*
X5928611Y-15152501D01*
X5928611Y-15152501D02*
X5938135Y-15133453D01*
X5938135Y-15133453D02*
X5947659Y-15123929D01*
X5947659Y-15123929D02*
X5966707Y-15114405D01*
X6119088Y-15295358D02*
X6128611Y-15304882D01*
X6128611Y-15304882D02*
X6119088Y-15314405D01*
X6119088Y-15314405D02*
X6109564Y-15304882D01*
X6109564Y-15304882D02*
X6119088Y-15295358D01*
X6119088Y-15295358D02*
X6119088Y-15314405D01*
X6252421Y-15114405D02*
X6271469Y-15114405D01*
X6271469Y-15114405D02*
X6290516Y-15123929D01*
X6290516Y-15123929D02*
X6300040Y-15133453D01*
X6300040Y-15133453D02*
X6309564Y-15152501D01*
X6309564Y-15152501D02*
X6319088Y-15190596D01*
X6319088Y-15190596D02*
X6319088Y-15238215D01*
X6319088Y-15238215D02*
X6309564Y-15276310D01*
X6309564Y-15276310D02*
X6300040Y-15295358D01*
X6300040Y-15295358D02*
X6290516Y-15304882D01*
X6290516Y-15304882D02*
X6271469Y-15314405D01*
X6271469Y-15314405D02*
X6252421Y-15314405D01*
X6252421Y-15314405D02*
X6233373Y-15304882D01*
X6233373Y-15304882D02*
X6223849Y-15295358D01*
X6223849Y-15295358D02*
X6214326Y-15276310D01*
X6214326Y-15276310D02*
X6204802Y-15238215D01*
X6204802Y-15238215D02*
X6204802Y-15190596D01*
X6204802Y-15190596D02*
X6214326Y-15152501D01*
X6214326Y-15152501D02*
X6223849Y-15133453D01*
X6223849Y-15133453D02*
X6233373Y-15123929D01*
X6233373Y-15123929D02*
X6252421Y-15114405D01*
X6500040Y-15114405D02*
X6404802Y-15114405D01*
X6404802Y-15114405D02*
X6395278Y-15209644D01*
X6395278Y-15209644D02*
X6404802Y-15200120D01*
X6404802Y-15200120D02*
X6423849Y-15190596D01*
X6423849Y-15190596D02*
X6471469Y-15190596D01*
X6471469Y-15190596D02*
X6490516Y-15200120D01*
X6490516Y-15200120D02*
X6500040Y-15209644D01*
X6500040Y-15209644D02*
X6509564Y-15228691D01*
X6509564Y-15228691D02*
X6509564Y-15276310D01*
X6509564Y-15276310D02*
X6500040Y-15295358D01*
X6500040Y-15295358D02*
X6490516Y-15304882D01*
X6490516Y-15304882D02*
X6471469Y-15314405D01*
X6471469Y-15314405D02*
X6423849Y-15314405D01*
X6423849Y-15314405D02*
X6404802Y-15304882D01*
X6404802Y-15304882D02*
X6395278Y-15295358D01*
X6700040Y-15314405D02*
X6585754Y-15314405D01*
X6642897Y-15314405D02*
X6642897Y-15114405D01*
X6642897Y-15114405D02*
X6623849Y-15142977D01*
X6623849Y-15142977D02*
X6604802Y-15162024D01*
X6604802Y-15162024D02*
X6585754Y-15171548D01*
X6776230Y-15133453D02*
X6785754Y-15123929D01*
X6785754Y-15123929D02*
X6804802Y-15114405D01*
X6804802Y-15114405D02*
X6852421Y-15114405D01*
X6852421Y-15114405D02*
X6871469Y-15123929D01*
X6871469Y-15123929D02*
X6880992Y-15133453D01*
X6880992Y-15133453D02*
X6890516Y-15152501D01*
X6890516Y-15152501D02*
X6890516Y-15171548D01*
X6890516Y-15171548D02*
X6880992Y-15200120D01*
X6880992Y-15200120D02*
X6766707Y-15314405D01*
X6766707Y-15314405D02*
X6890516Y-15314405D01*
X6966707Y-15114405D02*
X6966707Y-15152501D01*
X7042897Y-15114405D02*
X7042897Y-15152501D01*
X7338135Y-15390596D02*
X7328611Y-15381072D01*
X7328611Y-15381072D02*
X7309564Y-15352501D01*
X7309564Y-15352501D02*
X7300040Y-15333453D01*
X7300040Y-15333453D02*
X7290516Y-15304882D01*
X7290516Y-15304882D02*
X7280992Y-15257263D01*
X7280992Y-15257263D02*
X7280992Y-15219167D01*
X7280992Y-15219167D02*
X7290516Y-15171548D01*
X7290516Y-15171548D02*
X7300040Y-15142977D01*
X7300040Y-15142977D02*
X7309564Y-15123929D01*
X7309564Y-15123929D02*
X7328611Y-15095358D01*
X7328611Y-15095358D02*
X7338135Y-15085834D01*
X7404802Y-15133453D02*
X7414326Y-15123929D01*
X7414326Y-15123929D02*
X7433373Y-15114405D01*
X7433373Y-15114405D02*
X7480992Y-15114405D01*
X7480992Y-15114405D02*
X7500040Y-15123929D01*
X7500040Y-15123929D02*
X7509564Y-15133453D01*
X7509564Y-15133453D02*
X7519088Y-15152501D01*
X7519088Y-15152501D02*
X7519088Y-15171548D01*
X7519088Y-15171548D02*
X7509564Y-15200120D01*
X7509564Y-15200120D02*
X7395278Y-15314405D01*
X7395278Y-15314405D02*
X7519088Y-15314405D01*
X7757183Y-15314405D02*
X7757183Y-15114405D01*
X7842897Y-15314405D02*
X7842897Y-15209644D01*
X7842897Y-15209644D02*
X7833373Y-15190596D01*
X7833373Y-15190596D02*
X7814326Y-15181072D01*
X7814326Y-15181072D02*
X7785754Y-15181072D01*
X7785754Y-15181072D02*
X7766707Y-15190596D01*
X7766707Y-15190596D02*
X7757183Y-15200120D01*
X7966707Y-15314405D02*
X7947659Y-15304882D01*
X7947659Y-15304882D02*
X7938135Y-15295358D01*
X7938135Y-15295358D02*
X7928612Y-15276310D01*
X7928612Y-15276310D02*
X7928612Y-15219167D01*
X7928612Y-15219167D02*
X7938135Y-15200120D01*
X7938135Y-15200120D02*
X7947659Y-15190596D01*
X7947659Y-15190596D02*
X7966707Y-15181072D01*
X7966707Y-15181072D02*
X7995278Y-15181072D01*
X7995278Y-15181072D02*
X8014326Y-15190596D01*
X8014326Y-15190596D02*
X8023850Y-15200120D01*
X8023850Y-15200120D02*
X8033373Y-15219167D01*
X8033373Y-15219167D02*
X8033373Y-15276310D01*
X8033373Y-15276310D02*
X8023850Y-15295358D01*
X8023850Y-15295358D02*
X8014326Y-15304882D01*
X8014326Y-15304882D02*
X7995278Y-15314405D01*
X7995278Y-15314405D02*
X7966707Y-15314405D01*
X8147659Y-15314405D02*
X8128612Y-15304882D01*
X8128612Y-15304882D02*
X8119088Y-15285834D01*
X8119088Y-15285834D02*
X8119088Y-15114405D01*
X8300040Y-15304882D02*
X8280993Y-15314405D01*
X8280993Y-15314405D02*
X8242897Y-15314405D01*
X8242897Y-15314405D02*
X8223850Y-15304882D01*
X8223850Y-15304882D02*
X8214326Y-15285834D01*
X8214326Y-15285834D02*
X8214326Y-15209644D01*
X8214326Y-15209644D02*
X8223850Y-15190596D01*
X8223850Y-15190596D02*
X8242897Y-15181072D01*
X8242897Y-15181072D02*
X8280993Y-15181072D01*
X8280993Y-15181072D02*
X8300040Y-15190596D01*
X8300040Y-15190596D02*
X8309564Y-15209644D01*
X8309564Y-15209644D02*
X8309564Y-15228691D01*
X8309564Y-15228691D02*
X8214326Y-15247739D01*
X8385754Y-15304882D02*
X8404802Y-15314405D01*
X8404802Y-15314405D02*
X8442897Y-15314405D01*
X8442897Y-15314405D02*
X8461945Y-15304882D01*
X8461945Y-15304882D02*
X8471469Y-15285834D01*
X8471469Y-15285834D02*
X8471469Y-15276310D01*
X8471469Y-15276310D02*
X8461945Y-15257263D01*
X8461945Y-15257263D02*
X8442897Y-15247739D01*
X8442897Y-15247739D02*
X8414326Y-15247739D01*
X8414326Y-15247739D02*
X8395278Y-15238215D01*
X8395278Y-15238215D02*
X8385754Y-15219167D01*
X8385754Y-15219167D02*
X8385754Y-15209644D01*
X8385754Y-15209644D02*
X8395278Y-15190596D01*
X8395278Y-15190596D02*
X8414326Y-15181072D01*
X8414326Y-15181072D02*
X8442897Y-15181072D01*
X8442897Y-15181072D02*
X8461945Y-15190596D01*
X8538136Y-15390596D02*
X8547659Y-15381072D01*
X8547659Y-15381072D02*
X8566707Y-15352501D01*
X8566707Y-15352501D02*
X8576231Y-15333453D01*
X8576231Y-15333453D02*
X8585755Y-15304882D01*
X8585755Y-15304882D02*
X8595278Y-15257263D01*
X8595278Y-15257263D02*
X8595278Y-15219167D01*
X8595278Y-15219167D02*
X8585755Y-15171548D01*
X8585755Y-15171548D02*
X8576231Y-15142977D01*
X8576231Y-15142977D02*
X8566707Y-15123929D01*
X8566707Y-15123929D02*
X8547659Y-15095358D01*
X8547659Y-15095358D02*
X8538136Y-15085834D01*
X3676230Y-15585882D02*
X3776230Y-15485882D01*
X3676230Y-15385882D01*
X3576230Y-15485882D01*
X3676230Y-15585882D01*
X4014325Y-15397453D02*
X4023849Y-15387929D01*
X4023849Y-15387929D02*
X4042897Y-15378405D01*
X4042897Y-15378405D02*
X4090516Y-15378405D01*
X4090516Y-15378405D02*
X4109564Y-15387929D01*
X4109564Y-15387929D02*
X4119087Y-15397453D01*
X4119087Y-15397453D02*
X4128611Y-15416501D01*
X4128611Y-15416501D02*
X4128611Y-15435548D01*
X4128611Y-15435548D02*
X4119087Y-15464120D01*
X4119087Y-15464120D02*
X4004802Y-15578405D01*
X4004802Y-15578405D02*
X4128611Y-15578405D01*
X4214326Y-15559358D02*
X4223849Y-15568882D01*
X4223849Y-15568882D02*
X4214326Y-15578405D01*
X4214326Y-15578405D02*
X4204802Y-15568882D01*
X4204802Y-15568882D02*
X4214326Y-15559358D01*
X4214326Y-15559358D02*
X4214326Y-15578405D01*
X4300040Y-15397453D02*
X4309564Y-15387929D01*
X4309564Y-15387929D02*
X4328611Y-15378405D01*
X4328611Y-15378405D02*
X4376230Y-15378405D01*
X4376230Y-15378405D02*
X4395278Y-15387929D01*
X4395278Y-15387929D02*
X4404802Y-15397453D01*
X4404802Y-15397453D02*
X4414326Y-15416501D01*
X4414326Y-15416501D02*
X4414326Y-15435548D01*
X4414326Y-15435548D02*
X4404802Y-15464120D01*
X4404802Y-15464120D02*
X4290516Y-15578405D01*
X4290516Y-15578405D02*
X4414326Y-15578405D01*
X4538135Y-15378405D02*
X4557183Y-15378405D01*
X4557183Y-15378405D02*
X4576230Y-15387929D01*
X4576230Y-15387929D02*
X4585754Y-15397453D01*
X4585754Y-15397453D02*
X4595278Y-15416501D01*
X4595278Y-15416501D02*
X4604802Y-15454596D01*
X4604802Y-15454596D02*
X4604802Y-15502215D01*
X4604802Y-15502215D02*
X4595278Y-15540310D01*
X4595278Y-15540310D02*
X4585754Y-15559358D01*
X4585754Y-15559358D02*
X4576230Y-15568882D01*
X4576230Y-15568882D02*
X4557183Y-15578405D01*
X4557183Y-15578405D02*
X4538135Y-15578405D01*
X4538135Y-15578405D02*
X4519087Y-15568882D01*
X4519087Y-15568882D02*
X4509564Y-15559358D01*
X4509564Y-15559358D02*
X4500040Y-15540310D01*
X4500040Y-15540310D02*
X4490516Y-15502215D01*
X4490516Y-15502215D02*
X4490516Y-15454596D01*
X4490516Y-15454596D02*
X4500040Y-15416501D01*
X4500040Y-15416501D02*
X4509564Y-15397453D01*
X4509564Y-15397453D02*
X4519087Y-15387929D01*
X4519087Y-15387929D02*
X4538135Y-15378405D01*
X4728611Y-15378405D02*
X4747659Y-15378405D01*
X4747659Y-15378405D02*
X4766707Y-15387929D01*
X4766707Y-15387929D02*
X4776230Y-15397453D01*
X4776230Y-15397453D02*
X4785754Y-15416501D01*
X4785754Y-15416501D02*
X4795278Y-15454596D01*
X4795278Y-15454596D02*
X4795278Y-15502215D01*
X4795278Y-15502215D02*
X4785754Y-15540310D01*
X4785754Y-15540310D02*
X4776230Y-15559358D01*
X4776230Y-15559358D02*
X4766707Y-15568882D01*
X4766707Y-15568882D02*
X4747659Y-15578405D01*
X4747659Y-15578405D02*
X4728611Y-15578405D01*
X4728611Y-15578405D02*
X4709564Y-15568882D01*
X4709564Y-15568882D02*
X4700040Y-15559358D01*
X4700040Y-15559358D02*
X4690516Y-15540310D01*
X4690516Y-15540310D02*
X4680992Y-15502215D01*
X4680992Y-15502215D02*
X4680992Y-15454596D01*
X4680992Y-15454596D02*
X4690516Y-15416501D01*
X4690516Y-15416501D02*
X4700040Y-15397453D01*
X4700040Y-15397453D02*
X4709564Y-15387929D01*
X4709564Y-15387929D02*
X4728611Y-15378405D01*
X4880992Y-15578405D02*
X4880992Y-15445072D01*
X4880992Y-15464120D02*
X4890516Y-15454596D01*
X4890516Y-15454596D02*
X4909564Y-15445072D01*
X4909564Y-15445072D02*
X4938135Y-15445072D01*
X4938135Y-15445072D02*
X4957183Y-15454596D01*
X4957183Y-15454596D02*
X4966707Y-15473644D01*
X4966707Y-15473644D02*
X4966707Y-15578405D01*
X4966707Y-15473644D02*
X4976230Y-15454596D01*
X4976230Y-15454596D02*
X4995278Y-15445072D01*
X4995278Y-15445072D02*
X5023849Y-15445072D01*
X5023849Y-15445072D02*
X5042897Y-15454596D01*
X5042897Y-15454596D02*
X5052421Y-15473644D01*
X5052421Y-15473644D02*
X5052421Y-15578405D01*
X5147659Y-15578405D02*
X5147659Y-15445072D01*
X5147659Y-15464120D02*
X5157183Y-15454596D01*
X5157183Y-15454596D02*
X5176230Y-15445072D01*
X5176230Y-15445072D02*
X5204802Y-15445072D01*
X5204802Y-15445072D02*
X5223849Y-15454596D01*
X5223849Y-15454596D02*
X5233373Y-15473644D01*
X5233373Y-15473644D02*
X5233373Y-15578405D01*
X5233373Y-15473644D02*
X5242897Y-15454596D01*
X5242897Y-15454596D02*
X5261945Y-15445072D01*
X5261945Y-15445072D02*
X5290516Y-15445072D01*
X5290516Y-15445072D02*
X5309564Y-15454596D01*
X5309564Y-15454596D02*
X5319088Y-15473644D01*
X5319088Y-15473644D02*
X5319088Y-15578405D01*
X5709564Y-15368882D02*
X5538135Y-15626024D01*
X5966707Y-15378405D02*
X5985754Y-15378405D01*
X5985754Y-15378405D02*
X6004802Y-15387929D01*
X6004802Y-15387929D02*
X6014326Y-15397453D01*
X6014326Y-15397453D02*
X6023849Y-15416501D01*
X6023849Y-15416501D02*
X6033373Y-15454596D01*
X6033373Y-15454596D02*
X6033373Y-15502215D01*
X6033373Y-15502215D02*
X6023849Y-15540310D01*
X6023849Y-15540310D02*
X6014326Y-15559358D01*
X6014326Y-15559358D02*
X6004802Y-15568882D01*
X6004802Y-15568882D02*
X5985754Y-15578405D01*
X5985754Y-15578405D02*
X5966707Y-15578405D01*
X5966707Y-15578405D02*
X5947659Y-15568882D01*
X5947659Y-15568882D02*
X5938135Y-15559358D01*
X5938135Y-15559358D02*
X5928611Y-15540310D01*
X5928611Y-15540310D02*
X5919088Y-15502215D01*
X5919088Y-15502215D02*
X5919088Y-15454596D01*
X5919088Y-15454596D02*
X5928611Y-15416501D01*
X5928611Y-15416501D02*
X5938135Y-15397453D01*
X5938135Y-15397453D02*
X5947659Y-15387929D01*
X5947659Y-15387929D02*
X5966707Y-15378405D01*
X6119088Y-15559358D02*
X6128611Y-15568882D01*
X6128611Y-15568882D02*
X6119088Y-15578405D01*
X6119088Y-15578405D02*
X6109564Y-15568882D01*
X6109564Y-15568882D02*
X6119088Y-15559358D01*
X6119088Y-15559358D02*
X6119088Y-15578405D01*
X6252421Y-15378405D02*
X6271469Y-15378405D01*
X6271469Y-15378405D02*
X6290516Y-15387929D01*
X6290516Y-15387929D02*
X6300040Y-15397453D01*
X6300040Y-15397453D02*
X6309564Y-15416501D01*
X6309564Y-15416501D02*
X6319088Y-15454596D01*
X6319088Y-15454596D02*
X6319088Y-15502215D01*
X6319088Y-15502215D02*
X6309564Y-15540310D01*
X6309564Y-15540310D02*
X6300040Y-15559358D01*
X6300040Y-15559358D02*
X6290516Y-15568882D01*
X6290516Y-15568882D02*
X6271469Y-15578405D01*
X6271469Y-15578405D02*
X6252421Y-15578405D01*
X6252421Y-15578405D02*
X6233373Y-15568882D01*
X6233373Y-15568882D02*
X6223849Y-15559358D01*
X6223849Y-15559358D02*
X6214326Y-15540310D01*
X6214326Y-15540310D02*
X6204802Y-15502215D01*
X6204802Y-15502215D02*
X6204802Y-15454596D01*
X6204802Y-15454596D02*
X6214326Y-15416501D01*
X6214326Y-15416501D02*
X6223849Y-15397453D01*
X6223849Y-15397453D02*
X6233373Y-15387929D01*
X6233373Y-15387929D02*
X6252421Y-15378405D01*
X6433373Y-15464120D02*
X6414326Y-15454596D01*
X6414326Y-15454596D02*
X6404802Y-15445072D01*
X6404802Y-15445072D02*
X6395278Y-15426024D01*
X6395278Y-15426024D02*
X6395278Y-15416501D01*
X6395278Y-15416501D02*
X6404802Y-15397453D01*
X6404802Y-15397453D02*
X6414326Y-15387929D01*
X6414326Y-15387929D02*
X6433373Y-15378405D01*
X6433373Y-15378405D02*
X6471469Y-15378405D01*
X6471469Y-15378405D02*
X6490516Y-15387929D01*
X6490516Y-15387929D02*
X6500040Y-15397453D01*
X6500040Y-15397453D02*
X6509564Y-15416501D01*
X6509564Y-15416501D02*
X6509564Y-15426024D01*
X6509564Y-15426024D02*
X6500040Y-15445072D01*
X6500040Y-15445072D02*
X6490516Y-15454596D01*
X6490516Y-15454596D02*
X6471469Y-15464120D01*
X6471469Y-15464120D02*
X6433373Y-15464120D01*
X6433373Y-15464120D02*
X6414326Y-15473644D01*
X6414326Y-15473644D02*
X6404802Y-15483167D01*
X6404802Y-15483167D02*
X6395278Y-15502215D01*
X6395278Y-15502215D02*
X6395278Y-15540310D01*
X6395278Y-15540310D02*
X6404802Y-15559358D01*
X6404802Y-15559358D02*
X6414326Y-15568882D01*
X6414326Y-15568882D02*
X6433373Y-15578405D01*
X6433373Y-15578405D02*
X6471469Y-15578405D01*
X6471469Y-15578405D02*
X6490516Y-15568882D01*
X6490516Y-15568882D02*
X6500040Y-15559358D01*
X6500040Y-15559358D02*
X6509564Y-15540310D01*
X6509564Y-15540310D02*
X6509564Y-15502215D01*
X6509564Y-15502215D02*
X6500040Y-15483167D01*
X6500040Y-15483167D02*
X6490516Y-15473644D01*
X6490516Y-15473644D02*
X6471469Y-15464120D01*
X6680992Y-15378405D02*
X6642897Y-15378405D01*
X6642897Y-15378405D02*
X6623849Y-15387929D01*
X6623849Y-15387929D02*
X6614326Y-15397453D01*
X6614326Y-15397453D02*
X6595278Y-15426024D01*
X6595278Y-15426024D02*
X6585754Y-15464120D01*
X6585754Y-15464120D02*
X6585754Y-15540310D01*
X6585754Y-15540310D02*
X6595278Y-15559358D01*
X6595278Y-15559358D02*
X6604802Y-15568882D01*
X6604802Y-15568882D02*
X6623849Y-15578405D01*
X6623849Y-15578405D02*
X6661945Y-15578405D01*
X6661945Y-15578405D02*
X6680992Y-15568882D01*
X6680992Y-15568882D02*
X6690516Y-15559358D01*
X6690516Y-15559358D02*
X6700040Y-15540310D01*
X6700040Y-15540310D02*
X6700040Y-15492691D01*
X6700040Y-15492691D02*
X6690516Y-15473644D01*
X6690516Y-15473644D02*
X6680992Y-15464120D01*
X6680992Y-15464120D02*
X6661945Y-15454596D01*
X6661945Y-15454596D02*
X6623849Y-15454596D01*
X6623849Y-15454596D02*
X6604802Y-15464120D01*
X6604802Y-15464120D02*
X6595278Y-15473644D01*
X6595278Y-15473644D02*
X6585754Y-15492691D01*
X6871469Y-15378405D02*
X6833373Y-15378405D01*
X6833373Y-15378405D02*
X6814326Y-15387929D01*
X6814326Y-15387929D02*
X6804802Y-15397453D01*
X6804802Y-15397453D02*
X6785754Y-15426024D01*
X6785754Y-15426024D02*
X6776230Y-15464120D01*
X6776230Y-15464120D02*
X6776230Y-15540310D01*
X6776230Y-15540310D02*
X6785754Y-15559358D01*
X6785754Y-15559358D02*
X6795278Y-15568882D01*
X6795278Y-15568882D02*
X6814326Y-15578405D01*
X6814326Y-15578405D02*
X6852421Y-15578405D01*
X6852421Y-15578405D02*
X6871469Y-15568882D01*
X6871469Y-15568882D02*
X6880992Y-15559358D01*
X6880992Y-15559358D02*
X6890516Y-15540310D01*
X6890516Y-15540310D02*
X6890516Y-15492691D01*
X6890516Y-15492691D02*
X6880992Y-15473644D01*
X6880992Y-15473644D02*
X6871469Y-15464120D01*
X6871469Y-15464120D02*
X6852421Y-15454596D01*
X6852421Y-15454596D02*
X6814326Y-15454596D01*
X6814326Y-15454596D02*
X6795278Y-15464120D01*
X6795278Y-15464120D02*
X6785754Y-15473644D01*
X6785754Y-15473644D02*
X6776230Y-15492691D01*
X6966707Y-15378405D02*
X6966707Y-15416501D01*
X7042897Y-15378405D02*
X7042897Y-15416501D01*
X7338135Y-15654596D02*
X7328611Y-15645072D01*
X7328611Y-15645072D02*
X7309564Y-15616501D01*
X7309564Y-15616501D02*
X7300040Y-15597453D01*
X7300040Y-15597453D02*
X7290516Y-15568882D01*
X7290516Y-15568882D02*
X7280992Y-15521263D01*
X7280992Y-15521263D02*
X7280992Y-15483167D01*
X7280992Y-15483167D02*
X7290516Y-15435548D01*
X7290516Y-15435548D02*
X7300040Y-15406977D01*
X7300040Y-15406977D02*
X7309564Y-15387929D01*
X7309564Y-15387929D02*
X7328611Y-15359358D01*
X7328611Y-15359358D02*
X7338135Y-15349834D01*
X7500040Y-15445072D02*
X7500040Y-15578405D01*
X7452421Y-15368882D02*
X7404802Y-15511739D01*
X7404802Y-15511739D02*
X7528611Y-15511739D01*
X7757183Y-15578405D02*
X7757183Y-15378405D01*
X7842897Y-15578405D02*
X7842897Y-15473644D01*
X7842897Y-15473644D02*
X7833373Y-15454596D01*
X7833373Y-15454596D02*
X7814326Y-15445072D01*
X7814326Y-15445072D02*
X7785754Y-15445072D01*
X7785754Y-15445072D02*
X7766707Y-15454596D01*
X7766707Y-15454596D02*
X7757183Y-15464120D01*
X7966707Y-15578405D02*
X7947659Y-15568882D01*
X7947659Y-15568882D02*
X7938135Y-15559358D01*
X7938135Y-15559358D02*
X7928612Y-15540310D01*
X7928612Y-15540310D02*
X7928612Y-15483167D01*
X7928612Y-15483167D02*
X7938135Y-15464120D01*
X7938135Y-15464120D02*
X7947659Y-15454596D01*
X7947659Y-15454596D02*
X7966707Y-15445072D01*
X7966707Y-15445072D02*
X7995278Y-15445072D01*
X7995278Y-15445072D02*
X8014326Y-15454596D01*
X8014326Y-15454596D02*
X8023850Y-15464120D01*
X8023850Y-15464120D02*
X8033373Y-15483167D01*
X8033373Y-15483167D02*
X8033373Y-15540310D01*
X8033373Y-15540310D02*
X8023850Y-15559358D01*
X8023850Y-15559358D02*
X8014326Y-15568882D01*
X8014326Y-15568882D02*
X7995278Y-15578405D01*
X7995278Y-15578405D02*
X7966707Y-15578405D01*
X8147659Y-15578405D02*
X8128612Y-15568882D01*
X8128612Y-15568882D02*
X8119088Y-15549834D01*
X8119088Y-15549834D02*
X8119088Y-15378405D01*
X8300040Y-15568882D02*
X8280993Y-15578405D01*
X8280993Y-15578405D02*
X8242897Y-15578405D01*
X8242897Y-15578405D02*
X8223850Y-15568882D01*
X8223850Y-15568882D02*
X8214326Y-15549834D01*
X8214326Y-15549834D02*
X8214326Y-15473644D01*
X8214326Y-15473644D02*
X8223850Y-15454596D01*
X8223850Y-15454596D02*
X8242897Y-15445072D01*
X8242897Y-15445072D02*
X8280993Y-15445072D01*
X8280993Y-15445072D02*
X8300040Y-15454596D01*
X8300040Y-15454596D02*
X8309564Y-15473644D01*
X8309564Y-15473644D02*
X8309564Y-15492691D01*
X8309564Y-15492691D02*
X8214326Y-15511739D01*
X8385754Y-15568882D02*
X8404802Y-15578405D01*
X8404802Y-15578405D02*
X8442897Y-15578405D01*
X8442897Y-15578405D02*
X8461945Y-15568882D01*
X8461945Y-15568882D02*
X8471469Y-15549834D01*
X8471469Y-15549834D02*
X8471469Y-15540310D01*
X8471469Y-15540310D02*
X8461945Y-15521263D01*
X8461945Y-15521263D02*
X8442897Y-15511739D01*
X8442897Y-15511739D02*
X8414326Y-15511739D01*
X8414326Y-15511739D02*
X8395278Y-15502215D01*
X8395278Y-15502215D02*
X8385754Y-15483167D01*
X8385754Y-15483167D02*
X8385754Y-15473644D01*
X8385754Y-15473644D02*
X8395278Y-15454596D01*
X8395278Y-15454596D02*
X8414326Y-15445072D01*
X8414326Y-15445072D02*
X8442897Y-15445072D01*
X8442897Y-15445072D02*
X8461945Y-15454596D01*
X8538136Y-15654596D02*
X8547659Y-15645072D01*
X8547659Y-15645072D02*
X8566707Y-15616501D01*
X8566707Y-15616501D02*
X8576231Y-15597453D01*
X8576231Y-15597453D02*
X8585755Y-15568882D01*
X8585755Y-15568882D02*
X8595278Y-15521263D01*
X8595278Y-15521263D02*
X8595278Y-15483167D01*
X8595278Y-15483167D02*
X8585755Y-15435548D01*
X8585755Y-15435548D02*
X8576231Y-15406977D01*
X8576231Y-15406977D02*
X8566707Y-15387929D01*
X8566707Y-15387929D02*
X8547659Y-15359358D01*
X8547659Y-15359358D02*
X8538136Y-15349834D01*
M02*
