%TF.GenerationSoftware,KiCad,Pcbnew,7.0.1*%
%TF.CreationDate,2023-05-27T21:31:49-04:00*%
%TF.ProjectId,pcb-left,7063622d-6c65-4667-942e-6b696361645f,0.3*%
%TF.SameCoordinates,Original*%
%TF.FileFunction,Soldermask,Bot*%
%TF.FilePolarity,Negative*%
%FSLAX46Y46*%
G04 Gerber Fmt 4.6, Leading zero omitted, Abs format (unit mm)*
G04 Created by KiCad (PCBNEW 7.0.1) date 2023-05-27 21:31:49*
%MOMM*%
%LPD*%
G01*
G04 APERTURE LIST*
G04 Aperture macros list*
%AMRotRect*
0 Rectangle, with rotation*
0 The origin of the aperture is its center*
0 $1 length*
0 $2 width*
0 $3 Rotation angle, in degrees counterclockwise*
0 Add horizontal line*
21,1,$1,$2,0,0,$3*%
G04 Aperture macros list end*
%ADD10C,1.701800*%
%ADD11C,3.000000*%
%ADD12C,3.429000*%
%ADD13R,2.600000X2.600000*%
%ADD14RotRect,2.600000X2.600000X150.000000*%
%ADD15RotRect,2.600000X2.600000X165.000000*%
%ADD16C,1.800000*%
%ADD17C,2.100000*%
%ADD18C,3.800000*%
%ADD19O,1.800000X2.750000*%
%ADD20C,1.397000*%
%ADD21RotRect,1.800000X1.500000X240.000000*%
%ADD22R,1.500000X1.800000*%
%ADD23RotRect,1.800000X1.500000X255.000000*%
G04 APERTURE END LIST*
D10*
%TO.C,SWL5*%
X122515625Y-54850000D03*
D11*
X123015625Y-58600000D03*
D12*
X128015625Y-54850000D03*
D11*
X128015625Y-60800000D03*
D10*
X133515625Y-54850000D03*
D13*
X131290625Y-60800000D03*
X119740625Y-58600000D03*
%TD*%
D10*
%TO.C,SWL13*%
X84515625Y-81925000D03*
D11*
X85015625Y-85675000D03*
D12*
X90015625Y-81925000D03*
D11*
X90015625Y-87875000D03*
D10*
X95515625Y-81925000D03*
D13*
X93290625Y-87875000D03*
X81740625Y-85675000D03*
%TD*%
D10*
%TO.C,SWL9*%
X103515625Y-69100000D03*
D11*
X104015625Y-72850000D03*
D12*
X109015625Y-69100000D03*
D11*
X109015625Y-75050000D03*
D10*
X114515625Y-69100000D03*
D13*
X112290625Y-75050000D03*
X100740625Y-72850000D03*
%TD*%
D10*
%TO.C,SWL18*%
X143677485Y-120975000D03*
D11*
X142235498Y-124472595D03*
D12*
X148440625Y-123725000D03*
D11*
X145465625Y-128877851D03*
D10*
X153203765Y-126475000D03*
D14*
X148301858Y-130515351D03*
X139399265Y-122835095D03*
%TD*%
D10*
%TO.C,SWL1*%
X46515625Y-65775000D03*
D11*
X47015625Y-69525000D03*
D12*
X52015625Y-65775000D03*
D11*
X52015625Y-71725000D03*
D10*
X57515625Y-65775000D03*
D13*
X55290625Y-71725000D03*
X43740625Y-69525000D03*
%TD*%
D10*
%TO.C,SWL17*%
X124128033Y-114226495D03*
D11*
X123640424Y-117978127D03*
D12*
X129440625Y-115650000D03*
D11*
X127900652Y-121397259D03*
D10*
X134753217Y-117073505D03*
D15*
X131064059Y-122244891D03*
X120477017Y-117130494D03*
%TD*%
D10*
%TO.C,SWL7*%
X65515625Y-69100000D03*
D11*
X66015625Y-72850000D03*
D12*
X71015625Y-69100000D03*
D11*
X71015625Y-75050000D03*
D10*
X76515625Y-69100000D03*
D13*
X74290625Y-75050000D03*
X62740625Y-72850000D03*
%TD*%
D10*
%TO.C,SWL15*%
X122515625Y-92850000D03*
D11*
X123015625Y-96600000D03*
D12*
X128015625Y-92850000D03*
D11*
X128015625Y-98800000D03*
D10*
X133515625Y-92850000D03*
D13*
X131290625Y-98800000D03*
X119740625Y-96600000D03*
%TD*%
D10*
%TO.C,SWL4*%
X103515625Y-50100000D03*
D11*
X104015625Y-53850000D03*
D12*
X109015625Y-50100000D03*
D11*
X109015625Y-56050000D03*
D10*
X114515625Y-50100000D03*
D13*
X112290625Y-56050000D03*
X100740625Y-53850000D03*
%TD*%
D10*
%TO.C,SWL14*%
X103515625Y-88100000D03*
D11*
X104015625Y-91850000D03*
D12*
X109015625Y-88100000D03*
D11*
X109015625Y-94050000D03*
D10*
X114515625Y-88100000D03*
D13*
X112290625Y-94050000D03*
X100740625Y-91850000D03*
%TD*%
D10*
%TO.C,SWL8*%
X84515625Y-62925000D03*
D11*
X85015625Y-66675000D03*
D12*
X90015625Y-62925000D03*
D11*
X90015625Y-68875000D03*
D10*
X95515625Y-62925000D03*
D13*
X93290625Y-68875000D03*
X81740625Y-66675000D03*
%TD*%
D10*
%TO.C,SWL10*%
X122515625Y-73850000D03*
D11*
X123015625Y-77600000D03*
D12*
X128015625Y-73850000D03*
D11*
X128015625Y-79800000D03*
D10*
X133515625Y-73850000D03*
D13*
X131290625Y-79800000D03*
X119740625Y-77600000D03*
%TD*%
D10*
%TO.C,SWL11*%
X46515625Y-103775000D03*
D11*
X47015625Y-107525000D03*
D12*
X52015625Y-103775000D03*
D11*
X52015625Y-109725000D03*
D10*
X57515625Y-103775000D03*
D13*
X55290625Y-109725000D03*
X43740625Y-107525000D03*
%TD*%
D10*
%TO.C,SWL3*%
X84515625Y-43925000D03*
D11*
X85015625Y-47675000D03*
D12*
X90015625Y-43925000D03*
D11*
X90015625Y-49875000D03*
D10*
X95515625Y-43925000D03*
D13*
X93290625Y-49875000D03*
X81740625Y-47675000D03*
%TD*%
D10*
%TO.C,SWL6*%
X46515625Y-84775000D03*
D11*
X47015625Y-88525000D03*
D12*
X52015625Y-84775000D03*
D11*
X52015625Y-90725000D03*
D10*
X57515625Y-84775000D03*
D13*
X55290625Y-90725000D03*
X43740625Y-88525000D03*
%TD*%
D16*
%TO.C,RSW1*%
X126240625Y-38830000D03*
X121240625Y-38830000D03*
D17*
X120240625Y-41330000D03*
X127240625Y-41330000D03*
%TD*%
D18*
%TO.C,REF\u002A\u002A*%
X139512297Y-103739073D03*
%TD*%
D19*
%TO.C,U1*%
X40595625Y-53920000D03*
X43135625Y-53920000D03*
X45675625Y-53920000D03*
X48215625Y-53920000D03*
X50755625Y-53920000D03*
X53295625Y-53920000D03*
X55835625Y-53920000D03*
X55835625Y-37730000D03*
X53295625Y-37730000D03*
X50755625Y-37730000D03*
X48215625Y-37730000D03*
X45675625Y-37730000D03*
X43135625Y-37730000D03*
X40595625Y-37730000D03*
D20*
X39643625Y-47095000D03*
X39643625Y-44555000D03*
X42183625Y-47095000D03*
X42183625Y-44555000D03*
X47898625Y-50270000D03*
X45993625Y-50270000D03*
%TD*%
D18*
%TO.C,REF\u002A\u002A*%
X40522298Y-115278567D03*
%TD*%
%TO.C,REF\u002A\u002A*%
X139512298Y-38603567D03*
%TD*%
D10*
%TO.C,SWL12*%
X65515625Y-88100000D03*
D11*
X66015625Y-91850000D03*
D12*
X71015625Y-88100000D03*
D11*
X71015625Y-94050000D03*
D10*
X76515625Y-88100000D03*
D13*
X74290625Y-94050000D03*
X62740625Y-91850000D03*
%TD*%
D10*
%TO.C,SWL2*%
X65515625Y-50100000D03*
D11*
X66015625Y-53850000D03*
D12*
X71015625Y-50100000D03*
D11*
X71015625Y-56050000D03*
D10*
X76515625Y-50100000D03*
D13*
X74290625Y-56050000D03*
X62740625Y-53850000D03*
%TD*%
D18*
%TO.C,REF\u002A\u002A*%
X62262298Y-38603567D03*
%TD*%
D10*
%TO.C,SWL16*%
X103515625Y-112800000D03*
D11*
X104015625Y-116550000D03*
D12*
X109015625Y-112800000D03*
D11*
X109015625Y-118750000D03*
D10*
X114515625Y-112800000D03*
D13*
X112290625Y-118750000D03*
X100740625Y-116550000D03*
%TD*%
D21*
%TO.C,DL18*%
X145490625Y-112752757D03*
X143790625Y-115697243D03*
%TD*%
D22*
%TO.C,DL13*%
X81940625Y-74050000D03*
X81940625Y-77450000D03*
%TD*%
%TO.C,DL3*%
X81940625Y-36050000D03*
X81940625Y-39450000D03*
%TD*%
%TO.C,DL2*%
X62940625Y-42225000D03*
X62940625Y-45625000D03*
%TD*%
%TO.C,DL9*%
X100940625Y-61225000D03*
X100940625Y-64625000D03*
%TD*%
%TO.C,DL5*%
X119940625Y-46975000D03*
X119940625Y-50375000D03*
%TD*%
%TO.C,DL11*%
X43921875Y-95900000D03*
X43921875Y-99300000D03*
%TD*%
D23*
%TO.C,DL17*%
X123705617Y-105932926D03*
X122825633Y-109217074D03*
%TD*%
D22*
%TO.C,DL14*%
X100940625Y-80225000D03*
X100940625Y-83625000D03*
%TD*%
%TO.C,DL1*%
X43921875Y-57900000D03*
X43921875Y-61300000D03*
%TD*%
%TO.C,DL15*%
X119940625Y-84975000D03*
X119940625Y-88375000D03*
%TD*%
%TO.C,DL6*%
X43940625Y-76900000D03*
X43940625Y-80300000D03*
%TD*%
%TO.C,DL4*%
X100940625Y-42225000D03*
X100940625Y-45625000D03*
%TD*%
%TO.C,DL7*%
X62940625Y-61225000D03*
X62940625Y-64625000D03*
%TD*%
%TO.C,DL10*%
X119940625Y-65975000D03*
X119940625Y-69375000D03*
%TD*%
%TO.C,DL12*%
X62940625Y-80225000D03*
X62940625Y-83625000D03*
%TD*%
%TO.C,DL16*%
X100940625Y-105065625D03*
X100940625Y-108465625D03*
%TD*%
%TO.C,DL8*%
X81940625Y-55050000D03*
X81940625Y-58450000D03*
%TD*%
M02*
