M48
; DRILL file {KiCad 7.0.1} date Sat May 27 21:32:00 2023
; FORMAT={-:-/ absolute / metric / decimal}
; #@! TF.CreationDate,2023-05-27T21:32:00-04:00
; #@! TF.GenerationSoftware,Kicad,Pcbnew,7.0.1
; #@! TF.FileFunction,NonPlated,1,2,NPTH
FMAT,2
METRIC
; #@! TA.AperFunction,NonPlated,NPTH,ComponentDrill
T1C1.702
; #@! TA.AperFunction,NonPlated,NPTH,ComponentDrill
T2C3.000
; #@! TA.AperFunction,NonPlated,NPTH,ComponentDrill
T3C3.429
%
G90
G05
T1
X46.516Y-65.775
X46.516Y-84.775
X46.516Y-103.775
X57.516Y-65.775
X57.516Y-84.775
X57.516Y-103.775
X65.516Y-50.1
X65.516Y-69.1
X65.516Y-88.1
X76.516Y-50.1
X76.516Y-69.1
X76.516Y-88.1
X84.516Y-43.925
X84.516Y-62.925
X84.516Y-81.925
X95.516Y-43.925
X95.516Y-62.925
X95.516Y-81.925
X103.516Y-50.1
X103.516Y-69.1
X103.516Y-88.1
X103.516Y-112.8
X114.516Y-50.1
X114.516Y-69.1
X114.516Y-88.1
X114.516Y-112.8
X122.516Y-54.85
X122.516Y-73.85
X122.516Y-92.85
X124.128Y-114.226
X133.516Y-54.85
X133.516Y-73.85
X133.516Y-92.85
X134.753Y-117.074
X143.677Y-120.975
X153.204Y-126.475
T2
X47.016Y-69.525
X47.016Y-88.525
X47.016Y-107.525
X52.016Y-71.725
X52.016Y-90.725
X52.016Y-109.725
X66.016Y-53.85
X66.016Y-72.85
X66.016Y-91.85
X71.016Y-56.05
X71.016Y-75.05
X71.016Y-94.05
X85.016Y-47.675
X85.016Y-66.675
X85.016Y-85.675
X90.016Y-49.875
X90.016Y-68.875
X90.016Y-87.875
X104.016Y-53.85
X104.016Y-72.85
X104.016Y-91.85
X104.016Y-116.55
X109.016Y-56.05
X109.016Y-75.05
X109.016Y-94.05
X109.016Y-118.75
X123.016Y-58.6
X123.016Y-77.6
X123.016Y-96.6
X123.64Y-117.978
X127.901Y-121.397
X128.016Y-60.8
X128.016Y-79.8
X128.016Y-98.8
X142.235Y-124.473
X145.466Y-128.878
T3
X52.016Y-65.775
X52.016Y-84.775
X52.016Y-103.775
X71.016Y-50.1
X71.016Y-69.1
X71.016Y-88.1
X90.016Y-43.925
X90.016Y-62.925
X90.016Y-81.925
X109.016Y-50.1
X109.016Y-69.1
X109.016Y-88.1
X109.016Y-112.8
X128.016Y-54.85
X128.016Y-73.85
X128.016Y-92.85
X129.441Y-115.65
X148.441Y-123.725
T0
M30
