%TF.GenerationSoftware,KiCad,Pcbnew,7.0.1*%
%TF.CreationDate,2023-05-27T21:31:49-04:00*%
%TF.ProjectId,pcb-left,7063622d-6c65-4667-942e-6b696361645f,0.3*%
%TF.SameCoordinates,Original*%
%TF.FileFunction,Profile,NP*%
%FSLAX46Y46*%
G04 Gerber Fmt 4.6, Leading zero omitted, Abs format (unit mm)*
G04 Created by KiCad (PCBNEW 7.0.1) date 2023-05-27 21:31:49*
%MOMM*%
%LPD*%
G01*
G04 APERTURE LIST*
%TA.AperFunction,Profile*%
%ADD10C,0.020000*%
%TD*%
%ADD11C,0.020000*%
%TA.AperFunction,Profile*%
%ADD12C,0.120000*%
%TD*%
G04 APERTURE END LIST*
D10*
X143197303Y-132821820D02*
X151857557Y-137821820D01*
X80022303Y-33428553D02*
X100022303Y-33428553D01*
D11*
X136767751Y-129505007D02*
X136829031Y-129533012D01*
X136890531Y-129561187D01*
X136952489Y-129589651D01*
X137015139Y-129618523D01*
X137078718Y-129647924D01*
X137143461Y-129677973D01*
X137209605Y-129708791D01*
X137277386Y-129740497D01*
X137347038Y-129773211D01*
X137418799Y-129807054D01*
X137492904Y-129842145D01*
X137569590Y-129878604D01*
X137649091Y-129916551D01*
X137731645Y-129956106D01*
X137817486Y-129997388D01*
X137906852Y-130040519D01*
X137999977Y-130085617D01*
X138097098Y-130132802D01*
X138198450Y-130182195D01*
X138304271Y-130233916D01*
X138414795Y-130288084D01*
X138530258Y-130344819D01*
X138650897Y-130404241D01*
X138776947Y-130466470D01*
X138908645Y-130531627D01*
X139046226Y-130599830D01*
X139189926Y-130671200D01*
X139339981Y-130745857D01*
X139496628Y-130823921D01*
X139660101Y-130905511D01*
X139830637Y-130990748D01*
X140008473Y-131079752D01*
X112655078Y-123407094D02*
X112722825Y-123411000D01*
X112790821Y-123414993D01*
X112859328Y-123419103D01*
X112928607Y-123423357D01*
X112998920Y-123427782D01*
X113070529Y-123432408D01*
X113143695Y-123437261D01*
X113218680Y-123442370D01*
X113295746Y-123447763D01*
X113375155Y-123453468D01*
X113457167Y-123459513D01*
X113542046Y-123465926D01*
X113630051Y-123472735D01*
X113721446Y-123479968D01*
X113816492Y-123487652D01*
X113915451Y-123495817D01*
X114018583Y-123504490D01*
X114126151Y-123513699D01*
X114238417Y-123523471D01*
X114355643Y-123533836D01*
X114478089Y-123544821D01*
X114606017Y-123556454D01*
X114739690Y-123568763D01*
X114879369Y-123581776D01*
X115025316Y-123595521D01*
X115177792Y-123610026D01*
X115337059Y-123625320D01*
X115503378Y-123641429D01*
X115677012Y-123658383D01*
X115858222Y-123676209D01*
X116047270Y-123694934D01*
X116244418Y-123714589D01*
D10*
X38272303Y-35853553D02*
X79022303Y-35853553D01*
D11*
X116244418Y-123714589D02*
X116311340Y-123722262D01*
X116378508Y-123730037D01*
X116446180Y-123737953D01*
X116514614Y-123746054D01*
X116584068Y-123754382D01*
X116654800Y-123762979D01*
X116727070Y-123771888D01*
X116801135Y-123781151D01*
X116877254Y-123790809D01*
X116955685Y-123800906D01*
X117036686Y-123811483D01*
X117120516Y-123822584D01*
X117207433Y-123834249D01*
X117297695Y-123846522D01*
X117391562Y-123859445D01*
X117489290Y-123873059D01*
X117591139Y-123887408D01*
X117697367Y-123902534D01*
X117808232Y-123918478D01*
X117923993Y-123935283D01*
X118044907Y-123952992D01*
X118171234Y-123971646D01*
X118303231Y-123991288D01*
X118441157Y-124011961D01*
X118585271Y-124033706D01*
X118735830Y-124056565D01*
X118893093Y-124080582D01*
X119057319Y-124105798D01*
X119228765Y-124132256D01*
X119407690Y-124159997D01*
X119594353Y-124189065D01*
X119789012Y-124219501D01*
D10*
X100522247Y-33928553D02*
G75*
G03*
X100022303Y-33428553I-499847J153D01*
G01*
D11*
X123286630Y-124915409D02*
X123351787Y-124930252D01*
X123417182Y-124945220D01*
X123483064Y-124960382D01*
X123549685Y-124975807D01*
X123617296Y-124991565D01*
X123686148Y-125007725D01*
X123756493Y-125024357D01*
X123828580Y-125041531D01*
X123902663Y-125059316D01*
X123978990Y-125077782D01*
X124057815Y-125096999D01*
X124139388Y-125117035D01*
X124223959Y-125137962D01*
X124311781Y-125159847D01*
X124403104Y-125182762D01*
X124498179Y-125206775D01*
X124597258Y-125231956D01*
X124700592Y-125258375D01*
X124808431Y-125286101D01*
X124921027Y-125315204D01*
X125038632Y-125345754D01*
X125161496Y-125377819D01*
X125289870Y-125411471D01*
X125424005Y-125446778D01*
X125564153Y-125483809D01*
X125710565Y-125522636D01*
X125863492Y-125563326D01*
X126023184Y-125605950D01*
X126189894Y-125650578D01*
X126363872Y-125697278D01*
X126545370Y-125746121D01*
X126734638Y-125797177D01*
D10*
X100522247Y-35353553D02*
G75*
G03*
X101022303Y-35853553I500153J153D01*
G01*
X38272303Y-35853603D02*
G75*
G03*
X37772303Y-36353553I-3J-499997D01*
G01*
X79522303Y-33928553D02*
X79522303Y-35353553D01*
X37772247Y-117528553D02*
G75*
G03*
X38272303Y-118028553I500153J153D01*
G01*
X101022303Y-35853553D02*
X141772303Y-35853553D01*
D11*
X140008473Y-131079752D02*
X140068782Y-131110890D01*
X140129308Y-131142211D01*
X140190283Y-131173844D01*
X140251939Y-131205923D01*
X140314509Y-131238580D01*
X140378224Y-131271947D01*
X140443316Y-131306156D01*
X140510019Y-131341340D01*
X140578563Y-131377630D01*
X140649181Y-131415160D01*
X140722105Y-131454060D01*
X140797567Y-131494463D01*
X140875800Y-131536502D01*
X140957035Y-131580309D01*
X141041504Y-131626016D01*
X141129440Y-131673754D01*
X141221075Y-131723657D01*
X141316641Y-131775857D01*
X141416370Y-131830485D01*
X141520494Y-131887674D01*
X141629246Y-131947556D01*
X141742857Y-132010264D01*
X141861559Y-132075929D01*
X141985585Y-132144684D01*
X142115167Y-132216661D01*
X142250537Y-132291992D01*
X142391927Y-132370809D01*
X142539569Y-132453245D01*
X142693696Y-132539432D01*
X142854539Y-132629502D01*
X143022330Y-132723587D01*
X143197303Y-132821820D01*
X130131044Y-126859880D02*
X130194270Y-126881506D01*
X130257725Y-126903279D01*
X130321652Y-126925294D01*
X130386293Y-126947647D01*
X130451894Y-126970432D01*
X130518697Y-126993745D01*
X130586946Y-127017681D01*
X130656884Y-127042336D01*
X130728755Y-127067805D01*
X130802802Y-127094183D01*
X130879269Y-127121566D01*
X130958399Y-127150049D01*
X131040437Y-127179727D01*
X131125624Y-127210696D01*
X131214206Y-127243051D01*
X131306425Y-127276887D01*
X131402525Y-127312300D01*
X131502749Y-127349386D01*
X131607342Y-127388238D01*
X131716546Y-127428954D01*
X131830605Y-127471628D01*
X131949762Y-127516355D01*
X132074262Y-127563231D01*
X132204347Y-127612351D01*
X132340261Y-127663811D01*
X132482248Y-127717705D01*
X132630550Y-127774130D01*
X132785413Y-127833180D01*
X132947078Y-127894951D01*
X133115790Y-127959539D01*
X133291793Y-128027038D01*
X133475329Y-128097544D01*
D10*
X162540553Y-120318289D02*
G75*
G03*
X162357557Y-119635287I-433053J249989D01*
G01*
D11*
X126734638Y-125797177D02*
X126798841Y-125815463D01*
X126863278Y-125833886D01*
X126928193Y-125852527D01*
X126993835Y-125871470D01*
X127060452Y-125890796D01*
X127128290Y-125910589D01*
X127197597Y-125930931D01*
X127268620Y-125951905D01*
X127341606Y-125973593D01*
X127416803Y-125996079D01*
X127494458Y-126019445D01*
X127574819Y-126043774D01*
X127658132Y-126069148D01*
X127744645Y-126095650D01*
X127834606Y-126123363D01*
X127928262Y-126152370D01*
X128025859Y-126182753D01*
X128127646Y-126214595D01*
X128233869Y-126247978D01*
X128344777Y-126282986D01*
X128460615Y-126319701D01*
X128581633Y-126358205D01*
X128708076Y-126398582D01*
X128840193Y-126440914D01*
X128978230Y-126485284D01*
X129122435Y-126531775D01*
X129273056Y-126580468D01*
X129430339Y-126631448D01*
X129594532Y-126684796D01*
X129765882Y-126740596D01*
X129944637Y-126798929D01*
X130131044Y-126859880D01*
D10*
X99022303Y-123303553D02*
X109022303Y-123303553D01*
X98522247Y-118528553D02*
G75*
G03*
X98022303Y-118028553I-499847J153D01*
G01*
X100522303Y-33928553D02*
X100522303Y-35353553D01*
X98522303Y-118528553D02*
X98522303Y-122803553D01*
X162357557Y-119635286D02*
X142272303Y-108039059D01*
X152540570Y-137638807D02*
X162540570Y-120318299D01*
X80022303Y-33428603D02*
G75*
G03*
X79522303Y-33928553I-3J-499997D01*
G01*
X142272247Y-36353553D02*
G75*
G03*
X141772303Y-35853553I-499847J153D01*
G01*
X98522247Y-122803553D02*
G75*
G03*
X99022303Y-123303553I500153J153D01*
G01*
X151857570Y-137821798D02*
G75*
G03*
X152540570Y-137638807I250030J432898D01*
G01*
X37772303Y-36353553D02*
X37772303Y-117528553D01*
D11*
X133475329Y-128097544D02*
X133537579Y-128122397D01*
X133600054Y-128147408D01*
X133662993Y-128172684D01*
X133726637Y-128198332D01*
X133791223Y-128224461D01*
X133856994Y-128251178D01*
X133924187Y-128278591D01*
X133993044Y-128306807D01*
X134063803Y-128335934D01*
X134136704Y-128366081D01*
X134211988Y-128397353D01*
X134289893Y-128429860D01*
X134370660Y-128463709D01*
X134454528Y-128499007D01*
X134541737Y-128535863D01*
X134632526Y-128574383D01*
X134727136Y-128614676D01*
X134825807Y-128656849D01*
X134928777Y-128701011D01*
X135036286Y-128747268D01*
X135148575Y-128795728D01*
X135265883Y-128846499D01*
X135388450Y-128899689D01*
X135516515Y-128955405D01*
X135650319Y-129013755D01*
X135790100Y-129074847D01*
X135936099Y-129138789D01*
X136088556Y-129205688D01*
X136247710Y-129275651D01*
X136413800Y-129348787D01*
X136587067Y-129425203D01*
X136767751Y-129505007D01*
D10*
X142272303Y-36353553D02*
X142272303Y-108039059D01*
D11*
X119789012Y-124219501D02*
X119855076Y-124230814D01*
X119921382Y-124242239D01*
X119988183Y-124253832D01*
X120055735Y-124265649D01*
X120124293Y-124277747D01*
X120194111Y-124290181D01*
X120265445Y-124303008D01*
X120338548Y-124316284D01*
X120413677Y-124330064D01*
X120491085Y-124344406D01*
X120571028Y-124359364D01*
X120653760Y-124374996D01*
X120739536Y-124391357D01*
X120828612Y-124408503D01*
X120921241Y-124426491D01*
X121017680Y-124445376D01*
X121118182Y-124465215D01*
X121223002Y-124486064D01*
X121332396Y-124507979D01*
X121446617Y-124531016D01*
X121565922Y-124555232D01*
X121690564Y-124580681D01*
X121820799Y-124607421D01*
X121956882Y-124635508D01*
X122099066Y-124664997D01*
X122247608Y-124695945D01*
X122402762Y-124728408D01*
X122564783Y-124762441D01*
X122733925Y-124798102D01*
X122910444Y-124835446D01*
X123094593Y-124874530D01*
X123286630Y-124915409D01*
X109022303Y-123303553D02*
X109090858Y-123303585D01*
X109159667Y-123303692D01*
X109228992Y-123303886D01*
X109299100Y-123304181D01*
X109370254Y-123304589D01*
X109442721Y-123305125D01*
X109516764Y-123305801D01*
X109592648Y-123306631D01*
X109670640Y-123307628D01*
X109751002Y-123308804D01*
X109834001Y-123310175D01*
X109919901Y-123311751D01*
X110008967Y-123313548D01*
X110101464Y-123315578D01*
X110197657Y-123317854D01*
X110297811Y-123320390D01*
X110402190Y-123323199D01*
X110511060Y-123326294D01*
X110624685Y-123329689D01*
X110743331Y-123333396D01*
X110867261Y-123337429D01*
X110996742Y-123341801D01*
X111132038Y-123346526D01*
X111273413Y-123351616D01*
X111421133Y-123357085D01*
X111575463Y-123362947D01*
X111736667Y-123369213D01*
X111905011Y-123375899D01*
X112080759Y-123383017D01*
X112264176Y-123390579D01*
X112455527Y-123398601D01*
X112655078Y-123407094D01*
D10*
X79022303Y-35853603D02*
G75*
G03*
X79522303Y-35353553I-3J500003D01*
G01*
X38272303Y-118028553D02*
X98022303Y-118028553D01*
D12*
%TO.C,U1*%
X47466825Y-50524000D02*
X46425425Y-50524000D01*
X45739625Y-49838200D02*
X45739625Y-48238000D01*
X48152625Y-48238000D02*
X48152625Y-49838200D01*
X46120625Y-47857000D02*
X47771625Y-47857000D01*
X41751825Y-47349000D02*
X40075425Y-47349000D01*
X39389625Y-46663200D02*
X39389625Y-44986800D01*
X42437625Y-46663200D02*
X42437625Y-44986800D01*
X41751825Y-44301000D02*
X40075425Y-44301000D01*
X48152625Y-49838200D02*
G75*
G03*
X47466825Y-50524000I-247753J-438047D01*
G01*
X46425425Y-50524000D02*
G75*
G03*
X45739625Y-49838200I-438047J247753D01*
G01*
X46120625Y-47857000D02*
G75*
G03*
X45739625Y-48238000I-1J-380999D01*
G01*
X48152625Y-48238000D02*
G75*
G03*
X47771625Y-47857000I-380999J1D01*
G01*
X42437625Y-46663200D02*
G75*
G03*
X41751825Y-47349000I-247753J-438047D01*
G01*
X40075425Y-47349000D02*
G75*
G03*
X39389625Y-46663200I-438047J247753D01*
G01*
X41751825Y-44301000D02*
G75*
G03*
X42437625Y-44986800I438047J-247753D01*
G01*
X39389625Y-44986800D02*
G75*
G03*
X40075425Y-44301000I247750J438050D01*
G01*
%TD*%
M02*
