%TF.GenerationSoftware,KiCad,Pcbnew,7.0.1*%
%TF.CreationDate,2023-05-27T21:31:49-04:00*%
%TF.ProjectId,pcb-left,7063622d-6c65-4667-942e-6b696361645f,0.3*%
%TF.SameCoordinates,Original*%
%TF.FileFunction,Soldermask,Top*%
%TF.FilePolarity,Negative*%
%FSLAX46Y46*%
G04 Gerber Fmt 4.6, Leading zero omitted, Abs format (unit mm)*
G04 Created by KiCad (PCBNEW 7.0.1) date 2023-05-27 21:31:49*
%MOMM*%
%LPD*%
G01*
G04 APERTURE LIST*
G04 Aperture macros list*
%AMRoundRect*
0 Rectangle with rounded corners*
0 $1 Rounding radius*
0 $2 $3 $4 $5 $6 $7 $8 $9 X,Y pos of 4 corners*
0 Add a 4 corners polygon primitive as box body*
4,1,4,$2,$3,$4,$5,$6,$7,$8,$9,$2,$3,0*
0 Add four circle primitives for the rounded corners*
1,1,$1+$1,$2,$3*
1,1,$1+$1,$4,$5*
1,1,$1+$1,$6,$7*
1,1,$1+$1,$8,$9*
0 Add four rect primitives between the rounded corners*
20,1,$1+$1,$2,$3,$4,$5,0*
20,1,$1+$1,$4,$5,$6,$7,0*
20,1,$1+$1,$6,$7,$8,$9,0*
20,1,$1+$1,$8,$9,$2,$3,0*%
G04 Aperture macros list end*
%ADD10C,1.701800*%
%ADD11C,3.000000*%
%ADD12C,3.429000*%
%ADD13RoundRect,0.250000X1.500000X-0.250000X1.500000X0.250000X-1.500000X0.250000X-1.500000X-0.250000X0*%
%ADD14RoundRect,0.250001X1.449999X-0.499999X1.449999X0.499999X-1.449999X0.499999X-1.449999X-0.499999X0*%
%ADD15C,2.100000*%
%ADD16C,3.800000*%
%ADD17O,1.800000X2.750000*%
%ADD18C,1.397000*%
G04 APERTURE END LIST*
D10*
%TO.C,SWL5*%
X122515625Y-54850000D03*
D11*
X123015625Y-58600000D03*
D12*
X128015625Y-54850000D03*
D11*
X128015625Y-60800000D03*
D10*
X133515625Y-54850000D03*
%TD*%
%TO.C,SWL13*%
X84515625Y-81925000D03*
D11*
X85015625Y-85675000D03*
D12*
X90015625Y-81925000D03*
D11*
X90015625Y-87875000D03*
D10*
X95515625Y-81925000D03*
%TD*%
%TO.C,SWL9*%
X103515625Y-69100000D03*
D11*
X104015625Y-72850000D03*
D12*
X109015625Y-69100000D03*
D11*
X109015625Y-75050000D03*
D10*
X114515625Y-69100000D03*
%TD*%
%TO.C,SWL18*%
X143677485Y-120975000D03*
D11*
X142235498Y-124472595D03*
D12*
X148440625Y-123725000D03*
D11*
X145465625Y-128877851D03*
D10*
X153203765Y-126475000D03*
%TD*%
%TO.C,SWL1*%
X46515625Y-65775000D03*
D11*
X47015625Y-69525000D03*
D12*
X52015625Y-65775000D03*
D11*
X52015625Y-71725000D03*
D10*
X57515625Y-65775000D03*
%TD*%
%TO.C,SWL17*%
X124128033Y-114226495D03*
D11*
X123640424Y-117978127D03*
D12*
X129440625Y-115650000D03*
D11*
X127900652Y-121397259D03*
D10*
X134753217Y-117073505D03*
%TD*%
%TO.C,SWL7*%
X65515625Y-69100000D03*
D11*
X66015625Y-72850000D03*
D12*
X71015625Y-69100000D03*
D11*
X71015625Y-75050000D03*
D10*
X76515625Y-69100000D03*
%TD*%
%TO.C,SWL15*%
X122515625Y-92850000D03*
D11*
X123015625Y-96600000D03*
D12*
X128015625Y-92850000D03*
D11*
X128015625Y-98800000D03*
D10*
X133515625Y-92850000D03*
%TD*%
D13*
%TO.C,J1*%
X83840625Y-99075000D03*
X83840625Y-97075000D03*
D14*
X89590625Y-101425000D03*
X89590625Y-94725000D03*
%TD*%
D10*
%TO.C,SWL4*%
X103515625Y-50100000D03*
D11*
X104015625Y-53850000D03*
D12*
X109015625Y-50100000D03*
D11*
X109015625Y-56050000D03*
D10*
X114515625Y-50100000D03*
%TD*%
%TO.C,SWL14*%
X103515625Y-88100000D03*
D11*
X104015625Y-91850000D03*
D12*
X109015625Y-88100000D03*
D11*
X109015625Y-94050000D03*
D10*
X114515625Y-88100000D03*
%TD*%
%TO.C,SWL8*%
X84515625Y-62925000D03*
D11*
X85015625Y-66675000D03*
D12*
X90015625Y-62925000D03*
D11*
X90015625Y-68875000D03*
D10*
X95515625Y-62925000D03*
%TD*%
%TO.C,SWL10*%
X122515625Y-73850000D03*
D11*
X123015625Y-77600000D03*
D12*
X128015625Y-73850000D03*
D11*
X128015625Y-79800000D03*
D10*
X133515625Y-73850000D03*
%TD*%
%TO.C,SWL11*%
X46515625Y-103775000D03*
D11*
X47015625Y-107525000D03*
D12*
X52015625Y-103775000D03*
D11*
X52015625Y-109725000D03*
D10*
X57515625Y-103775000D03*
%TD*%
%TO.C,SWL3*%
X84515625Y-43925000D03*
D11*
X85015625Y-47675000D03*
D12*
X90015625Y-43925000D03*
D11*
X90015625Y-49875000D03*
D10*
X95515625Y-43925000D03*
%TD*%
%TO.C,SWL6*%
X46515625Y-84775000D03*
D11*
X47015625Y-88525000D03*
D12*
X52015625Y-84775000D03*
D11*
X52015625Y-90725000D03*
D10*
X57515625Y-84775000D03*
%TD*%
D15*
%TO.C,RSW1*%
X120240625Y-41330000D03*
X127240625Y-41330000D03*
%TD*%
D16*
%TO.C,REF\u002A\u002A*%
X139512297Y-103739073D03*
%TD*%
D17*
%TO.C,U1*%
X40595625Y-53920000D03*
X43135625Y-53920000D03*
X45675625Y-53920000D03*
X48215625Y-53920000D03*
X50755625Y-53920000D03*
X53295625Y-53920000D03*
X55835625Y-53920000D03*
X55835625Y-37730000D03*
X53295625Y-37730000D03*
X50755625Y-37730000D03*
X48215625Y-37730000D03*
X45675625Y-37730000D03*
X43135625Y-37730000D03*
X40595625Y-37730000D03*
D18*
X39643625Y-47095000D03*
X39643625Y-44555000D03*
X42183625Y-47095000D03*
X42183625Y-44555000D03*
X47898625Y-50270000D03*
X45993625Y-50270000D03*
%TD*%
D16*
%TO.C,REF\u002A\u002A*%
X40522298Y-115278567D03*
%TD*%
%TO.C,REF\u002A\u002A*%
X139512298Y-38603567D03*
%TD*%
D10*
%TO.C,SWL12*%
X65515625Y-88100000D03*
D11*
X66015625Y-91850000D03*
D12*
X71015625Y-88100000D03*
D11*
X71015625Y-94050000D03*
D10*
X76515625Y-88100000D03*
%TD*%
%TO.C,SWL2*%
X65515625Y-50100000D03*
D11*
X66015625Y-53850000D03*
D12*
X71015625Y-50100000D03*
D11*
X71015625Y-56050000D03*
D10*
X76515625Y-50100000D03*
%TD*%
D16*
%TO.C,REF\u002A\u002A*%
X62262298Y-38603567D03*
%TD*%
D10*
%TO.C,SWL16*%
X103515625Y-112800000D03*
D11*
X104015625Y-116550000D03*
D12*
X109015625Y-112800000D03*
D11*
X109015625Y-118750000D03*
D10*
X114515625Y-112800000D03*
%TD*%
M02*
